G75*
%MOIN*%
%OFA0B0*%
%FSLAX24Y24*%
%IPPOS*%
%LPD*%
%AMOC8*
5,1,8,0,0,1.08239X$1,22.5*
%
%ADD10C,0.0100*%
%ADD11C,0.0120*%
%ADD12C,0.0040*%
%ADD13R,0.0167X0.0128*%
%ADD14R,0.0138X0.0138*%
%ADD15C,0.0080*%
%ADD16C,0.0060*%
%ADD17C,0.0050*%
%ADD18C,0.0030*%
%ADD19C,0.0000*%
%ADD20R,0.0380X0.0660*%
%ADD21C,0.0010*%
%ADD22C,0.0039*%
D10*
X004720Y004240D02*
X022800Y004240D01*
X022878Y004238D01*
X022955Y004240D01*
X023032Y004245D01*
X023109Y004255D01*
X023186Y004268D01*
X023261Y004286D01*
X023336Y004307D01*
X023409Y004332D01*
X023481Y004360D01*
X023552Y004392D01*
X023621Y004428D01*
X023687Y004467D01*
X023752Y004510D01*
X023815Y004556D01*
X023875Y004605D01*
X023932Y004657D01*
X023987Y004711D01*
X024039Y004769D01*
X024088Y004829D01*
X024134Y004891D01*
X024177Y004956D01*
X024216Y005023D01*
X024252Y005091D01*
X024285Y005162D01*
X024313Y005234D01*
X024338Y005307D01*
X024360Y005382D01*
X024377Y005457D01*
X024391Y005534D01*
X024400Y005610D01*
X024406Y005688D01*
X024408Y005765D01*
X024406Y005843D01*
X024400Y005920D01*
X024400Y021680D01*
X024404Y021774D01*
X024405Y021867D01*
X024401Y021961D01*
X024394Y022054D01*
X024383Y022147D01*
X024367Y022239D01*
X024348Y022330D01*
X024325Y022421D01*
X024299Y022510D01*
X024268Y022599D01*
X024234Y022686D01*
X024196Y022771D01*
X024155Y022855D01*
X024110Y022937D01*
X024062Y023017D01*
X024010Y023095D01*
X023955Y023171D01*
X023897Y023244D01*
X023836Y023314D01*
X023772Y023383D01*
X023705Y023448D01*
X023636Y023510D01*
X023563Y023570D01*
X023489Y023626D01*
X023412Y023679D01*
X023333Y023729D01*
X023252Y023776D01*
X023169Y023819D01*
X023084Y023858D01*
X022998Y023894D01*
X022910Y023926D01*
X022821Y023955D01*
X022731Y023979D01*
X022640Y024000D01*
X005600Y024000D01*
X005512Y024004D01*
X005423Y024003D01*
X005335Y024000D01*
X005247Y023992D01*
X005159Y023980D01*
X005072Y023965D01*
X004986Y023946D01*
X004900Y023923D01*
X004816Y023897D01*
X004733Y023867D01*
X004651Y023833D01*
X004571Y023796D01*
X004492Y023756D01*
X004415Y023712D01*
X004340Y023665D01*
X004268Y023615D01*
X004197Y023561D01*
X004129Y023505D01*
X004064Y023446D01*
X004001Y023384D01*
X003940Y023319D01*
X003883Y023252D01*
X003828Y023182D01*
X003777Y023110D01*
X003729Y023036D01*
X003684Y022960D01*
X003642Y022882D01*
X003604Y022802D01*
X003569Y022721D01*
X003538Y022638D01*
X003510Y022554D01*
X003486Y022469D01*
X003466Y022383D01*
X003449Y022296D01*
X003437Y022209D01*
X003428Y022121D01*
X003422Y022032D01*
X003421Y021944D01*
X003423Y021856D01*
X003430Y021768D01*
X003440Y021680D01*
X003440Y005600D01*
X003439Y005528D01*
X003443Y005457D01*
X003451Y005386D01*
X003462Y005315D01*
X003477Y005245D01*
X003496Y005176D01*
X003519Y005108D01*
X003545Y005042D01*
X003575Y004977D01*
X003608Y004914D01*
X003645Y004852D01*
X003685Y004793D01*
X003728Y004736D01*
X003774Y004681D01*
X003823Y004629D01*
X003875Y004580D01*
X003929Y004533D01*
X003986Y004490D01*
X004045Y004449D01*
X004106Y004412D01*
X004169Y004378D01*
X004234Y004348D01*
X004300Y004322D01*
X004368Y004298D01*
X004437Y004279D01*
X004507Y004263D01*
X004577Y004252D01*
X004649Y004244D01*
X004720Y004240D01*
D11*
X006140Y005791D02*
X007061Y005791D01*
X006600Y006251D02*
X006600Y005330D01*
D12*
X005097Y005277D02*
X005020Y005200D01*
X004866Y005200D01*
X004790Y005277D01*
X004790Y005430D02*
X004943Y005507D01*
X005020Y005507D01*
X005097Y005430D01*
X005097Y005277D01*
X004790Y005430D02*
X004790Y005660D01*
X005097Y005660D01*
X004636Y005584D02*
X004559Y005660D01*
X004406Y005660D01*
X004329Y005584D01*
X004329Y005277D01*
X004406Y005200D01*
X004559Y005200D01*
X004636Y005277D01*
X010862Y007740D02*
X010939Y007663D01*
X011092Y007663D01*
X011169Y007740D01*
X011322Y007893D02*
X011552Y008123D01*
X011552Y007663D01*
X011720Y007653D02*
X011720Y007500D01*
X011720Y007577D02*
X012180Y007577D01*
X012180Y007653D02*
X012180Y007500D01*
X012103Y007807D02*
X012180Y007884D01*
X012180Y008037D01*
X012103Y008114D01*
X012180Y008267D02*
X012180Y008574D01*
X012180Y008421D02*
X011720Y008421D01*
X011873Y008267D01*
X011796Y008114D02*
X011720Y008037D01*
X011720Y007884D01*
X011796Y007807D01*
X012103Y007807D01*
X011629Y007893D02*
X011322Y007893D01*
X011169Y008046D02*
X011092Y008123D01*
X010939Y008123D01*
X010862Y008046D01*
X010862Y007740D01*
X012950Y007364D02*
X012950Y007057D01*
X013027Y006980D01*
X013180Y006980D01*
X013257Y007057D01*
X013410Y007057D02*
X013410Y006980D01*
X013410Y007057D02*
X013717Y007364D01*
X013717Y007440D01*
X013410Y007440D01*
X013257Y007364D02*
X013180Y007440D01*
X013027Y007440D01*
X012950Y007364D01*
X014409Y006144D02*
X014409Y005837D01*
X014486Y005760D01*
X014639Y005760D01*
X014716Y005837D01*
X014870Y005837D02*
X014946Y005760D01*
X015100Y005760D01*
X015177Y005837D01*
X015177Y005913D01*
X015100Y005990D01*
X014870Y005990D01*
X014870Y005837D01*
X014870Y005990D02*
X015023Y006144D01*
X015177Y006220D01*
X014716Y006144D02*
X014639Y006220D01*
X014486Y006220D01*
X014409Y006144D01*
X018249Y008597D02*
X018326Y008520D01*
X018479Y008520D01*
X018556Y008597D01*
X018709Y008520D02*
X019016Y008520D01*
X018863Y008520D02*
X018863Y008980D01*
X018709Y008827D01*
X018556Y008904D02*
X018479Y008980D01*
X018326Y008980D01*
X018249Y008904D01*
X018249Y008597D01*
X018218Y009013D02*
X018371Y009013D01*
X018448Y009090D01*
X018602Y009090D02*
X018602Y009167D01*
X018678Y009243D01*
X018832Y009243D01*
X018909Y009167D01*
X018909Y009090D01*
X018832Y009013D01*
X018678Y009013D01*
X018602Y009090D01*
X018678Y009243D02*
X018602Y009320D01*
X018602Y009397D01*
X018678Y009474D01*
X018832Y009474D01*
X018909Y009397D01*
X018909Y009320D01*
X018832Y009243D01*
X018903Y009260D02*
X018903Y009720D01*
X018749Y009567D01*
X018596Y009644D02*
X018519Y009720D01*
X018366Y009720D01*
X018289Y009644D01*
X018289Y009337D01*
X018366Y009260D01*
X018519Y009260D01*
X018596Y009337D01*
X018448Y009397D02*
X018371Y009474D01*
X018218Y009474D01*
X018141Y009397D01*
X018141Y009090D01*
X018218Y009013D01*
X018749Y009260D02*
X019056Y009260D01*
X019210Y009260D02*
X019517Y009567D01*
X019517Y009644D01*
X019440Y009720D01*
X019286Y009720D01*
X019210Y009644D01*
X019210Y009260D02*
X019517Y009260D01*
X019323Y008980D02*
X019323Y008520D01*
X019170Y008520D02*
X019477Y008520D01*
X019170Y008827D02*
X019323Y008980D01*
X019958Y008740D02*
X019958Y008280D01*
X020265Y008280D01*
X020380Y008351D02*
X020610Y008121D01*
X020610Y008428D01*
X020572Y008510D02*
X020418Y008510D01*
X020380Y008351D02*
X020840Y008351D01*
X020879Y008280D02*
X021109Y008280D01*
X021186Y008357D01*
X021186Y008664D01*
X021109Y008740D01*
X020879Y008740D01*
X020879Y008280D01*
X020725Y008280D02*
X020418Y008280D01*
X020418Y008740D01*
X020725Y008740D01*
X021339Y008587D02*
X021493Y008740D01*
X021493Y008280D01*
X021510Y008274D02*
X021510Y008351D01*
X021587Y008428D01*
X021663Y008428D01*
X021740Y008351D01*
X021740Y008198D01*
X021663Y008121D01*
X021646Y008280D02*
X021339Y008280D01*
X021280Y008351D02*
X021356Y008428D01*
X021433Y008428D01*
X021510Y008351D01*
X021280Y008351D02*
X021280Y008198D01*
X021356Y008121D01*
X021280Y007814D02*
X021740Y007814D01*
X021740Y007967D02*
X021740Y007660D01*
X021740Y007507D02*
X021587Y007353D01*
X021587Y007430D02*
X021587Y007200D01*
X021740Y007200D02*
X021280Y007200D01*
X021280Y007430D01*
X021356Y007507D01*
X021510Y007507D01*
X021587Y007430D01*
X021433Y007660D02*
X021280Y007814D01*
X020840Y007814D02*
X020380Y007814D01*
X020533Y007660D01*
X020456Y007507D02*
X020610Y007507D01*
X020687Y007430D01*
X020687Y007200D01*
X020840Y007200D02*
X020380Y007200D01*
X020380Y007430D01*
X020456Y007507D01*
X020687Y007353D02*
X020840Y007507D01*
X020840Y007660D02*
X020840Y007967D01*
X021800Y008280D02*
X022107Y008587D01*
X022107Y008664D01*
X022030Y008740D01*
X021876Y008740D01*
X021800Y008664D01*
X021800Y008280D02*
X022107Y008280D01*
X023300Y008900D02*
X023300Y009360D01*
X023530Y009360D01*
X023607Y009284D01*
X023607Y009130D01*
X023530Y009053D01*
X023300Y009053D01*
X023453Y009053D02*
X023607Y008900D01*
X023760Y008900D02*
X024067Y008900D01*
X023914Y008900D02*
X023914Y009360D01*
X023760Y009207D01*
X022540Y010820D02*
X022080Y010820D01*
X022080Y011050D01*
X022156Y011127D01*
X022310Y011127D01*
X022387Y011050D01*
X022387Y010820D01*
X022387Y010973D02*
X022540Y011127D01*
X022463Y011280D02*
X022540Y011357D01*
X022540Y011511D01*
X022463Y011587D01*
X022310Y011587D01*
X022233Y011511D01*
X022233Y011434D01*
X022310Y011280D01*
X022080Y011280D01*
X022080Y011587D01*
X021568Y011040D02*
X021568Y010964D01*
X021261Y010657D01*
X021261Y010580D01*
X021107Y010580D02*
X020800Y010580D01*
X021107Y010887D01*
X021107Y010964D01*
X021031Y011040D01*
X020877Y011040D01*
X020800Y010964D01*
X020647Y010964D02*
X020647Y010810D01*
X020570Y010733D01*
X020340Y010733D01*
X020340Y010580D02*
X020340Y011040D01*
X020570Y011040D01*
X020647Y010964D01*
X020493Y010733D02*
X020647Y010580D01*
X021261Y011040D02*
X021568Y011040D01*
X020863Y012550D02*
X020556Y012550D01*
X020480Y012627D01*
X020480Y012780D01*
X020556Y012857D01*
X020633Y013010D02*
X020480Y013164D01*
X020940Y013164D01*
X020940Y013317D02*
X020940Y013010D01*
X020863Y012857D02*
X020940Y012780D01*
X020940Y012627D01*
X020863Y012550D01*
X020710Y013471D02*
X020480Y013701D01*
X020940Y013701D01*
X020710Y013778D02*
X020710Y013471D01*
X021819Y014640D02*
X021819Y015100D01*
X022049Y015100D01*
X022126Y015024D01*
X022126Y014870D01*
X022049Y014793D01*
X021819Y014793D01*
X021973Y014793D02*
X022126Y014640D01*
X022280Y014717D02*
X022356Y014640D01*
X022510Y014640D01*
X022587Y014717D01*
X022587Y014793D01*
X022510Y014870D01*
X022280Y014870D01*
X022280Y014717D01*
X022280Y014870D02*
X022433Y015024D01*
X022587Y015100D01*
X023536Y016829D02*
X023843Y016829D01*
X023920Y016906D01*
X023920Y017059D01*
X023843Y017136D01*
X023920Y017289D02*
X023920Y017596D01*
X023920Y017443D02*
X023460Y017443D01*
X023613Y017289D01*
X023536Y017136D02*
X023460Y017059D01*
X023460Y016906D01*
X023536Y016829D01*
X023460Y017750D02*
X023690Y017750D01*
X023613Y017903D01*
X023613Y017980D01*
X023690Y018057D01*
X023843Y018057D01*
X023920Y017980D01*
X023920Y017826D01*
X023843Y017750D01*
X023460Y017750D02*
X023460Y018057D01*
X018667Y018640D02*
X018360Y018640D01*
X018667Y018947D01*
X018667Y019024D01*
X018590Y019100D01*
X018436Y019100D01*
X018360Y019024D01*
X018053Y019100D02*
X018053Y018640D01*
X018206Y018640D02*
X017899Y018640D01*
X017746Y018640D02*
X017592Y018793D01*
X017669Y018793D02*
X017439Y018793D01*
X017520Y018723D02*
X017060Y018723D01*
X017213Y018569D01*
X017136Y018416D02*
X017060Y018339D01*
X017060Y018186D01*
X017136Y018109D01*
X017443Y018109D01*
X017520Y018186D01*
X017520Y018339D01*
X017443Y018416D01*
X017520Y018569D02*
X017520Y018876D01*
X017669Y018793D02*
X017746Y018870D01*
X017746Y019024D01*
X017669Y019100D01*
X017439Y019100D01*
X017439Y018640D01*
X017443Y019030D02*
X017520Y019106D01*
X017520Y019260D01*
X017443Y019337D01*
X017367Y019337D01*
X017290Y019260D01*
X017290Y019030D01*
X017443Y019030D01*
X017290Y019030D02*
X017136Y019183D01*
X017060Y019337D01*
X017899Y018947D02*
X018053Y019100D01*
X017981Y017840D02*
X017981Y017610D01*
X018134Y017687D01*
X018211Y017687D01*
X018288Y017610D01*
X018288Y017457D01*
X018211Y017380D01*
X018058Y017380D01*
X017981Y017457D01*
X017827Y017380D02*
X017520Y017380D01*
X017367Y017380D02*
X017213Y017533D01*
X017290Y017533D02*
X017060Y017533D01*
X017060Y017380D02*
X017060Y017840D01*
X017290Y017840D01*
X017367Y017764D01*
X017367Y017610D01*
X017290Y017533D01*
X017520Y017687D02*
X017674Y017840D01*
X017674Y017380D01*
X017981Y017840D02*
X018288Y017840D01*
X016223Y015618D02*
X015916Y015618D01*
X016223Y015311D01*
X016300Y015388D01*
X016300Y015541D01*
X016223Y015618D01*
X015916Y015618D02*
X015840Y015541D01*
X015840Y015388D01*
X015916Y015311D01*
X016223Y015311D01*
X016300Y015157D02*
X016300Y014850D01*
X016300Y015004D02*
X015840Y015004D01*
X015993Y014850D01*
X015916Y014697D02*
X015840Y014620D01*
X015840Y014467D01*
X015916Y014390D01*
X016223Y014390D01*
X016300Y014467D01*
X016300Y014620D01*
X016223Y014697D01*
X014960Y014030D02*
X014960Y013876D01*
X014883Y013800D01*
X014960Y013646D02*
X014807Y013493D01*
X014807Y013569D02*
X014807Y013339D01*
X014960Y013339D02*
X014500Y013339D01*
X014500Y013569D01*
X014576Y013646D01*
X014730Y013646D01*
X014807Y013569D01*
X014576Y013800D02*
X014500Y013876D01*
X014500Y014030D01*
X014576Y014107D01*
X014653Y014107D01*
X014730Y014030D01*
X014807Y014107D01*
X014883Y014107D01*
X014960Y014030D01*
X014730Y014030D02*
X014730Y013953D01*
X012707Y014420D02*
X012400Y014420D01*
X012707Y014727D01*
X012707Y014804D01*
X012631Y014880D01*
X012477Y014880D01*
X012400Y014804D01*
X012247Y014804D02*
X012247Y014650D01*
X012170Y014573D01*
X011940Y014573D01*
X011940Y014420D02*
X011940Y014880D01*
X012170Y014880D01*
X012247Y014804D01*
X012093Y014573D02*
X012247Y014420D01*
X011583Y016070D02*
X011276Y016070D01*
X011200Y016147D01*
X011200Y016300D01*
X011276Y016377D01*
X011353Y016530D02*
X011200Y016684D01*
X011660Y016684D01*
X011660Y016837D02*
X011660Y016530D01*
X011583Y016377D02*
X011660Y016300D01*
X011660Y016147D01*
X011583Y016070D01*
X009257Y016637D02*
X009180Y016560D01*
X009026Y016560D01*
X008950Y016637D01*
X008796Y016637D02*
X008719Y016560D01*
X008566Y016560D01*
X008489Y016637D01*
X008489Y016944D01*
X008566Y017020D01*
X008719Y017020D01*
X008796Y016944D01*
X008950Y016944D02*
X009026Y017020D01*
X009180Y017020D01*
X009257Y016944D01*
X009257Y016867D01*
X009180Y016790D01*
X009257Y016713D01*
X009257Y016637D01*
X009180Y016790D02*
X009103Y016790D01*
X007260Y017060D02*
X006800Y017060D01*
X006800Y017290D01*
X006876Y017367D01*
X007030Y017367D01*
X007107Y017290D01*
X007107Y017060D01*
X007107Y017213D02*
X007260Y017367D01*
X007030Y017520D02*
X007030Y017827D01*
X007260Y017751D02*
X006800Y017751D01*
X007030Y017520D01*
X009007Y020150D02*
X009160Y020150D01*
X009237Y020227D01*
X009237Y020610D01*
X009390Y020534D02*
X009467Y020610D01*
X009621Y020610D01*
X009697Y020534D01*
X009621Y020380D02*
X009467Y020380D01*
X009390Y020457D01*
X009390Y020534D01*
X009544Y020687D02*
X009544Y020073D01*
X009467Y020150D02*
X009621Y020150D01*
X009697Y020227D01*
X009697Y020303D01*
X009621Y020380D01*
X009851Y020457D02*
X010004Y020610D01*
X010004Y020150D01*
X009851Y020150D02*
X010158Y020150D01*
X010311Y020227D02*
X010388Y020150D01*
X010541Y020150D01*
X010618Y020227D01*
X010618Y020303D01*
X010541Y020380D01*
X010465Y020380D01*
X010541Y020380D02*
X010618Y020457D01*
X010618Y020534D01*
X010541Y020610D01*
X010388Y020610D01*
X010311Y020534D01*
X009467Y020150D02*
X009390Y020227D01*
X009007Y020150D02*
X008930Y020227D01*
X008930Y020610D01*
X011120Y019961D02*
X011120Y019807D01*
X011196Y019730D01*
X011196Y019577D02*
X011120Y019500D01*
X011120Y019347D01*
X011196Y019270D01*
X011503Y019270D01*
X011580Y019347D01*
X011580Y019500D01*
X011503Y019577D01*
X011580Y019730D02*
X011273Y020037D01*
X011196Y020037D01*
X011120Y019961D01*
X011580Y020037D02*
X011580Y019730D01*
X018080Y015001D02*
X018080Y014847D01*
X018156Y014770D01*
X018233Y014770D01*
X018310Y014847D01*
X018310Y015077D01*
X018463Y015077D02*
X018156Y015077D01*
X018080Y015001D01*
X018463Y015077D02*
X018540Y015001D01*
X018540Y014847D01*
X018463Y014770D01*
X018463Y014617D02*
X018540Y014540D01*
X018540Y014387D01*
X018463Y014310D01*
X018156Y014310D01*
X018080Y014387D01*
X018080Y014540D01*
X018156Y014617D01*
X018323Y013260D02*
X018323Y012800D01*
X018476Y012800D02*
X018169Y012800D01*
X018016Y012877D02*
X017939Y012800D01*
X017786Y012800D01*
X017709Y012877D01*
X017709Y013184D01*
X017786Y013260D01*
X017939Y013260D01*
X018016Y013184D01*
X018169Y013107D02*
X018323Y013260D01*
X018630Y013184D02*
X018706Y013260D01*
X018860Y013260D01*
X018937Y013184D01*
X018937Y013107D01*
X018860Y013030D01*
X018937Y012953D01*
X018937Y012877D01*
X018860Y012800D01*
X018706Y012800D01*
X018630Y012877D01*
X018783Y013030D02*
X018860Y013030D01*
D13*
X021519Y009531D03*
X021519Y008989D03*
D14*
X021671Y009260D03*
D15*
X020243Y008509D02*
X020243Y008253D01*
X020243Y008509D02*
X019889Y008863D01*
X018157Y008863D01*
X018157Y008253D01*
X018334Y008194D02*
X018360Y008249D01*
X018390Y008302D01*
X018423Y008354D01*
X018459Y008403D01*
X018498Y008449D01*
X018540Y008493D01*
X018585Y008535D01*
X018632Y008573D01*
X018682Y008608D01*
X018734Y008640D01*
X018788Y008668D01*
X018843Y008693D01*
X018901Y008714D01*
X018959Y008732D01*
X019018Y008745D01*
X019078Y008755D01*
X019139Y008761D01*
X019200Y008763D01*
X019261Y008761D01*
X019322Y008755D01*
X019382Y008745D01*
X019441Y008732D01*
X019499Y008714D01*
X019557Y008693D01*
X019612Y008668D01*
X019666Y008640D01*
X019718Y008608D01*
X019768Y008573D01*
X019815Y008535D01*
X019860Y008493D01*
X019902Y008449D01*
X019941Y008403D01*
X019977Y008354D01*
X020010Y008302D01*
X020040Y008249D01*
X020066Y008194D01*
X020243Y007387D02*
X020243Y007131D01*
X019889Y006777D01*
X018157Y006777D01*
X018157Y007387D01*
X018334Y007446D02*
X018360Y007391D01*
X018390Y007338D01*
X018423Y007286D01*
X018459Y007237D01*
X018498Y007191D01*
X018540Y007147D01*
X018585Y007105D01*
X018632Y007067D01*
X018682Y007032D01*
X018734Y007000D01*
X018788Y006972D01*
X018843Y006947D01*
X018901Y006926D01*
X018959Y006908D01*
X019018Y006895D01*
X019078Y006885D01*
X019139Y006879D01*
X019200Y006877D01*
X019261Y006879D01*
X019322Y006885D01*
X019382Y006895D01*
X019441Y006908D01*
X019499Y006926D01*
X019557Y006947D01*
X019612Y006972D01*
X019666Y007000D01*
X019718Y007032D01*
X019768Y007067D01*
X019815Y007105D01*
X019860Y007147D01*
X019902Y007191D01*
X019941Y007237D01*
X019977Y007286D01*
X020010Y007338D01*
X020040Y007391D01*
X020066Y007446D01*
X016406Y008546D02*
X012394Y008546D01*
X011727Y008273D02*
X007987Y008273D01*
X007633Y008627D01*
X007633Y009729D01*
X007633Y010911D02*
X007633Y012013D01*
X007987Y012367D01*
X011727Y012367D01*
X011727Y010911D01*
X011727Y009729D02*
X011727Y008273D01*
X011511Y010930D02*
X011482Y011011D01*
X011449Y011091D01*
X011413Y011169D01*
X011374Y011246D01*
X011331Y011320D01*
X011284Y011393D01*
X011235Y011463D01*
X011182Y011531D01*
X011127Y011597D01*
X011068Y011661D01*
X011007Y011721D01*
X010944Y011779D01*
X010877Y011834D01*
X010808Y011886D01*
X010738Y011934D01*
X010665Y011980D01*
X010589Y012022D01*
X010513Y012061D01*
X010434Y012097D01*
X010354Y012128D01*
X010273Y012157D01*
X010190Y012181D01*
X010107Y012202D01*
X010023Y012219D01*
X009938Y012233D01*
X009852Y012242D01*
X009766Y012248D01*
X009680Y012250D01*
X009594Y012248D01*
X009508Y012242D01*
X009422Y012233D01*
X009337Y012219D01*
X009253Y012202D01*
X009170Y012181D01*
X009087Y012157D01*
X009006Y012128D01*
X008926Y012097D01*
X008847Y012061D01*
X008771Y012022D01*
X008695Y011980D01*
X008622Y011934D01*
X008552Y011886D01*
X008483Y011834D01*
X008416Y011779D01*
X008353Y011721D01*
X008292Y011661D01*
X008233Y011597D01*
X008178Y011531D01*
X008125Y011463D01*
X008076Y011393D01*
X008029Y011320D01*
X007986Y011246D01*
X007947Y011169D01*
X007911Y011091D01*
X007878Y011011D01*
X007849Y010930D01*
X007849Y009710D02*
X007878Y009629D01*
X007911Y009549D01*
X007947Y009471D01*
X007986Y009394D01*
X008029Y009320D01*
X008076Y009247D01*
X008125Y009177D01*
X008178Y009109D01*
X008233Y009043D01*
X008292Y008979D01*
X008353Y008919D01*
X008416Y008861D01*
X008483Y008806D01*
X008552Y008754D01*
X008622Y008706D01*
X008695Y008660D01*
X008771Y008618D01*
X008847Y008579D01*
X008926Y008543D01*
X009006Y008512D01*
X009087Y008483D01*
X009170Y008459D01*
X009253Y008438D01*
X009337Y008421D01*
X009422Y008407D01*
X009508Y008398D01*
X009594Y008392D01*
X009680Y008390D01*
X009766Y008392D01*
X009852Y008398D01*
X009938Y008407D01*
X010023Y008421D01*
X010107Y008438D01*
X010190Y008459D01*
X010273Y008483D01*
X010354Y008512D01*
X010434Y008543D01*
X010513Y008579D01*
X010589Y008618D01*
X010665Y008660D01*
X010738Y008706D01*
X010808Y008754D01*
X010877Y008806D01*
X010944Y008861D01*
X011007Y008919D01*
X011068Y008979D01*
X011127Y009043D01*
X011182Y009109D01*
X011235Y009177D01*
X011284Y009247D01*
X011331Y009320D01*
X011374Y009394D01*
X011413Y009471D01*
X011449Y009549D01*
X011482Y009629D01*
X011511Y009710D01*
X009289Y017170D02*
X008795Y017170D01*
X009289Y017664D01*
X009289Y017787D01*
X009165Y017911D01*
X008918Y017911D01*
X008795Y017787D01*
X008534Y017911D02*
X008534Y017293D01*
X008410Y017170D01*
X008163Y017170D01*
X008040Y017293D01*
X008040Y017911D01*
X009489Y021280D02*
X009491Y021328D01*
X009497Y021376D01*
X009507Y021423D01*
X009520Y021469D01*
X009538Y021514D01*
X009558Y021558D01*
X009583Y021600D01*
X009611Y021639D01*
X009641Y021676D01*
X009675Y021710D01*
X009712Y021742D01*
X009750Y021771D01*
X009791Y021796D01*
X009834Y021818D01*
X009879Y021836D01*
X009925Y021850D01*
X009972Y021861D01*
X010020Y021868D01*
X010068Y021871D01*
X010116Y021870D01*
X010164Y021865D01*
X010212Y021856D01*
X010258Y021844D01*
X010303Y021827D01*
X010347Y021807D01*
X010389Y021784D01*
X010429Y021757D01*
X010467Y021727D01*
X010502Y021694D01*
X010534Y021658D01*
X010564Y021620D01*
X010590Y021579D01*
X010612Y021536D01*
X010632Y021492D01*
X010647Y021447D01*
X010659Y021400D01*
X010667Y021352D01*
X010671Y021304D01*
X010671Y021256D01*
X010667Y021208D01*
X010659Y021160D01*
X010647Y021113D01*
X010632Y021068D01*
X010612Y021024D01*
X010590Y020981D01*
X010564Y020940D01*
X010534Y020902D01*
X010502Y020866D01*
X010467Y020833D01*
X010429Y020803D01*
X010389Y020776D01*
X010347Y020753D01*
X010303Y020733D01*
X010258Y020716D01*
X010212Y020704D01*
X010164Y020695D01*
X010116Y020690D01*
X010068Y020689D01*
X010020Y020692D01*
X009972Y020699D01*
X009925Y020710D01*
X009879Y020724D01*
X009834Y020742D01*
X009791Y020764D01*
X009750Y020789D01*
X009712Y020818D01*
X009675Y020850D01*
X009641Y020884D01*
X009611Y020921D01*
X009583Y020960D01*
X009558Y021002D01*
X009538Y021046D01*
X009520Y021091D01*
X009507Y021137D01*
X009497Y021184D01*
X009491Y021232D01*
X009489Y021280D01*
X017124Y019115D02*
X017124Y017525D01*
X018076Y017525D01*
X018076Y019115D01*
X017124Y019115D01*
X017525Y019043D02*
X017549Y019053D01*
X017574Y019058D01*
X017600Y019060D01*
X017626Y019058D01*
X017651Y019053D01*
X017675Y019043D01*
X017675Y018723D02*
X017651Y018713D01*
X017626Y018708D01*
X017600Y018706D01*
X017574Y018708D01*
X017549Y018713D01*
X017525Y018723D01*
X017521Y018643D02*
X017679Y018643D01*
X017674Y017616D02*
X017650Y017609D01*
X017625Y017604D01*
X017600Y017603D01*
X017575Y017604D01*
X017550Y017609D01*
X017526Y017616D01*
X017526Y018024D02*
X017550Y018031D01*
X017575Y018036D01*
X017600Y018037D01*
X017625Y018036D01*
X017650Y018031D01*
X017674Y018024D01*
X016865Y017681D02*
X016867Y017699D01*
X016873Y017717D01*
X016882Y017733D01*
X016894Y017746D01*
X016909Y017757D01*
X016926Y017765D01*
X016944Y017769D01*
X016962Y017769D01*
X016980Y017765D01*
X016997Y017757D01*
X017012Y017746D01*
X017024Y017733D01*
X017033Y017717D01*
X017039Y017699D01*
X017041Y017681D01*
X017039Y017663D01*
X017033Y017645D01*
X017024Y017629D01*
X017012Y017616D01*
X016997Y017605D01*
X016980Y017597D01*
X016962Y017593D01*
X016944Y017593D01*
X016926Y017597D01*
X016909Y017605D01*
X016894Y017616D01*
X016882Y017629D01*
X016873Y017645D01*
X016867Y017663D01*
X016865Y017681D01*
X017089Y021280D02*
X017091Y021328D01*
X017097Y021376D01*
X017107Y021423D01*
X017120Y021469D01*
X017138Y021514D01*
X017158Y021558D01*
X017183Y021600D01*
X017211Y021639D01*
X017241Y021676D01*
X017275Y021710D01*
X017312Y021742D01*
X017350Y021771D01*
X017391Y021796D01*
X017434Y021818D01*
X017479Y021836D01*
X017525Y021850D01*
X017572Y021861D01*
X017620Y021868D01*
X017668Y021871D01*
X017716Y021870D01*
X017764Y021865D01*
X017812Y021856D01*
X017858Y021844D01*
X017903Y021827D01*
X017947Y021807D01*
X017989Y021784D01*
X018029Y021757D01*
X018067Y021727D01*
X018102Y021694D01*
X018134Y021658D01*
X018164Y021620D01*
X018190Y021579D01*
X018212Y021536D01*
X018232Y021492D01*
X018247Y021447D01*
X018259Y021400D01*
X018267Y021352D01*
X018271Y021304D01*
X018271Y021256D01*
X018267Y021208D01*
X018259Y021160D01*
X018247Y021113D01*
X018232Y021068D01*
X018212Y021024D01*
X018190Y020981D01*
X018164Y020940D01*
X018134Y020902D01*
X018102Y020866D01*
X018067Y020833D01*
X018029Y020803D01*
X017989Y020776D01*
X017947Y020753D01*
X017903Y020733D01*
X017858Y020716D01*
X017812Y020704D01*
X017764Y020695D01*
X017716Y020690D01*
X017668Y020689D01*
X017620Y020692D01*
X017572Y020699D01*
X017525Y020710D01*
X017479Y020724D01*
X017434Y020742D01*
X017391Y020764D01*
X017350Y020789D01*
X017312Y020818D01*
X017275Y020850D01*
X017241Y020884D01*
X017211Y020921D01*
X017183Y020960D01*
X017158Y021002D01*
X017138Y021046D01*
X017120Y021091D01*
X017107Y021137D01*
X017097Y021184D01*
X017091Y021232D01*
X017089Y021280D01*
X022950Y018317D02*
X022950Y018070D01*
X023073Y017946D01*
X023691Y017946D01*
X023444Y017685D02*
X023691Y017438D01*
X022950Y017438D01*
X022950Y017685D02*
X022950Y017191D01*
X022950Y018317D02*
X023073Y018440D01*
X023691Y018440D01*
X023941Y014560D02*
X023323Y014560D01*
X023200Y014437D01*
X023200Y014190D01*
X023323Y014066D01*
X023941Y014066D01*
X023817Y013805D02*
X023694Y013805D01*
X023570Y013682D01*
X023570Y013435D01*
X023447Y013311D01*
X023323Y013311D01*
X023200Y013435D01*
X023200Y013682D01*
X023323Y013805D01*
X023077Y013558D02*
X024064Y013558D01*
X023941Y013435D02*
X023817Y013311D01*
X023941Y013435D02*
X023941Y013682D01*
X023817Y013805D01*
X023817Y013050D02*
X023941Y012926D01*
X023941Y012680D01*
X023817Y012556D01*
X023694Y012556D01*
X023200Y013050D01*
X023200Y012556D01*
D16*
X023100Y012780D02*
X023100Y011980D01*
X023200Y011880D01*
X024000Y011880D01*
X024100Y011980D01*
X024100Y012780D01*
X024000Y012880D01*
X024100Y012980D01*
X024100Y013780D01*
X024000Y013880D01*
X023200Y013880D01*
X023100Y013780D01*
X023100Y012980D01*
X023200Y012880D01*
X023100Y012780D01*
X022930Y012760D02*
X022930Y013000D01*
X022930Y013100D01*
X022930Y012760D02*
X022930Y012660D01*
X021710Y012660D02*
X021710Y013100D01*
X021350Y015160D02*
X021350Y015550D01*
X022520Y016360D02*
X022520Y017000D01*
X022520Y017240D01*
X022520Y017880D01*
X022520Y017240D02*
X022499Y017238D01*
X022479Y017233D01*
X022460Y017224D01*
X022443Y017212D01*
X022428Y017197D01*
X022416Y017180D01*
X022407Y017161D01*
X022402Y017141D01*
X022400Y017120D01*
X022402Y017099D01*
X022407Y017079D01*
X022416Y017060D01*
X022428Y017043D01*
X022443Y017028D01*
X022460Y017016D01*
X022479Y017007D01*
X022499Y017002D01*
X022520Y017000D01*
X022404Y019049D02*
X022050Y019403D01*
X022050Y019756D01*
X021697Y019756D01*
X021343Y020110D01*
X021343Y020463D01*
X020990Y020463D01*
X020636Y020817D01*
X020636Y021170D01*
X020283Y021170D01*
X019929Y021524D01*
X019929Y021877D01*
X020283Y022231D01*
X020636Y022231D01*
X020990Y021877D01*
X020990Y021524D01*
X021343Y021524D01*
X021697Y021170D01*
X021697Y020817D01*
X022050Y020817D01*
X022404Y020463D01*
X022404Y020110D01*
X022757Y020110D01*
X023111Y019756D01*
X023111Y019403D01*
X022757Y019049D01*
X022404Y019049D01*
X020070Y019090D02*
X020070Y018690D01*
X019400Y017880D02*
X019400Y016360D01*
X016530Y021280D02*
X016532Y021347D01*
X016538Y021415D01*
X016548Y021482D01*
X016562Y021548D01*
X016579Y021613D01*
X016601Y021677D01*
X016626Y021740D01*
X016655Y021801D01*
X016687Y021860D01*
X016723Y021917D01*
X016762Y021972D01*
X016804Y022025D01*
X016849Y022075D01*
X016897Y022122D01*
X016948Y022167D01*
X017001Y022208D01*
X017057Y022247D01*
X017115Y022282D01*
X017175Y022313D01*
X017236Y022341D01*
X017299Y022365D01*
X017363Y022386D01*
X017429Y022402D01*
X017495Y022415D01*
X017562Y022424D01*
X017629Y022429D01*
X017697Y022430D01*
X017764Y022427D01*
X017831Y022420D01*
X017898Y022409D01*
X017964Y022394D01*
X018029Y022376D01*
X018093Y022353D01*
X018155Y022327D01*
X018216Y022298D01*
X018274Y022264D01*
X018331Y022228D01*
X018386Y022188D01*
X018438Y022145D01*
X018487Y022099D01*
X018534Y022050D01*
X018578Y021999D01*
X018618Y021945D01*
X018656Y021889D01*
X018690Y021830D01*
X018720Y021770D01*
X018747Y021708D01*
X018771Y021645D01*
X018790Y021580D01*
X018806Y021515D01*
X018818Y021448D01*
X018826Y021381D01*
X018830Y021314D01*
X018830Y021246D01*
X018826Y021179D01*
X018818Y021112D01*
X018806Y021045D01*
X018790Y020980D01*
X018771Y020915D01*
X018747Y020852D01*
X018720Y020790D01*
X018690Y020730D01*
X018656Y020671D01*
X018618Y020615D01*
X018578Y020561D01*
X018534Y020510D01*
X018487Y020461D01*
X018438Y020415D01*
X018386Y020372D01*
X018331Y020332D01*
X018274Y020296D01*
X018216Y020262D01*
X018155Y020233D01*
X018093Y020207D01*
X018029Y020184D01*
X017964Y020166D01*
X017898Y020151D01*
X017831Y020140D01*
X017764Y020133D01*
X017697Y020130D01*
X017629Y020131D01*
X017562Y020136D01*
X017495Y020145D01*
X017429Y020158D01*
X017363Y020174D01*
X017299Y020195D01*
X017236Y020219D01*
X017175Y020247D01*
X017115Y020278D01*
X017057Y020313D01*
X017001Y020352D01*
X016948Y020393D01*
X016897Y020438D01*
X016849Y020485D01*
X016804Y020535D01*
X016762Y020588D01*
X016723Y020643D01*
X016687Y020700D01*
X016655Y020759D01*
X016626Y020820D01*
X016601Y020883D01*
X016579Y020947D01*
X016562Y021012D01*
X016548Y021078D01*
X016538Y021145D01*
X016532Y021213D01*
X016530Y021280D01*
X016000Y021430D02*
X015750Y021180D01*
X015250Y021180D01*
X015000Y021430D01*
X014750Y021180D01*
X014250Y021180D01*
X014000Y021430D01*
X013750Y021180D01*
X013250Y021180D01*
X013000Y021430D01*
X012750Y021180D01*
X012250Y021180D01*
X012000Y021430D01*
X012000Y021930D01*
X012250Y022180D01*
X012750Y022180D01*
X013000Y021930D01*
X013250Y022180D01*
X013750Y022180D01*
X014000Y021930D01*
X014250Y022180D01*
X014750Y022180D01*
X015000Y021930D01*
X015250Y022180D01*
X015750Y022180D01*
X016000Y021930D01*
X016000Y021430D01*
X010250Y016810D02*
X009480Y016810D01*
X009240Y016810D01*
X008470Y016810D01*
X008470Y016740D01*
X009240Y016810D02*
X009242Y016789D01*
X009247Y016769D01*
X009256Y016750D01*
X009268Y016733D01*
X009283Y016718D01*
X009300Y016706D01*
X009319Y016697D01*
X009339Y016692D01*
X009360Y016690D01*
X009381Y016692D01*
X009401Y016697D01*
X009420Y016706D01*
X009437Y016718D01*
X009452Y016733D01*
X009464Y016750D01*
X009473Y016769D01*
X009478Y016789D01*
X009480Y016810D01*
X010250Y016810D02*
X010250Y016740D01*
X010930Y014500D02*
X011330Y014500D01*
X010250Y013020D02*
X010250Y012950D01*
X008470Y012950D01*
X008470Y013020D01*
X007790Y014240D02*
X007390Y014240D01*
X006940Y013610D02*
X006690Y013860D01*
X006190Y013860D01*
X005940Y013610D01*
X005690Y013860D01*
X005190Y013860D01*
X004940Y013610D01*
X004690Y013860D01*
X004190Y013860D01*
X003940Y013610D01*
X003940Y013110D01*
X004190Y012860D01*
X004690Y012860D01*
X004940Y013110D01*
X005190Y012860D01*
X005690Y012860D01*
X005940Y013110D01*
X006190Y012860D01*
X006690Y012860D01*
X006940Y013110D01*
X006940Y013610D01*
X006690Y014860D02*
X006190Y014860D01*
X005940Y015110D01*
X005690Y014860D01*
X005190Y014860D01*
X004940Y015110D01*
X004690Y014860D01*
X004190Y014860D01*
X003940Y015110D01*
X003940Y015610D01*
X004190Y015860D01*
X004690Y015860D01*
X004940Y015610D01*
X005190Y015860D01*
X005690Y015860D01*
X005940Y015610D01*
X006190Y015860D01*
X006690Y015860D01*
X006940Y015610D01*
X006940Y015110D01*
X006690Y014860D01*
X006690Y016780D02*
X006190Y016780D01*
X005940Y017030D01*
X005690Y016780D01*
X005190Y016780D01*
X004940Y017030D01*
X004690Y016780D01*
X004190Y016780D01*
X003940Y017030D01*
X003940Y017530D01*
X004190Y017780D01*
X004690Y017780D01*
X004940Y017530D01*
X005190Y017780D01*
X005690Y017780D01*
X005940Y017530D01*
X006190Y017780D01*
X006690Y017780D01*
X006940Y017530D01*
X006940Y017030D01*
X006690Y016780D01*
X004560Y018170D02*
X004560Y019270D01*
X004558Y019287D01*
X004554Y019304D01*
X004547Y019320D01*
X004537Y019334D01*
X004524Y019347D01*
X004510Y019357D01*
X004494Y019364D01*
X004477Y019368D01*
X004460Y019370D01*
X003860Y019370D01*
X003843Y019368D01*
X003826Y019364D01*
X003810Y019357D01*
X003796Y019347D01*
X003783Y019334D01*
X003773Y019320D01*
X003766Y019304D01*
X003762Y019287D01*
X003760Y019270D01*
X003760Y018170D01*
X003762Y018153D01*
X003766Y018136D01*
X003773Y018120D01*
X003783Y018106D01*
X003796Y018093D01*
X003810Y018083D01*
X003826Y018076D01*
X003843Y018072D01*
X003860Y018070D01*
X004460Y018070D01*
X004477Y018072D01*
X004494Y018076D01*
X004510Y018083D01*
X004524Y018093D01*
X004537Y018106D01*
X004547Y018120D01*
X004554Y018136D01*
X004558Y018153D01*
X004560Y018170D01*
X005163Y019129D02*
X005516Y019129D01*
X005870Y019483D01*
X005870Y019836D01*
X006223Y019836D01*
X006577Y020190D01*
X006577Y020543D01*
X006930Y020543D01*
X007284Y020897D01*
X007284Y021250D01*
X007637Y021250D01*
X007991Y021604D01*
X007991Y021957D01*
X007637Y022311D01*
X007284Y022311D01*
X006930Y021957D01*
X006930Y021604D01*
X006577Y021604D01*
X006223Y021250D01*
X006223Y020897D01*
X005870Y020897D01*
X005516Y020543D01*
X005516Y020190D01*
X005163Y020190D01*
X004809Y019836D01*
X004809Y019483D01*
X005163Y019129D01*
X008930Y021280D02*
X008932Y021347D01*
X008938Y021415D01*
X008948Y021482D01*
X008962Y021548D01*
X008979Y021613D01*
X009001Y021677D01*
X009026Y021740D01*
X009055Y021801D01*
X009087Y021860D01*
X009123Y021917D01*
X009162Y021972D01*
X009204Y022025D01*
X009249Y022075D01*
X009297Y022122D01*
X009348Y022167D01*
X009401Y022208D01*
X009457Y022247D01*
X009515Y022282D01*
X009575Y022313D01*
X009636Y022341D01*
X009699Y022365D01*
X009763Y022386D01*
X009829Y022402D01*
X009895Y022415D01*
X009962Y022424D01*
X010029Y022429D01*
X010097Y022430D01*
X010164Y022427D01*
X010231Y022420D01*
X010298Y022409D01*
X010364Y022394D01*
X010429Y022376D01*
X010493Y022353D01*
X010555Y022327D01*
X010616Y022298D01*
X010674Y022264D01*
X010731Y022228D01*
X010786Y022188D01*
X010838Y022145D01*
X010887Y022099D01*
X010934Y022050D01*
X010978Y021999D01*
X011018Y021945D01*
X011056Y021889D01*
X011090Y021830D01*
X011120Y021770D01*
X011147Y021708D01*
X011171Y021645D01*
X011190Y021580D01*
X011206Y021515D01*
X011218Y021448D01*
X011226Y021381D01*
X011230Y021314D01*
X011230Y021246D01*
X011226Y021179D01*
X011218Y021112D01*
X011206Y021045D01*
X011190Y020980D01*
X011171Y020915D01*
X011147Y020852D01*
X011120Y020790D01*
X011090Y020730D01*
X011056Y020671D01*
X011018Y020615D01*
X010978Y020561D01*
X010934Y020510D01*
X010887Y020461D01*
X010838Y020415D01*
X010786Y020372D01*
X010731Y020332D01*
X010674Y020296D01*
X010616Y020262D01*
X010555Y020233D01*
X010493Y020207D01*
X010429Y020184D01*
X010364Y020166D01*
X010298Y020151D01*
X010231Y020140D01*
X010164Y020133D01*
X010097Y020130D01*
X010029Y020131D01*
X009962Y020136D01*
X009895Y020145D01*
X009829Y020158D01*
X009763Y020174D01*
X009699Y020195D01*
X009636Y020219D01*
X009575Y020247D01*
X009515Y020278D01*
X009457Y020313D01*
X009401Y020352D01*
X009348Y020393D01*
X009297Y020438D01*
X009249Y020485D01*
X009204Y020535D01*
X009162Y020588D01*
X009123Y020643D01*
X009087Y020700D01*
X009055Y020759D01*
X009026Y020820D01*
X009001Y020883D01*
X008979Y020947D01*
X008962Y021012D01*
X008948Y021078D01*
X008938Y021145D01*
X008932Y021213D01*
X008930Y021280D01*
X006690Y011860D02*
X006190Y011860D01*
X005940Y011610D01*
X005690Y011860D01*
X005190Y011860D01*
X004940Y011610D01*
X004690Y011860D01*
X004190Y011860D01*
X003940Y011610D01*
X003940Y011110D01*
X004190Y010860D01*
X004690Y010860D01*
X004940Y011110D01*
X005190Y010860D01*
X005690Y010860D01*
X005940Y011110D01*
X006190Y010860D01*
X006690Y010860D01*
X006940Y011110D01*
X006940Y011610D01*
X006690Y011860D01*
X006690Y009780D02*
X006190Y009780D01*
X005940Y009530D01*
X005690Y009780D01*
X005190Y009780D01*
X004940Y009530D01*
X004690Y009780D01*
X004190Y009780D01*
X003940Y009530D01*
X003940Y009030D01*
X004190Y008780D01*
X004690Y008780D01*
X004940Y009030D01*
X005190Y008780D01*
X005690Y008780D01*
X005940Y009030D01*
X006190Y008780D01*
X006690Y008780D01*
X006940Y009030D01*
X006940Y009530D01*
X006690Y009780D01*
X007396Y008030D02*
X007396Y007950D01*
X011326Y007950D01*
X011326Y005350D01*
X011326Y004410D01*
X007396Y004410D01*
X007396Y005350D01*
X007396Y007950D01*
X007396Y008030D02*
X011326Y008030D01*
X011326Y007950D01*
X010146Y007430D02*
X010148Y007458D01*
X010154Y007485D01*
X010163Y007511D01*
X010176Y007536D01*
X010193Y007559D01*
X010212Y007579D01*
X010234Y007596D01*
X010258Y007610D01*
X010284Y007620D01*
X010311Y007627D01*
X010339Y007630D01*
X010367Y007629D01*
X010394Y007624D01*
X010421Y007615D01*
X010446Y007603D01*
X010469Y007588D01*
X010490Y007569D01*
X010508Y007548D01*
X010523Y007524D01*
X010534Y007498D01*
X010542Y007472D01*
X010546Y007444D01*
X010546Y007416D01*
X010542Y007388D01*
X010534Y007362D01*
X010523Y007336D01*
X010508Y007312D01*
X010490Y007291D01*
X010469Y007272D01*
X010446Y007257D01*
X010421Y007245D01*
X010394Y007236D01*
X010367Y007231D01*
X010339Y007230D01*
X010311Y007233D01*
X010284Y007240D01*
X010258Y007250D01*
X010234Y007264D01*
X010212Y007281D01*
X010193Y007301D01*
X010176Y007324D01*
X010163Y007349D01*
X010154Y007375D01*
X010148Y007402D01*
X010146Y007430D01*
X008176Y007430D02*
X008178Y007458D01*
X008184Y007485D01*
X008193Y007511D01*
X008206Y007536D01*
X008223Y007559D01*
X008242Y007579D01*
X008264Y007596D01*
X008288Y007610D01*
X008314Y007620D01*
X008341Y007627D01*
X008369Y007630D01*
X008397Y007629D01*
X008424Y007624D01*
X008451Y007615D01*
X008476Y007603D01*
X008499Y007588D01*
X008520Y007569D01*
X008538Y007548D01*
X008553Y007524D01*
X008564Y007498D01*
X008572Y007472D01*
X008576Y007444D01*
X008576Y007416D01*
X008572Y007388D01*
X008564Y007362D01*
X008553Y007336D01*
X008538Y007312D01*
X008520Y007291D01*
X008499Y007272D01*
X008476Y007257D01*
X008451Y007245D01*
X008424Y007236D01*
X008397Y007231D01*
X008369Y007230D01*
X008341Y007233D01*
X008314Y007240D01*
X008288Y007250D01*
X008264Y007264D01*
X008242Y007281D01*
X008223Y007301D01*
X008206Y007324D01*
X008193Y007349D01*
X008184Y007375D01*
X008178Y007402D01*
X008176Y007430D01*
X006940Y007530D02*
X006940Y007030D01*
X006690Y006780D01*
X006190Y006780D01*
X005940Y007030D01*
X005690Y006780D01*
X005190Y006780D01*
X004940Y007030D01*
X004690Y006780D01*
X004190Y006780D01*
X003940Y007030D01*
X003940Y007530D01*
X004190Y007780D01*
X004690Y007780D01*
X004940Y007530D01*
X005190Y007780D01*
X005690Y007780D01*
X005940Y007530D01*
X006190Y007780D01*
X006690Y007780D01*
X006940Y007530D01*
X007396Y005350D02*
X008026Y005350D01*
X008726Y005350D02*
X009996Y005350D01*
X010696Y005350D02*
X011326Y005350D01*
X012000Y005190D02*
X012000Y005690D01*
X012250Y005940D01*
X012750Y005940D01*
X013000Y005690D01*
X013250Y005940D01*
X013750Y005940D01*
X014000Y005690D01*
X014250Y005940D01*
X014750Y005940D01*
X015000Y005690D01*
X015250Y005940D01*
X015750Y005940D01*
X016000Y005690D01*
X016000Y005190D01*
X015750Y004940D01*
X015250Y004940D01*
X015000Y005190D01*
X014750Y004940D01*
X014250Y004940D01*
X014000Y005190D01*
X013750Y004940D01*
X013250Y004940D01*
X013000Y005190D01*
X012750Y004940D01*
X012250Y004940D01*
X012000Y005190D01*
X016480Y005770D02*
X016480Y006870D01*
X016482Y006887D01*
X016486Y006904D01*
X016493Y006920D01*
X016503Y006934D01*
X016516Y006947D01*
X016530Y006957D01*
X016546Y006964D01*
X016563Y006968D01*
X016580Y006970D01*
X017180Y006970D01*
X017197Y006968D01*
X017214Y006964D01*
X017230Y006957D01*
X017244Y006947D01*
X017257Y006934D01*
X017267Y006920D01*
X017274Y006904D01*
X017278Y006887D01*
X017280Y006870D01*
X017280Y005770D01*
X017278Y005753D01*
X017274Y005736D01*
X017267Y005720D01*
X017257Y005706D01*
X017244Y005693D01*
X017230Y005683D01*
X017214Y005676D01*
X017197Y005672D01*
X017180Y005670D01*
X016580Y005670D01*
X016563Y005672D01*
X016546Y005676D01*
X016530Y005683D01*
X016516Y005693D01*
X016503Y005706D01*
X016493Y005720D01*
X016486Y005736D01*
X016482Y005753D01*
X016480Y005770D01*
X018800Y006350D02*
X018800Y004850D01*
X019050Y004600D01*
X019550Y004600D01*
X019800Y004850D01*
X020050Y004600D01*
X020550Y004600D01*
X020800Y004850D01*
X021050Y004600D01*
X021550Y004600D01*
X021800Y004850D01*
X022050Y004600D01*
X022550Y004600D01*
X022800Y004850D01*
X022800Y006350D01*
X022550Y006600D01*
X022050Y006600D01*
X021800Y006350D01*
X021550Y006600D01*
X021050Y006600D01*
X020800Y006350D01*
X020550Y006600D01*
X020050Y006600D01*
X019800Y006350D01*
X019550Y006600D01*
X019050Y006600D01*
X018800Y006350D01*
D17*
X019038Y007103D02*
X008802Y007103D01*
X008802Y014190D01*
X019038Y014190D01*
X019038Y007103D01*
X017960Y006773D02*
X017960Y006473D01*
X017885Y006162D02*
X017435Y006162D01*
X017435Y006012D02*
X017435Y006313D01*
X017435Y005852D02*
X017885Y005552D01*
X017885Y005392D02*
X017885Y005091D01*
X017435Y005091D01*
X017435Y005392D01*
X017435Y005552D02*
X017885Y005852D01*
X017660Y005242D02*
X017660Y005091D01*
X018865Y004350D02*
X018865Y004275D01*
X018940Y004200D01*
X019090Y004200D01*
X019165Y004125D01*
X019165Y004050D01*
X019090Y003975D01*
X018940Y003975D01*
X018865Y004050D01*
X018865Y004125D01*
X018940Y004200D01*
X019090Y004200D02*
X019165Y004275D01*
X019165Y004350D01*
X019090Y004425D01*
X018940Y004425D01*
X018865Y004350D01*
X019432Y005134D02*
X008408Y005134D01*
X008408Y016158D01*
X019432Y016158D01*
X019432Y005134D01*
X017885Y006933D02*
X017435Y006933D01*
X017435Y007158D01*
X017510Y007233D01*
X017660Y007233D01*
X017735Y007158D01*
X017735Y006933D01*
X017810Y007393D02*
X017510Y007393D01*
X017435Y007468D01*
X017435Y007619D01*
X017510Y007694D01*
X017810Y007694D01*
X017885Y007619D01*
X017885Y007468D01*
X017810Y007393D01*
X017885Y007854D02*
X017735Y008004D01*
X017885Y008154D01*
X017435Y008154D01*
X017435Y008314D02*
X017885Y008314D01*
X017885Y008614D01*
X017885Y008775D02*
X017435Y008775D01*
X017435Y009000D01*
X017510Y009075D01*
X017660Y009075D01*
X017735Y009000D01*
X017735Y008775D01*
X017735Y008925D02*
X017885Y009075D01*
X017435Y008614D02*
X017435Y008314D01*
X017660Y008314D02*
X017660Y008464D01*
X017435Y007854D02*
X017885Y007854D01*
X016165Y005665D02*
X016165Y005215D01*
X016015Y005215D02*
X016315Y005215D01*
X016015Y005515D02*
X016165Y005665D01*
X015790Y004765D02*
X015865Y004690D01*
X015865Y004540D01*
X015790Y004465D01*
X015565Y004465D01*
X015715Y004465D02*
X015865Y004315D01*
X015565Y004315D02*
X015565Y004765D01*
X015790Y004765D01*
X015404Y004615D02*
X015404Y004315D01*
X015404Y004540D02*
X015104Y004540D01*
X015104Y004615D02*
X015254Y004765D01*
X015404Y004615D01*
X015104Y004615D02*
X015104Y004315D01*
X014944Y004315D02*
X014644Y004315D01*
X014644Y004765D01*
X014944Y004765D01*
X014794Y004540D02*
X014644Y004540D01*
X014484Y004540D02*
X014409Y004465D01*
X014183Y004465D01*
X014183Y004315D02*
X014183Y004765D01*
X014409Y004765D01*
X014484Y004690D01*
X014484Y004540D01*
X014334Y004465D02*
X014484Y004315D01*
X011690Y005215D02*
X011690Y005665D01*
X011465Y005440D01*
X011765Y005440D01*
X009851Y006835D02*
X009551Y006835D01*
X009851Y007135D01*
X009851Y007210D01*
X009776Y007285D01*
X009626Y007285D01*
X009551Y007210D01*
X007901Y006835D02*
X007601Y006835D01*
X007751Y006835D02*
X007751Y007285D01*
X007601Y007135D01*
X007305Y007055D02*
X007005Y007055D01*
X007155Y007055D02*
X007155Y007505D01*
X007005Y007355D01*
X006730Y006605D02*
X006805Y006530D01*
X006505Y006230D01*
X006580Y006155D01*
X006730Y006155D01*
X006805Y006230D01*
X006805Y006530D01*
X006730Y006605D02*
X006580Y006605D01*
X006505Y006530D01*
X006505Y006230D01*
X006344Y006155D02*
X006044Y006155D01*
X006194Y006155D02*
X006194Y006605D01*
X006044Y006455D01*
X005884Y006305D02*
X005884Y006605D01*
X005584Y006605D02*
X005584Y006305D01*
X005734Y006155D01*
X005884Y006305D01*
X005424Y006305D02*
X005424Y006230D01*
X005349Y006155D01*
X005198Y006155D01*
X005123Y006230D01*
X005198Y006380D02*
X005349Y006380D01*
X005424Y006305D01*
X005424Y006530D02*
X005349Y006605D01*
X005198Y006605D01*
X005123Y006530D01*
X005123Y006455D01*
X005198Y006380D01*
X005133Y004985D02*
X005058Y004910D01*
X005058Y004610D01*
X005133Y004535D01*
X005283Y004535D01*
X005358Y004610D01*
X005358Y004910D01*
X005283Y004985D01*
X005133Y004985D01*
X004898Y004910D02*
X004898Y004760D01*
X004822Y004685D01*
X004597Y004685D01*
X004597Y004535D02*
X004597Y004985D01*
X004822Y004985D01*
X004898Y004910D01*
X005518Y004985D02*
X005518Y004535D01*
X005668Y004685D01*
X005818Y004535D01*
X005818Y004985D01*
X005978Y004985D02*
X005978Y004535D01*
X006279Y004535D01*
X006439Y004535D02*
X006439Y004985D01*
X006664Y004985D01*
X006739Y004910D01*
X006739Y004760D01*
X006664Y004685D01*
X006439Y004685D01*
X006589Y004685D02*
X006739Y004535D01*
X006279Y004985D02*
X005978Y004985D01*
X005978Y004760D02*
X006129Y004760D01*
X006194Y008155D02*
X006344Y008305D01*
X006344Y008605D01*
X006505Y008530D02*
X006505Y008455D01*
X006580Y008380D01*
X006805Y008380D01*
X006805Y008230D02*
X006805Y008530D01*
X006730Y008605D01*
X006580Y008605D01*
X006505Y008530D01*
X006505Y008230D02*
X006580Y008155D01*
X006730Y008155D01*
X006805Y008230D01*
X006194Y008155D02*
X006044Y008305D01*
X006044Y008605D01*
X005884Y008530D02*
X005809Y008605D01*
X005659Y008605D01*
X005584Y008530D01*
X005584Y008455D01*
X005659Y008380D01*
X005809Y008380D01*
X005884Y008305D01*
X005884Y008230D01*
X005809Y008155D01*
X005659Y008155D01*
X005584Y008230D01*
X007005Y009055D02*
X007305Y009055D01*
X007155Y009055D02*
X007155Y009505D01*
X007005Y009355D01*
X006730Y010235D02*
X006580Y010235D01*
X006505Y010310D01*
X006505Y010385D01*
X006580Y010460D01*
X006730Y010460D01*
X006805Y010385D01*
X006805Y010310D01*
X006730Y010235D01*
X006730Y010460D02*
X006805Y010535D01*
X006805Y010610D01*
X006730Y010685D01*
X006580Y010685D01*
X006505Y010610D01*
X006505Y010535D01*
X006580Y010460D01*
X006344Y010385D02*
X006344Y010685D01*
X006044Y010685D02*
X006044Y010385D01*
X006194Y010235D01*
X006344Y010385D01*
X005884Y010385D02*
X005884Y010310D01*
X005809Y010235D01*
X005659Y010235D01*
X005584Y010310D01*
X005659Y010460D02*
X005584Y010535D01*
X005584Y010610D01*
X005659Y010685D01*
X005809Y010685D01*
X005884Y010610D01*
X005809Y010460D02*
X005884Y010385D01*
X005809Y010460D02*
X005659Y010460D01*
X007005Y011135D02*
X007305Y011135D01*
X007155Y011135D02*
X007155Y011585D01*
X007005Y011435D01*
X006505Y012235D02*
X006505Y012310D01*
X006805Y012610D01*
X006805Y012685D01*
X006505Y012685D01*
X006344Y012685D02*
X006344Y012385D01*
X006194Y012235D01*
X006044Y012385D01*
X006044Y012685D01*
X005884Y012610D02*
X005809Y012685D01*
X005659Y012685D01*
X005584Y012610D01*
X005584Y012535D01*
X005659Y012460D01*
X005809Y012460D01*
X005884Y012385D01*
X005884Y012310D01*
X005809Y012235D01*
X005659Y012235D01*
X005584Y012310D01*
X007005Y013135D02*
X007305Y013135D01*
X007155Y013135D02*
X007155Y013585D01*
X007005Y013435D01*
X006730Y014235D02*
X006805Y014310D01*
X006805Y014385D01*
X006730Y014460D01*
X006505Y014460D01*
X006505Y014310D01*
X006580Y014235D01*
X006730Y014235D01*
X006505Y014460D02*
X006655Y014610D01*
X006805Y014685D01*
X006344Y014685D02*
X006344Y014385D01*
X006194Y014235D01*
X006044Y014385D01*
X006044Y014685D01*
X005884Y014610D02*
X005809Y014685D01*
X005659Y014685D01*
X005584Y014610D01*
X005584Y014535D01*
X005659Y014460D01*
X005809Y014460D01*
X005884Y014385D01*
X005884Y014310D01*
X005809Y014235D01*
X005659Y014235D01*
X005584Y014310D01*
X007005Y015135D02*
X007305Y015135D01*
X007155Y015135D02*
X007155Y015585D01*
X007005Y015435D01*
X006730Y016155D02*
X006580Y016155D01*
X006505Y016230D01*
X006505Y016380D02*
X006655Y016455D01*
X006730Y016455D01*
X006805Y016380D01*
X006805Y016230D01*
X006730Y016155D01*
X006505Y016380D02*
X006505Y016605D01*
X006805Y016605D01*
X006344Y016605D02*
X006344Y016305D01*
X006194Y016155D01*
X006044Y016305D01*
X006044Y016605D01*
X005884Y016530D02*
X005809Y016605D01*
X005659Y016605D01*
X005584Y016530D01*
X005584Y016455D01*
X005659Y016380D01*
X005809Y016380D01*
X005884Y016305D01*
X005884Y016230D01*
X005809Y016155D01*
X005659Y016155D01*
X005584Y016230D01*
X007005Y017055D02*
X007305Y017055D01*
X007155Y017055D02*
X007155Y017505D01*
X007005Y017355D01*
X007032Y018475D02*
X006957Y018550D01*
X007032Y018475D02*
X007182Y018475D01*
X007257Y018550D01*
X007257Y018625D01*
X007182Y018700D01*
X007032Y018700D01*
X006957Y018775D01*
X006957Y018850D01*
X007032Y018925D01*
X007182Y018925D01*
X007257Y018850D01*
X007417Y018850D02*
X007417Y018775D01*
X007492Y018700D01*
X007643Y018700D01*
X007718Y018625D01*
X007718Y018550D01*
X007643Y018475D01*
X007492Y018475D01*
X007417Y018550D01*
X007417Y018850D02*
X007492Y018925D01*
X007643Y018925D01*
X007718Y018850D01*
X006797Y018925D02*
X006497Y018925D01*
X006497Y018475D01*
X006797Y018475D01*
X006647Y018700D02*
X006497Y018700D01*
X006336Y018700D02*
X006336Y018850D01*
X006261Y018925D01*
X006036Y018925D01*
X006036Y018475D01*
X006036Y018625D02*
X006261Y018625D01*
X006336Y018700D01*
X006186Y018625D02*
X006336Y018475D01*
X005876Y018550D02*
X005876Y018850D01*
X005801Y018925D01*
X005576Y018925D01*
X005576Y018475D01*
X005801Y018475D01*
X005876Y018550D01*
X005416Y018550D02*
X005416Y018850D01*
X005341Y018925D01*
X005115Y018925D01*
X005115Y018475D01*
X005341Y018475D01*
X005416Y018550D01*
X004955Y018475D02*
X004955Y018775D01*
X004805Y018925D01*
X004655Y018775D01*
X004655Y018475D01*
X004655Y018700D02*
X004955Y018700D01*
X004844Y018846D02*
X005057Y019058D01*
X004951Y018952D02*
X004632Y019271D01*
X004632Y019058D01*
X004526Y019801D02*
X004738Y020013D01*
X004852Y020126D02*
X005064Y020339D01*
X005177Y020452D02*
X004859Y020770D01*
X005071Y020983D01*
X005184Y021096D02*
X005397Y021308D01*
X005290Y021202D02*
X005609Y020884D01*
X005124Y020717D02*
X005018Y020611D01*
X004746Y020657D02*
X004533Y020445D01*
X004852Y020126D01*
X004692Y020286D02*
X004799Y020392D01*
X004208Y020119D02*
X004526Y019801D01*
X007902Y022223D02*
X008115Y022435D01*
X008221Y022223D02*
X007902Y022541D01*
X007902Y022223D01*
X009160Y019630D02*
X009160Y018130D01*
X009560Y018130D02*
X009560Y018880D01*
X010260Y018880D01*
X010260Y018130D01*
X009560Y018130D01*
X009176Y018880D02*
X009178Y018942D01*
X009184Y019005D01*
X009194Y019066D01*
X009208Y019127D01*
X009225Y019187D01*
X009246Y019246D01*
X009272Y019303D01*
X009300Y019358D01*
X009332Y019412D01*
X009368Y019463D01*
X009406Y019513D01*
X009448Y019559D01*
X009492Y019603D01*
X009540Y019644D01*
X009589Y019682D01*
X009641Y019716D01*
X009695Y019747D01*
X009751Y019775D01*
X009809Y019799D01*
X009868Y019820D01*
X009928Y019836D01*
X009989Y019849D01*
X010051Y019858D01*
X010113Y019863D01*
X010176Y019864D01*
X010238Y019861D01*
X010300Y019854D01*
X010362Y019843D01*
X010422Y019828D01*
X010482Y019810D01*
X010540Y019788D01*
X010597Y019762D01*
X010652Y019732D01*
X010705Y019699D01*
X010756Y019663D01*
X010804Y019624D01*
X010850Y019581D01*
X010893Y019536D01*
X010933Y019488D01*
X010970Y019438D01*
X011004Y019385D01*
X011035Y019331D01*
X011061Y019275D01*
X011085Y019217D01*
X011104Y019157D01*
X011120Y019097D01*
X011132Y019035D01*
X011140Y018974D01*
X011144Y018911D01*
X011144Y018849D01*
X011140Y018786D01*
X011132Y018725D01*
X011120Y018663D01*
X011104Y018603D01*
X011085Y018543D01*
X011061Y018485D01*
X011035Y018429D01*
X011004Y018375D01*
X010970Y018322D01*
X010933Y018272D01*
X010893Y018224D01*
X010850Y018179D01*
X010804Y018136D01*
X010756Y018097D01*
X010705Y018061D01*
X010652Y018028D01*
X010597Y017998D01*
X010540Y017972D01*
X010482Y017950D01*
X010422Y017932D01*
X010362Y017917D01*
X010300Y017906D01*
X010238Y017899D01*
X010176Y017896D01*
X010113Y017897D01*
X010051Y017902D01*
X009989Y017911D01*
X009928Y017924D01*
X009868Y017940D01*
X009809Y017961D01*
X009751Y017985D01*
X009695Y018013D01*
X009641Y018044D01*
X009589Y018078D01*
X009540Y018116D01*
X009492Y018157D01*
X009448Y018201D01*
X009406Y018247D01*
X009368Y018297D01*
X009332Y018348D01*
X009300Y018402D01*
X009272Y018457D01*
X009246Y018514D01*
X009225Y018573D01*
X009208Y018633D01*
X009194Y018694D01*
X009184Y018755D01*
X009178Y018818D01*
X009176Y018880D01*
X009160Y018130D02*
X009203Y018076D01*
X009249Y018024D01*
X009298Y017975D01*
X009350Y017928D01*
X009404Y017885D01*
X009460Y017844D01*
X009519Y017807D01*
X009579Y017773D01*
X009642Y017743D01*
X009705Y017716D01*
X009771Y017692D01*
X009837Y017672D01*
X009905Y017656D01*
X009973Y017644D01*
X010042Y017636D01*
X010111Y017631D01*
X010181Y017630D01*
X010250Y017633D01*
X010319Y017640D01*
X010387Y017651D01*
X010455Y017665D01*
X010522Y017684D01*
X010588Y017706D01*
X010653Y017731D01*
X010716Y017760D01*
X010777Y017793D01*
X010836Y017829D01*
X010893Y017868D01*
X010949Y017910D01*
X011001Y017955D01*
X011051Y018003D01*
X011098Y018054D01*
X011143Y018108D01*
X011184Y018163D01*
X011222Y018221D01*
X011257Y018281D01*
X011289Y018343D01*
X011317Y018406D01*
X011341Y018471D01*
X011362Y018537D01*
X011379Y018605D01*
X011393Y018673D01*
X011402Y018742D01*
X011408Y018811D01*
X011410Y018880D01*
X011408Y018949D01*
X011402Y019018D01*
X011393Y019087D01*
X011379Y019155D01*
X011362Y019223D01*
X011341Y019289D01*
X011317Y019354D01*
X011289Y019417D01*
X011257Y019479D01*
X011222Y019539D01*
X011184Y019597D01*
X011143Y019652D01*
X011098Y019706D01*
X011051Y019757D01*
X011001Y019805D01*
X010949Y019850D01*
X010893Y019892D01*
X010836Y019931D01*
X010777Y019967D01*
X010716Y020000D01*
X010653Y020029D01*
X010588Y020054D01*
X010522Y020076D01*
X010455Y020095D01*
X010387Y020109D01*
X010319Y020120D01*
X010250Y020127D01*
X010181Y020130D01*
X010111Y020129D01*
X010042Y020124D01*
X009973Y020116D01*
X009905Y020104D01*
X009837Y020088D01*
X009771Y020068D01*
X009705Y020044D01*
X009642Y020017D01*
X009579Y019987D01*
X009519Y019953D01*
X009460Y019916D01*
X009404Y019875D01*
X009350Y019832D01*
X009298Y019785D01*
X009249Y019736D01*
X009203Y019684D01*
X009160Y019630D01*
X011575Y021455D02*
X011875Y021455D01*
X011725Y021455D02*
X011725Y021905D01*
X011575Y021755D01*
X012025Y022355D02*
X012025Y022805D01*
X012325Y022805D01*
X012485Y022805D02*
X012711Y022805D01*
X012786Y022730D01*
X012786Y022580D01*
X012711Y022505D01*
X012485Y022505D01*
X012485Y022355D02*
X012485Y022805D01*
X012636Y022505D02*
X012786Y022355D01*
X012946Y022430D02*
X013021Y022355D01*
X013171Y022355D01*
X013246Y022430D01*
X013246Y022730D01*
X013171Y022805D01*
X013021Y022805D01*
X012946Y022730D01*
X012946Y022430D01*
X013406Y022355D02*
X013406Y022805D01*
X013706Y022355D01*
X013706Y022805D01*
X013867Y022805D02*
X014167Y022805D01*
X014017Y022805D02*
X014017Y022355D01*
X012175Y022580D02*
X012025Y022580D01*
X016125Y021680D02*
X016425Y021680D01*
X016350Y021455D02*
X016350Y021905D01*
X016125Y021680D01*
X019646Y022196D02*
X019858Y021983D01*
X019752Y022089D02*
X020071Y022408D01*
X019858Y022408D01*
X020601Y022514D02*
X020919Y022832D01*
X021078Y022673D01*
X021078Y022567D01*
X020972Y022461D01*
X020866Y022461D01*
X020707Y022620D01*
X020813Y022514D02*
X020813Y022302D01*
X020926Y022188D02*
X021032Y022082D01*
X020979Y022135D02*
X021298Y022454D01*
X021245Y022507D02*
X021351Y022401D01*
X021409Y022237D02*
X021196Y022024D01*
X021196Y021918D01*
X021303Y021812D01*
X021409Y021812D01*
X021515Y021918D01*
X021409Y022024D01*
X021621Y022024D02*
X021621Y022130D01*
X021515Y022237D01*
X021409Y022237D01*
X021787Y021964D02*
X021469Y021646D01*
X021628Y021805D02*
X021840Y021593D01*
X022000Y021752D02*
X021681Y021433D01*
X021901Y021214D02*
X022219Y021532D01*
X022325Y021426D02*
X022113Y021639D01*
X023023Y019138D02*
X023235Y018925D01*
X023023Y018819D02*
X023341Y019138D01*
X023023Y019138D01*
X023550Y016065D02*
X023475Y015990D01*
X023475Y015840D01*
X023550Y015765D01*
X023850Y015765D01*
X023925Y015840D01*
X023925Y015990D01*
X023850Y016065D01*
X023850Y015604D02*
X023550Y015604D01*
X023475Y015529D01*
X023475Y015304D01*
X023925Y015304D01*
X023925Y015529D01*
X023850Y015604D01*
X023925Y015144D02*
X023625Y015144D01*
X023475Y014994D01*
X023625Y014844D01*
X023925Y014844D01*
X023700Y014844D02*
X023700Y015144D01*
X018293Y014935D02*
X018307Y014928D01*
X018322Y014924D01*
X018338Y014923D01*
X018354Y014926D01*
X018368Y014933D01*
X018381Y014942D01*
X018391Y014955D01*
X018398Y014969D01*
X018402Y014984D01*
X018403Y015000D01*
X018400Y015016D01*
X018393Y015030D01*
X018384Y015043D01*
X018371Y015053D01*
X018357Y015060D01*
X018342Y015064D01*
X018326Y015065D01*
X018310Y015062D01*
X018296Y015055D01*
X018283Y015046D01*
X018273Y015033D01*
X018273Y015034D02*
X018273Y014246D01*
X017407Y014246D02*
X017407Y015034D01*
X012050Y018080D02*
X012052Y018166D01*
X012058Y018253D01*
X012068Y018338D01*
X012082Y018424D01*
X012100Y018508D01*
X012121Y018592D01*
X012147Y018674D01*
X012176Y018756D01*
X012209Y018835D01*
X012246Y018914D01*
X012286Y018990D01*
X012330Y019064D01*
X012377Y019137D01*
X012428Y019207D01*
X012481Y019275D01*
X012538Y019340D01*
X012598Y019402D01*
X012660Y019462D01*
X012725Y019519D01*
X012793Y019572D01*
X012863Y019623D01*
X012936Y019670D01*
X013010Y019714D01*
X013086Y019754D01*
X013165Y019791D01*
X013244Y019824D01*
X013326Y019853D01*
X013408Y019879D01*
X013492Y019900D01*
X013576Y019918D01*
X013662Y019932D01*
X013747Y019942D01*
X013834Y019948D01*
X013920Y019950D01*
X014006Y019948D01*
X014093Y019942D01*
X014178Y019932D01*
X014264Y019918D01*
X014348Y019900D01*
X014432Y019879D01*
X014514Y019853D01*
X014596Y019824D01*
X014675Y019791D01*
X014754Y019754D01*
X014830Y019714D01*
X014904Y019670D01*
X014977Y019623D01*
X015047Y019572D01*
X015115Y019519D01*
X015180Y019462D01*
X015242Y019402D01*
X015302Y019340D01*
X015359Y019275D01*
X015412Y019207D01*
X015463Y019137D01*
X015510Y019064D01*
X015554Y018990D01*
X015594Y018914D01*
X015631Y018835D01*
X015664Y018756D01*
X015693Y018674D01*
X015719Y018592D01*
X015740Y018508D01*
X015758Y018424D01*
X015772Y018338D01*
X015782Y018253D01*
X015788Y018166D01*
X015790Y018080D01*
X015788Y017994D01*
X015782Y017907D01*
X015772Y017822D01*
X015758Y017736D01*
X015740Y017652D01*
X015719Y017568D01*
X015693Y017486D01*
X015664Y017404D01*
X015631Y017325D01*
X015594Y017246D01*
X015554Y017170D01*
X015510Y017096D01*
X015463Y017023D01*
X015412Y016953D01*
X015359Y016885D01*
X015302Y016820D01*
X015242Y016758D01*
X015180Y016698D01*
X015115Y016641D01*
X015047Y016588D01*
X014977Y016537D01*
X014904Y016490D01*
X014830Y016446D01*
X014754Y016406D01*
X014675Y016369D01*
X014596Y016336D01*
X014514Y016307D01*
X014432Y016281D01*
X014348Y016260D01*
X014264Y016242D01*
X014178Y016228D01*
X014093Y016218D01*
X014006Y016212D01*
X013920Y016210D01*
X013834Y016212D01*
X013747Y016218D01*
X013662Y016228D01*
X013576Y016242D01*
X013492Y016260D01*
X013408Y016281D01*
X013326Y016307D01*
X013244Y016336D01*
X013165Y016369D01*
X013086Y016406D01*
X013010Y016446D01*
X012936Y016490D01*
X012863Y016537D01*
X012793Y016588D01*
X012725Y016641D01*
X012660Y016698D01*
X012598Y016758D01*
X012538Y016820D01*
X012481Y016885D01*
X012428Y016953D01*
X012377Y017023D01*
X012330Y017096D01*
X012286Y017170D01*
X012246Y017246D01*
X012209Y017325D01*
X012176Y017404D01*
X012147Y017486D01*
X012121Y017568D01*
X012100Y017652D01*
X012082Y017736D01*
X012068Y017822D01*
X012058Y017907D01*
X012052Y017994D01*
X012050Y018080D01*
X012053Y018250D02*
X011714Y018250D01*
X011714Y017910D01*
X012053Y017910D01*
X023015Y008575D02*
X023465Y008575D01*
X023015Y008275D01*
X023465Y008275D01*
X023390Y008115D02*
X023090Y008115D01*
X023015Y008039D01*
X023015Y007889D01*
X023090Y007814D01*
X023390Y007814D01*
X023465Y007889D01*
X023465Y008039D01*
X023390Y008115D01*
X023465Y007657D02*
X023465Y007507D01*
X023465Y007582D02*
X023015Y007582D01*
X023015Y007507D02*
X023015Y007657D01*
X023090Y007347D02*
X023015Y007272D01*
X023015Y007122D01*
X023090Y007047D01*
X023165Y007047D01*
X023240Y007122D01*
X023240Y007272D01*
X023315Y007347D01*
X023390Y007347D01*
X023465Y007272D01*
X023465Y007122D01*
X023390Y007047D01*
X023465Y006887D02*
X023015Y006887D01*
X023015Y006587D02*
X023465Y006887D01*
X023465Y006587D02*
X023015Y006587D01*
X023165Y006426D02*
X023015Y006276D01*
X023165Y006126D01*
X023465Y006126D01*
X023240Y006126D02*
X023240Y006426D01*
X023165Y006426D02*
X023465Y006426D01*
X023240Y005966D02*
X023090Y005966D01*
X023015Y005891D01*
X023015Y005666D01*
X023465Y005666D01*
X023315Y005666D02*
X023315Y005891D01*
X023240Y005966D01*
X023465Y005506D02*
X023015Y005205D01*
X023015Y005045D02*
X023015Y004745D01*
X023465Y004745D01*
X023465Y005045D01*
X023465Y005205D02*
X023015Y005506D01*
X023240Y004895D02*
X023240Y004745D01*
X022365Y006775D02*
X022065Y006775D01*
X022215Y006775D02*
X022215Y007225D01*
X022065Y007075D01*
D18*
X022953Y013391D02*
X023267Y013705D01*
X023267Y013548D02*
X022953Y013548D01*
X022953Y013705D02*
X023267Y013391D01*
X023110Y013391D02*
X023110Y013705D01*
X022867Y018271D02*
X022553Y018585D01*
X022553Y018428D02*
X022867Y018428D01*
X022867Y018585D02*
X022553Y018271D01*
X022710Y018271D02*
X022710Y018585D01*
X008209Y017037D02*
X007895Y016723D01*
X008052Y016723D02*
X008052Y017037D01*
X007895Y017037D02*
X008209Y016723D01*
X008209Y016880D02*
X007895Y016880D01*
D19*
X009529Y021280D02*
X009531Y021327D01*
X009537Y021373D01*
X009547Y021419D01*
X009560Y021464D01*
X009578Y021507D01*
X009599Y021549D01*
X009623Y021589D01*
X009651Y021626D01*
X009682Y021661D01*
X009716Y021694D01*
X009752Y021723D01*
X009791Y021749D01*
X009832Y021772D01*
X009875Y021791D01*
X009919Y021807D01*
X009964Y021819D01*
X010010Y021827D01*
X010057Y021831D01*
X010103Y021831D01*
X010150Y021827D01*
X010196Y021819D01*
X010241Y021807D01*
X010285Y021791D01*
X010328Y021772D01*
X010369Y021749D01*
X010408Y021723D01*
X010444Y021694D01*
X010478Y021661D01*
X010509Y021626D01*
X010537Y021589D01*
X010561Y021549D01*
X010582Y021507D01*
X010600Y021464D01*
X010613Y021419D01*
X010623Y021373D01*
X010629Y021327D01*
X010631Y021280D01*
X010629Y021233D01*
X010623Y021187D01*
X010613Y021141D01*
X010600Y021096D01*
X010582Y021053D01*
X010561Y021011D01*
X010537Y020971D01*
X010509Y020934D01*
X010478Y020899D01*
X010444Y020866D01*
X010408Y020837D01*
X010369Y020811D01*
X010328Y020788D01*
X010285Y020769D01*
X010241Y020753D01*
X010196Y020741D01*
X010150Y020733D01*
X010103Y020729D01*
X010057Y020729D01*
X010010Y020733D01*
X009964Y020741D01*
X009919Y020753D01*
X009875Y020769D01*
X009832Y020788D01*
X009791Y020811D01*
X009752Y020837D01*
X009716Y020866D01*
X009682Y020899D01*
X009651Y020934D01*
X009623Y020971D01*
X009599Y021011D01*
X009578Y021053D01*
X009560Y021096D01*
X009547Y021141D01*
X009537Y021187D01*
X009531Y021233D01*
X009529Y021280D01*
X017129Y021280D02*
X017131Y021327D01*
X017137Y021373D01*
X017147Y021419D01*
X017160Y021464D01*
X017178Y021507D01*
X017199Y021549D01*
X017223Y021589D01*
X017251Y021626D01*
X017282Y021661D01*
X017316Y021694D01*
X017352Y021723D01*
X017391Y021749D01*
X017432Y021772D01*
X017475Y021791D01*
X017519Y021807D01*
X017564Y021819D01*
X017610Y021827D01*
X017657Y021831D01*
X017703Y021831D01*
X017750Y021827D01*
X017796Y021819D01*
X017841Y021807D01*
X017885Y021791D01*
X017928Y021772D01*
X017969Y021749D01*
X018008Y021723D01*
X018044Y021694D01*
X018078Y021661D01*
X018109Y021626D01*
X018137Y021589D01*
X018161Y021549D01*
X018182Y021507D01*
X018200Y021464D01*
X018213Y021419D01*
X018223Y021373D01*
X018229Y021327D01*
X018231Y021280D01*
X018229Y021233D01*
X018223Y021187D01*
X018213Y021141D01*
X018200Y021096D01*
X018182Y021053D01*
X018161Y021011D01*
X018137Y020971D01*
X018109Y020934D01*
X018078Y020899D01*
X018044Y020866D01*
X018008Y020837D01*
X017969Y020811D01*
X017928Y020788D01*
X017885Y020769D01*
X017841Y020753D01*
X017796Y020741D01*
X017750Y020733D01*
X017703Y020729D01*
X017657Y020729D01*
X017610Y020733D01*
X017564Y020741D01*
X017519Y020753D01*
X017475Y020769D01*
X017432Y020788D01*
X017391Y020811D01*
X017352Y020837D01*
X017316Y020866D01*
X017282Y020899D01*
X017251Y020934D01*
X017223Y020971D01*
X017199Y021011D01*
X017178Y021053D01*
X017160Y021096D01*
X017147Y021141D01*
X017137Y021187D01*
X017131Y021233D01*
X017129Y021280D01*
X022930Y013000D02*
X022909Y012998D01*
X022889Y012993D01*
X022870Y012984D01*
X022853Y012972D01*
X022838Y012957D01*
X022826Y012940D01*
X022817Y012921D01*
X022812Y012901D01*
X022810Y012880D01*
X022812Y012859D01*
X022817Y012839D01*
X022826Y012820D01*
X022838Y012803D01*
X022853Y012788D01*
X022870Y012776D01*
X022889Y012767D01*
X022909Y012762D01*
X022930Y012760D01*
D20*
X015400Y008250D03*
X014400Y008250D03*
X013400Y008250D03*
D21*
X018345Y014850D02*
X018470Y014850D01*
X018495Y014875D01*
X018495Y014925D01*
X018470Y014950D01*
X018345Y014950D01*
X018370Y014998D02*
X018345Y015023D01*
X018345Y015073D01*
X018370Y015098D01*
X018395Y015098D01*
X018420Y015073D01*
X018445Y015098D01*
X018470Y015098D01*
X018495Y015073D01*
X018495Y015023D01*
X018470Y014998D01*
X018420Y015048D02*
X018420Y015073D01*
X018005Y017299D02*
X018005Y017449D01*
X017930Y017374D01*
X018030Y017374D01*
X017883Y017324D02*
X017883Y017449D01*
X017783Y017449D02*
X017783Y017324D01*
X017808Y017299D01*
X017858Y017299D01*
X017883Y017324D01*
D22*
X019589Y013371D02*
X019589Y012229D01*
X020731Y012229D01*
X020731Y013371D01*
X019589Y013371D01*
X020487Y013194D02*
X020489Y013212D01*
X020495Y013228D01*
X020504Y013243D01*
X020517Y013256D01*
X020532Y013265D01*
X020548Y013271D01*
X020566Y013273D01*
X020584Y013271D01*
X020600Y013265D01*
X020615Y013256D01*
X020628Y013243D01*
X020637Y013228D01*
X020643Y013212D01*
X020645Y013194D01*
X020643Y013176D01*
X020637Y013160D01*
X020628Y013145D01*
X020615Y013132D01*
X020600Y013123D01*
X020584Y013117D01*
X020566Y013115D01*
X020548Y013117D01*
X020532Y013123D01*
X020517Y013132D01*
X020504Y013145D01*
X020495Y013160D01*
X020489Y013176D01*
X020487Y013194D01*
M02*
