G75*
%MOIN*%
%OFA0B0*%
%FSLAX24Y24*%
%IPPOS*%
%LPD*%
%AMOC8*
5,1,8,0,0,1.08239X$1,22.5*
%
%ADD10C,0.0050*%
%ADD11C,0.0060*%
%ADD12C,0.0040*%
%ADD13C,0.0010*%
%ADD14R,0.0079X0.0551*%
D10*
X008094Y008254D02*
X008094Y014160D01*
X014000Y014160D01*
X014000Y012240D01*
X014600Y012240D01*
X014600Y010200D01*
X014000Y010200D01*
X014000Y008254D01*
X008094Y008254D01*
X013389Y007445D02*
X013389Y006795D01*
X014451Y006795D01*
X014451Y007445D01*
X013389Y007445D01*
X014000Y010200D02*
X014000Y012240D01*
D11*
X012287Y012745D02*
X012287Y013230D01*
X012287Y009390D02*
X012287Y008905D01*
X012529Y009148D02*
X012044Y009148D01*
X013723Y007120D02*
X014117Y007277D01*
X014117Y006963D01*
X013723Y007120D01*
D12*
X013673Y007739D02*
X013673Y007969D01*
X013750Y008046D01*
X013904Y008046D01*
X013980Y007969D01*
X013980Y007739D01*
X013520Y007739D01*
X013673Y007893D02*
X013520Y008046D01*
X013520Y008200D02*
X013597Y008200D01*
X013904Y008507D01*
X013980Y008507D01*
X013980Y008200D01*
X014823Y007490D02*
X015130Y007490D01*
X014977Y007490D02*
X014977Y007950D01*
X015130Y007797D01*
X015284Y007874D02*
X015284Y007567D01*
X015361Y007490D01*
X015514Y007490D01*
X015591Y007567D01*
X015591Y007874D01*
X015514Y007950D01*
X015361Y007950D01*
X015284Y007874D01*
X015437Y007643D02*
X015284Y007490D01*
X015273Y010260D02*
X015427Y010413D01*
X015350Y010413D02*
X015580Y010413D01*
X015580Y010260D02*
X015580Y010720D01*
X015350Y010720D01*
X015273Y010644D01*
X015273Y010490D01*
X015350Y010413D01*
X015120Y010413D02*
X015043Y010490D01*
X014889Y010490D01*
X014813Y010413D01*
X014813Y010337D01*
X014889Y010260D01*
X015043Y010260D01*
X015120Y010337D01*
X015120Y010413D01*
X015043Y010490D02*
X015120Y010567D01*
X015120Y010644D01*
X015043Y010720D01*
X014889Y010720D01*
X014813Y010644D01*
X014813Y010567D01*
X014889Y010490D01*
X011761Y016720D02*
X011761Y017180D01*
X011531Y017180D01*
X011454Y017104D01*
X011454Y016950D01*
X011531Y016873D01*
X011761Y016873D01*
X011608Y016873D02*
X011454Y016720D01*
X011301Y016720D02*
X010994Y016720D01*
X011147Y016720D02*
X011147Y017180D01*
X011301Y017027D01*
X010840Y017027D02*
X010687Y017180D01*
X010687Y016720D01*
X010840Y016720D02*
X010533Y016720D01*
X009580Y017860D02*
X009580Y018320D01*
X009350Y018320D01*
X009273Y018244D01*
X009273Y018090D01*
X009350Y018013D01*
X009580Y018013D01*
X009427Y018013D02*
X009273Y017860D01*
X009120Y017860D02*
X008813Y017860D01*
X008821Y017980D02*
X008591Y017980D01*
X008514Y017904D01*
X008514Y017750D01*
X008591Y017673D01*
X008821Y017673D01*
X008821Y017520D02*
X008821Y017980D01*
X008659Y017937D02*
X008352Y018244D01*
X008352Y017937D01*
X008429Y017860D01*
X008582Y017860D01*
X008659Y017937D01*
X008659Y018244D01*
X008582Y018320D01*
X008429Y018320D01*
X008352Y018244D01*
X008284Y017980D02*
X008130Y017980D01*
X008053Y017904D01*
X008053Y017597D01*
X008130Y017520D01*
X008284Y017520D01*
X008360Y017597D01*
X008284Y017750D02*
X008053Y017750D01*
X008284Y017750D02*
X008360Y017827D01*
X008360Y017904D01*
X008284Y017980D01*
X008667Y017673D02*
X008514Y017520D01*
X008966Y017860D02*
X008966Y018320D01*
X009120Y018167D01*
D13*
X013554Y006721D02*
X013604Y006721D01*
X013629Y006696D01*
X013676Y006696D02*
X013702Y006721D01*
X013777Y006721D01*
X013777Y006571D01*
X013702Y006571D01*
X013676Y006596D01*
X013676Y006696D01*
X013554Y006721D02*
X013529Y006696D01*
X013529Y006671D01*
X013629Y006571D01*
X013529Y006571D01*
D14*
X013684Y007120D03*
M02*
