%
M48
M72
T01C0.0236
T02C0.0315
T03C0.0360
T04C0.0400
T05C0.0470
T06C0.1102
%
T01
X5440Y5200
X8960Y7760
X10080Y8960
X12560Y8880
X12720Y7200
X14400Y9200
X16320Y8880
X16320Y9680
X16800Y10480
X16960Y11360
X16240Y12400
X17280Y12560
X18080Y12560
X18800Y11520
X20560Y11040
X21760Y10880
X22400Y10720
X22960Y10640
X21840Y11760
X22240Y14160
X21680Y14880
X20880Y14640
X20080Y16560
X19520Y17040
X18720Y16800
X18880Y17600
X18400Y18560
X19760Y19440
X20880Y19280
X20480Y17520
X20960Y17360
X21600Y17440
X22320Y16720
X23280Y16000
X18080Y15680
X17760Y16320
X16000Y16720
X16640Y18240
X16000Y20160
X16480Y22560
X15280Y23040
X12640Y20080
X11920Y20880
X8880Y20240
X8240Y19520
X7200Y18240
X9120Y16480
X9840Y15200
X9440Y14800
X11120Y15280
X11200Y16880
X11840Y17360
X11920Y13280
X11760Y12560
X11680Y12000
X11280Y11520
X10000Y11520
X10320Y12480
X10800Y12800
X10000Y13120
X8080Y11680
X7600Y12080
X12560Y12480
X14480Y12560
X14800Y13280
X15440Y13280
X17840Y13760
X18240Y9280
X17120Y8880
X17360Y8320
X17120Y7600
X19040Y6960
X20480Y8640
X20400Y9280
X22880Y6960
X23440Y6640
X16880Y5440
X19360Y22320
X22240Y23200
X8240Y22800
X5040Y22320
T02
X9310Y19261
X9910Y18499
X10510Y19261
X11010Y18499
X13213Y18787
X14627Y18787
X14627Y17373
X13213Y17373
X13420Y15158
X12420Y15158
X14420Y15158
X15420Y15158
T03
X23600Y13380
X23600Y12380
T04
X22300Y6100
X21300Y6100
X21300Y5100
X22300Y5100
X20300Y5100
X19300Y5100
X19300Y6100
X20300Y6100
X15500Y5440
X14500Y5440
X13500Y5440
X12500Y5440
X6440Y7280
X5440Y7280
X4440Y7280
X4440Y9280
X5440Y9280
X6440Y9280
X6440Y11360
X5440Y11360
X4440Y11360
X4440Y13360
X5440Y13360
X6440Y13360
X6440Y15360
X5440Y15360
X4440Y15360
X4440Y17280
X5440Y17280
X6440Y17280
X5339Y19659
X6046Y20366
X6754Y21074
X7461Y21781
X12500Y21680
X13500Y21680
X14500Y21680
X15500Y21680
X20459Y21701
X21166Y20994
X21874Y20286
X22581Y19579
T05
X10344Y6060
X8376Y6060
T06
X10080Y21280
X17680Y21280
M30
