G75*
%MOIN*%
%OFA0B0*%
%FSLAX24Y24*%
%IPPOS*%
%LPD*%
%AMOC8*
5,1,8,0,0,1.08239X$1,22.5*
%
%ADD10R,0.0592X0.0671*%
%ADD11R,0.0710X0.0592*%
%ADD12C,0.0640*%
%ADD13R,0.0592X0.0710*%
%ADD14R,0.0456X0.0194*%
%ADD15R,0.0194X0.0456*%
%ADD16R,0.0671X0.0592*%
%ADD17OC8,0.0680*%
%ADD18R,0.0297X0.0552*%
%ADD19C,0.1182*%
%ADD20C,0.0674*%
%ADD21R,0.0640X0.0190*%
%ADD22R,0.0760X0.0940*%
%ADD23R,0.0300X0.0580*%
%ADD24R,0.0631X0.1182*%
%ADD25R,0.0631X0.0474*%
%ADD26R,0.0671X0.0671*%
%ADD27R,0.0616X0.0363*%
%ADD28C,0.0434*%
%ADD29R,0.0710X0.0540*%
%ADD30R,0.0720X0.0060*%
%ADD31C,0.0680*%
%ADD32C,0.0050*%
%ADD33C,0.0476*%
D10*
X011085Y011580D03*
X011755Y011580D03*
X011755Y012200D03*
X011085Y012200D03*
X011195Y013380D03*
X010525Y013380D03*
X008395Y012380D03*
X007725Y012380D03*
X006795Y012580D03*
X006125Y012580D03*
X006565Y015780D03*
X007235Y015780D03*
X014285Y015460D03*
X014955Y015460D03*
X014705Y013160D03*
X015375Y013160D03*
X015415Y012460D03*
X014745Y012460D03*
X007075Y018900D03*
X006405Y018900D03*
X015925Y020720D03*
X016595Y020720D03*
X016565Y021540D03*
X017235Y021540D03*
X019665Y020840D03*
X020335Y020840D03*
D11*
X018980Y020554D03*
X018180Y020554D03*
X018180Y019806D03*
X018980Y019806D03*
X014260Y019726D03*
X014260Y020474D03*
X009540Y022766D03*
X009540Y023514D03*
X008580Y020394D03*
X008580Y019646D03*
X010580Y017894D03*
X011360Y017894D03*
X011360Y017146D03*
X010580Y017146D03*
X022980Y022926D03*
X022980Y023674D03*
D12*
X013100Y008480D02*
X013100Y007920D01*
X014100Y007920D02*
X014100Y008480D01*
X015600Y008500D02*
X015600Y007940D01*
X016600Y007940D02*
X016600Y008500D01*
X011640Y008500D02*
X011640Y007940D01*
X010640Y007940D02*
X010640Y008500D01*
D13*
X011326Y009780D03*
X012074Y009780D03*
X011034Y010660D03*
X010286Y010660D03*
X008454Y013100D03*
X007706Y013100D03*
X006834Y013260D03*
X006086Y013260D03*
X011986Y018660D03*
X012734Y018660D03*
X012154Y020340D03*
X011406Y020340D03*
X011354Y023220D03*
X010606Y023220D03*
X007834Y023220D03*
X007086Y023220D03*
X015086Y023220D03*
X015834Y023220D03*
X018686Y023380D03*
X019434Y023380D03*
D14*
X007728Y017872D03*
X007728Y017675D03*
X007728Y017478D03*
X007728Y017282D03*
X007728Y017085D03*
X007728Y016888D03*
X006152Y016888D03*
X006152Y017085D03*
X006152Y017282D03*
X006152Y017478D03*
X006152Y017675D03*
X006152Y017872D03*
D15*
X006448Y018168D03*
X006645Y018168D03*
X006842Y018168D03*
X007038Y018168D03*
X007235Y018168D03*
X007432Y018168D03*
X007432Y016592D03*
X007235Y016592D03*
X007038Y016592D03*
X006842Y016592D03*
X006645Y016592D03*
X006448Y016592D03*
D16*
X005540Y017205D03*
X005540Y017875D03*
X008420Y017955D03*
X008420Y017285D03*
X010100Y021445D03*
X010100Y022115D03*
X007660Y010875D03*
X007660Y010205D03*
X009820Y009995D03*
X009820Y009325D03*
D17*
X018600Y009240D03*
X019600Y009240D03*
X020600Y009240D03*
X021600Y009240D03*
X021600Y008240D03*
X020600Y008240D03*
X019600Y008240D03*
X018600Y008240D03*
X021040Y021720D03*
X022040Y021720D03*
X022040Y022720D03*
X021040Y022720D03*
X021040Y023720D03*
X022040Y023720D03*
X022040Y024720D03*
X021040Y024720D03*
D18*
X009034Y010812D03*
X008660Y010812D03*
X008286Y010812D03*
X008286Y009788D03*
X009034Y009788D03*
D19*
X004515Y011837D03*
X004515Y018923D03*
X010540Y024980D03*
X015840Y024980D03*
X021925Y019043D03*
X021925Y011957D03*
D20*
X013854Y013531D03*
X012586Y013411D03*
X012586Y017349D03*
X013854Y017469D03*
D21*
X014360Y014850D03*
X014360Y014660D03*
X014360Y014460D03*
X014360Y014260D03*
X014360Y014070D03*
X016080Y014070D03*
X016080Y014260D03*
X016080Y014460D03*
X016080Y014660D03*
X016080Y014850D03*
X011760Y014810D03*
X011760Y014620D03*
X011760Y014420D03*
X011760Y014220D03*
X011760Y014030D03*
X010040Y014030D03*
X010040Y014220D03*
X010040Y014420D03*
X010040Y014620D03*
X010040Y014810D03*
D22*
X010900Y014420D03*
X015220Y014460D03*
D23*
X015040Y011460D03*
X014660Y011460D03*
X014280Y011460D03*
X014280Y010500D03*
X015040Y010500D03*
D24*
X015132Y009460D03*
X014188Y009460D03*
D25*
X019253Y018526D03*
X018387Y018900D03*
X019253Y019274D03*
D26*
X018180Y021251D03*
X018180Y022629D03*
X014260Y022629D03*
X012580Y022549D03*
X012580Y021171D03*
X014260Y021251D03*
X008820Y021091D03*
X008820Y022469D03*
D27*
X007836Y022495D03*
X007836Y022113D03*
X007084Y022109D03*
X007084Y022491D03*
X007084Y021727D03*
X007084Y021346D03*
X007836Y021349D03*
X007836Y021731D03*
X010844Y021807D03*
X010844Y022189D03*
X010844Y022571D03*
X011596Y022575D03*
X011596Y022193D03*
X011596Y021811D03*
X011596Y021429D03*
X010844Y021426D03*
X015084Y021426D03*
X015836Y021429D03*
X015836Y021811D03*
X015836Y022193D03*
X015836Y022575D03*
X015084Y022571D03*
X015084Y022189D03*
X015084Y021807D03*
X018924Y021807D03*
X018924Y022189D03*
X018924Y022571D03*
X019676Y022575D03*
X019676Y022193D03*
X019676Y021811D03*
X019676Y021429D03*
X018924Y021426D03*
D28*
X008646Y009060D03*
X006914Y009060D03*
D29*
X009140Y012920D03*
X009140Y013520D03*
X017060Y015400D03*
X017060Y016000D03*
D30*
X017060Y015700D03*
X009140Y013220D03*
D31*
X011640Y025640D02*
X011640Y026240D01*
X012640Y026240D02*
X012640Y025640D01*
X013640Y025640D02*
X013640Y026240D01*
X014640Y026240D02*
X014640Y025640D01*
D32*
X019952Y026352D02*
X019946Y026420D01*
X019952Y026488D01*
X019970Y026555D01*
X019999Y026617D01*
X020038Y026673D01*
X020087Y026722D01*
X020143Y026761D01*
X020205Y026790D01*
X020272Y026808D01*
X020340Y026814D01*
X020408Y026808D01*
X020475Y026790D01*
X020537Y026761D01*
X020593Y026722D01*
X020642Y026673D01*
X020681Y026617D01*
X020710Y026555D01*
X020728Y026488D01*
X020734Y026420D01*
X020728Y026352D01*
X020710Y026285D01*
X020681Y026223D01*
X020642Y026167D01*
X020593Y026118D01*
X020537Y026079D01*
X020475Y026050D01*
X020408Y026032D01*
X020340Y026026D01*
X020272Y026032D01*
X020205Y026050D01*
X020143Y026079D01*
X020087Y026118D01*
X020038Y026167D01*
X019999Y026223D01*
X019970Y026285D01*
X019952Y026352D01*
X019954Y026344D02*
X020726Y026344D01*
X020731Y026392D02*
X019949Y026392D01*
X019948Y026441D02*
X020732Y026441D01*
X020728Y026489D02*
X019952Y026489D01*
X019965Y026538D02*
X020715Y026538D01*
X020695Y026586D02*
X019985Y026586D01*
X020011Y026635D02*
X020669Y026635D01*
X020632Y026683D02*
X020048Y026683D01*
X020101Y026732D02*
X020579Y026732D01*
X020496Y026780D02*
X020184Y026780D01*
X019967Y026295D02*
X020713Y026295D01*
X020692Y026247D02*
X019988Y026247D01*
X020017Y026198D02*
X020663Y026198D01*
X020624Y026150D02*
X020056Y026150D01*
X020112Y026101D02*
X020568Y026101D01*
X020480Y026053D02*
X020200Y026053D01*
X004094Y024980D02*
X004088Y025048D01*
X004070Y025115D01*
X004041Y025177D01*
X004002Y025233D01*
X003953Y025282D01*
X003897Y025321D01*
X003835Y025350D01*
X003768Y025368D01*
X003700Y025374D01*
X003632Y025368D01*
X003565Y025350D01*
X003503Y025321D01*
X003447Y025282D01*
X003398Y025233D01*
X003359Y025177D01*
X003330Y025115D01*
X003312Y025048D01*
X003306Y024980D01*
X003312Y024912D01*
X003330Y024845D01*
X003359Y024783D01*
X003398Y024727D01*
X003447Y024678D01*
X003503Y024639D01*
X003565Y024610D01*
X003632Y024592D01*
X003700Y024586D01*
X003768Y024592D01*
X003835Y024610D01*
X003897Y024639D01*
X003953Y024678D01*
X004002Y024727D01*
X004041Y024783D01*
X004070Y024845D01*
X004088Y024912D01*
X004094Y024980D01*
X004093Y024986D02*
X003307Y024986D01*
X003311Y025034D02*
X004089Y025034D01*
X004079Y025083D02*
X003321Y025083D01*
X003338Y025131D02*
X004062Y025131D01*
X004039Y025180D02*
X003361Y025180D01*
X003395Y025228D02*
X004005Y025228D01*
X003958Y025277D02*
X003442Y025277D01*
X003512Y025325D02*
X003888Y025325D01*
X003701Y025374D02*
X003699Y025374D01*
X003310Y024937D02*
X004090Y024937D01*
X004082Y024889D02*
X003318Y024889D01*
X003332Y024840D02*
X004068Y024840D01*
X004045Y024792D02*
X003355Y024792D01*
X003387Y024743D02*
X004013Y024743D01*
X003969Y024695D02*
X003431Y024695D01*
X003493Y024646D02*
X003907Y024646D01*
X003788Y024598D02*
X003612Y024598D01*
X022327Y010562D02*
X022383Y010601D01*
X022445Y010630D01*
X022512Y010648D01*
X022580Y010654D01*
X022648Y010648D01*
X022715Y010630D01*
X022777Y010601D01*
X022833Y010562D01*
X022882Y010513D01*
X022921Y010457D01*
X022950Y010395D01*
X022968Y010328D01*
X022974Y010260D01*
X022968Y010192D01*
X022950Y010125D01*
X022921Y010063D01*
X022882Y010007D01*
X022833Y009958D01*
X022777Y009919D01*
X022715Y009890D01*
X022648Y009872D01*
X022580Y009866D01*
X022512Y009872D01*
X022445Y009890D01*
X022383Y009919D01*
X022327Y009958D01*
X022278Y010007D01*
X022239Y010063D01*
X022210Y010125D01*
X022192Y010192D01*
X022186Y010260D01*
X022192Y010328D01*
X022210Y010395D01*
X022239Y010457D01*
X022278Y010513D01*
X022327Y010562D01*
X022355Y010581D02*
X022805Y010581D01*
X022862Y010533D02*
X022298Y010533D01*
X022258Y010484D02*
X022902Y010484D01*
X022931Y010436D02*
X022229Y010436D01*
X022208Y010387D02*
X022952Y010387D01*
X022965Y010339D02*
X022195Y010339D01*
X022189Y010290D02*
X022971Y010290D01*
X022972Y010242D02*
X022188Y010242D01*
X022192Y010193D02*
X022968Y010193D01*
X022955Y010145D02*
X022205Y010145D01*
X022224Y010096D02*
X022936Y010096D01*
X022910Y010048D02*
X022250Y010048D01*
X022286Y009999D02*
X022874Y009999D01*
X022822Y009951D02*
X022338Y009951D01*
X022420Y009902D02*
X022740Y009902D01*
X022716Y010630D02*
X022444Y010630D01*
X004728Y008568D02*
X004734Y008500D01*
X004728Y008432D01*
X004710Y008365D01*
X004681Y008303D01*
X004642Y008247D01*
X004593Y008198D01*
X004537Y008159D01*
X004475Y008130D01*
X004408Y008112D01*
X004340Y008106D01*
X004272Y008112D01*
X004205Y008130D01*
X004143Y008159D01*
X004087Y008198D01*
X004038Y008247D01*
X003999Y008303D01*
X003970Y008365D01*
X003952Y008432D01*
X003946Y008500D01*
X003952Y008568D01*
X003970Y008635D01*
X003999Y008697D01*
X004038Y008753D01*
X004087Y008802D01*
X004143Y008841D01*
X004205Y008870D01*
X004272Y008888D01*
X004340Y008894D01*
X004408Y008888D01*
X004475Y008870D01*
X004537Y008841D01*
X004593Y008802D01*
X004642Y008753D01*
X004681Y008697D01*
X004710Y008635D01*
X004728Y008568D01*
X004730Y008544D02*
X003950Y008544D01*
X003947Y008496D02*
X004733Y008496D01*
X004729Y008447D02*
X003951Y008447D01*
X003961Y008399D02*
X004719Y008399D01*
X004703Y008350D02*
X003977Y008350D01*
X004000Y008302D02*
X004680Y008302D01*
X004646Y008253D02*
X004034Y008253D01*
X004081Y008205D02*
X004599Y008205D01*
X004530Y008156D02*
X004150Y008156D01*
X004326Y008108D02*
X004354Y008108D01*
X004721Y008593D02*
X003959Y008593D01*
X003973Y008641D02*
X004707Y008641D01*
X004684Y008690D02*
X003996Y008690D01*
X004028Y008738D02*
X004652Y008738D01*
X004608Y008787D02*
X004072Y008787D01*
X004135Y008835D02*
X004545Y008835D01*
X004424Y008884D02*
X004256Y008884D01*
D33*
X004940Y009460D03*
X007820Y008180D03*
X010740Y009900D03*
X012340Y010260D03*
X012900Y010260D03*
X016540Y009460D03*
X017740Y009860D03*
X017700Y010420D03*
X016740Y011220D03*
X016620Y011940D03*
X017740Y012500D03*
X017220Y013060D03*
X016340Y013380D03*
X017460Y013540D03*
X017860Y013860D03*
X016900Y014180D03*
X016900Y014660D03*
X016140Y015540D03*
X014380Y016340D03*
X013100Y016740D03*
X011860Y016900D03*
X009940Y017540D03*
X008820Y016180D03*
X008820Y015620D03*
X009700Y016020D03*
X009780Y015460D03*
X010940Y015300D03*
X013220Y014980D03*
X013700Y015380D03*
X013700Y014260D03*
X011860Y013460D03*
X012660Y012340D03*
X014100Y012340D03*
X015220Y011780D03*
X010340Y012100D03*
X008900Y012260D03*
X007700Y011860D03*
X007180Y011860D03*
X006380Y011820D03*
X006740Y011220D03*
X009300Y011300D03*
X008740Y014020D03*
X006300Y014500D03*
X003660Y015540D03*
X004620Y017220D03*
X007060Y017380D03*
X007700Y018580D03*
X005940Y018980D03*
X005780Y020020D03*
X006900Y020420D03*
X005780Y020660D03*
X004740Y020100D03*
X003900Y020660D03*
X004420Y020900D03*
X007140Y020900D03*
X009620Y021300D03*
X010380Y020860D03*
X011140Y019700D03*
X010100Y018820D03*
X011380Y018740D03*
X013540Y018980D03*
X014020Y018740D03*
X014820Y018740D03*
X015700Y018660D03*
X016100Y019300D03*
X015140Y019300D03*
X014420Y019140D03*
X016100Y020100D03*
X017380Y020500D03*
X015540Y020980D03*
X013700Y020820D03*
X013460Y020340D03*
X012820Y020580D03*
X013380Y021620D03*
X013780Y021940D03*
X012820Y021940D03*
X013700Y022420D03*
X014500Y023780D03*
X013300Y023860D03*
X012740Y024420D03*
X012180Y024180D03*
X013700Y024820D03*
X015940Y026260D03*
X018260Y026180D03*
X018820Y026580D03*
X018700Y025620D03*
X017340Y025140D03*
X017300Y024340D03*
X018980Y024020D03*
X019780Y024020D03*
X020100Y023620D03*
X019860Y024980D03*
X022900Y024420D03*
X018020Y022040D03*
X016740Y022820D03*
X016340Y022180D03*
X019820Y019700D03*
X021700Y020420D03*
X023220Y020740D03*
X021180Y018100D03*
X020980Y017140D03*
X019540Y016740D03*
X019060Y016180D03*
X019900Y015700D03*
X018940Y015220D03*
X019900Y014420D03*
X021340Y013540D03*
X021340Y015700D03*
X019300Y017620D03*
X017380Y018020D03*
X017220Y017540D03*
X009220Y019860D03*
X009460Y022100D03*
X010180Y022580D03*
X010180Y023700D03*
X009140Y024100D03*
X009540Y024420D03*
X008660Y025300D03*
X009540Y026500D03*
X004700Y025460D03*
X005940Y023300D03*
X004980Y022420D03*
X021580Y010420D03*
X017500Y008420D03*
X014820Y008180D03*
M02*
