%
M48
M72
T01C0.0236
T02C0.0354
T03C0.0360
T04C0.0394
T05C0.0400
T06C0.1102
%
T01
X7820Y8180
X4940Y9460
X6740Y11220
X6380Y11820
X7180Y11860
X7700Y11860
X8900Y12260
X10340Y12100
X9300Y11300
X12340Y10260
X12900Y10260
X10740Y9900
X14820Y8180
X17500Y8420
X16540Y9460
X17740Y9860
X17700Y10420
X16740Y11220
X16620Y11940
X17740Y12500
X17220Y13060
X16340Y13380
X17460Y13540
X17860Y13860
X16900Y14180
X16900Y14660
X16140Y15540
X14380Y16340
X13100Y16740
X11860Y16900
X9940Y17540
X8820Y16180
X8820Y15620
X9700Y16020
X9780Y15460
X10940Y15300
X13220Y14980
X13700Y15380
X13700Y14260
X11860Y13460
X12660Y12340
X14100Y12340
X15220Y11780
X21340Y13540
X19900Y14420
X18940Y15220
X19900Y15700
X19060Y16180
X19540Y16740
X20980Y17140
X21180Y18100
X19300Y17620
X17380Y18020
X17220Y17540
X15700Y18660
X14820Y18740
X14020Y18740
X13540Y18980
X14420Y19140
X15140Y19300
X16100Y19300
X16100Y20100
X17380Y20500
X15540Y20980
X13700Y20820
X13460Y20340
X12820Y20580
X13380Y21620
X13780Y21940
X12820Y21940
X13700Y22420
X14500Y23780
X13300Y23860
X12740Y24420
X12180Y24180
X13700Y24820
X15940Y26260
X18260Y26180
X18820Y26580
X18700Y25620
X17340Y25140
X17300Y24340
X18980Y24020
X19780Y24020
X20100Y23620
X19860Y24980
X22900Y24420
X18020Y22040
X16740Y22820
X16340Y22180
X19820Y19700
X21700Y20420
X23220Y20740
X21340Y15700
X11380Y18740
X10100Y18820
X9220Y19860
X10380Y20860
X9620Y21300
X9460Y22100
X10180Y22580
X10180Y23700
X9140Y24100
X9540Y24420
X8660Y25300
X9540Y26500
X4700Y25460
X5940Y23300
X4980Y22420
X4420Y20900
X3900Y20660
X4740Y20100
X5780Y20020
X6900Y20420
X5780Y20660
X7140Y20900
X11140Y19700
X7700Y18580
X5940Y18980
X7060Y17380
X4620Y17220
X3660Y15540
X6300Y14500
X8740Y14020
X21580Y10420
T02
X8646Y9060
X6914Y9060
T03
X10640Y8220
X11640Y8220
X13100Y8200
X14100Y8200
X15600Y8220
X16600Y8220
T04
X12586Y13411
X13854Y13531
X13854Y17469
X12586Y17349
T05
X21040Y21720
X22040Y21720
X22040Y22720
X21040Y22720
X21040Y23720
X22040Y23720
X22040Y24720
X21040Y24720
X14640Y25940
X13640Y25940
X12640Y25940
X11640Y25940
X18600Y9240
X19600Y9240
X20600Y9240
X21600Y9240
X21600Y8240
X20600Y8240
X19600Y8240
X18600Y8240
T06
X21925Y11957
X21925Y19043
X15840Y24980
X10540Y24980
X4515Y18923
X4515Y11837
M30
