G75*
%MOIN*%
%OFA0B0*%
%FSLAX24Y24*%
%IPPOS*%
%LPD*%
%AMOC8*
5,1,8,0,0,1.08239X$1,22.5*
%
%ADD10R,0.0512X0.0591*%
%ADD11R,0.0630X0.0512*%
%ADD12C,0.0560*%
%ADD13R,0.0591X0.0591*%
%ADD14R,0.0591X0.0512*%
%ADD15R,0.0610X0.0512*%
%ADD16R,0.0748X0.0551*%
%ADD17R,0.0630X0.1181*%
%ADD18R,0.0787X0.0630*%
%ADD19R,0.0110X0.0410*%
%ADD20R,0.0512X0.0630*%
%ADD21OC8,0.0600*%
%ADD22C,0.0594*%
%ADD23R,0.0787X0.0984*%
%ADD24R,0.0787X0.1299*%
%ADD25R,0.0197X0.1220*%
%ADD26C,0.0600*%
%ADD27C,0.0394*%
%ADD28C,0.0320*%
%ADD29C,0.0396*%
%ADD30C,0.0240*%
%ADD31C,0.0160*%
%ADD32C,0.0120*%
%ADD33C,0.0100*%
%ADD34C,0.1000*%
%ADD35C,0.0080*%
D10*
X012405Y019120D03*
X013075Y019120D03*
X016885Y022040D03*
X017555Y022040D03*
X020565Y020900D03*
X021235Y020900D03*
X011395Y023060D03*
X010725Y023060D03*
D11*
X008540Y022334D03*
X007700Y022314D03*
X007700Y021566D03*
X008540Y021586D03*
X008940Y025726D03*
X008940Y026474D03*
D12*
X010640Y008500D02*
X010640Y007940D01*
X011640Y007940D02*
X011640Y008500D01*
X013100Y008480D02*
X013100Y007920D01*
X014100Y007920D02*
X014100Y008480D01*
X015600Y008500D02*
X015600Y007940D01*
X016600Y007940D02*
X016600Y008500D01*
D13*
X008540Y022951D03*
X007680Y022951D03*
X007680Y024329D03*
X008540Y024329D03*
D14*
X007980Y025825D03*
X007980Y026495D03*
X018380Y024395D03*
X018380Y023725D03*
D15*
X007185Y024674D03*
X006425Y023686D03*
X004055Y024674D03*
X003295Y023686D03*
X003295Y021914D03*
X006425Y021914D03*
X007185Y026446D03*
X004055Y026446D03*
D16*
X015954Y023712D03*
X017686Y023712D03*
X017686Y022768D03*
X015954Y022768D03*
D17*
X011260Y011486D03*
X013500Y011446D03*
X015880Y011446D03*
X015880Y009714D03*
X013500Y009714D03*
X011260Y009754D03*
D18*
X007920Y019829D03*
X007920Y020931D03*
D19*
G36*
X011403Y021367D02*
X011480Y021290D01*
X011191Y021001D01*
X011114Y021078D01*
X011403Y021367D01*
G37*
G36*
X011537Y021233D02*
X011614Y021156D01*
X011325Y020867D01*
X011248Y020944D01*
X011537Y021233D01*
G37*
G36*
X011678Y021091D02*
X011755Y021014D01*
X011466Y020725D01*
X011389Y020802D01*
X011678Y021091D01*
G37*
G36*
X011820Y020950D02*
X011897Y020873D01*
X011608Y020584D01*
X011531Y020661D01*
X011820Y020950D01*
G37*
G36*
X011954Y020815D02*
X012031Y020738D01*
X011742Y020449D01*
X011665Y020526D01*
X011954Y020815D01*
G37*
G36*
X012096Y020674D02*
X012173Y020597D01*
X011884Y020308D01*
X011807Y020385D01*
X012096Y020674D01*
G37*
G36*
X012237Y020533D02*
X012314Y020456D01*
X012025Y020167D01*
X011948Y020244D01*
X012237Y020533D01*
G37*
G36*
X012378Y020391D02*
X012455Y020314D01*
X012166Y020025D01*
X012089Y020102D01*
X012378Y020391D01*
G37*
G36*
X012513Y020257D02*
X012590Y020180D01*
X012301Y019891D01*
X012224Y019968D01*
X012513Y020257D01*
G37*
G36*
X012654Y020115D02*
X012731Y020038D01*
X012442Y019749D01*
X012365Y019826D01*
X012654Y020115D01*
G37*
G36*
X012796Y019974D02*
X012873Y019897D01*
X012584Y019608D01*
X012507Y019685D01*
X012796Y019974D01*
G37*
G36*
X012930Y019840D02*
X013007Y019763D01*
X012718Y019474D01*
X012641Y019551D01*
X012930Y019840D01*
G37*
G36*
X013799Y019551D02*
X013722Y019474D01*
X013433Y019763D01*
X013510Y019840D01*
X013799Y019551D01*
G37*
G36*
X013933Y019685D02*
X013856Y019608D01*
X013567Y019897D01*
X013644Y019974D01*
X013933Y019685D01*
G37*
G36*
X014075Y019826D02*
X013998Y019749D01*
X013709Y020038D01*
X013786Y020115D01*
X014075Y019826D01*
G37*
G36*
X014216Y019968D02*
X014139Y019891D01*
X013850Y020180D01*
X013927Y020257D01*
X014216Y019968D01*
G37*
G36*
X014351Y020102D02*
X014274Y020025D01*
X013985Y020314D01*
X014062Y020391D01*
X014351Y020102D01*
G37*
G36*
X014492Y020244D02*
X014415Y020167D01*
X014126Y020456D01*
X014203Y020533D01*
X014492Y020244D01*
G37*
G36*
X014633Y020385D02*
X014556Y020308D01*
X014267Y020597D01*
X014344Y020674D01*
X014633Y020385D01*
G37*
G36*
X014775Y020526D02*
X014698Y020449D01*
X014409Y020738D01*
X014486Y020815D01*
X014775Y020526D01*
G37*
G36*
X014909Y020661D02*
X014832Y020584D01*
X014543Y020873D01*
X014620Y020950D01*
X014909Y020661D01*
G37*
G36*
X015051Y020802D02*
X014974Y020725D01*
X014685Y021014D01*
X014762Y021091D01*
X015051Y020802D01*
G37*
G36*
X015192Y020944D02*
X015115Y020867D01*
X014826Y021156D01*
X014903Y021233D01*
X015192Y020944D01*
G37*
G36*
X015326Y021078D02*
X015249Y021001D01*
X014960Y021290D01*
X015037Y021367D01*
X015326Y021078D01*
G37*
G36*
X015249Y022159D02*
X015326Y022082D01*
X015037Y021793D01*
X014960Y021870D01*
X015249Y022159D01*
G37*
G36*
X015115Y022293D02*
X015192Y022216D01*
X014903Y021927D01*
X014826Y022004D01*
X015115Y022293D01*
G37*
G36*
X014974Y022435D02*
X015051Y022358D01*
X014762Y022069D01*
X014685Y022146D01*
X014974Y022435D01*
G37*
G36*
X014832Y022576D02*
X014909Y022499D01*
X014620Y022210D01*
X014543Y022287D01*
X014832Y022576D01*
G37*
G36*
X014698Y022711D02*
X014775Y022634D01*
X014486Y022345D01*
X014409Y022422D01*
X014698Y022711D01*
G37*
G36*
X014556Y022852D02*
X014633Y022775D01*
X014344Y022486D01*
X014267Y022563D01*
X014556Y022852D01*
G37*
G36*
X014415Y022993D02*
X014492Y022916D01*
X014203Y022627D01*
X014126Y022704D01*
X014415Y022993D01*
G37*
G36*
X014274Y023135D02*
X014351Y023058D01*
X014062Y022769D01*
X013985Y022846D01*
X014274Y023135D01*
G37*
G36*
X014139Y023269D02*
X014216Y023192D01*
X013927Y022903D01*
X013850Y022980D01*
X014139Y023269D01*
G37*
G36*
X013998Y023411D02*
X014075Y023334D01*
X013786Y023045D01*
X013709Y023122D01*
X013998Y023411D01*
G37*
G36*
X013856Y023552D02*
X013933Y023475D01*
X013644Y023186D01*
X013567Y023263D01*
X013856Y023552D01*
G37*
G36*
X013722Y023686D02*
X013799Y023609D01*
X013510Y023320D01*
X013433Y023397D01*
X013722Y023686D01*
G37*
G36*
X013007Y023397D02*
X012930Y023320D01*
X012641Y023609D01*
X012718Y023686D01*
X013007Y023397D01*
G37*
G36*
X012873Y023263D02*
X012796Y023186D01*
X012507Y023475D01*
X012584Y023552D01*
X012873Y023263D01*
G37*
G36*
X012731Y023122D02*
X012654Y023045D01*
X012365Y023334D01*
X012442Y023411D01*
X012731Y023122D01*
G37*
G36*
X012590Y022980D02*
X012513Y022903D01*
X012224Y023192D01*
X012301Y023269D01*
X012590Y022980D01*
G37*
G36*
X012455Y022846D02*
X012378Y022769D01*
X012089Y023058D01*
X012166Y023135D01*
X012455Y022846D01*
G37*
G36*
X012314Y022704D02*
X012237Y022627D01*
X011948Y022916D01*
X012025Y022993D01*
X012314Y022704D01*
G37*
G36*
X012173Y022563D02*
X012096Y022486D01*
X011807Y022775D01*
X011884Y022852D01*
X012173Y022563D01*
G37*
G36*
X012031Y022422D02*
X011954Y022345D01*
X011665Y022634D01*
X011742Y022711D01*
X012031Y022422D01*
G37*
G36*
X011897Y022287D02*
X011820Y022210D01*
X011531Y022499D01*
X011608Y022576D01*
X011897Y022287D01*
G37*
G36*
X011755Y022146D02*
X011678Y022069D01*
X011389Y022358D01*
X011466Y022435D01*
X011755Y022146D01*
G37*
G36*
X011614Y022004D02*
X011537Y021927D01*
X011248Y022216D01*
X011325Y022293D01*
X011614Y022004D01*
G37*
G36*
X011480Y021870D02*
X011403Y021793D01*
X011114Y022082D01*
X011191Y022159D01*
X011480Y021870D01*
G37*
D20*
X016986Y019460D03*
X017734Y019460D03*
D21*
X021040Y021720D03*
X022040Y021720D03*
X022040Y022720D03*
X021040Y022720D03*
X021040Y023720D03*
X022040Y023720D03*
X022040Y024720D03*
X021040Y024720D03*
X020600Y009240D03*
X019600Y009240D03*
X018600Y009240D03*
X018600Y008240D03*
X019600Y008240D03*
X020600Y008240D03*
X021600Y008240D03*
X021600Y009240D03*
D22*
X012586Y013411D03*
X013854Y013531D03*
X013854Y017469D03*
X012586Y017349D03*
D23*
X009532Y007879D03*
X006028Y007879D03*
D24*
X006028Y010202D03*
X009532Y010202D03*
D25*
X008410Y010241D03*
X008095Y010241D03*
X007780Y010241D03*
X007465Y010241D03*
X007150Y010241D03*
D26*
X011640Y025640D02*
X011640Y026240D01*
X012640Y026240D02*
X012640Y025640D01*
X013640Y025640D02*
X013640Y026240D01*
X014640Y026240D02*
X014640Y025640D01*
D27*
X021380Y026340D03*
X010420Y019540D03*
X022580Y009380D03*
X004020Y009060D03*
D28*
X010260Y009380D02*
X010260Y010860D01*
X010740Y011340D01*
X011114Y011340D01*
X011260Y011486D01*
X011860Y012086D01*
X011860Y013460D01*
X013220Y012820D02*
X013300Y012900D01*
X015780Y012900D01*
X016260Y013380D01*
X016340Y013380D01*
X016660Y012340D02*
X014100Y012340D01*
X013220Y012820D02*
X013220Y011726D01*
X013500Y011446D01*
X013460Y011486D01*
X012420Y011486D01*
X011260Y011486D01*
X013220Y012820D02*
X013220Y014980D01*
X016660Y012340D02*
X017300Y011700D01*
X019860Y011700D01*
X020180Y012020D01*
X020180Y020740D01*
X020180Y020860D01*
X021040Y021720D01*
X021235Y020900D02*
X022420Y020900D01*
X022820Y021300D01*
X022820Y023940D01*
X022040Y024720D01*
X021235Y020900D02*
X021220Y020885D01*
X021220Y020420D01*
X021060Y020260D01*
X020900Y020260D01*
X020660Y020020D01*
X020660Y017220D01*
X020660Y011780D01*
X020100Y011220D01*
X017540Y011220D01*
X017220Y010900D01*
X016740Y010900D01*
X016420Y011220D01*
X017700Y010420D02*
X017940Y010660D01*
X019940Y010660D01*
X020600Y010000D01*
X020600Y009240D01*
X018600Y008240D02*
X017720Y008240D01*
X016300Y009660D01*
X015634Y009660D01*
X015580Y009714D01*
X015880Y009714D01*
X015580Y009714D02*
X013500Y009714D01*
X014100Y009114D01*
X014100Y008200D01*
X013620Y009594D02*
X013500Y009714D01*
X013460Y009754D01*
X012900Y009754D01*
X011260Y009754D01*
X010640Y009000D02*
X010260Y009380D01*
X010640Y009000D02*
X010640Y008220D01*
D29*
X007820Y008180D03*
X004940Y009460D03*
X006740Y011220D03*
X006380Y011820D03*
X007180Y011860D03*
X007700Y011860D03*
X008900Y012260D03*
X010340Y012100D03*
X009300Y011300D03*
X012340Y010260D03*
X012900Y010260D03*
X010740Y009900D03*
X014820Y008180D03*
X017500Y008420D03*
X016540Y009460D03*
X017740Y009860D03*
X017700Y010420D03*
X016740Y011220D03*
X016620Y011940D03*
X017740Y012500D03*
X017220Y013060D03*
X016340Y013380D03*
X017460Y013540D03*
X017860Y013860D03*
X016900Y014180D03*
X016900Y014660D03*
X016140Y015540D03*
X014380Y016340D03*
X013100Y016740D03*
X011860Y016900D03*
X009940Y017540D03*
X008820Y016180D03*
X008820Y015620D03*
X009700Y016020D03*
X009780Y015460D03*
X010940Y015300D03*
X013220Y014980D03*
X013700Y015380D03*
X013700Y014260D03*
X011860Y013460D03*
X012660Y012340D03*
X014100Y012340D03*
X015220Y011780D03*
X021340Y013540D03*
X019900Y014420D03*
X018940Y015220D03*
X019900Y015700D03*
X019060Y016180D03*
X019540Y016740D03*
X020980Y017140D03*
X021180Y018100D03*
X019300Y017620D03*
X017380Y018020D03*
X017220Y017540D03*
X015700Y018660D03*
X014820Y018740D03*
X014020Y018740D03*
X013540Y018980D03*
X014420Y019140D03*
X015140Y019300D03*
X016100Y019300D03*
X016100Y020100D03*
X017380Y020500D03*
X015540Y020980D03*
X013700Y020820D03*
X013460Y020340D03*
X012820Y020580D03*
X013380Y021620D03*
X013780Y021940D03*
X012820Y021940D03*
X013700Y022420D03*
X014500Y023780D03*
X013300Y023860D03*
X012740Y024420D03*
X012180Y024180D03*
X013700Y024820D03*
X015940Y026260D03*
X018260Y026180D03*
X018820Y026580D03*
X018700Y025620D03*
X017340Y025140D03*
X017300Y024340D03*
X018980Y024020D03*
X019780Y024020D03*
X020100Y023620D03*
X019860Y024980D03*
X022900Y024420D03*
X018020Y022040D03*
X016740Y022820D03*
X016340Y022180D03*
X019820Y019700D03*
X021700Y020420D03*
X023220Y020740D03*
X021340Y015700D03*
X011380Y018740D03*
X010100Y018820D03*
X009220Y019860D03*
X010380Y020860D03*
X009620Y021300D03*
X009460Y022100D03*
X010180Y022580D03*
X010180Y023700D03*
X009140Y024100D03*
X009540Y024420D03*
X008660Y025300D03*
X009540Y026500D03*
X004700Y025460D03*
X005940Y023300D03*
X004980Y022420D03*
X004420Y020900D03*
X003900Y020660D03*
X004740Y020100D03*
X005780Y020020D03*
X006900Y020420D03*
X005780Y020660D03*
X007140Y020900D03*
X011140Y019700D03*
X007700Y018580D03*
X005940Y018980D03*
X007060Y017380D03*
X004620Y017220D03*
X003660Y015540D03*
X006300Y014500D03*
X008740Y014020D03*
X021580Y010420D03*
D30*
X019600Y008600D02*
X019460Y008740D01*
X018020Y008740D01*
X016660Y010100D01*
X016660Y010586D01*
X015880Y011446D01*
X016026Y011220D02*
X016420Y011220D01*
X016740Y011220D01*
X015220Y011780D02*
X013834Y011780D01*
X013500Y011446D01*
X012420Y011486D02*
X012340Y011406D01*
X012340Y010260D01*
X012900Y010260D02*
X012900Y009754D01*
X011260Y009754D02*
X011114Y009900D01*
X010740Y009900D01*
X008410Y010241D02*
X008410Y011770D01*
X008900Y012260D01*
X008660Y012500D01*
X006820Y012500D01*
X006420Y012100D01*
X006420Y011860D01*
X006380Y011820D01*
X006740Y011220D02*
X007150Y010810D01*
X007150Y010241D01*
X019600Y008600D02*
X019600Y008240D01*
X019540Y016740D02*
X019780Y016980D01*
X019780Y018180D01*
X019620Y018340D01*
X018740Y018340D01*
X018260Y018820D01*
X018260Y019940D01*
X017700Y020500D01*
X017380Y020500D01*
X017555Y022040D02*
X018020Y022040D01*
X018680Y022040D01*
X019220Y022580D01*
X019220Y023620D01*
X019380Y023780D01*
X019380Y024420D01*
X020180Y024420D01*
X020500Y024100D01*
X020500Y022260D01*
X021040Y021720D01*
X018405Y024420D02*
X018380Y024395D01*
X018405Y024420D02*
X017940Y024420D01*
X016980Y025380D01*
X016980Y025700D01*
X016820Y025860D01*
X015300Y025860D01*
X015300Y026660D01*
X015220Y026740D01*
X013540Y026740D01*
X010420Y026740D01*
X009620Y025940D01*
X009620Y025140D01*
X009300Y024820D01*
X007331Y024820D01*
X007185Y024674D01*
X007519Y024340D01*
X007669Y024340D01*
X007220Y024709D02*
X007185Y024674D01*
X007220Y024709D02*
X007220Y025140D01*
X007060Y025300D01*
X007585Y025825D01*
X007980Y025825D01*
X007060Y025300D02*
X006900Y025460D01*
X004180Y025460D01*
X003860Y025140D01*
X003860Y024740D01*
X003860Y021780D01*
X003860Y021700D01*
X003940Y021620D01*
X006131Y021620D01*
X006425Y021914D01*
X006420Y021909D01*
X006420Y020900D01*
X006900Y020420D01*
X005820Y019180D02*
X005060Y019940D01*
X004900Y019940D01*
X004740Y020100D01*
X005820Y019180D02*
X006060Y019180D01*
X006180Y019060D01*
X008180Y019060D01*
X009620Y017620D01*
X009860Y017620D01*
X009940Y017540D01*
X013075Y019120D02*
X013215Y018980D01*
X013540Y018980D01*
X010100Y021460D02*
X010100Y021700D01*
X010100Y022020D01*
X009780Y022340D01*
X009780Y022900D01*
X009860Y022980D01*
X010645Y022980D01*
X010725Y023060D01*
X010100Y021460D02*
X009940Y021300D01*
X009620Y021300D01*
X006100Y019140D02*
X005940Y018980D01*
X005860Y018980D01*
X003860Y021780D02*
X003726Y021914D01*
X003295Y021914D01*
X018405Y024420D02*
X019380Y024420D01*
X020660Y017220D02*
X020740Y017140D01*
X020980Y017140D01*
D31*
X003933Y007920D02*
X003735Y007979D01*
X003560Y008088D01*
X003418Y008238D01*
X003321Y008420D01*
X003273Y008621D01*
X003270Y008717D01*
X003270Y008732D01*
X003273Y008829D01*
X003270Y008837D01*
X003270Y021866D01*
X003343Y021866D01*
X003343Y021478D01*
X003624Y021478D01*
X003670Y021491D01*
X003711Y021514D01*
X003744Y021548D01*
X003768Y021589D01*
X003780Y021635D01*
X003780Y021866D01*
X003343Y021866D01*
X003343Y021962D01*
X006377Y021962D01*
X006377Y021866D01*
X006473Y021866D01*
X006473Y021478D01*
X006754Y021478D01*
X006800Y021491D01*
X006830Y021508D01*
X006830Y021061D01*
X006792Y020969D01*
X006792Y020831D01*
X006845Y020703D01*
X006943Y020605D01*
X007071Y020552D01*
X007209Y020552D01*
X007337Y020605D01*
X007376Y020644D01*
X007376Y020554D01*
X007424Y020507D01*
X007137Y020220D01*
X006823Y020220D01*
X006380Y020663D01*
X006380Y020983D01*
X006140Y021223D01*
X006023Y021340D01*
X004577Y021340D01*
X004485Y021248D01*
X004351Y021248D01*
X004223Y021195D01*
X004125Y021097D01*
X004072Y020969D01*
X004072Y020831D01*
X004125Y020703D01*
X004223Y020605D01*
X004351Y020552D01*
X004489Y020552D01*
X004617Y020605D01*
X004715Y020703D01*
X004768Y020831D01*
X004768Y020940D01*
X005568Y020940D01*
X005485Y020857D01*
X005432Y020729D01*
X005432Y020591D01*
X005485Y020463D01*
X005583Y020365D01*
X005643Y020340D01*
X005583Y020315D01*
X005485Y020217D01*
X005432Y020089D01*
X005432Y019951D01*
X005432Y019949D01*
X005289Y020093D01*
X005213Y020169D01*
X005114Y020210D01*
X005071Y020210D01*
X005035Y020297D01*
X004937Y020395D01*
X004809Y020448D01*
X004671Y020448D01*
X004543Y020395D01*
X004445Y020297D01*
X004392Y020169D01*
X004392Y020031D01*
X004423Y019954D01*
X004380Y019954D01*
X004117Y019884D01*
X003882Y019748D01*
X003690Y019556D01*
X003555Y019321D01*
X003484Y019059D01*
X003484Y018788D01*
X003555Y018525D01*
X003690Y018290D01*
X003882Y018098D01*
X004117Y017962D01*
X004380Y017892D01*
X004651Y017892D01*
X004913Y017962D01*
X005149Y018098D01*
X005341Y018290D01*
X005476Y018525D01*
X005547Y018788D01*
X005547Y019059D01*
X005542Y019076D01*
X005590Y019028D01*
X005590Y018926D01*
X005592Y018922D01*
X005592Y018911D01*
X005645Y018783D01*
X005743Y018685D01*
X005871Y018632D01*
X006009Y018632D01*
X006137Y018685D01*
X006235Y018783D01*
X006238Y018790D01*
X007418Y018790D01*
X007405Y018777D01*
X007352Y018649D01*
X007352Y018511D01*
X007405Y018383D01*
X007500Y018288D01*
X007500Y017223D01*
X007408Y017315D01*
X007408Y017449D01*
X007355Y017577D01*
X007257Y017675D01*
X007129Y017728D01*
X006991Y017728D01*
X006863Y017675D01*
X006765Y017577D01*
X006712Y017449D01*
X006712Y017311D01*
X006765Y017183D01*
X006863Y017085D01*
X006991Y017032D01*
X007125Y017032D01*
X008472Y015685D01*
X008472Y015551D01*
X008525Y015423D01*
X008623Y015325D01*
X008751Y015272D01*
X008889Y015272D01*
X008940Y015293D01*
X008940Y012737D01*
X009100Y012577D01*
X009100Y011592D01*
X009005Y011497D01*
X008952Y011369D01*
X008952Y011231D01*
X009005Y011103D01*
X009084Y011023D01*
X009069Y011019D01*
X009028Y010995D01*
X008994Y010962D01*
X008971Y010921D01*
X008958Y010875D01*
X008958Y010282D01*
X009452Y010282D01*
X009452Y010986D01*
X009497Y011005D01*
X009595Y011103D01*
X009648Y011231D01*
X009648Y011369D01*
X009595Y011497D01*
X009500Y011592D01*
X009500Y012497D01*
X009500Y012097D01*
X009617Y011980D01*
X009697Y011900D01*
X010048Y011900D01*
X010143Y011805D01*
X010271Y011752D01*
X010409Y011752D01*
X010537Y011805D01*
X010635Y011903D01*
X010688Y012031D01*
X010688Y012169D01*
X010635Y012297D01*
X010537Y012395D01*
X010409Y012448D01*
X010271Y012448D01*
X010143Y012395D01*
X010048Y012300D01*
X009900Y012300D01*
X009900Y012663D01*
X009580Y012983D01*
X009580Y015168D01*
X009583Y015165D01*
X009711Y015112D01*
X009849Y015112D01*
X009977Y015165D01*
X010075Y015263D01*
X010128Y015391D01*
X010128Y015525D01*
X010183Y015580D01*
X013408Y015580D01*
X013405Y015577D01*
X013352Y015449D01*
X013352Y015311D01*
X013356Y015300D01*
X013289Y015328D01*
X013151Y015328D01*
X013023Y015275D01*
X012925Y015177D01*
X012872Y015049D01*
X012872Y014911D01*
X012910Y014819D01*
X012910Y013720D01*
X012910Y013720D01*
X012839Y013790D01*
X012675Y013858D01*
X012497Y013858D01*
X012333Y013790D01*
X012207Y013665D01*
X012180Y013598D01*
X012155Y013657D01*
X012057Y013755D01*
X011929Y013808D01*
X011791Y013808D01*
X011663Y013755D01*
X011565Y013657D01*
X011512Y013529D01*
X011512Y013391D01*
X011550Y013299D01*
X011550Y012227D01*
X010883Y012227D01*
X010795Y012139D01*
X010795Y011650D01*
X010678Y011650D01*
X010564Y011603D01*
X010477Y011516D01*
X009997Y011036D01*
X009991Y011020D01*
X009949Y011031D01*
X009612Y011031D01*
X009612Y010282D01*
X009452Y010282D01*
X009452Y010122D01*
X008958Y010122D01*
X008958Y009642D01*
X008777Y009717D01*
X008688Y009717D01*
X008688Y010241D01*
X008410Y010241D01*
X008410Y010241D01*
X008688Y010241D01*
X008688Y010875D01*
X008676Y010921D01*
X008652Y010962D01*
X008619Y010995D01*
X008578Y011019D01*
X008532Y011031D01*
X008410Y011031D01*
X008410Y010241D01*
X008410Y010241D01*
X008410Y011031D01*
X008288Y011031D01*
X008242Y011019D01*
X008211Y011001D01*
X007980Y011001D01*
X007980Y011648D01*
X007995Y011663D01*
X008048Y011791D01*
X008048Y011929D01*
X007995Y012057D01*
X007897Y012155D01*
X007769Y012208D01*
X007631Y012208D01*
X007503Y012155D01*
X007440Y012092D01*
X007377Y012155D01*
X007249Y012208D01*
X007111Y012208D01*
X006983Y012155D01*
X006885Y012057D01*
X006832Y011929D01*
X006832Y011791D01*
X006885Y011663D01*
X006983Y011565D01*
X007111Y011512D01*
X007245Y011512D01*
X007265Y011492D01*
X007265Y011077D01*
X007088Y011254D01*
X007088Y011289D01*
X007035Y011417D01*
X006937Y011515D01*
X006809Y011568D01*
X006671Y011568D01*
X006543Y011515D01*
X006445Y011417D01*
X006392Y011289D01*
X006392Y011151D01*
X006441Y011031D01*
X006108Y011031D01*
X006108Y010282D01*
X005948Y010282D01*
X005948Y011031D01*
X005611Y011031D01*
X005565Y011019D01*
X005524Y010995D01*
X005490Y010962D01*
X005467Y010921D01*
X005454Y010875D01*
X005454Y010282D01*
X005948Y010282D01*
X005948Y010122D01*
X005454Y010122D01*
X005454Y009528D01*
X005467Y009483D01*
X005490Y009442D01*
X005524Y009408D01*
X005565Y009384D01*
X005611Y009372D01*
X005948Y009372D01*
X005948Y010122D01*
X006108Y010122D01*
X006108Y010282D01*
X006602Y010282D01*
X006602Y010875D01*
X006594Y010904D01*
X006671Y010872D01*
X006706Y010872D01*
X006880Y010698D01*
X006880Y010187D01*
X006902Y010135D01*
X006902Y009717D01*
X006783Y009717D01*
X006602Y009642D01*
X006602Y010122D01*
X006108Y010122D01*
X006108Y009372D01*
X006332Y009372D01*
X006257Y009191D01*
X006257Y008929D01*
X006357Y008688D01*
X006526Y008519D01*
X006491Y008539D01*
X006445Y008551D01*
X006108Y008551D01*
X006108Y007959D01*
X005948Y007959D01*
X005948Y008551D01*
X005611Y008551D01*
X005565Y008539D01*
X005524Y008515D01*
X005490Y008482D01*
X005467Y008441D01*
X005454Y008395D01*
X005454Y007959D01*
X005948Y007959D01*
X005948Y007910D01*
X004034Y007910D01*
X003933Y007920D01*
X003679Y008014D02*
X005454Y008014D01*
X005454Y008173D02*
X003480Y008173D01*
X003368Y008331D02*
X005454Y008331D01*
X005498Y008490D02*
X003304Y008490D01*
X003272Y008648D02*
X003737Y008648D01*
X003736Y008652D02*
X003739Y008642D01*
X003770Y008628D01*
X003799Y008608D01*
X003809Y008610D01*
X003811Y008609D01*
X003816Y008600D01*
X003849Y008591D01*
X003880Y008576D01*
X003890Y008580D01*
X003892Y008579D01*
X003899Y008571D01*
X003933Y008568D01*
X003966Y008560D01*
X003975Y008565D01*
X003978Y008565D01*
X003986Y008558D01*
X004020Y008561D01*
X004054Y008558D01*
X004062Y008565D01*
X004065Y008565D01*
X004074Y008560D01*
X004107Y008568D01*
X004141Y008571D01*
X004148Y008579D01*
X004150Y008580D01*
X004160Y008576D01*
X004191Y008591D01*
X004224Y008600D01*
X004229Y008609D01*
X004231Y008610D01*
X004241Y008608D01*
X004270Y008628D01*
X004301Y008642D01*
X004304Y008652D01*
X004306Y008653D01*
X004317Y008653D01*
X004341Y008678D01*
X004369Y008697D01*
X004371Y008708D01*
X004372Y008709D01*
X004383Y008711D01*
X004402Y008739D01*
X004427Y008763D01*
X004427Y008774D01*
X004428Y008776D01*
X004438Y008779D01*
X004452Y008810D01*
X004472Y008839D01*
X004470Y008849D01*
X004471Y008851D01*
X004480Y008856D01*
X004489Y008889D01*
X004504Y008920D01*
X004500Y008930D01*
X004501Y008932D01*
X004509Y008939D01*
X004512Y008973D01*
X004520Y009006D01*
X004515Y009015D01*
X004515Y009018D01*
X004522Y009026D01*
X004519Y009060D01*
X004522Y009094D01*
X004515Y009102D01*
X004515Y009105D01*
X004520Y009114D01*
X004512Y009147D01*
X004509Y009181D01*
X004501Y009188D01*
X004500Y009190D01*
X004504Y009200D01*
X004489Y009231D01*
X004480Y009264D01*
X004471Y009269D01*
X004470Y009271D01*
X004472Y009281D01*
X004452Y009310D01*
X004438Y009341D01*
X004428Y009344D01*
X004427Y009346D01*
X004427Y009357D01*
X004402Y009381D01*
X004383Y009409D01*
X004372Y009411D01*
X004371Y009412D01*
X004369Y009423D01*
X004341Y009442D01*
X004317Y009467D01*
X004306Y009467D01*
X004304Y009468D01*
X004301Y009478D01*
X004270Y009492D01*
X004241Y009512D01*
X004231Y009510D01*
X004229Y009511D01*
X004224Y009520D01*
X004191Y009529D01*
X004160Y009544D01*
X004150Y009540D01*
X004148Y009541D01*
X004141Y009549D01*
X004107Y009552D01*
X004074Y009560D01*
X004065Y009555D01*
X004062Y009555D01*
X004054Y009562D01*
X004020Y009559D01*
X003986Y009562D01*
X003978Y009555D01*
X003975Y009555D01*
X003966Y009560D01*
X003933Y009552D01*
X003899Y009549D01*
X003892Y009541D01*
X003890Y009540D01*
X003880Y009544D01*
X003849Y009529D01*
X003816Y009520D01*
X003811Y009511D01*
X003809Y009510D01*
X003799Y009512D01*
X003770Y009492D01*
X003739Y009478D01*
X003736Y009468D01*
X003734Y009467D01*
X003723Y009467D01*
X003699Y009442D01*
X003671Y009423D01*
X003669Y009412D01*
X003668Y009411D01*
X003657Y009409D01*
X003638Y009381D01*
X003613Y009357D01*
X003613Y009346D01*
X003612Y009344D01*
X003602Y009341D01*
X003588Y009310D01*
X003568Y009281D01*
X003570Y009271D01*
X003569Y009269D01*
X003560Y009264D01*
X003551Y009231D01*
X003536Y009200D01*
X003540Y009190D01*
X003539Y009188D01*
X003531Y009181D01*
X003528Y009147D01*
X003520Y009114D01*
X003525Y009105D01*
X003525Y009102D01*
X003518Y009094D01*
X003521Y009060D01*
X003518Y009026D01*
X003525Y009018D01*
X003525Y009015D01*
X003520Y009006D01*
X003528Y008973D01*
X003531Y008939D01*
X003539Y008932D01*
X003540Y008930D01*
X003536Y008920D01*
X003551Y008889D01*
X003560Y008856D01*
X003569Y008851D01*
X003570Y008849D01*
X003568Y008839D01*
X003588Y008810D01*
X003602Y008779D01*
X003612Y008776D01*
X003613Y008774D01*
X003613Y008763D01*
X003638Y008739D01*
X003657Y008711D01*
X003668Y008709D01*
X003669Y008708D01*
X003671Y008697D01*
X003699Y008678D01*
X003723Y008653D01*
X003734Y008653D01*
X003736Y008652D01*
X003590Y008807D02*
X003272Y008807D01*
X003270Y008965D02*
X003529Y008965D01*
X003522Y009124D02*
X003270Y009124D01*
X003270Y009282D02*
X003568Y009282D01*
X003697Y009441D02*
X003270Y009441D01*
X003270Y009599D02*
X005454Y009599D01*
X005454Y009758D02*
X003270Y009758D01*
X003270Y009916D02*
X005454Y009916D01*
X005454Y010075D02*
X003270Y010075D01*
X003270Y010233D02*
X005948Y010233D01*
X005948Y010075D02*
X006108Y010075D01*
X006108Y010233D02*
X006880Y010233D01*
X006880Y010392D02*
X006602Y010392D01*
X006602Y010550D02*
X006880Y010550D01*
X006870Y010709D02*
X006602Y010709D01*
X006602Y010867D02*
X006711Y010867D01*
X006108Y010867D02*
X005948Y010867D01*
X005948Y010709D02*
X006108Y010709D01*
X006108Y010550D02*
X005948Y010550D01*
X005948Y010392D02*
X006108Y010392D01*
X006602Y010075D02*
X006902Y010075D01*
X006902Y009916D02*
X006602Y009916D01*
X006602Y009758D02*
X006902Y009758D01*
X007422Y009481D02*
X008138Y009481D01*
X008089Y009432D01*
X007989Y009191D01*
X007989Y008929D01*
X008089Y008688D01*
X008274Y008503D01*
X008515Y008403D01*
X008777Y008403D01*
X009014Y008501D01*
X008994Y008482D01*
X008971Y008441D01*
X008958Y008395D01*
X008958Y007959D01*
X009452Y007959D01*
X009452Y008551D01*
X009115Y008551D01*
X009069Y008539D01*
X009034Y008519D01*
X009203Y008688D01*
X009303Y008929D01*
X009303Y009191D01*
X009228Y009372D01*
X009452Y009372D01*
X009452Y010122D01*
X009612Y010122D01*
X009612Y009372D01*
X009949Y009372D01*
X009950Y009372D01*
X009950Y009318D01*
X009997Y009204D01*
X010084Y009117D01*
X010330Y008872D01*
X010330Y008798D01*
X010275Y008744D01*
X010210Y008586D01*
X010210Y007910D01*
X009612Y007910D01*
X009612Y007959D01*
X009452Y007959D01*
X009452Y007910D01*
X006108Y007910D01*
X006108Y007959D01*
X006602Y007959D01*
X006602Y008395D01*
X006589Y008441D01*
X006566Y008482D01*
X006546Y008501D01*
X006783Y008403D01*
X007045Y008403D01*
X007286Y008503D01*
X007471Y008688D01*
X007571Y008929D01*
X007571Y009191D01*
X007471Y009432D01*
X007422Y009481D01*
X007463Y009441D02*
X008097Y009441D01*
X008027Y009282D02*
X007533Y009282D01*
X007571Y009124D02*
X007989Y009124D01*
X007989Y008965D02*
X007571Y008965D01*
X007520Y008807D02*
X008040Y008807D01*
X008129Y008648D02*
X007431Y008648D01*
X007254Y008490D02*
X008306Y008490D01*
X008958Y008331D02*
X006602Y008331D01*
X006602Y008173D02*
X008958Y008173D01*
X008958Y008014D02*
X006602Y008014D01*
X006574Y008490D02*
X006558Y008490D01*
X006396Y008648D02*
X004303Y008648D01*
X004450Y008807D02*
X006308Y008807D01*
X006257Y008965D02*
X004511Y008965D01*
X004518Y009124D02*
X006257Y009124D01*
X006295Y009282D02*
X004472Y009282D01*
X004343Y009441D02*
X005491Y009441D01*
X005948Y009441D02*
X006108Y009441D01*
X006108Y009599D02*
X005948Y009599D01*
X005948Y009758D02*
X006108Y009758D01*
X006108Y009916D02*
X005948Y009916D01*
X005454Y010392D02*
X003270Y010392D01*
X003270Y010550D02*
X005454Y010550D01*
X005454Y010709D02*
X003270Y010709D01*
X003270Y010867D02*
X004150Y010867D01*
X004117Y010876D02*
X004380Y010806D01*
X004651Y010806D01*
X004913Y010876D01*
X005149Y011012D01*
X005341Y011204D01*
X005476Y011439D01*
X005547Y011701D01*
X005547Y011972D01*
X005476Y012235D01*
X005341Y012470D01*
X005149Y012662D01*
X004913Y012798D01*
X004651Y012868D01*
X004380Y012868D01*
X004117Y012798D01*
X003882Y012662D01*
X003690Y012470D01*
X003555Y012235D01*
X003484Y011972D01*
X003484Y011701D01*
X003555Y011439D01*
X003690Y011204D01*
X003882Y011012D01*
X004117Y010876D01*
X003868Y011026D02*
X003270Y011026D01*
X003270Y011184D02*
X003710Y011184D01*
X003610Y011343D02*
X003270Y011343D01*
X003270Y011501D02*
X003538Y011501D01*
X003495Y011660D02*
X003270Y011660D01*
X003270Y011818D02*
X003484Y011818D01*
X003485Y011977D02*
X003270Y011977D01*
X003270Y012135D02*
X003528Y012135D01*
X003588Y012294D02*
X003270Y012294D01*
X003270Y012452D02*
X003680Y012452D01*
X003831Y012611D02*
X003270Y012611D01*
X003270Y012769D02*
X004068Y012769D01*
X003270Y012928D02*
X008940Y012928D01*
X008940Y013086D02*
X003270Y013086D01*
X003270Y013245D02*
X008940Y013245D01*
X008940Y013403D02*
X003270Y013403D01*
X003270Y013562D02*
X008940Y013562D01*
X008940Y013720D02*
X003270Y013720D01*
X003270Y013879D02*
X008940Y013879D01*
X008940Y014037D02*
X003270Y014037D01*
X003270Y014196D02*
X008940Y014196D01*
X008940Y014354D02*
X003270Y014354D01*
X003270Y014513D02*
X008940Y014513D01*
X008940Y014671D02*
X003270Y014671D01*
X003270Y014830D02*
X008940Y014830D01*
X008940Y014988D02*
X003270Y014988D01*
X003270Y015147D02*
X008940Y015147D01*
X008671Y015305D02*
X003270Y015305D01*
X003270Y015464D02*
X008508Y015464D01*
X008472Y015622D02*
X003270Y015622D01*
X003270Y015781D02*
X008377Y015781D01*
X008218Y015939D02*
X003270Y015939D01*
X003270Y016098D02*
X008060Y016098D01*
X007901Y016256D02*
X003270Y016256D01*
X003270Y016415D02*
X007743Y016415D01*
X007584Y016573D02*
X003270Y016573D01*
X003270Y016732D02*
X007426Y016732D01*
X007267Y016890D02*
X003270Y016890D01*
X003270Y017049D02*
X006951Y017049D01*
X006755Y017207D02*
X003270Y017207D01*
X003270Y017366D02*
X006712Y017366D01*
X006743Y017524D02*
X003270Y017524D01*
X003270Y017683D02*
X006881Y017683D01*
X007239Y017683D02*
X007500Y017683D01*
X007500Y017841D02*
X003270Y017841D01*
X003270Y018000D02*
X004053Y018000D01*
X003822Y018158D02*
X003270Y018158D01*
X003270Y018317D02*
X003675Y018317D01*
X003584Y018475D02*
X003270Y018475D01*
X003270Y018634D02*
X003526Y018634D01*
X003484Y018792D02*
X003270Y018792D01*
X003270Y018951D02*
X003484Y018951D01*
X003498Y019109D02*
X003270Y019109D01*
X003270Y019268D02*
X003540Y019268D01*
X003615Y019426D02*
X003270Y019426D01*
X003270Y019585D02*
X003718Y019585D01*
X003877Y019743D02*
X003270Y019743D01*
X003270Y019902D02*
X004182Y019902D01*
X004392Y020060D02*
X003270Y020060D01*
X003270Y020219D02*
X004412Y020219D01*
X004525Y020377D02*
X003270Y020377D01*
X003270Y020536D02*
X005455Y020536D01*
X005432Y020694D02*
X004706Y020694D01*
X004768Y020853D02*
X005483Y020853D01*
X005571Y020377D02*
X004955Y020377D01*
X005068Y020219D02*
X005486Y020219D01*
X005432Y020060D02*
X005322Y020060D01*
X006380Y020694D02*
X006854Y020694D01*
X006792Y020853D02*
X006380Y020853D01*
X006352Y021011D02*
X006809Y021011D01*
X006830Y021170D02*
X006193Y021170D01*
X006035Y021328D02*
X006830Y021328D01*
X006830Y021487D02*
X006785Y021487D01*
X007060Y021540D02*
X007066Y021546D01*
X007680Y021546D01*
X007700Y021566D01*
X007060Y021540D02*
X007060Y022900D01*
X006740Y022580D01*
X005140Y022580D01*
X004980Y022420D01*
X005298Y022279D02*
X005975Y022279D01*
X005976Y022281D02*
X005952Y022240D01*
X005940Y022194D01*
X005940Y021962D01*
X006377Y021962D01*
X006377Y021866D02*
X005940Y021866D01*
X005940Y021635D01*
X005952Y021589D01*
X005976Y021548D01*
X006009Y021514D01*
X006050Y021491D01*
X006096Y021478D01*
X006377Y021478D01*
X006377Y021866D01*
X006377Y021804D02*
X006473Y021804D01*
X006473Y021645D02*
X006377Y021645D01*
X006377Y021487D02*
X006473Y021487D01*
X006065Y021487D02*
X003655Y021487D01*
X003780Y021645D02*
X005940Y021645D01*
X005940Y021804D02*
X003780Y021804D01*
X003780Y021962D02*
X003780Y022194D01*
X003768Y022240D01*
X003744Y022281D01*
X003711Y022314D01*
X003670Y022338D01*
X003624Y022350D01*
X003343Y022350D01*
X003343Y021962D01*
X003780Y021962D01*
X003780Y022121D02*
X004793Y022121D01*
X004783Y022125D02*
X004911Y022072D01*
X005049Y022072D01*
X005177Y022125D01*
X005275Y022223D01*
X005328Y022350D01*
X006096Y022350D01*
X006050Y022338D01*
X006009Y022314D01*
X005976Y022281D01*
X005940Y022121D02*
X005167Y022121D01*
X004783Y022125D02*
X004685Y022223D01*
X004632Y022351D01*
X004632Y022489D01*
X004685Y022617D01*
X004783Y022715D01*
X004911Y022768D01*
X005003Y022768D01*
X005045Y022810D01*
X006645Y022810D01*
X006830Y022995D01*
X006830Y023318D01*
X006792Y023280D01*
X006302Y023280D01*
X006288Y023266D01*
X006288Y023231D01*
X006235Y023103D01*
X006137Y023005D01*
X006009Y022952D01*
X005871Y022952D01*
X005743Y023005D01*
X005645Y023103D01*
X005592Y023231D01*
X005592Y023369D01*
X005645Y023497D01*
X005743Y023595D01*
X005871Y023648D01*
X005970Y023648D01*
X005970Y024004D01*
X006058Y024092D01*
X006792Y024092D01*
X006880Y024004D01*
X006880Y023445D01*
X006965Y023530D01*
X006965Y023530D01*
X007230Y023795D01*
X007230Y023795D01*
X007306Y023871D01*
X007274Y023890D01*
X007241Y023923D01*
X007217Y023964D01*
X007205Y024010D01*
X007205Y024261D01*
X007233Y024261D01*
X007233Y024397D01*
X007205Y024397D01*
X007205Y024626D01*
X007137Y024626D01*
X007137Y024238D01*
X006856Y024238D01*
X006810Y024251D01*
X006769Y024274D01*
X006736Y024308D01*
X006712Y024349D01*
X006700Y024395D01*
X006700Y024626D01*
X007137Y024626D01*
X007137Y024722D01*
X006700Y024722D01*
X006700Y024954D01*
X006712Y025000D01*
X006736Y025041D01*
X006769Y025074D01*
X006810Y025098D01*
X006856Y025110D01*
X007137Y025110D01*
X007137Y024722D01*
X007233Y024722D01*
X007233Y025110D01*
X007514Y025110D01*
X007560Y025098D01*
X007601Y025074D01*
X007634Y025041D01*
X007658Y025000D01*
X007670Y024954D01*
X007670Y024722D01*
X007612Y024722D01*
X007612Y024626D01*
X007670Y024626D01*
X007670Y024397D01*
X007748Y024397D01*
X007748Y024804D01*
X007999Y024804D01*
X008045Y024792D01*
X008086Y024768D01*
X008110Y024744D01*
X008134Y024768D01*
X008175Y024792D01*
X008221Y024804D01*
X008472Y024804D01*
X008472Y024397D01*
X008608Y024397D01*
X008608Y024804D01*
X008859Y024804D01*
X008905Y024792D01*
X008946Y024768D01*
X008979Y024735D01*
X009003Y024694D01*
X009015Y024648D01*
X009015Y024425D01*
X009071Y024448D01*
X009192Y024448D01*
X009192Y024489D01*
X009245Y024617D01*
X009343Y024715D01*
X009471Y024768D01*
X009529Y024768D01*
X009509Y024844D01*
X009509Y025116D01*
X009579Y025378D01*
X009715Y025613D01*
X009907Y025805D01*
X010142Y025941D01*
X010404Y026011D01*
X010676Y026011D01*
X010938Y025941D01*
X011173Y025805D01*
X011190Y025788D01*
X011190Y026330D01*
X011259Y026495D01*
X011374Y026610D01*
X009871Y026610D01*
X009888Y026569D01*
X009888Y026431D01*
X009835Y026303D01*
X009737Y026205D01*
X009609Y026152D01*
X009471Y026152D01*
X009405Y026179D01*
X009405Y026156D01*
X009349Y026100D01*
X009405Y026044D01*
X009405Y025408D01*
X009317Y025320D01*
X009008Y025320D01*
X009008Y025231D01*
X008955Y025103D01*
X008857Y025005D01*
X008729Y024952D01*
X008591Y024952D01*
X008463Y025005D01*
X008365Y025103D01*
X008312Y025231D01*
X008312Y025369D01*
X008323Y025396D01*
X008299Y025389D01*
X008028Y025389D01*
X008028Y025777D01*
X007932Y025777D01*
X007932Y025389D01*
X007661Y025389D01*
X007615Y025402D01*
X007574Y025425D01*
X007541Y025459D01*
X007517Y025500D01*
X007505Y025546D01*
X007505Y025777D01*
X007932Y025777D01*
X007932Y025873D01*
X007505Y025873D01*
X007505Y026040D01*
X006818Y026040D01*
X006730Y026128D01*
X006730Y026246D01*
X004510Y026246D01*
X004510Y026128D01*
X004422Y026040D01*
X003688Y026040D01*
X003635Y026092D01*
X003551Y026002D01*
X003382Y025712D01*
X003281Y025393D01*
X003252Y025059D01*
X003261Y024948D01*
X003270Y024925D01*
X003270Y024856D01*
X003279Y024787D01*
X003270Y024751D01*
X003270Y024092D01*
X003662Y024092D01*
X003750Y024004D01*
X003750Y023368D01*
X003662Y023280D01*
X003270Y023280D01*
X003270Y021962D01*
X003343Y021962D01*
X003343Y021804D02*
X003270Y021804D01*
X003270Y021645D02*
X003343Y021645D01*
X003343Y021487D02*
X003270Y021487D01*
X003270Y021328D02*
X004565Y021328D01*
X004197Y021170D02*
X003270Y021170D01*
X003270Y021011D02*
X004089Y021011D01*
X004072Y020853D02*
X003270Y020853D01*
X003270Y020694D02*
X004134Y020694D01*
X006507Y020536D02*
X007395Y020536D01*
X007294Y020377D02*
X006666Y020377D01*
X007140Y020900D02*
X007206Y020834D01*
X007140Y020900D02*
X007171Y020931D01*
X007920Y020931D01*
X007140Y020900D02*
X007060Y020980D01*
X007060Y021540D01*
X007700Y022314D02*
X007680Y022334D01*
X007680Y022951D01*
X007060Y022900D02*
X007060Y023300D01*
X007460Y023700D01*
X009140Y023700D01*
X009300Y023540D01*
X009300Y022260D01*
X009460Y022100D01*
X009060Y021700D01*
X009060Y021140D01*
X009300Y020900D01*
X010340Y020900D01*
X010380Y020860D01*
X010220Y020860D01*
X010158Y021130D02*
X009395Y021130D01*
X009290Y021235D01*
X009290Y021605D01*
X009437Y021752D01*
X009529Y021752D01*
X009657Y021805D01*
X009755Y021903D01*
X009808Y022031D01*
X009808Y022169D01*
X009755Y022297D01*
X009657Y022395D01*
X009530Y022448D01*
X009530Y023427D01*
X009857Y023100D01*
X010023Y023100D01*
X010177Y023100D01*
X010343Y023100D01*
X010351Y023108D01*
X010677Y023108D01*
X010677Y023012D01*
X010289Y023012D01*
X010289Y022911D01*
X010249Y022928D01*
X010111Y022928D01*
X009983Y022875D01*
X009885Y022777D01*
X009832Y022649D01*
X009832Y022511D01*
X009885Y022383D01*
X009983Y022285D01*
X010111Y022232D01*
X010245Y022232D01*
X010701Y021776D01*
X011207Y021776D01*
X011341Y021642D01*
X011465Y021642D01*
X011572Y021750D01*
X011607Y021759D01*
X011648Y021782D01*
X011703Y021838D01*
X011631Y021911D01*
X011703Y021838D01*
X011759Y021894D01*
X011783Y021935D01*
X011792Y021969D01*
X011906Y022084D01*
X011989Y022167D01*
X012024Y022176D01*
X012065Y022200D01*
X012120Y022255D01*
X012048Y022328D01*
X012048Y022328D01*
X012120Y022255D01*
X012176Y022311D01*
X012200Y022352D01*
X012209Y022386D01*
X012241Y022418D01*
X012599Y022060D01*
X012977Y022060D01*
X013020Y022017D01*
X013020Y021697D01*
X013032Y021685D01*
X013032Y021551D01*
X013085Y021423D01*
X013183Y021325D01*
X013311Y021272D01*
X013389Y021272D01*
X013180Y021063D01*
X013180Y020552D01*
X013168Y020540D01*
X013168Y020649D01*
X013115Y020777D01*
X013017Y020875D01*
X012889Y020928D01*
X012835Y020928D01*
X012780Y020983D01*
X012663Y021100D01*
X012316Y021100D01*
X012099Y020883D01*
X012016Y020966D01*
X011882Y021101D01*
X011741Y021242D01*
X011741Y021242D01*
X011631Y021352D01*
X011465Y021518D01*
X011341Y021518D01*
X010963Y021140D01*
X010963Y021016D01*
X011097Y020881D01*
X011263Y020716D01*
X011279Y020700D01*
X010691Y020700D01*
X010728Y020791D01*
X010728Y020929D01*
X010675Y021057D01*
X010577Y021155D01*
X010449Y021208D01*
X010311Y021208D01*
X010183Y021155D01*
X010158Y021130D01*
X010218Y021170D02*
X009356Y021170D01*
X009290Y021328D02*
X011151Y021328D01*
X011309Y021487D02*
X009290Y021487D01*
X009330Y021645D02*
X011338Y021645D01*
X011468Y021645D02*
X013032Y021645D01*
X013020Y021804D02*
X011669Y021804D01*
X011631Y021911D02*
X011631Y021911D01*
X011790Y021962D02*
X013020Y021962D01*
X012820Y021940D02*
X012660Y021780D01*
X012020Y021780D01*
X011860Y021620D01*
X010180Y021620D01*
X010100Y021700D01*
X009780Y021962D02*
X010515Y021962D01*
X010357Y022121D02*
X009808Y022121D01*
X009763Y022279D02*
X009997Y022279D01*
X009862Y022438D02*
X009555Y022438D01*
X009530Y022596D02*
X009832Y022596D01*
X009875Y022755D02*
X009530Y022755D01*
X009530Y022913D02*
X010074Y022913D01*
X010286Y022913D02*
X010289Y022913D01*
X010677Y022913D02*
X010773Y022913D01*
X010773Y023012D02*
X010773Y022585D01*
X011005Y022585D01*
X011051Y022597D01*
X011081Y022615D01*
X011195Y022615D01*
X011195Y022418D01*
X011159Y022383D01*
X011195Y022347D01*
X011195Y022347D01*
X011232Y022310D01*
X011232Y022310D01*
X011159Y022383D01*
X011103Y022327D01*
X011079Y022286D01*
X011070Y022252D01*
X010995Y022176D01*
X010867Y022176D01*
X010528Y022515D01*
X010528Y022585D01*
X010677Y022585D01*
X010677Y023012D01*
X010773Y023012D01*
X010677Y023072D02*
X009530Y023072D01*
X009530Y023230D02*
X009727Y023230D01*
X009569Y023389D02*
X009530Y023389D01*
X008540Y022951D02*
X008540Y022334D01*
X009654Y021804D02*
X010674Y021804D01*
X010764Y022279D02*
X011078Y022279D01*
X011195Y022438D02*
X010605Y022438D01*
X010677Y022596D02*
X010773Y022596D01*
X010773Y022755D02*
X010677Y022755D01*
X011047Y022596D02*
X011195Y022596D01*
X011943Y022121D02*
X012538Y022121D01*
X012380Y022279D02*
X012144Y022279D01*
X012097Y022279D02*
X012097Y022279D01*
X012523Y022701D02*
X012764Y022460D01*
X013143Y022460D01*
X013420Y022183D01*
X013420Y021968D01*
X013432Y021968D01*
X013432Y022009D01*
X013485Y022137D01*
X013583Y022235D01*
X013711Y022288D01*
X013849Y022288D01*
X013977Y022235D01*
X014072Y022140D01*
X014477Y022140D01*
X014424Y022194D01*
X014258Y022359D01*
X014258Y022359D01*
X014141Y022477D01*
X014026Y022591D01*
X013992Y022600D01*
X013951Y022624D01*
X013895Y022680D01*
X013968Y022752D01*
X013968Y022752D01*
X013895Y022680D01*
X013840Y022735D01*
X013816Y022776D01*
X013807Y022811D01*
X013724Y022894D01*
X013724Y022894D01*
X013558Y023059D01*
X013558Y023059D01*
X013448Y023169D01*
X013448Y023169D01*
X013282Y023335D01*
X013282Y023459D01*
X013335Y023512D01*
X013231Y023512D01*
X013149Y023546D01*
X013110Y023507D01*
X013158Y023459D01*
X013158Y023335D01*
X012992Y023169D01*
X012992Y023169D01*
X012882Y023059D01*
X012882Y023059D01*
X012741Y022918D01*
X012606Y022784D01*
X012523Y022701D01*
X012577Y022755D02*
X013828Y022755D01*
X013704Y022913D02*
X012736Y022913D01*
X012894Y023072D02*
X013546Y023072D01*
X013387Y023230D02*
X013053Y023230D01*
X013158Y023389D02*
X013282Y023389D01*
X014620Y023404D02*
X014620Y023453D01*
X014697Y023485D01*
X014795Y023583D01*
X014848Y023711D01*
X014848Y023849D01*
X014795Y023977D01*
X014697Y024075D01*
X014637Y024100D01*
X014550Y024187D01*
X014550Y025190D01*
X014550Y025190D01*
X014730Y025190D01*
X014841Y025236D01*
X014809Y025116D01*
X014809Y024844D01*
X014879Y024582D01*
X015015Y024347D01*
X015099Y024262D01*
X014977Y024140D01*
X014860Y024023D01*
X014860Y023644D01*
X014620Y023404D01*
X014759Y023547D02*
X014763Y023547D01*
X014846Y023706D02*
X014860Y023706D01*
X014860Y023864D02*
X014842Y023864D01*
X014860Y024023D02*
X014750Y024023D01*
X014556Y024181D02*
X015018Y024181D01*
X015022Y024340D02*
X014550Y024340D01*
X014660Y024260D02*
X014660Y024900D01*
X015300Y025540D01*
X015300Y025860D01*
X015207Y025805D02*
X015090Y025688D01*
X015090Y026330D01*
X015021Y026495D01*
X014906Y026610D01*
X016007Y026610D01*
X016005Y026608D01*
X015871Y026608D01*
X015743Y026555D01*
X015645Y026457D01*
X015592Y026329D01*
X015592Y026191D01*
X015645Y026063D01*
X015698Y026010D01*
X015442Y025941D01*
X015207Y025805D01*
X015168Y025766D02*
X015090Y025766D01*
X015090Y025925D02*
X015414Y025925D01*
X015637Y026083D02*
X015090Y026083D01*
X015090Y026242D02*
X015592Y026242D01*
X015621Y026400D02*
X015061Y026400D01*
X014958Y026559D02*
X015751Y026559D01*
X016288Y026325D02*
X016343Y026380D01*
X017968Y026380D01*
X017965Y026377D01*
X017912Y026249D01*
X017912Y026111D01*
X017965Y025983D01*
X018063Y025885D01*
X018191Y025832D01*
X018329Y025832D01*
X018457Y025885D01*
X018552Y025980D01*
X018977Y025980D01*
X019617Y025340D01*
X019937Y025340D01*
X019925Y025328D01*
X019791Y025328D01*
X019663Y025275D01*
X019565Y025177D01*
X019512Y025049D01*
X019512Y024911D01*
X019565Y024783D01*
X019663Y024685D01*
X019791Y024632D01*
X019929Y024632D01*
X020057Y024685D01*
X020155Y024783D01*
X020208Y024911D01*
X020208Y025045D01*
X020263Y025100D01*
X020784Y025100D01*
X020590Y024906D01*
X020590Y024534D01*
X020854Y024270D01*
X021226Y024270D01*
X021340Y024384D01*
X021340Y024056D01*
X021226Y024170D01*
X020854Y024170D01*
X020590Y023906D01*
X020590Y023534D01*
X020854Y023270D01*
X021226Y023270D01*
X021340Y023384D01*
X021340Y023056D01*
X021226Y023170D01*
X020854Y023170D01*
X020590Y022906D01*
X020590Y022534D01*
X020854Y022270D01*
X021226Y022270D01*
X021340Y022384D01*
X021340Y022099D01*
X021239Y022200D01*
X021060Y022200D01*
X021060Y021740D01*
X021020Y021740D01*
X021020Y022200D01*
X020841Y022200D01*
X020560Y021919D01*
X020560Y021740D01*
X021020Y021740D01*
X021020Y021700D01*
X020560Y021700D01*
X020560Y021521D01*
X020706Y021375D01*
X020613Y021375D01*
X020613Y020948D01*
X020517Y020948D01*
X020517Y020852D01*
X020129Y020852D01*
X020129Y020581D01*
X020142Y020535D01*
X020165Y020494D01*
X020199Y020461D01*
X020240Y020437D01*
X020286Y020425D01*
X020517Y020425D01*
X020517Y020852D01*
X020613Y020852D01*
X020613Y020425D01*
X020626Y020425D01*
X020484Y020283D01*
X020397Y020196D01*
X020350Y020082D01*
X020350Y011908D01*
X019972Y011530D01*
X017478Y011530D01*
X017364Y011483D01*
X017092Y011210D01*
X017088Y011210D01*
X017088Y011289D01*
X017035Y011417D01*
X016937Y011515D01*
X016809Y011568D01*
X016671Y011568D01*
X016543Y011515D01*
X016535Y011508D01*
X016482Y011530D01*
X016358Y011530D01*
X016345Y011524D01*
X016345Y012099D01*
X016257Y012187D01*
X015503Y012187D01*
X015415Y012099D01*
X015415Y012076D01*
X015289Y012128D01*
X015151Y012128D01*
X015023Y012075D01*
X014998Y012050D01*
X013965Y012050D01*
X013965Y012099D01*
X013877Y012187D01*
X013530Y012187D01*
X013530Y012590D01*
X015842Y012590D01*
X015956Y012637D01*
X016043Y012724D01*
X016350Y013032D01*
X016409Y013032D01*
X016537Y013085D01*
X016635Y013183D01*
X016688Y013311D01*
X016688Y013449D01*
X016635Y013577D01*
X016537Y013675D01*
X016409Y013728D01*
X016271Y013728D01*
X016143Y013675D01*
X016129Y013661D01*
X016084Y013643D01*
X015652Y013210D01*
X014164Y013210D01*
X014233Y013278D01*
X014301Y013443D01*
X014301Y013620D01*
X014233Y013785D01*
X014107Y013910D01*
X013943Y013978D01*
X013911Y013978D01*
X013995Y014063D01*
X014048Y014191D01*
X014048Y014329D01*
X013995Y014457D01*
X013930Y014522D01*
X013930Y015118D01*
X013980Y015168D01*
X013980Y014657D01*
X014097Y014540D01*
X014657Y013980D01*
X016608Y013980D01*
X016703Y013885D01*
X016831Y013832D01*
X016860Y013832D01*
X016860Y013297D01*
X016918Y013240D01*
X016872Y013129D01*
X016872Y012991D01*
X016925Y012863D01*
X017023Y012765D01*
X017151Y012712D01*
X017289Y012712D01*
X017417Y012765D01*
X017515Y012863D01*
X017568Y012991D01*
X017568Y013129D01*
X017540Y013196D01*
X017657Y013245D01*
X017755Y013343D01*
X017808Y013471D01*
X017808Y013512D01*
X017929Y013512D01*
X018057Y013565D01*
X018155Y013663D01*
X018208Y013791D01*
X018208Y013929D01*
X018155Y014057D01*
X018060Y014152D01*
X018060Y016343D01*
X017340Y017063D01*
X017340Y017213D01*
X017417Y017245D01*
X017515Y017343D01*
X017568Y017471D01*
X017568Y017609D01*
X017529Y017705D01*
X017577Y017725D01*
X017675Y017823D01*
X017707Y017900D01*
X017777Y017900D01*
X018860Y016817D01*
X018860Y016472D01*
X018765Y016377D01*
X018712Y016249D01*
X018712Y016111D01*
X018765Y015983D01*
X018863Y015885D01*
X018991Y015832D01*
X019129Y015832D01*
X019257Y015885D01*
X019355Y015983D01*
X019408Y016111D01*
X019408Y016249D01*
X019355Y016377D01*
X019260Y016472D01*
X019260Y016528D01*
X019343Y016445D01*
X019471Y016392D01*
X019609Y016392D01*
X019737Y016445D01*
X019835Y016543D01*
X019888Y016671D01*
X019888Y016706D01*
X020009Y016827D01*
X020050Y016926D01*
X020050Y018234D01*
X020009Y018333D01*
X019933Y018409D01*
X019773Y018569D01*
X019674Y018610D01*
X018852Y018610D01*
X018530Y018932D01*
X018530Y019994D01*
X018489Y020093D01*
X018413Y020169D01*
X017853Y020729D01*
X017754Y020770D01*
X017602Y020770D01*
X017577Y020795D01*
X017449Y020848D01*
X017311Y020848D01*
X017183Y020795D01*
X017085Y020697D01*
X017032Y020569D01*
X017032Y020431D01*
X017085Y020303D01*
X017183Y020205D01*
X017311Y020152D01*
X017449Y020152D01*
X017577Y020205D01*
X017595Y020223D01*
X017863Y019955D01*
X017782Y019955D01*
X017782Y019508D01*
X017686Y019508D01*
X017686Y019955D01*
X017454Y019955D01*
X017409Y019943D01*
X017368Y019919D01*
X017339Y019890D01*
X017304Y019925D01*
X016668Y019925D01*
X016580Y019837D01*
X016580Y019343D01*
X016434Y019197D01*
X016448Y019231D01*
X016448Y019369D01*
X016395Y019497D01*
X016300Y019592D01*
X016300Y019623D01*
X015740Y020183D01*
X015740Y020319D01*
X015396Y020663D01*
X015471Y020632D01*
X015609Y020632D01*
X015737Y020685D01*
X015835Y020783D01*
X015888Y020911D01*
X015888Y021049D01*
X015835Y021177D01*
X015832Y021180D01*
X018983Y021180D01*
X019100Y021297D01*
X019980Y022177D01*
X019980Y023217D01*
X020035Y023272D01*
X020169Y023272D01*
X020297Y023325D01*
X020395Y023423D01*
X020448Y023551D01*
X020448Y023689D01*
X020395Y023817D01*
X020297Y023915D01*
X020169Y023968D01*
X020128Y023968D01*
X020128Y024089D01*
X020075Y024217D01*
X019977Y024315D01*
X019849Y024368D01*
X019711Y024368D01*
X019583Y024315D01*
X019485Y024217D01*
X019432Y024089D01*
X019432Y023951D01*
X019485Y023823D01*
X019500Y023808D01*
X019500Y023703D01*
X019340Y023543D01*
X019340Y022423D01*
X018737Y021820D01*
X017991Y021820D01*
X017991Y021992D01*
X017603Y021992D01*
X017603Y022088D01*
X017991Y022088D01*
X017991Y022342D01*
X018122Y022342D01*
X018210Y022430D01*
X018210Y023020D01*
X018743Y023020D01*
X018983Y023260D01*
X019100Y023377D01*
X019100Y023693D01*
X019177Y023725D01*
X019275Y023823D01*
X019328Y023951D01*
X019328Y024089D01*
X019275Y024217D01*
X019177Y024315D01*
X019049Y024368D01*
X018911Y024368D01*
X018855Y024345D01*
X018855Y024347D01*
X018428Y024347D01*
X018428Y024443D01*
X018332Y024443D01*
X018332Y024831D01*
X018061Y024831D01*
X018015Y024818D01*
X017974Y024795D01*
X017941Y024761D01*
X017917Y024720D01*
X017905Y024674D01*
X017905Y024443D01*
X018332Y024443D01*
X018332Y024347D01*
X017905Y024347D01*
X017905Y024138D01*
X017590Y024138D01*
X017595Y024143D01*
X017648Y024271D01*
X017648Y024409D01*
X017595Y024537D01*
X017497Y024635D01*
X017369Y024688D01*
X017231Y024688D01*
X017103Y024635D01*
X017008Y024540D01*
X016977Y024540D01*
X016737Y024300D01*
X016618Y024300D01*
X016665Y024347D01*
X016801Y024582D01*
X016871Y024844D01*
X016871Y025116D01*
X016801Y025378D01*
X016665Y025613D01*
X016473Y025805D01*
X016238Y025941D01*
X016140Y025967D01*
X016235Y026063D01*
X016288Y026191D01*
X016288Y026325D01*
X016288Y026242D02*
X017912Y026242D01*
X017923Y026083D02*
X016243Y026083D01*
X016266Y025925D02*
X018023Y025925D01*
X018497Y025925D02*
X019033Y025925D01*
X019191Y025766D02*
X016512Y025766D01*
X016668Y025608D02*
X019350Y025608D01*
X019508Y025449D02*
X016760Y025449D01*
X016824Y025291D02*
X019700Y025291D01*
X019546Y025132D02*
X016867Y025132D01*
X016871Y024974D02*
X019512Y024974D01*
X019552Y024815D02*
X018750Y024815D01*
X018745Y024818D02*
X018699Y024831D01*
X018428Y024831D01*
X018428Y024443D01*
X018855Y024443D01*
X018855Y024674D01*
X018843Y024720D01*
X018819Y024761D01*
X018786Y024795D01*
X018745Y024818D01*
X018855Y024657D02*
X019731Y024657D01*
X019989Y024657D02*
X020590Y024657D01*
X020590Y024815D02*
X020168Y024815D01*
X020208Y024974D02*
X020657Y024974D01*
X020626Y024498D02*
X018855Y024498D01*
X019118Y024340D02*
X019642Y024340D01*
X019470Y024181D02*
X019290Y024181D01*
X019328Y024023D02*
X019432Y024023D01*
X019468Y023864D02*
X019292Y023864D01*
X019130Y023706D02*
X019500Y023706D01*
X019344Y023547D02*
X019100Y023547D01*
X019100Y023389D02*
X019340Y023389D01*
X019340Y023230D02*
X018953Y023230D01*
X018794Y023072D02*
X019340Y023072D01*
X019340Y022913D02*
X018210Y022913D01*
X018210Y022755D02*
X019340Y022755D01*
X019340Y022596D02*
X018210Y022596D01*
X018210Y022438D02*
X019340Y022438D01*
X019196Y022279D02*
X017991Y022279D01*
X017991Y022121D02*
X019038Y022121D01*
X018879Y021962D02*
X017991Y021962D01*
X019289Y021487D02*
X020595Y021487D01*
X020517Y021375D02*
X020286Y021375D01*
X020240Y021363D01*
X020199Y021339D01*
X020165Y021306D01*
X020142Y021265D01*
X020129Y021219D01*
X020129Y020948D01*
X020517Y020948D01*
X020517Y021375D01*
X020517Y021328D02*
X020613Y021328D01*
X020613Y021170D02*
X020517Y021170D01*
X020517Y021011D02*
X020613Y021011D01*
X020565Y020900D02*
X020340Y020900D01*
X020180Y020740D01*
X020129Y020694D02*
X017888Y020694D01*
X018046Y020536D02*
X020142Y020536D01*
X020517Y020536D02*
X020613Y020536D01*
X020613Y020694D02*
X020517Y020694D01*
X020517Y020853D02*
X015864Y020853D01*
X015888Y021011D02*
X020129Y021011D01*
X020129Y021170D02*
X015838Y021170D01*
X015746Y020694D02*
X017084Y020694D01*
X017032Y020536D02*
X015523Y020536D01*
X015682Y020377D02*
X017054Y020377D01*
X017169Y020219D02*
X015740Y020219D01*
X015863Y020060D02*
X017758Y020060D01*
X017782Y019902D02*
X017686Y019902D01*
X017686Y019743D02*
X017782Y019743D01*
X017782Y019585D02*
X017686Y019585D01*
X017686Y019412D02*
X017782Y019412D01*
X017782Y018965D01*
X017990Y018965D01*
X017990Y018766D01*
X018031Y018667D01*
X018511Y018187D01*
X018587Y018111D01*
X018686Y018070D01*
X019508Y018070D01*
X019510Y018068D01*
X019510Y017902D01*
X019497Y017915D01*
X019369Y017968D01*
X019231Y017968D01*
X019103Y017915D01*
X019005Y017817D01*
X018973Y017740D01*
X018903Y017740D01*
X017943Y018700D01*
X017137Y018700D01*
X017020Y018583D01*
X016620Y018183D01*
X016620Y016737D01*
X016737Y016620D01*
X017260Y016097D01*
X017260Y016023D01*
X016620Y016663D01*
X016620Y018811D01*
X016804Y018995D01*
X017304Y018995D01*
X017339Y019030D01*
X017368Y019001D01*
X017409Y018977D01*
X017454Y018965D01*
X017686Y018965D01*
X017686Y019412D01*
X017686Y019268D02*
X017782Y019268D01*
X017782Y019109D02*
X017686Y019109D01*
X017990Y018951D02*
X016759Y018951D01*
X016620Y018792D02*
X017990Y018792D01*
X018009Y018634D02*
X018065Y018634D01*
X018168Y018475D02*
X018223Y018475D01*
X018326Y018317D02*
X018382Y018317D01*
X018485Y018158D02*
X018540Y018158D01*
X018643Y018000D02*
X019510Y018000D01*
X019029Y017841D02*
X018802Y017841D01*
X018312Y017366D02*
X017525Y017366D01*
X017568Y017524D02*
X018153Y017524D01*
X017995Y017683D02*
X017538Y017683D01*
X017683Y017841D02*
X017836Y017841D01*
X016620Y017841D02*
X016620Y017841D01*
X016620Y017683D02*
X016620Y017683D01*
X016620Y017524D02*
X016620Y017524D01*
X016620Y017366D02*
X016620Y017366D01*
X016620Y017207D02*
X016620Y017207D01*
X016620Y017049D02*
X016620Y017049D01*
X016620Y016890D02*
X016620Y016890D01*
X016620Y016732D02*
X016626Y016732D01*
X016710Y016573D02*
X016784Y016573D01*
X016868Y016415D02*
X016943Y016415D01*
X017027Y016256D02*
X017101Y016256D01*
X017185Y016098D02*
X017260Y016098D01*
X016937Y015781D02*
X014382Y015781D01*
X014224Y015939D02*
X016778Y015939D01*
X016620Y016098D02*
X014065Y016098D01*
X014060Y016103D02*
X013943Y016220D01*
X010183Y016220D01*
X010503Y016540D01*
X010663Y016540D01*
X011660Y017537D01*
X011660Y017192D01*
X011565Y017097D01*
X011512Y016969D01*
X011512Y016831D01*
X011565Y016703D01*
X011663Y016605D01*
X011791Y016552D01*
X011929Y016552D01*
X012057Y016605D01*
X012155Y016703D01*
X012208Y016831D01*
X012208Y016969D01*
X012155Y017097D01*
X012060Y017192D01*
X012060Y017537D01*
X012343Y017820D01*
X013573Y017820D01*
X013475Y017722D01*
X013407Y017557D01*
X013407Y017380D01*
X013475Y017215D01*
X013601Y017090D01*
X013765Y017022D01*
X013943Y017022D01*
X014107Y017090D01*
X014233Y017215D01*
X014301Y017380D01*
X014301Y017557D01*
X014233Y017722D01*
X014134Y017820D01*
X015623Y017820D01*
X015703Y017900D01*
X015820Y018017D01*
X015820Y018333D01*
X015897Y018365D01*
X015995Y018463D01*
X016048Y018591D01*
X016048Y018700D01*
X016220Y018700D01*
X016220Y016497D01*
X016337Y016380D01*
X017020Y015697D01*
X017020Y014987D01*
X016969Y015008D01*
X016831Y015008D01*
X016703Y014955D01*
X016608Y014860D01*
X016577Y014860D01*
X016337Y014620D01*
X014903Y014620D01*
X014620Y014903D01*
X014620Y015543D01*
X014060Y016103D01*
X014541Y015622D02*
X017020Y015622D01*
X017020Y015464D02*
X014620Y015464D01*
X014620Y015305D02*
X017020Y015305D01*
X017020Y015147D02*
X014620Y015147D01*
X014620Y014988D02*
X016782Y014988D01*
X017018Y014988D02*
X017020Y014988D01*
X016547Y014830D02*
X014693Y014830D01*
X014852Y014671D02*
X016388Y014671D01*
X016718Y013879D02*
X014139Y013879D01*
X014259Y013720D02*
X016251Y013720D01*
X016429Y013720D02*
X016860Y013720D01*
X016860Y013562D02*
X016642Y013562D01*
X016688Y013403D02*
X016860Y013403D01*
X016913Y013245D02*
X016661Y013245D01*
X016538Y013086D02*
X016872Y013086D01*
X016898Y012928D02*
X016246Y012928D01*
X016087Y012769D02*
X017019Y012769D01*
X017421Y012769D02*
X020350Y012769D01*
X020350Y012611D02*
X015891Y012611D01*
X016309Y012135D02*
X020350Y012135D01*
X020350Y011977D02*
X016345Y011977D01*
X016345Y011818D02*
X020260Y011818D01*
X020101Y011660D02*
X016345Y011660D01*
X016951Y011501D02*
X017408Y011501D01*
X017224Y011343D02*
X017066Y011343D01*
X017668Y010910D02*
X017752Y010910D01*
X017595Y010753D01*
X017503Y010715D01*
X017405Y010617D01*
X017352Y010489D01*
X017352Y010351D01*
X017405Y010223D01*
X017503Y010125D01*
X017631Y010072D01*
X017769Y010072D01*
X017897Y010125D01*
X017995Y010223D01*
X018033Y010315D01*
X018068Y010350D01*
X019812Y010350D01*
X020290Y009872D01*
X020290Y009566D01*
X020150Y009426D01*
X020150Y009054D01*
X020414Y008790D01*
X020786Y008790D01*
X021050Y009054D01*
X021050Y009426D01*
X020910Y009566D01*
X020910Y010062D01*
X020863Y010176D01*
X020203Y010836D01*
X020128Y010910D01*
X020162Y010910D01*
X020276Y010957D01*
X020363Y011044D01*
X020836Y011517D01*
X020923Y011604D01*
X020940Y011646D01*
X020964Y011559D01*
X021099Y011324D01*
X021291Y011132D01*
X021527Y010996D01*
X021789Y010926D01*
X022060Y010926D01*
X022323Y010996D01*
X022558Y011132D01*
X022750Y011324D01*
X022885Y011559D01*
X022956Y011821D01*
X022956Y012092D01*
X022885Y012355D01*
X022750Y012590D01*
X022558Y012782D01*
X022323Y012918D01*
X022060Y012988D01*
X021789Y012988D01*
X021527Y012918D01*
X021291Y012782D01*
X021099Y012590D01*
X020970Y012366D01*
X020970Y016792D01*
X021049Y016792D01*
X021177Y016845D01*
X021275Y016943D01*
X021328Y017071D01*
X021328Y017209D01*
X021275Y017337D01*
X021177Y017435D01*
X021049Y017488D01*
X020970Y017488D01*
X020970Y018634D01*
X021099Y018410D01*
X021291Y018218D01*
X021527Y018082D01*
X021789Y018012D01*
X022060Y018012D01*
X022323Y018082D01*
X022558Y018218D01*
X022750Y018410D01*
X022885Y018645D01*
X022956Y018908D01*
X022956Y019179D01*
X022885Y019441D01*
X022750Y019676D01*
X022558Y019868D01*
X022323Y020004D01*
X022060Y020074D01*
X021789Y020074D01*
X021527Y020004D01*
X021291Y019868D01*
X021099Y019676D01*
X020970Y019452D01*
X020970Y019892D01*
X021028Y019950D01*
X021122Y019950D01*
X021236Y019997D01*
X021396Y020157D01*
X021428Y020190D01*
X021438Y020190D01*
X021503Y020125D01*
X021631Y020072D01*
X021769Y020072D01*
X021897Y020125D01*
X021995Y020223D01*
X022048Y020351D01*
X022048Y020489D01*
X022006Y020590D01*
X022482Y020590D01*
X022596Y020637D01*
X022996Y021037D01*
X023020Y021062D01*
X023020Y021032D01*
X022925Y020937D01*
X022872Y020809D01*
X022872Y020671D01*
X022925Y020543D01*
X023023Y020445D01*
X023151Y020392D01*
X023170Y020392D01*
X023170Y009137D01*
X023162Y009110D01*
X023170Y009033D01*
X023170Y008955D01*
X023175Y008941D01*
X023178Y008883D01*
X023143Y008640D01*
X023049Y008414D01*
X022904Y008217D01*
X022714Y008061D01*
X022492Y007957D01*
X022252Y007910D01*
X022206Y007910D01*
X022205Y007910D01*
X022114Y007910D01*
X022024Y007915D01*
X022009Y007910D01*
X021906Y007910D01*
X022050Y008054D01*
X022050Y008426D01*
X021786Y008690D01*
X021414Y008690D01*
X021150Y008426D01*
X021150Y008054D01*
X021294Y007910D01*
X020906Y007910D01*
X021050Y008054D01*
X021050Y008426D01*
X020786Y008690D01*
X020414Y008690D01*
X020150Y008426D01*
X020150Y008054D01*
X020294Y007910D01*
X019906Y007910D01*
X020050Y008054D01*
X020050Y008426D01*
X019870Y008606D01*
X019870Y008654D01*
X019829Y008753D01*
X019789Y008793D01*
X020050Y009054D01*
X020050Y009426D01*
X019786Y009690D01*
X019414Y009690D01*
X019150Y009426D01*
X019150Y009054D01*
X019194Y009010D01*
X019006Y009010D01*
X019050Y009054D01*
X019050Y009426D01*
X018786Y009690D01*
X018414Y009690D01*
X018150Y009426D01*
X018150Y009054D01*
X018194Y009010D01*
X018132Y009010D01*
X016930Y010212D01*
X016930Y010580D01*
X016931Y010590D01*
X017282Y010590D01*
X017396Y010637D01*
X017668Y010910D01*
X017709Y010867D02*
X017625Y010867D01*
X017496Y010709D02*
X017467Y010709D01*
X017377Y010550D02*
X016930Y010550D01*
X016930Y010392D02*
X017352Y010392D01*
X017401Y010233D02*
X016930Y010233D01*
X017067Y010075D02*
X017624Y010075D01*
X017776Y010075D02*
X020087Y010075D01*
X019929Y010233D02*
X017999Y010233D01*
X017384Y009758D02*
X020290Y009758D01*
X020290Y009599D02*
X019877Y009599D01*
X020036Y009441D02*
X020164Y009441D01*
X020150Y009282D02*
X020050Y009282D01*
X020050Y009124D02*
X020150Y009124D01*
X020239Y008965D02*
X019961Y008965D01*
X019803Y008807D02*
X020397Y008807D01*
X020372Y008648D02*
X019870Y008648D01*
X019987Y008490D02*
X020213Y008490D01*
X020150Y008331D02*
X020050Y008331D01*
X020050Y008173D02*
X020150Y008173D01*
X020190Y008014D02*
X020010Y008014D01*
X019294Y007910D02*
X018949Y007910D01*
X019080Y008041D01*
X019080Y008220D01*
X018620Y008220D01*
X018620Y008260D01*
X019080Y008260D01*
X019080Y008439D01*
X019049Y008470D01*
X019194Y008470D01*
X019150Y008426D01*
X019150Y008054D01*
X019294Y007910D01*
X019190Y008014D02*
X019053Y008014D01*
X019080Y008173D02*
X019150Y008173D01*
X019150Y008331D02*
X019080Y008331D01*
X018580Y008260D02*
X018580Y008220D01*
X018120Y008220D01*
X018120Y008041D01*
X018251Y007910D01*
X017030Y007910D01*
X017030Y008586D01*
X016965Y008744D01*
X016844Y008865D01*
X016686Y008930D01*
X016514Y008930D01*
X016356Y008865D01*
X016235Y008744D01*
X016170Y008586D01*
X016170Y007910D01*
X016030Y007910D01*
X016030Y008586D01*
X015965Y008744D01*
X015844Y008865D01*
X015686Y008930D01*
X015514Y008930D01*
X015356Y008865D01*
X015235Y008744D01*
X015170Y008586D01*
X015170Y007910D01*
X014560Y007910D01*
X014560Y008190D01*
X014110Y008190D01*
X014110Y008210D01*
X014090Y008210D01*
X014090Y008940D01*
X014064Y008940D01*
X013992Y008929D01*
X013923Y008906D01*
X013859Y008873D01*
X013800Y008831D01*
X013749Y008780D01*
X013707Y008721D01*
X013674Y008657D01*
X013651Y008588D01*
X013640Y008516D01*
X013640Y008210D01*
X014090Y008210D01*
X014090Y008190D01*
X013640Y008190D01*
X013640Y007910D01*
X013530Y007910D01*
X013530Y008566D01*
X013465Y008724D01*
X013344Y008845D01*
X013186Y008910D01*
X013014Y008910D01*
X012856Y008845D01*
X012735Y008724D01*
X012670Y008566D01*
X012670Y007910D01*
X012070Y007910D01*
X012070Y008586D01*
X012005Y008744D01*
X011884Y008865D01*
X011726Y008930D01*
X011554Y008930D01*
X011396Y008865D01*
X011275Y008744D01*
X011210Y008586D01*
X011210Y007910D01*
X011070Y007910D01*
X011070Y008586D01*
X011005Y008744D01*
X010950Y008798D01*
X010950Y008983D01*
X011183Y008983D01*
X011183Y009676D01*
X011337Y009676D01*
X011337Y008983D01*
X011599Y008983D01*
X011644Y008996D01*
X011685Y009019D01*
X011719Y009053D01*
X011743Y009094D01*
X011755Y009140D01*
X011755Y009676D01*
X011337Y009676D01*
X011337Y009831D01*
X011183Y009831D01*
X011183Y009676D01*
X010765Y009676D01*
X010765Y009313D01*
X010570Y009508D01*
X010570Y010732D01*
X010795Y010957D01*
X010795Y010833D01*
X010883Y010746D01*
X011637Y010746D01*
X011725Y010833D01*
X011725Y011176D01*
X012070Y011176D01*
X012070Y010482D01*
X012045Y010457D01*
X011992Y010329D01*
X011992Y010191D01*
X012045Y010063D01*
X012143Y009965D01*
X012271Y009912D01*
X012409Y009912D01*
X012537Y009965D01*
X012635Y010063D01*
X012688Y010191D01*
X012688Y010329D01*
X012635Y010457D01*
X012610Y010482D01*
X012610Y011176D01*
X013035Y011176D01*
X013035Y010793D01*
X013123Y010706D01*
X013877Y010706D01*
X013965Y010793D01*
X013965Y011510D01*
X014998Y011510D01*
X015023Y011485D01*
X015151Y011432D01*
X015289Y011432D01*
X015415Y011484D01*
X015415Y010793D01*
X015503Y010706D01*
X016187Y010706D01*
X016390Y010482D01*
X016390Y010046D01*
X016431Y009947D01*
X016507Y009871D01*
X017867Y008511D01*
X017966Y008470D01*
X018151Y008470D01*
X018120Y008439D01*
X018120Y008260D01*
X018580Y008260D01*
X018120Y008331D02*
X017030Y008331D01*
X017030Y008173D02*
X018120Y008173D01*
X018147Y008014D02*
X017030Y008014D01*
X017030Y008490D02*
X017919Y008490D01*
X017730Y008648D02*
X017004Y008648D01*
X016902Y008807D02*
X017572Y008807D01*
X017413Y008965D02*
X016281Y008965D01*
X016264Y008956D02*
X016305Y008979D01*
X016339Y009013D01*
X016363Y009054D01*
X016375Y009100D01*
X016375Y009636D01*
X015957Y009636D01*
X015957Y008943D01*
X016219Y008943D01*
X016264Y008956D01*
X016298Y008807D02*
X015902Y008807D01*
X015957Y008965D02*
X015803Y008965D01*
X015803Y008943D02*
X015803Y009636D01*
X015957Y009636D01*
X015957Y009791D01*
X015803Y009791D01*
X015803Y010484D01*
X015541Y010484D01*
X015496Y010472D01*
X015455Y010448D01*
X015421Y010415D01*
X015397Y010374D01*
X015385Y010328D01*
X015385Y009791D01*
X015803Y009791D01*
X015803Y009636D01*
X015385Y009636D01*
X015385Y009100D01*
X015397Y009054D01*
X015421Y009013D01*
X015455Y008979D01*
X015496Y008956D01*
X015541Y008943D01*
X015803Y008943D01*
X015803Y009124D02*
X015957Y009124D01*
X015957Y009282D02*
X015803Y009282D01*
X015803Y009441D02*
X015957Y009441D01*
X015957Y009599D02*
X015803Y009599D01*
X015803Y009758D02*
X013577Y009758D01*
X013577Y009791D02*
X013995Y009791D01*
X013995Y010328D01*
X013983Y010374D01*
X013959Y010415D01*
X013925Y010448D01*
X013884Y010472D01*
X013839Y010484D01*
X013577Y010484D01*
X013577Y009791D01*
X013423Y009791D01*
X013423Y010484D01*
X013161Y010484D01*
X013116Y010472D01*
X013075Y010448D01*
X013041Y010415D01*
X013017Y010374D01*
X013005Y010328D01*
X013005Y009791D01*
X013423Y009791D01*
X013423Y009636D01*
X013577Y009636D01*
X013577Y008943D01*
X013839Y008943D01*
X013884Y008956D01*
X013925Y008979D01*
X013959Y009013D01*
X013983Y009054D01*
X013995Y009100D01*
X013995Y009636D01*
X013577Y009636D01*
X013577Y009791D01*
X013577Y009916D02*
X013423Y009916D01*
X013423Y009758D02*
X011337Y009758D01*
X011337Y009831D02*
X011755Y009831D01*
X011755Y010368D01*
X011743Y010414D01*
X011719Y010455D01*
X011685Y010488D01*
X011644Y010512D01*
X011599Y010524D01*
X011337Y010524D01*
X011337Y009831D01*
X011337Y009916D02*
X011183Y009916D01*
X011183Y009831D02*
X011183Y010524D01*
X010921Y010524D01*
X010876Y010512D01*
X010835Y010488D01*
X010801Y010455D01*
X010777Y010414D01*
X010765Y010368D01*
X010765Y009831D01*
X011183Y009831D01*
X011183Y009758D02*
X010570Y009758D01*
X010570Y009916D02*
X010765Y009916D01*
X010765Y010075D02*
X010570Y010075D01*
X010570Y010233D02*
X010765Y010233D01*
X010771Y010392D02*
X010570Y010392D01*
X010570Y010550D02*
X012070Y010550D01*
X012070Y010709D02*
X010570Y010709D01*
X010705Y010867D02*
X010795Y010867D01*
X011183Y010392D02*
X011337Y010392D01*
X011337Y010233D02*
X011183Y010233D01*
X011183Y010075D02*
X011337Y010075D01*
X011755Y010075D02*
X012040Y010075D01*
X011992Y010233D02*
X011755Y010233D01*
X011749Y010392D02*
X012018Y010392D01*
X012070Y010867D02*
X011725Y010867D01*
X011725Y011026D02*
X012070Y011026D01*
X012610Y011026D02*
X013035Y011026D01*
X013035Y010867D02*
X012610Y010867D01*
X012610Y010709D02*
X013120Y010709D01*
X013027Y010392D02*
X012662Y010392D01*
X012688Y010233D02*
X013005Y010233D01*
X013005Y010075D02*
X012640Y010075D01*
X012419Y009916D02*
X013005Y009916D01*
X013005Y009636D02*
X013005Y009100D01*
X013017Y009054D01*
X013041Y009013D01*
X013075Y008979D01*
X013116Y008956D01*
X013161Y008943D01*
X013423Y008943D01*
X013423Y009636D01*
X013005Y009636D01*
X013005Y009599D02*
X011755Y009599D01*
X011755Y009441D02*
X013005Y009441D01*
X013005Y009282D02*
X011755Y009282D01*
X011751Y009124D02*
X013005Y009124D01*
X013099Y008965D02*
X010950Y008965D01*
X010950Y008807D02*
X011338Y008807D01*
X011236Y008648D02*
X011044Y008648D01*
X011070Y008490D02*
X011210Y008490D01*
X011210Y008331D02*
X011070Y008331D01*
X011070Y008173D02*
X011210Y008173D01*
X011210Y008014D02*
X011070Y008014D01*
X012070Y008014D02*
X012670Y008014D01*
X012670Y008173D02*
X012070Y008173D01*
X012070Y008331D02*
X012670Y008331D01*
X012670Y008490D02*
X012070Y008490D01*
X012044Y008648D02*
X012704Y008648D01*
X012818Y008807D02*
X011942Y008807D01*
X011337Y009124D02*
X011183Y009124D01*
X011183Y009282D02*
X011337Y009282D01*
X011337Y009441D02*
X011183Y009441D01*
X011183Y009599D02*
X011337Y009599D01*
X011755Y009916D02*
X012261Y009916D01*
X012610Y010550D02*
X016328Y010550D01*
X016264Y010472D02*
X016219Y010484D01*
X015957Y010484D01*
X015957Y009791D01*
X016375Y009791D01*
X016375Y010328D01*
X016363Y010374D01*
X016339Y010415D01*
X016305Y010448D01*
X016264Y010472D01*
X016353Y010392D02*
X016390Y010392D01*
X016375Y010233D02*
X016390Y010233D01*
X016375Y010075D02*
X016390Y010075D01*
X016375Y009916D02*
X016462Y009916D01*
X016621Y009758D02*
X015957Y009758D01*
X015957Y009916D02*
X015803Y009916D01*
X015803Y010075D02*
X015957Y010075D01*
X015957Y010233D02*
X015803Y010233D01*
X015803Y010392D02*
X015957Y010392D01*
X015407Y010392D02*
X013973Y010392D01*
X013995Y010233D02*
X015385Y010233D01*
X015385Y010075D02*
X013995Y010075D01*
X013995Y009916D02*
X015385Y009916D01*
X015385Y009599D02*
X013995Y009599D01*
X013995Y009441D02*
X015385Y009441D01*
X015385Y009282D02*
X013995Y009282D01*
X013995Y009124D02*
X015385Y009124D01*
X015479Y008965D02*
X013901Y008965D01*
X013776Y008807D02*
X013382Y008807D01*
X013423Y008965D02*
X013577Y008965D01*
X013577Y009124D02*
X013423Y009124D01*
X013423Y009282D02*
X013577Y009282D01*
X013577Y009441D02*
X013423Y009441D01*
X013423Y009599D02*
X013577Y009599D01*
X013577Y010075D02*
X013423Y010075D01*
X013423Y010233D02*
X013577Y010233D01*
X013577Y010392D02*
X013423Y010392D01*
X013880Y010709D02*
X015500Y010709D01*
X015415Y010867D02*
X013965Y010867D01*
X013965Y011026D02*
X015415Y011026D01*
X015415Y011184D02*
X013965Y011184D01*
X013965Y011343D02*
X015415Y011343D01*
X015007Y011501D02*
X013965Y011501D01*
X013929Y012135D02*
X015451Y012135D01*
X013530Y012294D02*
X020350Y012294D01*
X020350Y012452D02*
X013530Y012452D01*
X012910Y012452D02*
X012170Y012452D01*
X012170Y012294D02*
X012910Y012294D01*
X012910Y012135D02*
X012170Y012135D01*
X012170Y012024D02*
X012170Y013249D01*
X012207Y013158D01*
X012333Y013033D01*
X012497Y012965D01*
X012675Y012965D01*
X012839Y013033D01*
X012910Y013103D01*
X012910Y011796D01*
X012008Y011796D01*
X012123Y011911D01*
X012170Y012024D01*
X012150Y011977D02*
X012910Y011977D01*
X012910Y011818D02*
X012030Y011818D01*
X011550Y012294D02*
X010637Y012294D01*
X010688Y012135D02*
X010795Y012135D01*
X010795Y011977D02*
X010666Y011977D01*
X010550Y011818D02*
X010795Y011818D01*
X010795Y011660D02*
X009500Y011660D01*
X009500Y011818D02*
X010130Y011818D01*
X010463Y011501D02*
X009591Y011501D01*
X009648Y011343D02*
X010304Y011343D01*
X010146Y011184D02*
X009629Y011184D01*
X009612Y011026D02*
X009518Y011026D01*
X009452Y010867D02*
X009612Y010867D01*
X009612Y010709D02*
X009452Y010709D01*
X009452Y010550D02*
X009612Y010550D01*
X009612Y010392D02*
X009452Y010392D01*
X009452Y010233D02*
X008688Y010233D01*
X008688Y010075D02*
X008958Y010075D01*
X008958Y009916D02*
X008688Y009916D01*
X008688Y009758D02*
X008958Y009758D01*
X009452Y009758D02*
X009612Y009758D01*
X009612Y009916D02*
X009452Y009916D01*
X009452Y010075D02*
X009612Y010075D01*
X008958Y010392D02*
X008688Y010392D01*
X008688Y010550D02*
X008958Y010550D01*
X008958Y010709D02*
X008688Y010709D01*
X008688Y010867D02*
X008958Y010867D01*
X009082Y011026D02*
X008554Y011026D01*
X008410Y011026D02*
X008410Y011026D01*
X008266Y011026D02*
X007980Y011026D01*
X007980Y011184D02*
X008971Y011184D01*
X008952Y011343D02*
X007980Y011343D01*
X007980Y011501D02*
X009009Y011501D01*
X009100Y011660D02*
X007992Y011660D01*
X008048Y011818D02*
X009100Y011818D01*
X009100Y011977D02*
X008029Y011977D01*
X007917Y012135D02*
X009100Y012135D01*
X009100Y012294D02*
X005442Y012294D01*
X005503Y012135D02*
X006963Y012135D01*
X006851Y011977D02*
X005546Y011977D01*
X005547Y011818D02*
X006832Y011818D01*
X006888Y011660D02*
X005536Y011660D01*
X005493Y011501D02*
X006529Y011501D01*
X006414Y011343D02*
X005421Y011343D01*
X005321Y011184D02*
X006392Y011184D01*
X006108Y011026D02*
X005948Y011026D01*
X005589Y011026D02*
X005163Y011026D01*
X004881Y010867D02*
X005454Y010867D01*
X006951Y011501D02*
X007256Y011501D01*
X007265Y011343D02*
X007066Y011343D01*
X007158Y011184D02*
X007265Y011184D01*
X008410Y010867D02*
X008410Y010867D01*
X008410Y010709D02*
X008410Y010709D01*
X008410Y010550D02*
X008410Y010550D01*
X008410Y010392D02*
X008410Y010392D01*
X009971Y011026D02*
X009993Y011026D01*
X009621Y011977D02*
X009500Y011977D01*
X009500Y012135D02*
X009500Y012135D01*
X009500Y012294D02*
X009500Y012294D01*
X009500Y012452D02*
X009500Y012452D01*
X009500Y012497D02*
X009500Y012497D01*
X009794Y012769D02*
X011550Y012769D01*
X011550Y012611D02*
X009900Y012611D01*
X009900Y012452D02*
X011550Y012452D01*
X011550Y012928D02*
X009635Y012928D01*
X009580Y013086D02*
X011550Y013086D01*
X011550Y013245D02*
X009580Y013245D01*
X009580Y013403D02*
X011512Y013403D01*
X011525Y013562D02*
X009580Y013562D01*
X009580Y013720D02*
X011628Y013720D01*
X012092Y013720D02*
X012263Y013720D01*
X012172Y013245D02*
X012170Y013245D01*
X012170Y013086D02*
X012280Y013086D01*
X012170Y012928D02*
X012910Y012928D01*
X012893Y013086D02*
X012910Y013086D01*
X012910Y012769D02*
X012170Y012769D01*
X012170Y012611D02*
X012910Y012611D01*
X014199Y013245D02*
X015686Y013245D01*
X015845Y013403D02*
X014284Y013403D01*
X014301Y013562D02*
X016003Y013562D01*
X014600Y014037D02*
X013969Y014037D01*
X014048Y014196D02*
X014442Y014196D01*
X014283Y014354D02*
X014038Y014354D01*
X014125Y014513D02*
X013940Y014513D01*
X013930Y014671D02*
X013980Y014671D01*
X013980Y014830D02*
X013930Y014830D01*
X013930Y014988D02*
X013980Y014988D01*
X013980Y015147D02*
X013959Y015147D01*
X013700Y015380D02*
X013700Y014260D01*
X012910Y014196D02*
X009580Y014196D01*
X009580Y014354D02*
X012910Y014354D01*
X012910Y014513D02*
X009580Y014513D01*
X009580Y014671D02*
X012910Y014671D01*
X012906Y014830D02*
X009580Y014830D01*
X009580Y014988D02*
X012872Y014988D01*
X012912Y015147D02*
X009933Y015147D01*
X010093Y015305D02*
X013095Y015305D01*
X013345Y015305D02*
X013354Y015305D01*
X013358Y015464D02*
X010128Y015464D01*
X009627Y015147D02*
X009580Y015147D01*
X009580Y014037D02*
X012910Y014037D01*
X012910Y013879D02*
X009580Y013879D01*
X008940Y012769D02*
X004963Y012769D01*
X005200Y012611D02*
X009067Y012611D01*
X009100Y012452D02*
X005351Y012452D01*
X007397Y012135D02*
X007483Y012135D01*
X009452Y009599D02*
X009612Y009599D01*
X009612Y009441D02*
X009452Y009441D01*
X009265Y009282D02*
X009965Y009282D01*
X010078Y009124D02*
X009303Y009124D01*
X009303Y008965D02*
X010237Y008965D01*
X010330Y008807D02*
X009252Y008807D01*
X009164Y008648D02*
X010236Y008648D01*
X010210Y008490D02*
X010062Y008490D01*
X010070Y008482D02*
X010036Y008515D01*
X009995Y008539D01*
X009949Y008551D01*
X009612Y008551D01*
X009612Y007959D01*
X010106Y007959D01*
X010106Y008395D01*
X010093Y008441D01*
X010070Y008482D01*
X010106Y008331D02*
X010210Y008331D01*
X010210Y008173D02*
X010106Y008173D01*
X010106Y008014D02*
X010210Y008014D01*
X009612Y008014D02*
X009452Y008014D01*
X009452Y008173D02*
X009612Y008173D01*
X009612Y008331D02*
X009452Y008331D01*
X009452Y008490D02*
X009612Y008490D01*
X009002Y008490D02*
X008986Y008490D01*
X010638Y009441D02*
X010765Y009441D01*
X010765Y009599D02*
X010570Y009599D01*
X013496Y008648D02*
X013671Y008648D01*
X013640Y008490D02*
X013530Y008490D01*
X013530Y008331D02*
X013640Y008331D01*
X013640Y008173D02*
X013530Y008173D01*
X013530Y008014D02*
X013640Y008014D01*
X014110Y008210D02*
X014110Y008940D01*
X014136Y008940D01*
X014208Y008929D01*
X014277Y008906D01*
X014341Y008873D01*
X014400Y008831D01*
X014451Y008780D01*
X014493Y008721D01*
X014526Y008657D01*
X014549Y008588D01*
X014560Y008516D01*
X014560Y008210D01*
X014110Y008210D01*
X014110Y008331D02*
X014090Y008331D01*
X014090Y008490D02*
X014110Y008490D01*
X014110Y008648D02*
X014090Y008648D01*
X014090Y008807D02*
X014110Y008807D01*
X014424Y008807D02*
X015298Y008807D01*
X015196Y008648D02*
X014529Y008648D01*
X014560Y008490D02*
X015170Y008490D01*
X015170Y008331D02*
X014560Y008331D01*
X014560Y008173D02*
X015170Y008173D01*
X015170Y008014D02*
X014560Y008014D01*
X016030Y008014D02*
X016170Y008014D01*
X016170Y008173D02*
X016030Y008173D01*
X016030Y008331D02*
X016170Y008331D01*
X016170Y008490D02*
X016030Y008490D01*
X016004Y008648D02*
X016196Y008648D01*
X016375Y009124D02*
X017255Y009124D01*
X017096Y009282D02*
X016375Y009282D01*
X016375Y009441D02*
X016938Y009441D01*
X016779Y009599D02*
X016375Y009599D01*
X017226Y009916D02*
X020246Y009916D01*
X020805Y010233D02*
X023170Y010233D01*
X023170Y010075D02*
X020905Y010075D01*
X020910Y009916D02*
X023170Y009916D01*
X023170Y009758D02*
X022908Y009758D01*
X022901Y009762D02*
X022877Y009787D01*
X022866Y009787D01*
X022864Y009788D01*
X022861Y009798D01*
X022830Y009812D01*
X022801Y009832D01*
X022791Y009830D01*
X022789Y009831D01*
X022784Y009840D01*
X022751Y009849D01*
X022720Y009864D01*
X022710Y009860D01*
X022708Y009861D01*
X022701Y009869D01*
X022667Y009872D01*
X022634Y009880D01*
X022625Y009875D01*
X022622Y009875D01*
X022614Y009882D01*
X022580Y009879D01*
X022546Y009882D01*
X022538Y009875D01*
X022535Y009875D01*
X022526Y009880D01*
X022493Y009872D01*
X022459Y009869D01*
X022452Y009861D01*
X022450Y009860D01*
X022440Y009864D01*
X022409Y009849D01*
X022376Y009840D01*
X022371Y009831D01*
X022369Y009830D01*
X022359Y009832D01*
X022330Y009812D01*
X022299Y009798D01*
X022296Y009788D01*
X022294Y009787D01*
X022283Y009787D01*
X022259Y009762D01*
X022231Y009743D01*
X022229Y009732D01*
X022228Y009731D01*
X022217Y009729D01*
X022198Y009701D01*
X022173Y009677D01*
X022173Y009666D01*
X022172Y009664D01*
X022162Y009661D01*
X022148Y009630D01*
X022128Y009601D01*
X022130Y009591D01*
X022129Y009589D01*
X022120Y009584D01*
X022111Y009551D01*
X022096Y009520D01*
X022100Y009510D01*
X022099Y009508D01*
X022091Y009501D01*
X022088Y009467D01*
X022080Y009434D01*
X022085Y009425D01*
X022085Y009422D01*
X022078Y009414D01*
X022081Y009380D01*
X022078Y009346D01*
X022085Y009338D01*
X022085Y009335D01*
X022080Y009326D01*
X022088Y009293D01*
X022091Y009259D01*
X022099Y009252D01*
X022100Y009250D01*
X022096Y009240D01*
X022111Y009209D01*
X022120Y009176D01*
X022129Y009171D01*
X022130Y009169D01*
X022128Y009159D01*
X022148Y009130D01*
X022162Y009099D01*
X022172Y009096D01*
X022173Y009094D01*
X022173Y009083D01*
X022198Y009059D01*
X022217Y009031D01*
X022228Y009029D01*
X022229Y009028D01*
X022231Y009017D01*
X022259Y008998D01*
X022283Y008973D01*
X022294Y008973D01*
X022296Y008972D01*
X022299Y008962D01*
X022330Y008948D01*
X022359Y008928D01*
X022369Y008930D01*
X022371Y008929D01*
X022376Y008920D01*
X022409Y008911D01*
X022440Y008896D01*
X022450Y008900D01*
X022452Y008899D01*
X022459Y008891D01*
X022493Y008888D01*
X022526Y008880D01*
X022535Y008885D01*
X022538Y008885D01*
X022546Y008878D01*
X022580Y008881D01*
X022614Y008878D01*
X022622Y008885D01*
X022625Y008885D01*
X022634Y008880D01*
X022667Y008888D01*
X022701Y008891D01*
X022708Y008899D01*
X022710Y008900D01*
X022720Y008896D01*
X022751Y008911D01*
X022784Y008920D01*
X022789Y008929D01*
X022791Y008930D01*
X022801Y008928D01*
X022830Y008948D01*
X022861Y008962D01*
X022864Y008972D01*
X022866Y008973D01*
X022877Y008973D01*
X022901Y008998D01*
X022929Y009017D01*
X022931Y009028D01*
X022932Y009029D01*
X022943Y009031D01*
X022962Y009059D01*
X022987Y009083D01*
X022987Y009094D01*
X022988Y009096D01*
X022998Y009099D01*
X023012Y009130D01*
X023032Y009159D01*
X023030Y009169D01*
X023031Y009171D01*
X023040Y009176D01*
X023049Y009209D01*
X023064Y009240D01*
X023060Y009250D01*
X023061Y009252D01*
X023069Y009259D01*
X023072Y009293D01*
X023080Y009326D01*
X023075Y009335D01*
X023075Y009338D01*
X023082Y009346D01*
X023079Y009380D01*
X023082Y009414D01*
X023075Y009422D01*
X023075Y009425D01*
X023080Y009434D01*
X023072Y009467D01*
X023069Y009501D01*
X023061Y009508D01*
X023060Y009510D01*
X023064Y009520D01*
X023049Y009551D01*
X023040Y009584D01*
X023031Y009589D01*
X023030Y009591D01*
X023032Y009601D01*
X023012Y009630D01*
X022998Y009661D01*
X022988Y009664D01*
X022987Y009666D01*
X022987Y009677D01*
X022962Y009701D01*
X022943Y009729D01*
X022932Y009731D01*
X022931Y009732D01*
X022929Y009743D01*
X022901Y009762D01*
X023031Y009599D02*
X023170Y009599D01*
X023170Y009441D02*
X023079Y009441D01*
X023071Y009282D02*
X023170Y009282D01*
X023166Y009124D02*
X023009Y009124D01*
X022862Y008965D02*
X023170Y008965D01*
X023167Y008807D02*
X021803Y008807D01*
X021786Y008790D02*
X022050Y009054D01*
X022050Y009426D01*
X021786Y009690D01*
X021414Y009690D01*
X021150Y009426D01*
X021150Y009054D01*
X021414Y008790D01*
X021786Y008790D01*
X021828Y008648D02*
X023144Y008648D01*
X023081Y008490D02*
X021987Y008490D01*
X022050Y008331D02*
X022988Y008331D01*
X022850Y008173D02*
X022050Y008173D01*
X022010Y008014D02*
X022613Y008014D01*
X022714Y008061D02*
X022714Y008061D01*
X021372Y008648D02*
X020828Y008648D01*
X020803Y008807D02*
X021397Y008807D01*
X021239Y008965D02*
X020961Y008965D01*
X021050Y009124D02*
X021150Y009124D01*
X021150Y009282D02*
X021050Y009282D01*
X021036Y009441D02*
X021164Y009441D01*
X021323Y009599D02*
X020910Y009599D01*
X020910Y009758D02*
X022252Y009758D01*
X022129Y009599D02*
X021877Y009599D01*
X022036Y009441D02*
X022081Y009441D01*
X022089Y009282D02*
X022050Y009282D01*
X022050Y009124D02*
X022151Y009124D01*
X022298Y008965D02*
X021961Y008965D01*
X021213Y008490D02*
X020987Y008490D01*
X021050Y008331D02*
X021150Y008331D01*
X021150Y008173D02*
X021050Y008173D01*
X021010Y008014D02*
X021190Y008014D01*
X019150Y009124D02*
X019050Y009124D01*
X019050Y009282D02*
X019150Y009282D01*
X019164Y009441D02*
X019036Y009441D01*
X018877Y009599D02*
X019323Y009599D01*
X018323Y009599D02*
X017543Y009599D01*
X017701Y009441D02*
X018164Y009441D01*
X018150Y009282D02*
X017860Y009282D01*
X018018Y009124D02*
X018150Y009124D01*
X020488Y010550D02*
X023170Y010550D01*
X023170Y010392D02*
X020647Y010392D01*
X020330Y010709D02*
X023170Y010709D01*
X023170Y010867D02*
X020171Y010867D01*
X020344Y011026D02*
X021475Y011026D01*
X021239Y011184D02*
X020502Y011184D01*
X020661Y011343D02*
X021088Y011343D01*
X020997Y011501D02*
X020819Y011501D01*
X022374Y011026D02*
X023170Y011026D01*
X023170Y011184D02*
X022610Y011184D01*
X022761Y011343D02*
X023170Y011343D01*
X023170Y011501D02*
X022852Y011501D01*
X022912Y011660D02*
X023170Y011660D01*
X023170Y011818D02*
X022955Y011818D01*
X022956Y011977D02*
X023170Y011977D01*
X023170Y012135D02*
X022944Y012135D01*
X022902Y012294D02*
X023170Y012294D01*
X023170Y012452D02*
X022829Y012452D01*
X022729Y012611D02*
X023170Y012611D01*
X023170Y012769D02*
X022571Y012769D01*
X022286Y012928D02*
X023170Y012928D01*
X023170Y013086D02*
X020970Y013086D01*
X020970Y012928D02*
X021564Y012928D01*
X021279Y012769D02*
X020970Y012769D01*
X020970Y012611D02*
X021120Y012611D01*
X021020Y012452D02*
X020970Y012452D01*
X020350Y012928D02*
X017542Y012928D01*
X017568Y013086D02*
X020350Y013086D01*
X020350Y013245D02*
X017656Y013245D01*
X017780Y013403D02*
X020350Y013403D01*
X020350Y013562D02*
X018049Y013562D01*
X018179Y013720D02*
X020350Y013720D01*
X020350Y013879D02*
X018208Y013879D01*
X018163Y014037D02*
X020350Y014037D01*
X020350Y014196D02*
X018060Y014196D01*
X018060Y014354D02*
X020350Y014354D01*
X020350Y014513D02*
X018060Y014513D01*
X018060Y014671D02*
X020350Y014671D01*
X020350Y014830D02*
X018060Y014830D01*
X018060Y014988D02*
X020350Y014988D01*
X020350Y015147D02*
X018060Y015147D01*
X018060Y015305D02*
X020350Y015305D01*
X020350Y015464D02*
X018060Y015464D01*
X018060Y015622D02*
X020350Y015622D01*
X020350Y015781D02*
X018060Y015781D01*
X018060Y015939D02*
X018809Y015939D01*
X018717Y016098D02*
X018060Y016098D01*
X018060Y016256D02*
X018715Y016256D01*
X018802Y016415D02*
X017988Y016415D01*
X017830Y016573D02*
X018860Y016573D01*
X018860Y016732D02*
X017671Y016732D01*
X017513Y016890D02*
X018787Y016890D01*
X018629Y017049D02*
X017354Y017049D01*
X017340Y017207D02*
X018470Y017207D01*
X019848Y016573D02*
X020350Y016573D01*
X020350Y016415D02*
X019664Y016415D01*
X019416Y016415D02*
X019318Y016415D01*
X019405Y016256D02*
X020350Y016256D01*
X020350Y016098D02*
X019403Y016098D01*
X019311Y015939D02*
X020350Y015939D01*
X020970Y015939D02*
X023170Y015939D01*
X023170Y015781D02*
X020970Y015781D01*
X020970Y015622D02*
X023170Y015622D01*
X023170Y015464D02*
X020970Y015464D01*
X020970Y015305D02*
X023170Y015305D01*
X023170Y015147D02*
X020970Y015147D01*
X020970Y014988D02*
X023170Y014988D01*
X023170Y014830D02*
X020970Y014830D01*
X020970Y014671D02*
X023170Y014671D01*
X023170Y014513D02*
X020970Y014513D01*
X020970Y014354D02*
X023170Y014354D01*
X023170Y014196D02*
X020970Y014196D01*
X020970Y014037D02*
X023170Y014037D01*
X023170Y013879D02*
X020970Y013879D01*
X020970Y013720D02*
X023170Y013720D01*
X023170Y013562D02*
X020970Y013562D01*
X020970Y013403D02*
X023170Y013403D01*
X023170Y013245D02*
X020970Y013245D01*
X020970Y016098D02*
X023170Y016098D01*
X023170Y016256D02*
X020970Y016256D01*
X020970Y016415D02*
X023170Y016415D01*
X023170Y016573D02*
X020970Y016573D01*
X020970Y016732D02*
X023170Y016732D01*
X023170Y016890D02*
X021222Y016890D01*
X021319Y017049D02*
X023170Y017049D01*
X023170Y017207D02*
X021328Y017207D01*
X021247Y017366D02*
X023170Y017366D01*
X023170Y017524D02*
X020970Y017524D01*
X020970Y017683D02*
X023170Y017683D01*
X023170Y017841D02*
X020970Y017841D01*
X020970Y018000D02*
X023170Y018000D01*
X023170Y018158D02*
X022454Y018158D01*
X022656Y018317D02*
X023170Y018317D01*
X023170Y018475D02*
X022787Y018475D01*
X022879Y018634D02*
X023170Y018634D01*
X023170Y018792D02*
X022925Y018792D01*
X022956Y018951D02*
X023170Y018951D01*
X023170Y019109D02*
X022956Y019109D01*
X022932Y019268D02*
X023170Y019268D01*
X023170Y019426D02*
X022890Y019426D01*
X022803Y019585D02*
X023170Y019585D01*
X023170Y019743D02*
X022683Y019743D01*
X022500Y019902D02*
X023170Y019902D01*
X023170Y020060D02*
X022114Y020060D01*
X021991Y020219D02*
X023170Y020219D01*
X023170Y020377D02*
X022048Y020377D01*
X022029Y020536D02*
X022932Y020536D01*
X022872Y020694D02*
X022652Y020694D01*
X022811Y020853D02*
X022890Y020853D01*
X022969Y021011D02*
X022999Y021011D01*
X022996Y021037D02*
X022996Y021037D01*
X022510Y021428D02*
X022292Y021210D01*
X021641Y021210D01*
X021641Y021257D01*
X021553Y021345D01*
X021344Y021345D01*
X021520Y021521D01*
X021520Y021700D01*
X021060Y021700D01*
X021060Y021740D01*
X021520Y021740D01*
X021520Y021757D01*
X021590Y021687D01*
X021590Y021534D01*
X021854Y021270D01*
X022226Y021270D01*
X022490Y021534D01*
X022490Y021906D01*
X022226Y022170D01*
X021854Y022170D01*
X021763Y022080D01*
X021740Y022103D01*
X021740Y022384D01*
X021854Y022270D01*
X022226Y022270D01*
X022490Y022534D01*
X022490Y022906D01*
X022226Y023170D01*
X021854Y023170D01*
X021740Y023056D01*
X021740Y023384D01*
X021854Y023270D01*
X022226Y023270D01*
X022490Y023534D01*
X022490Y023832D01*
X022510Y023812D01*
X022510Y021428D01*
X022510Y021487D02*
X022443Y021487D01*
X022410Y021328D02*
X022284Y021328D01*
X022490Y021645D02*
X022510Y021645D01*
X022510Y021804D02*
X022490Y021804D01*
X022510Y021962D02*
X022434Y021962D01*
X022510Y022121D02*
X022276Y022121D01*
X022235Y022279D02*
X022510Y022279D01*
X022510Y022438D02*
X022394Y022438D01*
X022490Y022596D02*
X022510Y022596D01*
X022510Y022755D02*
X022490Y022755D01*
X022483Y022913D02*
X022510Y022913D01*
X022510Y023072D02*
X022325Y023072D01*
X022510Y023230D02*
X021740Y023230D01*
X021740Y023072D02*
X021755Y023072D01*
X021340Y023072D02*
X021325Y023072D01*
X021340Y023230D02*
X019993Y023230D01*
X019980Y023072D02*
X020755Y023072D01*
X020597Y022913D02*
X019980Y022913D01*
X019980Y022755D02*
X020590Y022755D01*
X020590Y022596D02*
X019980Y022596D01*
X019980Y022438D02*
X020686Y022438D01*
X020845Y022279D02*
X019980Y022279D01*
X019923Y022121D02*
X020762Y022121D01*
X020603Y021962D02*
X019765Y021962D01*
X019606Y021804D02*
X020560Y021804D01*
X020560Y021645D02*
X019448Y021645D01*
X019131Y021328D02*
X020188Y021328D01*
X021020Y021804D02*
X021060Y021804D01*
X021060Y021962D02*
X021020Y021962D01*
X021020Y022121D02*
X021060Y022121D01*
X021235Y022279D02*
X021340Y022279D01*
X021340Y022121D02*
X021318Y022121D01*
X021740Y022121D02*
X021804Y022121D01*
X021845Y022279D02*
X021740Y022279D01*
X021590Y021645D02*
X021520Y021645D01*
X021485Y021487D02*
X021637Y021487D01*
X021570Y021328D02*
X021796Y021328D01*
X021700Y020420D02*
X021220Y020420D01*
X021298Y020060D02*
X021735Y020060D01*
X021349Y019902D02*
X020980Y019902D01*
X020970Y019743D02*
X021166Y019743D01*
X021046Y019585D02*
X020970Y019585D01*
X020350Y019585D02*
X018530Y019585D01*
X018530Y019743D02*
X020350Y019743D01*
X020350Y019902D02*
X018530Y019902D01*
X018503Y020060D02*
X020350Y020060D01*
X020420Y020219D02*
X018363Y020219D01*
X018205Y020377D02*
X020579Y020377D01*
X020484Y020283D02*
X020484Y020283D01*
X020350Y019426D02*
X018530Y019426D01*
X018530Y019268D02*
X020350Y019268D01*
X020350Y019109D02*
X018530Y019109D01*
X018530Y018951D02*
X020350Y018951D01*
X020350Y018792D02*
X018670Y018792D01*
X018828Y018634D02*
X020350Y018634D01*
X020350Y018475D02*
X019867Y018475D01*
X020016Y018317D02*
X020350Y018317D01*
X020350Y018158D02*
X020050Y018158D01*
X020050Y018000D02*
X020350Y018000D01*
X020350Y017841D02*
X020050Y017841D01*
X020050Y017683D02*
X020350Y017683D01*
X020350Y017524D02*
X020050Y017524D01*
X020050Y017366D02*
X020350Y017366D01*
X020350Y017207D02*
X020050Y017207D01*
X020050Y017049D02*
X020350Y017049D01*
X020350Y016890D02*
X020035Y016890D01*
X019913Y016732D02*
X020350Y016732D01*
X020970Y018158D02*
X021396Y018158D01*
X021193Y018317D02*
X020970Y018317D01*
X020970Y018475D02*
X021062Y018475D01*
X020970Y018634D02*
X020970Y018634D01*
X017600Y020219D02*
X017591Y020219D01*
X017350Y019902D02*
X017327Y019902D01*
X016645Y019902D02*
X016021Y019902D01*
X016180Y019743D02*
X016580Y019743D01*
X016580Y019585D02*
X016308Y019585D01*
X016425Y019426D02*
X016580Y019426D01*
X016505Y019268D02*
X016448Y019268D01*
X016620Y018634D02*
X017071Y018634D01*
X016912Y018475D02*
X016620Y018475D01*
X016620Y018317D02*
X016754Y018317D01*
X016620Y018158D02*
X016620Y018158D01*
X016620Y018000D02*
X016620Y018000D01*
X016220Y018000D02*
X015802Y018000D01*
X015820Y018158D02*
X016220Y018158D01*
X016220Y018317D02*
X015820Y018317D01*
X016000Y018475D02*
X016220Y018475D01*
X016220Y018634D02*
X016048Y018634D01*
X016220Y017841D02*
X015644Y017841D01*
X016220Y017683D02*
X014249Y017683D01*
X014301Y017524D02*
X016220Y017524D01*
X016220Y017366D02*
X014295Y017366D01*
X014224Y017207D02*
X016220Y017207D01*
X016220Y017049D02*
X014007Y017049D01*
X013700Y017049D02*
X012918Y017049D01*
X012965Y017095D02*
X012839Y016970D01*
X012675Y016902D01*
X012497Y016902D01*
X012333Y016970D01*
X012207Y017095D01*
X012139Y017260D01*
X012139Y017437D01*
X012207Y017602D01*
X012333Y017727D01*
X012497Y017795D01*
X012675Y017795D01*
X012839Y017727D01*
X012965Y017602D01*
X013033Y017437D01*
X013033Y017260D01*
X012965Y017095D01*
X013011Y017207D02*
X013483Y017207D01*
X013413Y017366D02*
X013033Y017366D01*
X012997Y017524D02*
X013407Y017524D01*
X013459Y017683D02*
X012884Y017683D01*
X012288Y017683D02*
X012205Y017683D01*
X012175Y017524D02*
X012060Y017524D01*
X012060Y017366D02*
X012139Y017366D01*
X012161Y017207D02*
X012060Y017207D01*
X012175Y017049D02*
X012254Y017049D01*
X012208Y016890D02*
X016220Y016890D01*
X016220Y016732D02*
X012167Y016732D01*
X011980Y016573D02*
X016220Y016573D01*
X016303Y016415D02*
X010377Y016415D01*
X010219Y016256D02*
X016461Y016256D01*
X011740Y016573D02*
X010696Y016573D01*
X010854Y016732D02*
X011553Y016732D01*
X011512Y016890D02*
X011013Y016890D01*
X011171Y017049D02*
X011545Y017049D01*
X011660Y017207D02*
X011330Y017207D01*
X011488Y017366D02*
X011660Y017366D01*
X011647Y017524D02*
X011660Y017524D01*
X011969Y018833D02*
X011900Y018903D01*
X011900Y019057D01*
X012011Y019168D01*
X012357Y019168D01*
X012357Y019072D01*
X011969Y019072D01*
X011969Y018833D01*
X011969Y018951D02*
X011900Y018951D01*
X011952Y019109D02*
X012357Y019109D01*
X013075Y019120D02*
X013240Y019040D01*
X013481Y019328D02*
X013481Y019477D01*
X013393Y019565D01*
X013318Y019565D01*
X013223Y019660D01*
X013158Y019725D01*
X013158Y019825D01*
X013050Y019932D01*
X013041Y019967D01*
X013018Y020008D01*
X012962Y020063D01*
X012889Y019991D01*
X012962Y020063D01*
X012906Y020119D01*
X012865Y020143D01*
X012831Y020152D01*
X012751Y020232D01*
X012889Y020232D01*
X013017Y020285D01*
X013112Y020380D01*
X013112Y020271D01*
X013165Y020143D01*
X013263Y020045D01*
X013391Y019992D01*
X013449Y019992D01*
X013448Y019991D01*
X013448Y019991D01*
X013282Y019825D01*
X013282Y019701D01*
X013660Y019323D01*
X013667Y019323D01*
X013699Y019291D01*
X013609Y019328D01*
X013481Y019328D01*
X013481Y019426D02*
X013557Y019426D01*
X013398Y019585D02*
X013298Y019585D01*
X013282Y019743D02*
X013158Y019743D01*
X013081Y019902D02*
X013359Y019902D01*
X013248Y020060D02*
X012965Y020060D01*
X012959Y020060D02*
X012959Y020060D01*
X012889Y019991D02*
X012889Y019991D01*
X012764Y020219D02*
X013134Y020219D01*
X013109Y020377D02*
X013112Y020377D01*
X013150Y020694D02*
X013180Y020694D01*
X013180Y020853D02*
X013040Y020853D01*
X013180Y021011D02*
X012752Y021011D01*
X012227Y021011D02*
X011972Y021011D01*
X011813Y021170D02*
X013287Y021170D01*
X013180Y021328D02*
X011655Y021328D01*
X011631Y021352D02*
X011631Y021352D01*
X011496Y021487D02*
X013058Y021487D01*
X013420Y022121D02*
X013478Y022121D01*
X013324Y022279D02*
X013689Y022279D01*
X013871Y022279D02*
X014338Y022279D01*
X014180Y022438D02*
X013165Y022438D01*
X012628Y022596D02*
X014008Y022596D01*
X010992Y021170D02*
X010542Y021170D01*
X010694Y021011D02*
X010968Y021011D01*
X011097Y020881D02*
X011097Y020881D01*
X011126Y020853D02*
X010728Y020853D01*
X011263Y020716D02*
X011263Y020716D01*
X007352Y018634D02*
X006013Y018634D01*
X005867Y018634D02*
X005505Y018634D01*
X005547Y018792D02*
X005641Y018792D01*
X005590Y018951D02*
X005547Y018951D01*
X006060Y019180D02*
X006100Y019140D01*
X005447Y018475D02*
X007367Y018475D01*
X007471Y018317D02*
X005356Y018317D01*
X005208Y018158D02*
X007500Y018158D01*
X007500Y018000D02*
X004978Y018000D01*
X007377Y017524D02*
X007500Y017524D01*
X007500Y017366D02*
X007408Y017366D01*
X004662Y022279D02*
X003745Y022279D01*
X003343Y022279D02*
X003270Y022279D01*
X003270Y022121D02*
X003343Y022121D01*
X003270Y022438D02*
X004632Y022438D01*
X004676Y022596D02*
X003270Y022596D01*
X003270Y022755D02*
X004878Y022755D01*
X005676Y023072D02*
X003270Y023072D01*
X003270Y023230D02*
X005592Y023230D01*
X005600Y023389D02*
X003750Y023389D01*
X003750Y023547D02*
X005695Y023547D01*
X005970Y023706D02*
X003750Y023706D01*
X003750Y023864D02*
X005970Y023864D01*
X005989Y024023D02*
X003731Y024023D01*
X003726Y024238D02*
X004007Y024238D01*
X004007Y024626D01*
X004103Y024626D01*
X004103Y024238D01*
X004384Y024238D01*
X004430Y024251D01*
X004471Y024274D01*
X004504Y024308D01*
X004528Y024349D01*
X004540Y024395D01*
X004540Y024626D01*
X004103Y024626D01*
X004103Y024722D01*
X004540Y024722D01*
X004540Y024954D01*
X004528Y025000D01*
X004504Y025041D01*
X004471Y025074D01*
X004430Y025098D01*
X004384Y025110D01*
X004103Y025110D01*
X004103Y024722D01*
X004007Y024722D01*
X004007Y024626D01*
X003570Y024626D01*
X003570Y024395D01*
X003582Y024349D01*
X003606Y024308D01*
X003639Y024274D01*
X003680Y024251D01*
X003726Y024238D01*
X003588Y024340D02*
X003270Y024340D01*
X003270Y024498D02*
X003570Y024498D01*
X003570Y024722D02*
X004007Y024722D01*
X004007Y025110D01*
X003726Y025110D01*
X003680Y025098D01*
X003639Y025074D01*
X003606Y025041D01*
X003582Y025000D01*
X003570Y024954D01*
X003570Y024722D01*
X003570Y024815D02*
X003276Y024815D01*
X003270Y024657D02*
X004007Y024657D01*
X004103Y024657D02*
X007137Y024657D01*
X007137Y024815D02*
X007233Y024815D01*
X007233Y024974D02*
X007137Y024974D01*
X006705Y024974D02*
X004535Y024974D01*
X004540Y024815D02*
X006700Y024815D01*
X006700Y024498D02*
X004540Y024498D01*
X004523Y024340D02*
X006717Y024340D01*
X006861Y024023D02*
X007205Y024023D01*
X007205Y024181D02*
X003270Y024181D01*
X004007Y024340D02*
X004103Y024340D01*
X004103Y024498D02*
X004007Y024498D01*
X004007Y024815D02*
X004103Y024815D01*
X004103Y024974D02*
X004007Y024974D01*
X003575Y024974D02*
X003259Y024974D01*
X003258Y025132D02*
X008353Y025132D01*
X008312Y025291D02*
X003272Y025291D01*
X003298Y025449D02*
X007551Y025449D01*
X007505Y025608D02*
X003349Y025608D01*
X003413Y025766D02*
X007505Y025766D01*
X007505Y025925D02*
X003506Y025925D01*
X003627Y026083D02*
X003645Y026083D01*
X004465Y026083D02*
X006775Y026083D01*
X006730Y026242D02*
X004510Y026242D01*
X007665Y024974D02*
X008539Y024974D01*
X008781Y024974D02*
X009509Y024974D01*
X009513Y025132D02*
X008967Y025132D01*
X009008Y025291D02*
X009556Y025291D01*
X009620Y025449D02*
X009405Y025449D01*
X009405Y025608D02*
X009712Y025608D01*
X009868Y025766D02*
X009405Y025766D01*
X009405Y025925D02*
X010114Y025925D01*
X009774Y026242D02*
X011190Y026242D01*
X011190Y026083D02*
X009366Y026083D01*
X009875Y026400D02*
X011219Y026400D01*
X011322Y026559D02*
X009888Y026559D01*
X010966Y025925D02*
X011190Y025925D01*
X012090Y025925D02*
X012190Y025925D01*
X012190Y026083D02*
X012090Y026083D01*
X012090Y026242D02*
X012190Y026242D01*
X012190Y026330D02*
X012190Y025550D01*
X012259Y025385D01*
X012385Y025259D01*
X012550Y025190D01*
X012730Y025190D01*
X012895Y025259D01*
X013021Y025385D01*
X013090Y025550D01*
X013090Y026330D01*
X013021Y026495D01*
X012906Y026610D01*
X013333Y026610D01*
X013327Y026606D01*
X013274Y026553D01*
X013229Y026492D01*
X013195Y026424D01*
X013172Y026352D01*
X013160Y026278D01*
X013160Y025960D01*
X013620Y025960D01*
X013620Y025920D01*
X013160Y025920D01*
X013160Y025602D01*
X013172Y025528D01*
X013195Y025456D01*
X013229Y025388D01*
X013274Y025327D01*
X013327Y025274D01*
X013388Y025229D01*
X013456Y025195D01*
X013528Y025172D01*
X013602Y025160D01*
X013611Y025160D01*
X013503Y025115D01*
X013405Y025017D01*
X013352Y024889D01*
X013352Y024751D01*
X013366Y024717D01*
X013180Y024903D01*
X013063Y025020D01*
X012177Y025020D01*
X011457Y024300D01*
X011318Y024300D01*
X011365Y024347D01*
X011501Y024582D01*
X011571Y024844D01*
X011571Y025116D01*
X011551Y025190D01*
X011730Y025190D01*
X011895Y025259D01*
X012021Y025385D01*
X012090Y025550D01*
X012090Y026330D01*
X012021Y026495D01*
X011906Y026610D01*
X012374Y026610D01*
X012259Y026495D01*
X012190Y026330D01*
X012219Y026400D02*
X012061Y026400D01*
X011958Y026559D02*
X012322Y026559D01*
X012958Y026559D02*
X013280Y026559D01*
X013187Y026400D02*
X013061Y026400D01*
X013090Y026242D02*
X013160Y026242D01*
X013160Y026083D02*
X013090Y026083D01*
X013090Y025925D02*
X013620Y025925D01*
X013640Y025940D02*
X013640Y026640D01*
X013540Y026740D01*
X013947Y026610D02*
X014374Y026610D01*
X014259Y026495D01*
X014190Y026330D01*
X014190Y025787D01*
X014130Y025727D01*
X014130Y024673D01*
X014048Y024755D01*
X014048Y024889D01*
X013995Y025017D01*
X013897Y025115D01*
X013769Y025168D01*
X013729Y025168D01*
X013752Y025172D01*
X013824Y025195D01*
X013892Y025229D01*
X013953Y025274D01*
X014006Y025327D01*
X014051Y025388D01*
X014085Y025456D01*
X014108Y025528D01*
X014120Y025602D01*
X014120Y025920D01*
X013660Y025920D01*
X013660Y025960D01*
X014120Y025960D01*
X014120Y026278D01*
X014108Y026352D01*
X014085Y026424D01*
X014051Y026492D01*
X014006Y026553D01*
X013953Y026606D01*
X013947Y026610D01*
X014000Y026559D02*
X014322Y026559D01*
X014219Y026400D02*
X014093Y026400D01*
X014120Y026242D02*
X014190Y026242D01*
X014190Y026083D02*
X014120Y026083D01*
X014190Y025925D02*
X013660Y025925D01*
X014120Y025766D02*
X014169Y025766D01*
X014130Y025608D02*
X014120Y025608D01*
X014130Y025449D02*
X014081Y025449D01*
X014130Y025291D02*
X013969Y025291D01*
X013856Y025132D02*
X014130Y025132D01*
X014130Y024974D02*
X014013Y024974D01*
X014048Y024815D02*
X014130Y024815D01*
X014550Y024815D02*
X014817Y024815D01*
X014809Y024974D02*
X014550Y024974D01*
X014550Y025132D02*
X014813Y025132D01*
X014859Y024657D02*
X014550Y024657D01*
X014550Y024498D02*
X014928Y024498D01*
X013544Y025132D02*
X011567Y025132D01*
X011571Y024974D02*
X012131Y024974D01*
X011972Y024815D02*
X011563Y024815D01*
X011521Y024657D02*
X011814Y024657D01*
X011655Y024498D02*
X011452Y024498D01*
X011497Y024340D02*
X011358Y024340D01*
X013109Y024974D02*
X013387Y024974D01*
X013352Y024815D02*
X013268Y024815D01*
X013311Y025291D02*
X012927Y025291D01*
X013048Y025449D02*
X013199Y025449D01*
X013160Y025608D02*
X013090Y025608D01*
X013090Y025766D02*
X013160Y025766D01*
X012353Y025291D02*
X011927Y025291D01*
X012048Y025449D02*
X012232Y025449D01*
X012190Y025608D02*
X012090Y025608D01*
X012090Y025766D02*
X012190Y025766D01*
X009517Y024815D02*
X007670Y024815D01*
X007612Y024657D02*
X007748Y024657D01*
X007748Y024498D02*
X007670Y024498D01*
X007748Y024397D02*
X008155Y024397D01*
X008472Y024397D01*
X008472Y024261D01*
X007748Y024261D01*
X007748Y024397D01*
X007748Y024340D02*
X008472Y024340D01*
X008540Y024329D02*
X007680Y024329D01*
X007669Y024340D01*
X007233Y024340D02*
X007137Y024340D01*
X007137Y024498D02*
X007205Y024498D01*
X007299Y023864D02*
X006880Y023864D01*
X006880Y023706D02*
X007140Y023706D01*
X006982Y023547D02*
X006880Y023547D01*
X006830Y023230D02*
X006288Y023230D01*
X006204Y023072D02*
X006830Y023072D01*
X006748Y022913D02*
X003270Y022913D01*
X008472Y024498D02*
X008608Y024498D01*
X008608Y024657D02*
X008472Y024657D01*
X009013Y024657D02*
X009284Y024657D01*
X009196Y024498D02*
X009015Y024498D01*
X008028Y025449D02*
X007932Y025449D01*
X007932Y025608D02*
X008028Y025608D01*
X008028Y025766D02*
X007932Y025766D01*
X008028Y025777D02*
X008028Y025873D01*
X008455Y025873D01*
X008455Y026105D01*
X008443Y026151D01*
X008425Y026181D01*
X008425Y026274D01*
X008475Y026274D01*
X008475Y026156D01*
X008531Y026100D01*
X008475Y026044D01*
X008475Y025600D01*
X008463Y025595D01*
X008455Y025588D01*
X008455Y025777D01*
X008028Y025777D01*
X008455Y025766D02*
X008475Y025766D01*
X008475Y025608D02*
X008455Y025608D01*
X008455Y025925D02*
X008475Y025925D01*
X008455Y026083D02*
X008514Y026083D01*
X008475Y026242D02*
X008425Y026242D01*
X016658Y024340D02*
X016777Y024340D01*
X016752Y024498D02*
X016935Y024498D01*
X016821Y024657D02*
X017155Y024657D01*
X017445Y024657D02*
X017905Y024657D01*
X017905Y024498D02*
X017611Y024498D01*
X017648Y024340D02*
X017905Y024340D01*
X017905Y024181D02*
X017611Y024181D01*
X018332Y024498D02*
X018428Y024498D01*
X018428Y024657D02*
X018332Y024657D01*
X018332Y024815D02*
X018428Y024815D01*
X018010Y024815D02*
X016863Y024815D01*
X019918Y024340D02*
X020784Y024340D01*
X020706Y024023D02*
X020128Y024023D01*
X020090Y024181D02*
X021340Y024181D01*
X021340Y024340D02*
X021296Y024340D01*
X020590Y023864D02*
X020348Y023864D01*
X020441Y023706D02*
X020590Y023706D01*
X020590Y023547D02*
X020447Y023547D01*
X020361Y023389D02*
X020735Y023389D01*
X022345Y023389D02*
X022510Y023389D01*
X022510Y023547D02*
X022490Y023547D01*
X022490Y023706D02*
X022510Y023706D01*
X006108Y008490D02*
X005948Y008490D01*
X005948Y008331D02*
X006108Y008331D01*
X006108Y008173D02*
X005948Y008173D01*
X005948Y008014D02*
X006108Y008014D01*
D32*
X012405Y019120D02*
X012245Y019347D01*
X012549Y019651D01*
X012690Y019791D01*
X014500Y023780D02*
X014500Y023940D01*
X014340Y024100D01*
X014340Y025640D01*
X014640Y025940D01*
D33*
X015940Y026260D02*
X016260Y026580D01*
X018820Y026580D01*
X019060Y026180D02*
X018260Y026180D01*
X019060Y026180D02*
X019700Y025540D01*
X022420Y025540D01*
X023220Y024740D01*
X023220Y020740D01*
X022040Y021720D02*
X022040Y021760D01*
X021800Y021760D01*
X021540Y022020D01*
X021540Y025060D01*
X021300Y025300D01*
X020180Y025300D01*
X019860Y024980D01*
X019780Y024020D02*
X019700Y023940D01*
X019700Y023620D01*
X019540Y023460D01*
X019540Y022340D01*
X018820Y021620D01*
X015940Y021620D01*
X015780Y021780D01*
X015700Y021540D02*
X015860Y021380D01*
X018900Y021380D01*
X019780Y022260D01*
X019780Y023300D01*
X020100Y023620D01*
X018980Y024020D02*
X018900Y023940D01*
X018900Y023460D01*
X018660Y023220D01*
X017140Y023220D01*
X016740Y022820D01*
X016740Y022500D02*
X016580Y022500D01*
X016500Y022580D01*
X016141Y022580D01*
X015954Y022768D01*
X015981Y022740D01*
X015954Y022768D02*
X014832Y022768D01*
X014592Y022528D01*
X014450Y022669D02*
X015081Y023300D01*
X016420Y023300D01*
X016820Y023700D01*
X017674Y023700D01*
X017686Y023712D01*
X018367Y023712D01*
X018380Y023725D01*
X017686Y023712D02*
X017552Y023712D01*
X017060Y024340D02*
X016820Y024100D01*
X015220Y024100D01*
X015060Y023940D01*
X015060Y023561D01*
X014309Y022810D01*
X014168Y022952D02*
X013700Y022484D01*
X013700Y022420D01*
X013220Y022100D02*
X013060Y022260D01*
X012681Y022260D01*
X012131Y022810D01*
X012131Y022789D01*
X012272Y022952D02*
X011604Y023620D01*
X010580Y023620D01*
X010260Y023300D01*
X009940Y023300D01*
X009140Y024100D01*
X009540Y024420D02*
X009860Y024100D01*
X011540Y024100D01*
X012260Y024820D01*
X012980Y024820D01*
X013940Y023860D01*
X013940Y023559D01*
X013750Y023369D01*
X013892Y023228D02*
X014180Y023516D01*
X014180Y023940D01*
X014100Y024020D01*
X014100Y024420D01*
X013700Y024820D01*
X012740Y024420D02*
X012740Y024180D01*
X012500Y023940D01*
X012500Y023559D01*
X012690Y023369D01*
X012824Y023503D02*
X013181Y023860D01*
X013300Y023860D01*
X014420Y023700D02*
X014500Y023780D01*
X014420Y023700D02*
X014420Y023473D01*
X014033Y023086D01*
X014168Y022952D02*
X014820Y023604D01*
X014820Y024100D01*
X014660Y024260D01*
X012548Y023228D02*
X012180Y023596D01*
X012180Y024180D01*
X011633Y023860D02*
X010340Y023860D01*
X010180Y023700D01*
X010725Y023060D02*
X010725Y022675D01*
X010820Y022580D01*
X010961Y022580D01*
X011431Y022110D01*
X011297Y021976D02*
X010784Y021976D01*
X010180Y022580D01*
X011395Y022430D02*
X011395Y023060D01*
X011633Y023860D02*
X012407Y023086D01*
X011848Y022528D02*
X012404Y021971D01*
X012789Y021971D01*
X012820Y021940D01*
X012980Y021780D01*
X012980Y021460D01*
X013140Y021300D01*
X013140Y020420D01*
X012980Y020260D01*
X012980Y020081D01*
X012549Y019651D01*
X012824Y019657D02*
X012943Y019657D01*
X013140Y019460D01*
X013140Y019185D01*
X013075Y019120D01*
X013616Y019657D02*
X014133Y019140D01*
X014420Y019140D01*
X015140Y019300D02*
X015140Y019519D01*
X014309Y020350D01*
X014450Y020491D02*
X015460Y019481D01*
X015460Y018900D01*
X014740Y018180D01*
X012100Y018180D01*
X011700Y017780D01*
X011620Y017780D01*
X010580Y016740D01*
X010420Y016740D01*
X009700Y016020D01*
X013860Y016020D01*
X014420Y015460D01*
X014420Y014820D01*
X014820Y014420D01*
X016420Y014420D01*
X016660Y014660D01*
X016900Y014660D01*
X016900Y014180D02*
X014740Y014180D01*
X014180Y014740D01*
X014180Y015380D01*
X013780Y015780D01*
X010100Y015780D01*
X009780Y015460D01*
X008820Y015620D02*
X007060Y017380D01*
X007700Y017300D02*
X008820Y016180D01*
X009380Y016740D02*
X009540Y016900D01*
X010260Y016900D01*
X010660Y017300D01*
X010660Y018100D01*
X010580Y018180D01*
X009860Y018180D01*
X009300Y018740D01*
X009300Y019460D01*
X009620Y019780D01*
X009620Y020020D01*
X009460Y020180D01*
X008980Y020180D01*
X008660Y019860D01*
X008660Y019620D01*
X008420Y019380D01*
X006420Y019380D01*
X005780Y020020D01*
X006020Y020260D02*
X006020Y020420D01*
X005780Y020660D01*
X006180Y020580D02*
X006180Y020900D01*
X005940Y021140D01*
X004660Y021140D01*
X004420Y020900D01*
X006180Y020580D02*
X006740Y020020D01*
X007220Y020020D01*
X007540Y020340D01*
X008500Y020340D01*
X008660Y020500D01*
X009940Y020500D01*
X010340Y020100D01*
X011300Y020100D01*
X011832Y020632D01*
X011848Y020632D01*
X011714Y020767D02*
X011447Y020500D01*
X010260Y020500D01*
X010100Y020660D01*
X009060Y020660D01*
X008540Y021180D01*
X008540Y021586D01*
X008820Y020340D02*
X009700Y020340D01*
X009860Y020180D01*
X009860Y019540D01*
X009700Y019380D01*
X009700Y018660D01*
X009940Y018420D01*
X014500Y018420D01*
X014820Y018740D01*
X014020Y018740D02*
X013860Y018740D01*
X013700Y018580D01*
X011940Y018580D01*
X011700Y018820D01*
X011700Y019140D01*
X012100Y019540D01*
X012156Y019540D01*
X012548Y019932D01*
X012407Y020074D02*
X011380Y019047D01*
X011380Y018740D01*
X010964Y018884D02*
X010900Y018820D01*
X010100Y018820D01*
X010964Y018884D02*
X010964Y018900D01*
X012272Y020208D01*
X012131Y020350D02*
X011481Y019700D01*
X011140Y019700D01*
X011990Y020491D02*
X012399Y020900D01*
X012580Y020900D01*
X012820Y020660D01*
X012820Y020580D01*
X013380Y020580D02*
X013460Y020500D01*
X013460Y020340D01*
X013380Y020580D02*
X013380Y020980D01*
X013780Y021380D01*
X013780Y021460D01*
X013940Y021620D01*
X013780Y021940D02*
X014839Y021940D01*
X015009Y022110D01*
X015159Y022260D01*
X015540Y022260D01*
X015620Y022180D01*
X016340Y022180D01*
X016740Y022500D02*
X016885Y022355D01*
X016885Y022040D01*
X015540Y020980D02*
X015336Y021184D01*
X015143Y021184D01*
X015009Y021050D02*
X015959Y020100D01*
X016100Y020100D01*
X016180Y020180D01*
X017380Y020180D01*
X017734Y019826D01*
X017734Y019460D01*
X016986Y019460D02*
X016980Y019460D01*
X016420Y018900D01*
X016020Y018900D01*
X015700Y019220D01*
X015700Y019524D01*
X014592Y020632D01*
X014868Y020908D02*
X015540Y020236D01*
X015540Y020100D01*
X016100Y019540D01*
X016100Y019300D01*
X016420Y018894D02*
X016986Y019460D01*
X016420Y018894D02*
X016420Y016580D01*
X017220Y015780D01*
X017220Y014020D01*
X017060Y013860D01*
X017060Y013380D01*
X017220Y013220D01*
X017220Y013060D01*
X017460Y013540D02*
X017460Y016180D01*
X016820Y016820D01*
X016820Y018100D01*
X017220Y018500D01*
X017860Y018500D01*
X018820Y017540D01*
X019220Y017540D01*
X019300Y017620D01*
X019060Y016900D02*
X017860Y018100D01*
X017780Y018100D01*
X017700Y018180D01*
X017540Y018180D01*
X017380Y018020D01*
X017220Y017540D02*
X017140Y017460D01*
X017140Y016980D01*
X017860Y016260D01*
X017860Y013860D01*
X019060Y016180D02*
X019060Y016900D01*
X015620Y018100D02*
X015620Y018580D01*
X015700Y018660D01*
X015620Y018100D02*
X015540Y018020D01*
X012260Y018020D01*
X011860Y017620D01*
X011860Y016900D01*
X010420Y017460D02*
X010420Y017700D01*
X010180Y017940D01*
X009780Y017940D01*
X008980Y018740D01*
X008980Y019620D01*
X009220Y019860D01*
X008820Y020340D02*
X008566Y020086D01*
X008177Y020086D01*
X007920Y019829D01*
X007889Y019860D01*
X007620Y019860D01*
X007380Y019620D01*
X006660Y019620D01*
X006020Y020260D01*
X007700Y018580D02*
X007700Y017300D01*
X009140Y016980D02*
X009140Y012820D01*
X009300Y012660D01*
X009300Y011300D01*
X007780Y011780D02*
X007700Y011860D01*
X007780Y011780D02*
X007780Y010241D01*
X007465Y010241D02*
X007465Y011575D01*
X007180Y011860D01*
X006380Y011820D02*
X006028Y011532D01*
X006028Y010202D01*
X009700Y012180D02*
X009700Y012580D01*
X009380Y012900D01*
X009380Y016740D01*
X009140Y016980D02*
X009300Y017140D01*
X010100Y017140D01*
X010420Y017460D01*
X013700Y020820D02*
X014340Y021460D01*
X014420Y021460D01*
X013380Y021620D02*
X013220Y021780D01*
X013220Y022100D01*
X011848Y022512D02*
X011848Y022528D01*
X011572Y022252D02*
X011395Y022430D01*
X006425Y023686D02*
X006039Y023300D01*
X005940Y023300D01*
X004055Y024674D02*
X003926Y024674D01*
X003860Y024740D01*
X004055Y026446D02*
X007185Y026446D01*
X007234Y026495D01*
X007980Y026495D01*
X008001Y026474D01*
X008940Y026474D01*
X008966Y026500D01*
X009540Y026500D01*
X008940Y025726D02*
X008766Y025726D01*
X008766Y025406D01*
X008660Y025300D01*
X017060Y024340D02*
X017300Y024340D01*
X022820Y024340D02*
X022820Y023940D01*
X022820Y024340D02*
X022900Y024420D01*
X010340Y012100D02*
X009780Y012100D01*
X009700Y012180D01*
X015880Y011446D02*
X016026Y011300D01*
X016026Y011220D01*
X009532Y007879D02*
X009513Y007860D01*
D34*
X009513Y008100D01*
X006020Y008100D01*
X006020Y010202D01*
X006028Y010202D01*
X009532Y010202D02*
X009532Y007879D01*
D35*
X014420Y021460D02*
X014500Y021540D01*
X015700Y021540D01*
X015540Y021700D02*
X014020Y021700D01*
X013940Y021620D01*
X015540Y021700D02*
X015620Y021780D01*
X015780Y021780D01*
M02*
