G75*
%MOIN*%
%OFA0B0*%
%FSLAX24Y24*%
%IPPOS*%
%LPD*%
%AMOC8*
5,1,8,0,0,1.08239X$1,22.5*
%
%ADD10R,0.0160X0.0160*%
%ADD11R,0.0512X0.0591*%
%ADD12R,0.0630X0.0512*%
%ADD13C,0.0560*%
%ADD14R,0.0512X0.0630*%
%ADD15R,0.0376X0.0114*%
%ADD16R,0.0114X0.0376*%
%ADD17R,0.0591X0.0512*%
%ADD18OC8,0.0600*%
%ADD19R,0.0217X0.0472*%
%ADD20C,0.0594*%
%ADD21R,0.0560X0.0110*%
%ADD22R,0.0680X0.0860*%
%ADD23R,0.0220X0.0500*%
%ADD24R,0.0551X0.1102*%
%ADD25R,0.0551X0.0394*%
%ADD26R,0.0591X0.0591*%
%ADD27R,0.0536X0.0283*%
%ADD28R,0.0630X0.0460*%
%ADD29C,0.0600*%
%ADD30C,0.0394*%
%ADD31C,0.0240*%
%ADD32C,0.0396*%
%ADD33C,0.0120*%
%ADD34C,0.0320*%
%ADD35C,0.0160*%
%ADD36C,0.0100*%
D10*
X007780Y018180D03*
D11*
X007075Y018900D03*
X006405Y018900D03*
X006565Y015780D03*
X007235Y015780D03*
X010525Y013380D03*
X011195Y013380D03*
X011085Y012200D03*
X011755Y012200D03*
X011755Y011580D03*
X011085Y011580D03*
X008395Y012380D03*
X007725Y012380D03*
X006795Y012580D03*
X006125Y012580D03*
X014285Y015460D03*
X014955Y015460D03*
X014705Y013160D03*
X015375Y013160D03*
X015415Y012460D03*
X014745Y012460D03*
X015925Y020720D03*
X016595Y020720D03*
X016565Y021540D03*
X017235Y021540D03*
X019665Y020840D03*
X020335Y020840D03*
D12*
X018980Y020554D03*
X018180Y020554D03*
X018180Y019806D03*
X018980Y019806D03*
X014260Y019726D03*
X014260Y020474D03*
X009540Y022766D03*
X009540Y023514D03*
X008580Y020394D03*
X008580Y019646D03*
X010580Y017894D03*
X011360Y017894D03*
X011360Y017146D03*
X010580Y017146D03*
X022980Y022926D03*
X022980Y023674D03*
D13*
X016600Y008500D02*
X016600Y007940D01*
X015600Y007940D02*
X015600Y008500D01*
X014100Y008480D02*
X014100Y007920D01*
X013100Y007920D02*
X013100Y008480D01*
X011640Y008500D02*
X011640Y007940D01*
X010640Y007940D02*
X010640Y008500D01*
D14*
X011326Y009780D03*
X012074Y009780D03*
X011034Y010660D03*
X010286Y010660D03*
X008454Y013100D03*
X007706Y013100D03*
X006834Y013260D03*
X006086Y013260D03*
X011986Y018660D03*
X012734Y018660D03*
X012154Y020340D03*
X011406Y020340D03*
X011354Y023220D03*
X010606Y023220D03*
X007834Y023220D03*
X007086Y023220D03*
X015086Y023220D03*
X015834Y023220D03*
X018686Y023380D03*
X019434Y023380D03*
D15*
X007728Y017872D03*
X007728Y017675D03*
X007728Y017478D03*
X007728Y017282D03*
X007728Y017085D03*
X007728Y016888D03*
X006152Y016888D03*
X006152Y017085D03*
X006152Y017282D03*
X006152Y017478D03*
X006152Y017675D03*
X006152Y017872D03*
D16*
X006448Y018168D03*
X006645Y018168D03*
X006842Y018168D03*
X007038Y018168D03*
X007235Y018168D03*
X007432Y018168D03*
X007432Y016592D03*
X007235Y016592D03*
X007038Y016592D03*
X006842Y016592D03*
X006645Y016592D03*
X006448Y016592D03*
D17*
X005540Y017205D03*
X005540Y017875D03*
X008420Y017955D03*
X008420Y017285D03*
X010100Y021445D03*
X010100Y022115D03*
X007660Y010875D03*
X007660Y010205D03*
X009820Y009995D03*
X009820Y009325D03*
D18*
X018600Y009240D03*
X019600Y009240D03*
X020600Y009240D03*
X021600Y009240D03*
X021600Y008240D03*
X020600Y008240D03*
X019600Y008240D03*
X018600Y008240D03*
X021040Y021720D03*
X022040Y021720D03*
X022040Y022720D03*
X021040Y022720D03*
X021040Y023720D03*
X022040Y023720D03*
X022040Y024720D03*
X021040Y024720D03*
D19*
X009034Y010812D03*
X008660Y010812D03*
X008286Y010812D03*
X008286Y009788D03*
X009034Y009788D03*
D20*
X012586Y013411D03*
X013854Y013531D03*
X013854Y017469D03*
X012586Y017349D03*
D21*
X011760Y014810D03*
X011760Y014620D03*
X011760Y014420D03*
X011760Y014220D03*
X011760Y014030D03*
X010040Y014030D03*
X010040Y014220D03*
X010040Y014420D03*
X010040Y014620D03*
X010040Y014810D03*
X014360Y014850D03*
X014360Y014660D03*
X014360Y014460D03*
X014360Y014260D03*
X014360Y014070D03*
X016080Y014070D03*
X016080Y014260D03*
X016080Y014460D03*
X016080Y014660D03*
X016080Y014850D03*
D22*
X015220Y014460D03*
X010900Y014420D03*
D23*
X014280Y011460D03*
X014660Y011460D03*
X015040Y011460D03*
X015040Y010500D03*
X014280Y010500D03*
D24*
X014188Y009460D03*
X015132Y009460D03*
D25*
X019253Y018526D03*
X018387Y018900D03*
X019253Y019274D03*
D26*
X018180Y021251D03*
X018180Y022629D03*
X014260Y022629D03*
X012580Y022549D03*
X012580Y021171D03*
X014260Y021251D03*
X008820Y021091D03*
X008820Y022469D03*
D27*
X007836Y022495D03*
X007836Y022113D03*
X007084Y022109D03*
X007084Y022491D03*
X007084Y021727D03*
X007084Y021346D03*
X007836Y021349D03*
X007836Y021731D03*
X010844Y021807D03*
X010844Y022189D03*
X010844Y022571D03*
X011596Y022575D03*
X011596Y022193D03*
X011596Y021811D03*
X011596Y021429D03*
X010844Y021426D03*
X015084Y021426D03*
X015836Y021429D03*
X015836Y021811D03*
X015836Y022193D03*
X015836Y022575D03*
X015084Y022571D03*
X015084Y022189D03*
X015084Y021807D03*
X018924Y021807D03*
X018924Y022189D03*
X018924Y022571D03*
X019676Y022575D03*
X019676Y022193D03*
X019676Y021811D03*
X019676Y021429D03*
X018924Y021426D03*
D28*
X017060Y016000D03*
X017060Y015400D03*
X009140Y013520D03*
X009140Y012920D03*
D29*
X011640Y025640D02*
X011640Y026240D01*
X012640Y026240D02*
X012640Y025640D01*
X013640Y025640D02*
X013640Y026240D01*
X014640Y026240D02*
X014640Y025640D01*
D30*
X020340Y026420D03*
X003700Y024980D03*
X022580Y010260D03*
X004340Y008500D03*
D31*
X008286Y008794D02*
X008286Y009788D01*
X007965Y010205D02*
X008020Y010260D01*
X008860Y010260D01*
X009034Y010086D01*
X009034Y009788D01*
X009820Y009995D02*
X009820Y010820D01*
X009980Y010660D01*
X010286Y010660D01*
X009820Y010820D02*
X009820Y011660D01*
X009700Y011780D01*
X009780Y011780D01*
X009700Y011780D02*
X008900Y011780D01*
X008660Y011540D01*
X008500Y011700D01*
X008260Y011700D01*
X007660Y011100D01*
X007660Y010875D01*
X008660Y010812D02*
X008660Y011540D01*
X008395Y011835D02*
X008260Y011700D01*
X008395Y011835D02*
X008395Y012380D01*
X008515Y012260D01*
X008900Y012260D01*
X006740Y011220D02*
X006740Y010340D01*
X006900Y010180D01*
X007635Y010180D01*
X007660Y010205D01*
X007965Y010205D01*
X009820Y009995D02*
X010645Y009995D01*
X010740Y009900D01*
X010645Y009915D01*
X009820Y009325D02*
X009820Y008780D01*
X009620Y008580D01*
X008500Y008580D01*
X008286Y008794D01*
X012074Y009780D02*
X012074Y009994D01*
X012340Y010260D01*
X012340Y010820D01*
X012500Y010980D01*
X011900Y011580D01*
X011755Y011580D01*
X012080Y012200D02*
X012900Y011380D01*
X012500Y010980D01*
X012900Y011380D02*
X012980Y011460D01*
X014280Y011460D01*
X014660Y011460D02*
X014660Y011060D01*
X014580Y010980D01*
X013620Y010980D01*
X012900Y010260D01*
X014280Y010500D02*
X014280Y009552D01*
X014188Y009460D01*
X015060Y009532D02*
X015132Y009460D01*
X015060Y009532D02*
X015060Y009700D01*
X015040Y009720D01*
X015040Y010500D01*
X015040Y010560D01*
X015180Y010700D01*
X015460Y010980D01*
X015040Y011460D02*
X015040Y011600D01*
X015220Y011780D01*
X015415Y012305D02*
X015415Y012460D01*
X015415Y013120D01*
X015375Y013160D01*
X014745Y013120D02*
X014705Y013160D01*
X014745Y013120D02*
X014745Y012460D01*
X014660Y012375D01*
X014660Y011460D01*
X012080Y012200D02*
X011755Y012200D01*
X011085Y012200D02*
X011085Y012715D01*
X011060Y012740D01*
X006380Y011820D02*
X006125Y012075D01*
X006125Y012580D01*
X013620Y018580D02*
X015140Y017060D01*
X019220Y017060D01*
X019460Y017060D01*
X019540Y016980D01*
X019540Y016740D01*
X019460Y017060D02*
X020900Y017060D01*
X020980Y017140D01*
X017380Y020500D02*
X017235Y020645D01*
X017235Y021540D01*
X020335Y021015D02*
X020335Y020840D01*
X020335Y021015D02*
X021040Y021720D01*
X013620Y018900D02*
X013620Y018580D01*
X013060Y018020D01*
X012660Y018020D01*
X011486Y018020D01*
X011360Y017894D02*
X010580Y017894D01*
X010294Y017894D02*
X010260Y017860D01*
X010100Y017860D01*
X009940Y017700D01*
X009940Y017540D01*
X008420Y017955D02*
X008420Y018660D01*
X007460Y019620D01*
X007380Y019620D01*
X007380Y019940D01*
X006900Y020420D01*
X006980Y020340D01*
X007620Y020340D01*
X008340Y021060D01*
X008340Y021780D01*
X008820Y022260D01*
X008860Y022220D02*
X008860Y022060D01*
X009620Y021300D01*
X009765Y021445D01*
X010100Y021445D01*
X013540Y018980D02*
X013620Y018900D01*
D32*
X013540Y018980D03*
X014020Y018740D03*
X014820Y018740D03*
X015700Y018660D03*
X016100Y019300D03*
X015140Y019300D03*
X014420Y019140D03*
X016100Y020100D03*
X017380Y020500D03*
X015540Y020980D03*
X013700Y020820D03*
X013460Y020340D03*
X012820Y020580D03*
X013380Y021620D03*
X013780Y021940D03*
X012820Y021940D03*
X013700Y022420D03*
X014500Y023780D03*
X013300Y023860D03*
X012740Y024420D03*
X012180Y024180D03*
X013700Y024820D03*
X015940Y026260D03*
X018260Y026180D03*
X018820Y026580D03*
X018700Y025620D03*
X017340Y025140D03*
X017300Y024340D03*
X018980Y024020D03*
X019780Y024020D03*
X020100Y023620D03*
X019860Y024980D03*
X022900Y024420D03*
X018020Y022040D03*
X016740Y022820D03*
X016340Y022180D03*
X019820Y019700D03*
X021700Y020420D03*
X023220Y020740D03*
X021180Y018100D03*
X020980Y017140D03*
X019540Y016740D03*
X019060Y016180D03*
X019900Y015700D03*
X018940Y015220D03*
X019900Y014420D03*
X021340Y013540D03*
X017860Y013860D03*
X017460Y013540D03*
X017220Y013060D03*
X016340Y013380D03*
X016900Y014180D03*
X016900Y014660D03*
X016140Y015540D03*
X014380Y016340D03*
X013100Y016740D03*
X011860Y016900D03*
X009940Y017540D03*
X008820Y016180D03*
X008820Y015620D03*
X009700Y016020D03*
X009780Y015460D03*
X010940Y015300D03*
X013220Y014980D03*
X013700Y015380D03*
X013700Y014260D03*
X011860Y013460D03*
X012660Y012340D03*
X014100Y012340D03*
X015220Y011780D03*
X016620Y011940D03*
X016740Y011220D03*
X017700Y010420D03*
X017740Y009860D03*
X016540Y009460D03*
X017500Y008420D03*
X014820Y008180D03*
X010740Y009900D03*
X012340Y010260D03*
X012900Y010260D03*
X009300Y011300D03*
X007700Y011860D03*
X007180Y011860D03*
X006380Y011820D03*
X006740Y011220D03*
X008900Y012260D03*
X010340Y012100D03*
X008740Y014020D03*
X006300Y014500D03*
X003660Y015540D03*
X004620Y017220D03*
X007060Y017380D03*
X007700Y018580D03*
X005940Y018980D03*
X005780Y020020D03*
X006900Y020420D03*
X005780Y020660D03*
X004740Y020100D03*
X003900Y020660D03*
X004420Y020900D03*
X007140Y020900D03*
X009620Y021300D03*
X010380Y020860D03*
X011140Y019700D03*
X010100Y018820D03*
X011380Y018740D03*
X009220Y019860D03*
X009460Y022100D03*
X010180Y022580D03*
X010180Y023700D03*
X009140Y024100D03*
X009540Y024420D03*
X008660Y025300D03*
X009540Y026500D03*
X004700Y025460D03*
X005940Y023300D03*
X004980Y022420D03*
X017220Y017540D03*
X017380Y018020D03*
X019300Y017620D03*
X021340Y015700D03*
X017740Y012500D03*
X021580Y010420D03*
X007820Y008180D03*
X004940Y009460D03*
D33*
X007725Y012380D02*
X007725Y013081D01*
X007706Y013100D01*
X010700Y014220D02*
X010740Y014260D01*
X010780Y014220D01*
X010970Y014030D01*
X011760Y014030D01*
X011760Y014620D02*
X011100Y014620D01*
X010900Y014420D01*
X010740Y014260D01*
X013700Y014260D02*
X013900Y014460D01*
X014360Y014460D01*
X014360Y014260D02*
X015020Y014260D01*
X015220Y014460D01*
X015140Y014540D01*
X015140Y014660D01*
X015140Y014740D01*
X015030Y014850D01*
X014360Y014850D01*
X007728Y016888D02*
X007728Y017085D01*
X007728Y017282D01*
X007728Y017478D01*
X007728Y017675D01*
X007220Y018103D02*
X007235Y018168D01*
X007075Y018154D02*
X007038Y018168D01*
X006645Y018168D02*
X006448Y018168D01*
X006152Y017872D01*
X006152Y017675D01*
X006152Y017478D01*
X006152Y017282D01*
X006405Y018161D02*
X006448Y018168D01*
X006405Y018161D02*
X006405Y018900D01*
X007075Y018900D02*
X007140Y018965D01*
X007084Y021346D02*
X007084Y021727D01*
X007084Y022491D02*
X007084Y023218D01*
X007086Y023220D01*
X007834Y023220D02*
X007836Y023218D01*
X007836Y022495D01*
D34*
X015220Y014460D02*
X015220Y014100D01*
X014740Y013620D01*
X014740Y013220D01*
X014660Y013140D01*
X014660Y012420D01*
X014660Y012375D02*
X014135Y012375D01*
X014100Y012340D01*
X014500Y012900D02*
X013620Y012900D01*
X013460Y012740D01*
X011060Y012740D01*
X010580Y012740D01*
X010500Y012820D01*
X010500Y013355D01*
X010525Y013380D01*
X010525Y013645D01*
X010740Y013860D01*
X010740Y014180D01*
X010780Y014220D01*
X010525Y013380D02*
X010100Y013380D01*
X009780Y013060D01*
X009780Y012980D01*
X009780Y011780D01*
X011195Y013380D02*
X011275Y013460D01*
X011860Y013460D01*
X014500Y012900D02*
X014740Y013140D01*
X014740Y013195D01*
X014705Y013160D01*
X014740Y013195D02*
X014740Y013220D01*
X016340Y013380D02*
X016340Y012980D01*
X017700Y011620D01*
X017700Y010420D01*
X016740Y011220D02*
X015700Y011220D01*
X015180Y010700D01*
X015700Y011220D02*
X016020Y011540D01*
X016020Y012180D01*
X015895Y012305D01*
X015415Y012305D01*
X012130Y009170D02*
X011640Y008680D01*
X011640Y008220D01*
X012130Y009170D02*
X013100Y008200D01*
X012130Y009170D02*
X012080Y009220D01*
X010020Y009220D01*
X009820Y009020D01*
X009820Y008780D01*
D35*
X003933Y007920D02*
X003735Y007979D01*
X003560Y008088D01*
X003418Y008238D01*
X003321Y008420D01*
X003273Y008621D01*
X003270Y008717D01*
X003270Y008732D01*
X003273Y008829D01*
X003270Y008837D01*
X003270Y024726D01*
X003282Y024699D01*
X003292Y024696D01*
X003293Y024694D01*
X003293Y024683D01*
X003318Y024659D01*
X003337Y024631D01*
X003348Y024629D01*
X003349Y024628D01*
X003351Y024617D01*
X003379Y024598D01*
X003403Y024573D01*
X003414Y024573D01*
X003416Y024572D01*
X003419Y024562D01*
X003450Y024548D01*
X003479Y024528D01*
X003489Y024530D01*
X003491Y024529D01*
X003496Y024520D01*
X003529Y024511D01*
X003560Y024496D01*
X003570Y024500D01*
X003572Y024499D01*
X003579Y024491D01*
X003613Y024488D01*
X003646Y024480D01*
X003655Y024485D01*
X003658Y024485D01*
X003666Y024478D01*
X003700Y024481D01*
X003734Y024478D01*
X003742Y024485D01*
X003745Y024485D01*
X003754Y024480D01*
X003787Y024488D01*
X003821Y024491D01*
X003828Y024499D01*
X003830Y024500D01*
X003840Y024496D01*
X003871Y024511D01*
X003904Y024520D01*
X003909Y024529D01*
X003911Y024530D01*
X003921Y024528D01*
X003950Y024548D01*
X003981Y024562D01*
X003984Y024572D01*
X003986Y024573D01*
X003997Y024573D01*
X004021Y024598D01*
X004049Y024617D01*
X004051Y024628D01*
X004052Y024629D01*
X004063Y024631D01*
X004082Y024659D01*
X004107Y024683D01*
X004107Y024694D01*
X004108Y024696D01*
X004118Y024699D01*
X004132Y024730D01*
X004152Y024759D01*
X004150Y024769D01*
X004151Y024771D01*
X004160Y024776D01*
X004169Y024809D01*
X004184Y024840D01*
X004180Y024850D01*
X004181Y024852D01*
X004189Y024859D01*
X004192Y024893D01*
X004200Y024926D01*
X004195Y024935D01*
X004195Y024938D01*
X004202Y024946D01*
X004199Y024980D01*
X004202Y025014D01*
X004195Y025022D01*
X004195Y025025D01*
X004200Y025034D01*
X004192Y025067D01*
X004189Y025101D01*
X004181Y025108D01*
X004180Y025110D01*
X004184Y025120D01*
X004169Y025151D01*
X004160Y025184D01*
X004151Y025189D01*
X004150Y025191D01*
X004152Y025201D01*
X004132Y025230D01*
X004118Y025261D01*
X004108Y025264D01*
X004107Y025266D01*
X004107Y025277D01*
X004082Y025301D01*
X004063Y025329D01*
X004052Y025331D01*
X004051Y025332D01*
X004049Y025343D01*
X004021Y025362D01*
X003997Y025387D01*
X003986Y025387D01*
X003984Y025388D01*
X003981Y025398D01*
X003950Y025412D01*
X003921Y025432D01*
X003911Y025430D01*
X003909Y025431D01*
X003904Y025440D01*
X003871Y025449D01*
X003840Y025464D01*
X003830Y025460D01*
X003828Y025461D01*
X003821Y025469D01*
X003787Y025472D01*
X003754Y025480D01*
X003745Y025475D01*
X003742Y025475D01*
X003734Y025482D01*
X003700Y025479D01*
X003666Y025482D01*
X003658Y025475D01*
X003655Y025475D01*
X003646Y025480D01*
X003613Y025472D01*
X003579Y025469D01*
X003572Y025461D01*
X003570Y025460D01*
X003560Y025464D01*
X003529Y025449D01*
X003496Y025440D01*
X003491Y025431D01*
X003489Y025430D01*
X003479Y025432D01*
X003450Y025412D01*
X003419Y025398D01*
X003416Y025388D01*
X003414Y025387D01*
X003403Y025387D01*
X003379Y025362D01*
X003351Y025343D01*
X003349Y025332D01*
X003348Y025331D01*
X003337Y025329D01*
X003318Y025301D01*
X003293Y025277D01*
X003293Y025266D01*
X003292Y025264D01*
X003282Y025261D01*
X003268Y025230D01*
X003266Y025227D01*
X003281Y025393D01*
X003382Y025712D01*
X003551Y026002D01*
X003779Y026247D01*
X004056Y026436D01*
X004367Y026560D01*
X004698Y026613D01*
X004790Y026612D01*
X004795Y026610D01*
X004883Y026610D01*
X004971Y026604D01*
X004988Y026610D01*
X009209Y026610D01*
X009192Y026569D01*
X009192Y026431D01*
X009245Y026303D01*
X009343Y026205D01*
X009471Y026152D01*
X009609Y026152D01*
X009737Y026205D01*
X009835Y026303D01*
X009888Y026431D01*
X009888Y026569D01*
X009871Y026610D01*
X011374Y026610D01*
X011259Y026495D01*
X011190Y026330D01*
X011190Y026140D01*
X006497Y026140D01*
X004337Y023980D01*
X004220Y023863D01*
X004220Y021192D01*
X004125Y021097D01*
X004072Y020969D01*
X004072Y020831D01*
X004125Y020703D01*
X004223Y020605D01*
X004351Y020552D01*
X004489Y020552D01*
X004617Y020605D01*
X004670Y020658D01*
X004670Y020448D01*
X004543Y020395D01*
X004445Y020297D01*
X004392Y020169D01*
X004392Y020031D01*
X004423Y019954D01*
X004380Y019954D01*
X004117Y019884D01*
X003882Y019748D01*
X003690Y019556D01*
X003555Y019321D01*
X003484Y019059D01*
X003484Y018788D01*
X003555Y018525D01*
X003690Y018290D01*
X003882Y018098D01*
X004117Y017962D01*
X004380Y017892D01*
X004651Y017892D01*
X004913Y017962D01*
X005065Y018050D01*
X005065Y017923D01*
X005492Y017923D01*
X005492Y018311D01*
X005352Y018311D01*
X005476Y018525D01*
X005547Y018788D01*
X005547Y019059D01*
X005476Y019321D01*
X005341Y019556D01*
X005149Y019748D01*
X004979Y019846D01*
X005035Y019903D01*
X005088Y020031D01*
X005088Y020123D01*
X005130Y020165D01*
X005130Y020805D01*
X005555Y021230D01*
X005555Y021230D01*
X005690Y021365D01*
X005690Y023058D01*
X005740Y023008D01*
X005740Y021008D01*
X005711Y021008D01*
X005583Y020955D01*
X005485Y020857D01*
X005432Y020729D01*
X005432Y020591D01*
X005485Y020463D01*
X005583Y020365D01*
X005643Y020340D01*
X005583Y020315D01*
X005485Y020217D01*
X005432Y020089D01*
X005432Y019951D01*
X005485Y019823D01*
X005583Y019725D01*
X005711Y019672D01*
X005849Y019672D01*
X005977Y019725D01*
X006072Y019820D01*
X006423Y019820D01*
X006540Y019937D01*
X006620Y020017D01*
X006620Y020577D01*
X006700Y020657D01*
X006700Y021108D01*
X006754Y021054D01*
X006827Y021054D01*
X006792Y020969D01*
X006792Y020831D01*
X006845Y020703D01*
X006943Y020605D01*
X007071Y020552D01*
X007209Y020552D01*
X007337Y020605D01*
X007402Y020670D01*
X007481Y020670D01*
X007869Y021058D01*
X008166Y021058D01*
X008254Y021146D01*
X008254Y021489D01*
X008271Y021520D01*
X008284Y021566D01*
X008284Y021731D01*
X007836Y021731D01*
X007836Y021731D01*
X008284Y021731D01*
X008284Y021897D01*
X008279Y021913D01*
X008356Y021913D01*
X008423Y021980D01*
X008451Y022008D01*
X008455Y022006D01*
X008501Y021994D01*
X008752Y021994D01*
X008752Y022401D01*
X008888Y022401D01*
X008888Y021994D01*
X009127Y021994D01*
X009165Y021903D01*
X009263Y021805D01*
X009391Y021752D01*
X009529Y021752D01*
X009655Y021804D01*
X009655Y021801D01*
X009637Y021771D01*
X009625Y021725D01*
X009625Y021493D01*
X010052Y021493D01*
X010052Y021397D01*
X010148Y021397D01*
X010148Y021120D01*
X010085Y021057D01*
X010032Y020929D01*
X010032Y020791D01*
X010069Y020700D01*
X009617Y020700D01*
X009217Y020300D01*
X009107Y020190D01*
X009045Y020164D01*
X009045Y020480D01*
X009130Y020565D01*
X009130Y020646D01*
X009177Y020646D01*
X009265Y020734D01*
X009265Y021448D01*
X009177Y021536D01*
X008463Y021536D01*
X008375Y021448D01*
X008375Y020800D01*
X008203Y020800D01*
X008115Y020712D01*
X008115Y020076D01*
X008171Y020020D01*
X008115Y019964D01*
X008115Y019328D01*
X008203Y019240D01*
X008430Y019240D01*
X008430Y018885D01*
X008565Y018750D01*
X008805Y018510D01*
X009267Y018510D01*
X008895Y018138D01*
X008895Y018234D01*
X008883Y018280D01*
X008859Y018321D01*
X008826Y018355D01*
X008785Y018378D01*
X008739Y018391D01*
X008468Y018391D01*
X008468Y018003D01*
X008372Y018003D01*
X008372Y018391D01*
X008101Y018391D01*
X008055Y018378D01*
X008014Y018355D01*
X007996Y018336D01*
X007972Y018360D01*
X007995Y018383D01*
X008048Y018511D01*
X008048Y018649D01*
X007995Y018777D01*
X007897Y018875D01*
X007769Y018928D01*
X007631Y018928D01*
X007503Y018875D01*
X007480Y018852D01*
X007123Y018852D01*
X007123Y018948D01*
X007511Y018948D01*
X007511Y019219D01*
X007498Y019265D01*
X007475Y019306D01*
X007441Y019339D01*
X007400Y019363D01*
X007354Y019375D01*
X007123Y019375D01*
X007123Y018948D01*
X007027Y018948D01*
X007027Y019375D01*
X006795Y019375D01*
X006749Y019363D01*
X006719Y019345D01*
X006087Y019345D01*
X006052Y019310D01*
X006009Y019328D01*
X005871Y019328D01*
X005743Y019275D01*
X005645Y019177D01*
X005592Y019049D01*
X005592Y018911D01*
X005645Y018783D01*
X005743Y018685D01*
X005871Y018632D01*
X005999Y018632D01*
X005999Y018543D01*
X006087Y018455D01*
X006195Y018455D01*
X006195Y018227D01*
X006183Y018210D01*
X006185Y018202D01*
X006062Y018079D01*
X006015Y018079D01*
X006015Y018154D01*
X006003Y018200D01*
X005979Y018241D01*
X005946Y018275D01*
X005905Y018298D01*
X005859Y018311D01*
X005588Y018311D01*
X005588Y017923D01*
X005492Y017923D01*
X005492Y017827D01*
X005065Y017827D01*
X005065Y017595D01*
X005077Y017549D01*
X005095Y017519D01*
X005095Y016887D01*
X005183Y016799D01*
X005814Y016799D01*
X005814Y016769D01*
X005902Y016681D01*
X006241Y016681D01*
X006241Y016342D01*
X006329Y016254D01*
X006531Y016254D01*
X006502Y016225D01*
X006247Y016225D01*
X006159Y016137D01*
X006159Y015423D01*
X006247Y015335D01*
X006883Y015335D01*
X006900Y015351D01*
X006917Y015335D01*
X007420Y015335D01*
X007420Y014823D01*
X006737Y014140D01*
X006417Y014140D01*
X006300Y014023D01*
X006002Y013725D01*
X005768Y013725D01*
X005680Y013637D01*
X005680Y012883D01*
X005689Y012874D01*
X005689Y012628D01*
X006077Y012628D01*
X006077Y012532D01*
X005689Y012532D01*
X005689Y012261D01*
X005702Y012215D01*
X005725Y012174D01*
X005759Y012141D01*
X005800Y012117D01*
X005846Y012105D01*
X006077Y012105D01*
X006077Y012532D01*
X006173Y012532D01*
X006173Y012105D01*
X006405Y012105D01*
X006451Y012117D01*
X006481Y012135D01*
X006540Y012135D01*
X006540Y012017D01*
X006657Y011900D01*
X006878Y011679D01*
X006885Y011663D01*
X006983Y011565D01*
X007111Y011512D01*
X007249Y011512D01*
X007377Y011565D01*
X007440Y011628D01*
X007503Y011565D01*
X007631Y011512D01*
X007769Y011512D01*
X007897Y011565D01*
X007995Y011663D01*
X008048Y011791D01*
X008048Y011929D01*
X008069Y011917D01*
X008115Y011905D01*
X008347Y011905D01*
X008347Y012332D01*
X008443Y012332D01*
X008443Y012428D01*
X008831Y012428D01*
X008831Y012510D01*
X009105Y012510D01*
X009105Y012885D01*
X009175Y012885D01*
X009175Y012955D01*
X009635Y012955D01*
X009635Y013174D01*
X009623Y013219D01*
X009605Y013250D01*
X009605Y013812D01*
X009517Y013900D01*
X009340Y013900D01*
X009340Y013937D01*
X009423Y014020D01*
X009610Y014020D01*
X009610Y013913D01*
X009698Y013825D01*
X010169Y013825D01*
X010159Y013819D01*
X010125Y013786D01*
X010102Y013745D01*
X010089Y013699D01*
X010089Y013428D01*
X010477Y013428D01*
X010477Y013332D01*
X010089Y013332D01*
X010089Y013061D01*
X010102Y013015D01*
X010125Y012974D01*
X010159Y012941D01*
X010200Y012917D01*
X010246Y012905D01*
X010477Y012905D01*
X010477Y013332D01*
X010573Y013332D01*
X010573Y012905D01*
X010805Y012905D01*
X010851Y012917D01*
X010881Y012935D01*
X011513Y012935D01*
X011601Y013023D01*
X011601Y013150D01*
X011699Y013150D01*
X011791Y013112D01*
X011929Y013112D01*
X012057Y013165D01*
X012155Y013263D01*
X012160Y013274D01*
X012207Y013158D01*
X012333Y013033D01*
X012497Y012965D01*
X012675Y012965D01*
X012839Y013033D01*
X012965Y013158D01*
X013033Y013323D01*
X013033Y013500D01*
X012965Y013665D01*
X012890Y013740D01*
X012890Y014435D01*
X012755Y014570D01*
X012675Y014650D01*
X012655Y014650D01*
X012755Y014750D01*
X012885Y014880D01*
X012925Y014783D01*
X013023Y014685D01*
X013151Y014632D01*
X013243Y014632D01*
X013365Y014510D01*
X013411Y014464D01*
X013405Y014457D01*
X013352Y014329D01*
X013352Y014191D01*
X013405Y014063D01*
X013503Y013965D01*
X013618Y013917D01*
X013601Y013910D01*
X013475Y013785D01*
X013407Y013620D01*
X013407Y013443D01*
X013475Y013278D01*
X013601Y013153D01*
X013765Y013085D01*
X013943Y013085D01*
X014107Y013153D01*
X014233Y013278D01*
X014269Y013368D01*
X014269Y013208D01*
X014657Y013208D01*
X014657Y013112D01*
X014269Y013112D01*
X014269Y012841D01*
X014282Y012795D01*
X014305Y012754D01*
X014309Y012750D01*
X014309Y012508D01*
X014697Y012508D01*
X014697Y012412D01*
X014309Y012412D01*
X014309Y012141D01*
X014322Y012095D01*
X014345Y012054D01*
X014379Y012021D01*
X014420Y011997D01*
X014466Y011985D01*
X014697Y011985D01*
X014697Y012412D01*
X014793Y012412D01*
X014793Y011985D01*
X014932Y011985D01*
X014925Y011977D01*
X014876Y011860D01*
X014870Y011860D01*
X014839Y011878D01*
X014794Y011890D01*
X014660Y011890D01*
X014660Y011460D01*
X014660Y011460D01*
X014660Y011030D01*
X014794Y011030D01*
X014839Y011042D01*
X014870Y011060D01*
X015102Y011060D01*
X014942Y010900D01*
X014868Y010900D01*
X014780Y010812D01*
X014780Y010638D01*
X014770Y010614D01*
X014770Y010136D01*
X014707Y010073D01*
X014707Y008847D01*
X014795Y008759D01*
X015251Y008759D01*
X015235Y008744D01*
X015170Y008586D01*
X015170Y007910D01*
X014560Y007910D01*
X014560Y008190D01*
X014110Y008190D01*
X014110Y008210D01*
X014560Y008210D01*
X014560Y008516D01*
X014549Y008588D01*
X014526Y008657D01*
X014493Y008721D01*
X014466Y008759D01*
X014525Y008759D01*
X014613Y008847D01*
X014613Y010073D01*
X014550Y010136D01*
X014550Y010554D01*
X014540Y010578D01*
X014540Y010812D01*
X014452Y010900D01*
X014108Y010900D01*
X014020Y010812D01*
X014020Y010578D01*
X014010Y010554D01*
X014010Y010161D01*
X013850Y010161D01*
X013762Y010073D01*
X013762Y008847D01*
X013789Y008820D01*
X013749Y008780D01*
X013707Y008721D01*
X013674Y008657D01*
X013651Y008588D01*
X013640Y008516D01*
X013640Y008210D01*
X014090Y008210D01*
X014090Y008190D01*
X013640Y008190D01*
X013640Y007910D01*
X013530Y007910D01*
X013530Y008566D01*
X013465Y008724D01*
X013344Y008845D01*
X013186Y008910D01*
X013014Y008910D01*
X012883Y008856D01*
X012408Y009331D01*
X012480Y009403D01*
X012480Y009941D01*
X012537Y009965D01*
X012635Y010063D01*
X012688Y010191D01*
X012688Y010329D01*
X012635Y010457D01*
X012610Y010482D01*
X012610Y010708D01*
X012729Y010827D01*
X013092Y011190D01*
X014020Y011190D01*
X014020Y011148D01*
X014108Y011060D01*
X014450Y011060D01*
X014481Y011042D01*
X014526Y011030D01*
X014660Y011030D01*
X014660Y011460D01*
X014660Y011460D01*
X014660Y011890D01*
X014526Y011890D01*
X014481Y011878D01*
X014450Y011860D01*
X014108Y011860D01*
X014020Y011772D01*
X014020Y011730D01*
X012932Y011730D01*
X012233Y012429D01*
X012161Y012459D01*
X012161Y012557D01*
X012073Y012645D01*
X011441Y012645D01*
X011411Y012663D01*
X011365Y012675D01*
X011133Y012675D01*
X011133Y012248D01*
X011037Y012248D01*
X011037Y012675D01*
X010806Y012675D01*
X010760Y012663D01*
X010719Y012639D01*
X010685Y012606D01*
X010662Y012565D01*
X010649Y012519D01*
X010649Y012263D01*
X010635Y012297D01*
X010537Y012395D01*
X010409Y012448D01*
X010271Y012448D01*
X010143Y012395D01*
X010045Y012297D01*
X009992Y012169D01*
X009992Y012035D01*
X009980Y012023D01*
X009980Y011217D01*
X010042Y011155D01*
X010006Y011155D01*
X009961Y011143D01*
X009920Y011119D01*
X009886Y011085D01*
X009862Y011044D01*
X009850Y010999D01*
X009850Y010708D01*
X010238Y010708D01*
X010238Y010612D01*
X010334Y010612D01*
X010334Y010165D01*
X010566Y010165D01*
X010611Y010177D01*
X010652Y010201D01*
X010681Y010230D01*
X010716Y010195D01*
X010958Y010195D01*
X010920Y010157D01*
X010920Y009530D01*
X010265Y009530D01*
X010265Y009639D01*
X010283Y009669D01*
X010295Y009715D01*
X010295Y009947D01*
X009868Y009947D01*
X009868Y010043D01*
X009772Y010043D01*
X009772Y010431D01*
X009501Y010431D01*
X009455Y010418D01*
X009414Y010395D01*
X009381Y010361D01*
X009357Y010320D01*
X009345Y010274D01*
X009345Y010043D01*
X009772Y010043D01*
X009772Y009947D01*
X009345Y009947D01*
X009345Y009715D01*
X009357Y009669D01*
X009375Y009639D01*
X009375Y009007D01*
X009463Y008919D01*
X009510Y008919D01*
X009510Y008852D01*
X009508Y008850D01*
X009270Y008850D01*
X009303Y008929D01*
X009303Y009191D01*
X009212Y009410D01*
X009292Y009490D01*
X009292Y009706D01*
X009304Y009734D01*
X009304Y010140D01*
X009263Y010239D01*
X009076Y010426D01*
X009204Y010426D01*
X009292Y010513D01*
X009292Y010952D01*
X009369Y010952D01*
X009497Y011005D01*
X009595Y011103D01*
X009648Y011231D01*
X009648Y011369D01*
X009595Y011497D01*
X009497Y011595D01*
X009369Y011648D01*
X009231Y011648D01*
X009103Y011595D01*
X009005Y011497D01*
X008952Y011369D01*
X008952Y011235D01*
X008915Y011198D01*
X008868Y011198D01*
X008838Y011216D01*
X008792Y011228D01*
X008660Y011228D01*
X008528Y011228D01*
X008482Y011216D01*
X008452Y011198D01*
X008124Y011198D01*
X008123Y011200D01*
X008099Y011241D01*
X008066Y011275D01*
X008025Y011298D01*
X007979Y011311D01*
X007708Y011311D01*
X007708Y010923D01*
X007612Y010923D01*
X007612Y011311D01*
X007341Y011311D01*
X007295Y011298D01*
X007254Y011275D01*
X007221Y011241D01*
X007197Y011200D01*
X007185Y011154D01*
X007185Y010923D01*
X007612Y010923D01*
X007612Y010827D01*
X007185Y010827D01*
X007185Y010595D01*
X007197Y010549D01*
X007215Y010519D01*
X007215Y010450D01*
X007012Y010450D01*
X007010Y010452D01*
X007010Y010998D01*
X007035Y011023D01*
X007088Y011151D01*
X007088Y011289D01*
X007035Y011417D01*
X006937Y011515D01*
X006809Y011568D01*
X006671Y011568D01*
X006543Y011515D01*
X006445Y011417D01*
X006392Y011289D01*
X006392Y011151D01*
X006445Y011023D01*
X006470Y010998D01*
X006470Y010286D01*
X006511Y010187D01*
X006671Y010027D01*
X006747Y009951D01*
X006846Y009910D01*
X007215Y009910D01*
X007215Y009887D01*
X007303Y009799D01*
X008016Y009799D01*
X008016Y009256D01*
X007989Y009191D01*
X007989Y008929D01*
X008016Y008864D01*
X008016Y008740D01*
X008057Y008641D01*
X008271Y008427D01*
X008347Y008351D01*
X008446Y008310D01*
X009674Y008310D01*
X009773Y008351D01*
X009849Y008427D01*
X009849Y008427D01*
X009899Y008477D01*
X009996Y008517D01*
X010083Y008604D01*
X010130Y008718D01*
X010130Y008892D01*
X010148Y008910D01*
X010506Y008910D01*
X010396Y008865D01*
X010275Y008744D01*
X010210Y008586D01*
X010210Y007910D01*
X004034Y007910D01*
X003933Y007920D01*
X004043Y008093D02*
X004054Y008093D01*
X004056Y008092D01*
X004059Y008082D01*
X004090Y008068D01*
X004119Y008048D01*
X004129Y008050D01*
X004131Y008049D01*
X004136Y008040D01*
X004169Y008031D01*
X004200Y008016D01*
X004210Y008020D01*
X004212Y008019D01*
X004219Y008011D01*
X004253Y008008D01*
X004286Y008000D01*
X004295Y008005D01*
X004298Y008005D01*
X004306Y007998D01*
X004340Y008001D01*
X004374Y007998D01*
X004382Y008005D01*
X004385Y008005D01*
X004394Y008000D01*
X004427Y008008D01*
X004461Y008011D01*
X004468Y008019D01*
X004470Y008020D01*
X004480Y008016D01*
X004511Y008031D01*
X004544Y008040D01*
X004549Y008049D01*
X004551Y008050D01*
X004561Y008048D01*
X004590Y008068D01*
X004621Y008082D01*
X004624Y008092D01*
X004626Y008093D01*
X004637Y008093D01*
X004661Y008118D01*
X004689Y008137D01*
X004691Y008148D01*
X004692Y008149D01*
X004703Y008151D01*
X004722Y008179D01*
X004747Y008203D01*
X004747Y008214D01*
X004748Y008216D01*
X004758Y008219D01*
X004772Y008250D01*
X004792Y008279D01*
X004790Y008289D01*
X004791Y008291D01*
X004800Y008296D01*
X004809Y008329D01*
X004824Y008360D01*
X004820Y008370D01*
X004821Y008372D01*
X004829Y008379D01*
X004832Y008413D01*
X004840Y008446D01*
X004835Y008455D01*
X004835Y008458D01*
X004842Y008466D01*
X004839Y008500D01*
X004842Y008534D01*
X004835Y008542D01*
X004835Y008545D01*
X004840Y008554D01*
X004832Y008587D01*
X004829Y008621D01*
X004821Y008628D01*
X004820Y008630D01*
X004824Y008640D01*
X004809Y008671D01*
X004800Y008704D01*
X004791Y008709D01*
X004790Y008711D01*
X004792Y008721D01*
X004772Y008750D01*
X004758Y008781D01*
X004748Y008784D01*
X004747Y008786D01*
X004747Y008797D01*
X004722Y008821D01*
X004703Y008849D01*
X004692Y008851D01*
X004691Y008852D01*
X004689Y008863D01*
X004661Y008882D01*
X004637Y008907D01*
X004626Y008907D01*
X004624Y008908D01*
X004621Y008918D01*
X004590Y008932D01*
X004561Y008952D01*
X004551Y008950D01*
X004549Y008951D01*
X004544Y008960D01*
X004511Y008969D01*
X004480Y008984D01*
X004470Y008980D01*
X004468Y008981D01*
X004461Y008989D01*
X004427Y008992D01*
X004394Y009000D01*
X004385Y008995D01*
X004382Y008995D01*
X004374Y009002D01*
X004340Y008999D01*
X004306Y009002D01*
X004298Y008995D01*
X004295Y008995D01*
X004286Y009000D01*
X004253Y008992D01*
X004219Y008989D01*
X004212Y008981D01*
X004210Y008980D01*
X004200Y008984D01*
X004169Y008969D01*
X004136Y008960D01*
X004131Y008951D01*
X004129Y008950D01*
X004119Y008952D01*
X004090Y008932D01*
X004059Y008918D01*
X004056Y008908D01*
X004054Y008907D01*
X004043Y008907D01*
X004019Y008882D01*
X003991Y008863D01*
X003989Y008852D01*
X003988Y008851D01*
X003977Y008849D01*
X003958Y008821D01*
X003933Y008797D01*
X003933Y008786D01*
X003932Y008784D01*
X003922Y008781D01*
X003908Y008750D01*
X003888Y008721D01*
X003890Y008711D01*
X003889Y008709D01*
X003880Y008704D01*
X003871Y008671D01*
X003856Y008640D01*
X003860Y008630D01*
X003859Y008628D01*
X003851Y008621D01*
X003848Y008587D01*
X003840Y008554D01*
X003845Y008545D01*
X003845Y008542D01*
X003838Y008534D01*
X003841Y008500D01*
X003838Y008466D01*
X003845Y008458D01*
X003845Y008455D01*
X003840Y008446D01*
X003848Y008413D01*
X003851Y008379D01*
X003859Y008372D01*
X003860Y008370D01*
X003856Y008360D01*
X003871Y008329D01*
X003880Y008296D01*
X003889Y008291D01*
X003890Y008289D01*
X003888Y008279D01*
X003908Y008250D01*
X003922Y008219D01*
X003932Y008216D01*
X003933Y008214D01*
X003933Y008203D01*
X003958Y008179D01*
X003977Y008151D01*
X003988Y008149D01*
X003989Y008148D01*
X003991Y008137D01*
X004019Y008118D01*
X004043Y008093D01*
X003962Y008173D02*
X003480Y008173D01*
X003368Y008331D02*
X003870Y008331D01*
X003840Y008490D02*
X003304Y008490D01*
X003272Y008648D02*
X003860Y008648D01*
X003943Y008807D02*
X003272Y008807D01*
X003270Y008965D02*
X004154Y008965D01*
X004526Y008965D02*
X006257Y008965D01*
X006257Y008929D02*
X006357Y008688D01*
X006542Y008503D01*
X006783Y008403D01*
X007045Y008403D01*
X007286Y008503D01*
X007471Y008688D01*
X007571Y008929D01*
X007571Y009191D01*
X007471Y009432D01*
X007286Y009617D01*
X007045Y009717D01*
X006783Y009717D01*
X006542Y009617D01*
X006357Y009432D01*
X006257Y009191D01*
X006257Y008929D01*
X006308Y008807D02*
X004737Y008807D01*
X004820Y008648D02*
X006396Y008648D01*
X006574Y008490D02*
X004840Y008490D01*
X004810Y008331D02*
X008396Y008331D01*
X008209Y008490D02*
X007254Y008490D01*
X007431Y008648D02*
X008054Y008648D01*
X008016Y008807D02*
X007520Y008807D01*
X007571Y008965D02*
X007989Y008965D01*
X007989Y009124D02*
X007571Y009124D01*
X007533Y009282D02*
X008016Y009282D01*
X008016Y009441D02*
X007463Y009441D01*
X007304Y009599D02*
X008016Y009599D01*
X008016Y009758D02*
X003270Y009758D01*
X003270Y009916D02*
X006832Y009916D01*
X006624Y010075D02*
X003270Y010075D01*
X003270Y010233D02*
X006492Y010233D01*
X006470Y010392D02*
X003270Y010392D01*
X003270Y010550D02*
X006470Y010550D01*
X006470Y010709D02*
X003270Y010709D01*
X003270Y010867D02*
X004150Y010867D01*
X004117Y010876D02*
X004380Y010806D01*
X004651Y010806D01*
X004913Y010876D01*
X005149Y011012D01*
X005341Y011204D01*
X005476Y011439D01*
X005547Y011701D01*
X005547Y011972D01*
X005476Y012235D01*
X005341Y012470D01*
X005149Y012662D01*
X004913Y012798D01*
X004651Y012868D01*
X004380Y012868D01*
X004117Y012798D01*
X003882Y012662D01*
X003690Y012470D01*
X003555Y012235D01*
X003484Y011972D01*
X003484Y011701D01*
X003555Y011439D01*
X003690Y011204D01*
X003882Y011012D01*
X004117Y010876D01*
X003868Y011026D02*
X003270Y011026D01*
X003270Y011184D02*
X003710Y011184D01*
X003610Y011343D02*
X003270Y011343D01*
X003270Y011501D02*
X003538Y011501D01*
X003495Y011660D02*
X003270Y011660D01*
X003270Y011818D02*
X003484Y011818D01*
X003485Y011977D02*
X003270Y011977D01*
X003270Y012135D02*
X003528Y012135D01*
X003588Y012294D02*
X003270Y012294D01*
X003270Y012452D02*
X003680Y012452D01*
X003831Y012611D02*
X003270Y012611D01*
X003270Y012769D02*
X004068Y012769D01*
X003270Y012928D02*
X005680Y012928D01*
X005680Y013086D02*
X003270Y013086D01*
X003270Y013245D02*
X005680Y013245D01*
X005680Y013403D02*
X003270Y013403D01*
X003270Y013562D02*
X005680Y013562D01*
X005763Y013720D02*
X003270Y013720D01*
X003270Y013879D02*
X006156Y013879D01*
X006314Y014037D02*
X003270Y014037D01*
X003270Y014196D02*
X006793Y014196D01*
X006951Y014354D02*
X003270Y014354D01*
X003270Y014513D02*
X007110Y014513D01*
X007268Y014671D02*
X003270Y014671D01*
X003270Y014830D02*
X007420Y014830D01*
X007420Y014988D02*
X003270Y014988D01*
X003270Y015147D02*
X007420Y015147D01*
X007420Y015305D02*
X003270Y015305D01*
X003270Y015464D02*
X006159Y015464D01*
X006159Y015622D02*
X003270Y015622D01*
X003270Y015781D02*
X006159Y015781D01*
X006159Y015939D02*
X003270Y015939D01*
X003270Y016098D02*
X006159Y016098D01*
X006327Y016256D02*
X003270Y016256D01*
X003270Y016415D02*
X006241Y016415D01*
X006241Y016573D02*
X003270Y016573D01*
X003270Y016732D02*
X005851Y016732D01*
X005095Y016890D02*
X003270Y016890D01*
X003270Y017049D02*
X005095Y017049D01*
X005095Y017207D02*
X003270Y017207D01*
X003270Y017366D02*
X005095Y017366D01*
X005092Y017524D02*
X003270Y017524D01*
X003270Y017683D02*
X005065Y017683D01*
X005065Y018000D02*
X004978Y018000D01*
X005356Y018317D02*
X006195Y018317D01*
X006141Y018158D02*
X006014Y018158D01*
X005814Y017923D02*
X005588Y017923D01*
X005588Y017827D01*
X005814Y017827D01*
X005814Y017923D01*
X005814Y017841D02*
X005588Y017841D01*
X005635Y017875D02*
X005635Y017940D01*
X005635Y018405D01*
X005460Y018580D01*
X005460Y019220D01*
X005780Y019540D01*
X007300Y019540D01*
X007380Y019620D01*
X007497Y019268D02*
X008175Y019268D01*
X008115Y019426D02*
X005416Y019426D01*
X005491Y019268D02*
X005735Y019268D01*
X005617Y019109D02*
X005533Y019109D01*
X005547Y018951D02*
X005592Y018951D01*
X005547Y018792D02*
X005641Y018792D01*
X005505Y018634D02*
X005867Y018634D01*
X006067Y018475D02*
X005447Y018475D01*
X005492Y018158D02*
X005588Y018158D01*
X005588Y018000D02*
X005492Y018000D01*
X005492Y017841D02*
X003270Y017841D01*
X003270Y018000D02*
X004053Y018000D01*
X003822Y018158D02*
X003270Y018158D01*
X003270Y018317D02*
X003675Y018317D01*
X003584Y018475D02*
X003270Y018475D01*
X003270Y018634D02*
X003526Y018634D01*
X003484Y018792D02*
X003270Y018792D01*
X003270Y018951D02*
X003484Y018951D01*
X003498Y019109D02*
X003270Y019109D01*
X003270Y019268D02*
X003540Y019268D01*
X003615Y019426D02*
X003270Y019426D01*
X003270Y019585D02*
X003718Y019585D01*
X003877Y019743D02*
X003270Y019743D01*
X003270Y019902D02*
X004182Y019902D01*
X004392Y020060D02*
X003270Y020060D01*
X003270Y020219D02*
X004412Y020219D01*
X004525Y020377D02*
X003270Y020377D01*
X003270Y020536D02*
X004670Y020536D01*
X004900Y020260D02*
X004740Y020100D01*
X004900Y020260D02*
X004900Y020900D01*
X005460Y021460D01*
X005460Y022340D01*
X005380Y022420D01*
X004980Y022420D01*
X005460Y022340D02*
X005460Y023940D01*
X006820Y025300D01*
X008660Y025300D01*
X009306Y026242D02*
X003774Y026242D01*
X003627Y026083D02*
X006440Y026083D01*
X006282Y025925D02*
X003506Y025925D01*
X003413Y025766D02*
X006123Y025766D01*
X005965Y025608D02*
X003349Y025608D01*
X003298Y025449D02*
X003529Y025449D01*
X003307Y025291D02*
X003272Y025291D01*
X003871Y025449D02*
X005806Y025449D01*
X005648Y025291D02*
X004093Y025291D01*
X004178Y025132D02*
X005489Y025132D01*
X005331Y024974D02*
X004200Y024974D01*
X004172Y024815D02*
X005172Y024815D01*
X005014Y024657D02*
X004080Y024657D01*
X003843Y024498D02*
X004855Y024498D01*
X004697Y024340D02*
X003270Y024340D01*
X003270Y024498D02*
X003557Y024498D01*
X003565Y024498D02*
X003574Y024498D01*
X003826Y024498D02*
X003835Y024498D01*
X003320Y024657D02*
X003270Y024657D01*
X003270Y024181D02*
X004538Y024181D01*
X004380Y024023D02*
X003270Y024023D01*
X003270Y023864D02*
X004221Y023864D01*
X004220Y023706D02*
X003270Y023706D01*
X003270Y023547D02*
X004220Y023547D01*
X004220Y023389D02*
X003270Y023389D01*
X003270Y023230D02*
X004220Y023230D01*
X004220Y023072D02*
X003270Y023072D01*
X003270Y022913D02*
X004220Y022913D01*
X004220Y022755D02*
X003270Y022755D01*
X003270Y022596D02*
X004220Y022596D01*
X004220Y022438D02*
X003270Y022438D01*
X003270Y022279D02*
X004220Y022279D01*
X004220Y022121D02*
X003270Y022121D01*
X003270Y021962D02*
X004220Y021962D01*
X004220Y021804D02*
X003270Y021804D01*
X003270Y021645D02*
X004220Y021645D01*
X004220Y021487D02*
X003270Y021487D01*
X003270Y021328D02*
X004220Y021328D01*
X004197Y021170D02*
X003270Y021170D01*
X003270Y021011D02*
X004089Y021011D01*
X004072Y020853D02*
X003270Y020853D01*
X003270Y020694D02*
X004134Y020694D01*
X005130Y020694D02*
X005432Y020694D01*
X005455Y020536D02*
X005130Y020536D01*
X005130Y020377D02*
X005571Y020377D01*
X005486Y020219D02*
X005130Y020219D01*
X005088Y020060D02*
X005432Y020060D01*
X005452Y019902D02*
X005034Y019902D01*
X005154Y019743D02*
X005565Y019743D01*
X005313Y019585D02*
X008115Y019585D01*
X008115Y019743D02*
X005995Y019743D01*
X006504Y019902D02*
X008115Y019902D01*
X008131Y020060D02*
X006620Y020060D01*
X006620Y020219D02*
X008115Y020219D01*
X008115Y020377D02*
X006620Y020377D01*
X006620Y020536D02*
X008115Y020536D01*
X008115Y020694D02*
X007505Y020694D01*
X007664Y020853D02*
X008375Y020853D01*
X008375Y021011D02*
X007822Y021011D01*
X007836Y021349D02*
X007386Y020900D01*
X007140Y020900D01*
X006809Y021011D02*
X006700Y021011D01*
X006700Y020853D02*
X006792Y020853D01*
X006854Y020694D02*
X006700Y020694D01*
X005740Y021011D02*
X005336Y021011D01*
X005483Y020853D02*
X005178Y020853D01*
X005495Y021170D02*
X005740Y021170D01*
X005740Y021328D02*
X005653Y021328D01*
X005690Y021487D02*
X005740Y021487D01*
X005740Y021645D02*
X005690Y021645D01*
X005690Y021804D02*
X005740Y021804D01*
X005740Y021962D02*
X005690Y021962D01*
X005690Y022121D02*
X005740Y022121D01*
X005740Y022279D02*
X005690Y022279D01*
X005690Y022438D02*
X005740Y022438D01*
X005740Y022596D02*
X005690Y022596D01*
X005690Y022755D02*
X005740Y022755D01*
X005740Y022913D02*
X005690Y022913D01*
X008284Y021804D02*
X009266Y021804D01*
X009140Y021962D02*
X008405Y021962D01*
X008371Y021731D02*
X007836Y021731D01*
X008149Y021731D01*
X008284Y021645D02*
X009625Y021645D01*
X009654Y021804D02*
X009655Y021804D01*
X009460Y022100D02*
X010085Y022100D01*
X010100Y022115D01*
X010035Y022180D01*
X010100Y022115D02*
X010180Y022195D01*
X009540Y022260D02*
X009460Y022100D01*
X009540Y022260D02*
X009540Y022766D01*
X009075Y022944D02*
X008888Y022944D01*
X008888Y022537D01*
X008752Y022537D01*
X008752Y022944D01*
X008747Y022944D01*
X009075Y023272D01*
X009075Y023196D01*
X009131Y023140D01*
X009075Y023084D01*
X009075Y022944D01*
X009075Y023072D02*
X008874Y023072D01*
X008888Y022913D02*
X008752Y022913D01*
X008752Y022755D02*
X008888Y022755D01*
X008888Y022596D02*
X008752Y022596D01*
X008820Y022469D02*
X008820Y022260D01*
X008860Y022220D01*
X008371Y021731D01*
X008413Y021487D02*
X008254Y021487D01*
X008254Y021328D02*
X008375Y021328D01*
X008375Y021170D02*
X008254Y021170D01*
X008820Y021091D02*
X008900Y021011D01*
X008900Y020660D01*
X008634Y020394D01*
X008580Y020394D01*
X009045Y020377D02*
X009294Y020377D01*
X009136Y020219D02*
X009045Y020219D01*
X009101Y020536D02*
X009453Y020536D01*
X009611Y020694D02*
X009226Y020694D01*
X009265Y020853D02*
X010032Y020853D01*
X010052Y021009D02*
X010052Y021397D01*
X009625Y021397D01*
X009625Y021166D01*
X009637Y021120D01*
X009661Y021079D01*
X009694Y021045D01*
X009735Y021022D01*
X009781Y021009D01*
X010052Y021009D01*
X010052Y021011D02*
X010066Y021011D01*
X010052Y021170D02*
X010148Y021170D01*
X010148Y021328D02*
X010052Y021328D01*
X010100Y021445D02*
X010085Y021460D01*
X010052Y021487D02*
X009227Y021487D01*
X009265Y021328D02*
X009625Y021328D01*
X009625Y021170D02*
X009265Y021170D01*
X009265Y021011D02*
X009775Y021011D01*
X010380Y020860D02*
X010860Y020860D01*
X011380Y021380D01*
X011546Y021380D02*
X011596Y021429D01*
X012044Y021687D02*
X012044Y021811D01*
X011596Y021811D01*
X011596Y021811D01*
X012044Y021811D01*
X012044Y021977D01*
X012039Y021996D01*
X012163Y022121D01*
X012174Y022110D01*
X012215Y022086D01*
X012261Y022074D01*
X012512Y022074D01*
X012512Y022481D01*
X012648Y022481D01*
X012648Y022074D01*
X012899Y022074D01*
X012945Y022086D01*
X012986Y022110D01*
X013019Y022143D01*
X013043Y022184D01*
X013055Y022230D01*
X013055Y022302D01*
X013137Y022220D01*
X013389Y021968D01*
X013311Y021968D01*
X013183Y021915D01*
X013088Y021820D01*
X012177Y021820D01*
X012060Y021703D01*
X012060Y021703D01*
X012044Y021687D01*
X012044Y021804D02*
X012161Y021804D01*
X012044Y021962D02*
X013296Y021962D01*
X013237Y022121D02*
X012997Y022121D01*
X013055Y022279D02*
X013078Y022279D01*
X013420Y022503D02*
X013420Y022903D01*
X013303Y023020D01*
X013100Y023223D01*
X012983Y023340D01*
X012663Y023340D01*
X012183Y023820D01*
X012183Y023820D01*
X012171Y023832D01*
X012245Y023832D01*
X012337Y023740D01*
X012657Y023420D01*
X012977Y023420D01*
X013379Y023018D01*
X013811Y023018D01*
X013797Y022994D01*
X013785Y022948D01*
X013785Y022697D01*
X014192Y022697D01*
X014192Y022561D01*
X013785Y022561D01*
X013785Y022310D01*
X013791Y022288D01*
X013711Y022288D01*
X013657Y022266D01*
X013420Y022503D01*
X013485Y022438D02*
X013785Y022438D01*
X013689Y022279D02*
X013644Y022279D01*
X013420Y022596D02*
X014192Y022596D01*
X014192Y022561D02*
X014328Y022561D01*
X014328Y022154D01*
X014579Y022154D01*
X014625Y022166D01*
X014666Y022190D01*
X014666Y021647D01*
X014617Y021696D01*
X014029Y021696D01*
X014075Y021743D01*
X014128Y021871D01*
X014128Y022009D01*
X014075Y022137D01*
X014059Y022154D01*
X014192Y022154D01*
X014192Y022561D01*
X014192Y022438D02*
X014328Y022438D01*
X014328Y022279D02*
X014192Y022279D01*
X014082Y022121D02*
X014666Y022121D01*
X014666Y022190D02*
X014666Y022190D01*
X014666Y021962D02*
X014128Y021962D01*
X014100Y021804D02*
X014666Y021804D01*
X015084Y021807D02*
X015084Y021426D01*
X015227Y021134D02*
X014754Y021134D01*
X014705Y021183D01*
X014705Y020894D01*
X014664Y020853D01*
X014725Y020792D01*
X014725Y020156D01*
X014669Y020100D01*
X014725Y020044D01*
X014725Y019956D01*
X017715Y019956D01*
X017715Y019980D01*
X017697Y019980D01*
X017580Y020097D01*
X017503Y020174D01*
X017449Y020152D01*
X017311Y020152D01*
X017183Y020205D01*
X017085Y020303D01*
X017032Y020431D01*
X017032Y020466D01*
X017031Y020468D01*
X017031Y020401D01*
X017018Y020355D01*
X016995Y020314D01*
X016961Y020281D01*
X016920Y020257D01*
X016874Y020245D01*
X016643Y020245D01*
X016643Y020672D01*
X016547Y020672D01*
X016547Y020245D01*
X016315Y020245D01*
X016269Y020257D01*
X016239Y020275D01*
X015607Y020275D01*
X015519Y020363D01*
X015519Y020632D01*
X015471Y020632D01*
X015343Y020685D01*
X015245Y020783D01*
X015192Y020911D01*
X015192Y021049D01*
X015227Y021134D01*
X015192Y021011D02*
X014705Y021011D01*
X014705Y021170D02*
X014718Y021170D01*
X015836Y021429D02*
X015925Y021340D01*
X015925Y020720D01*
X015519Y020536D02*
X014725Y020536D01*
X014725Y020694D02*
X015334Y020694D01*
X015216Y020853D02*
X014664Y020853D01*
X014725Y020377D02*
X015519Y020377D01*
X014725Y020219D02*
X017169Y020219D01*
X017054Y020377D02*
X017024Y020377D01*
X016643Y020377D02*
X016547Y020377D01*
X016547Y020536D02*
X016643Y020536D01*
X016595Y020720D02*
X016595Y021511D01*
X016565Y021540D01*
X016294Y021811D01*
X015836Y021811D01*
X016517Y021492D02*
X016613Y021492D01*
X016613Y021065D01*
X016643Y021065D01*
X016643Y020768D01*
X016547Y020768D01*
X016547Y021195D01*
X016517Y021195D01*
X016517Y021492D01*
X016517Y021487D02*
X016613Y021487D01*
X016613Y021328D02*
X016517Y021328D01*
X016547Y021170D02*
X016613Y021170D01*
X016643Y021011D02*
X016547Y021011D01*
X016547Y020853D02*
X016643Y020853D01*
X017617Y020060D02*
X014709Y020060D01*
X014260Y019726D02*
X013646Y019726D01*
X013300Y019380D01*
X011460Y019380D01*
X011060Y018980D01*
X010580Y018980D01*
X010340Y019220D01*
X010020Y019220D01*
X010100Y019300D01*
X010100Y019700D01*
X010660Y020260D01*
X010900Y020260D01*
X011140Y020500D01*
X011406Y020340D01*
X010020Y019220D02*
X009860Y019220D01*
X009380Y018740D01*
X008900Y018740D01*
X008660Y018980D01*
X008660Y019566D01*
X008580Y019646D01*
X008634Y019700D01*
X007123Y019268D02*
X007027Y019268D01*
X007027Y019109D02*
X007123Y019109D01*
X007123Y018951D02*
X007027Y018951D01*
X007060Y018915D02*
X007075Y018900D01*
X007075Y018565D01*
X007140Y018500D01*
X007140Y018263D01*
X007235Y018168D01*
X007140Y018073D01*
X007134Y018073D01*
X007038Y018168D01*
X007049Y018168D02*
X007225Y018168D01*
X007225Y018168D01*
X007049Y018168D01*
X007049Y018168D01*
X007140Y018073D02*
X007140Y017860D01*
X007380Y017620D01*
X007620Y017620D01*
X007675Y017675D01*
X007728Y017675D01*
X007995Y017675D01*
X008180Y017860D01*
X008325Y017860D01*
X008420Y017955D01*
X008372Y018158D02*
X008468Y018158D01*
X008468Y018317D02*
X008372Y018317D01*
X008033Y018475D02*
X009232Y018475D01*
X009074Y018317D02*
X008862Y018317D01*
X008895Y018158D02*
X008915Y018158D01*
X007728Y017665D02*
X007728Y017478D01*
X007728Y017322D01*
X007728Y017282D01*
X007728Y017282D01*
X007728Y017478D01*
X007728Y017478D01*
X007728Y017519D01*
X007728Y017665D01*
X007728Y017665D01*
X007728Y017524D02*
X007728Y017524D01*
X007728Y017478D02*
X007728Y017478D01*
X007728Y017366D02*
X007728Y017366D01*
X007728Y017282D02*
X007728Y017125D01*
X007728Y017085D01*
X007728Y017085D01*
X007728Y017282D01*
X007728Y017282D01*
X007728Y017207D02*
X007728Y017207D01*
X007728Y017085D02*
X007728Y016888D01*
X007728Y016888D01*
X007728Y017085D01*
X007728Y017085D01*
X007728Y017049D02*
X007728Y017049D01*
X007728Y016890D02*
X007728Y016890D01*
X008060Y015900D02*
X008257Y015900D01*
X008220Y015863D01*
X008220Y015057D01*
X008337Y014940D01*
X008857Y014420D01*
X009693Y014420D01*
X009257Y014420D01*
X009057Y014220D01*
X008940Y014103D01*
X008940Y013900D01*
X008763Y013900D01*
X008675Y013812D01*
X008675Y013565D01*
X008654Y013565D01*
X008654Y013589D01*
X008540Y013703D01*
X008423Y013820D01*
X007303Y013820D01*
X007263Y013860D01*
X007943Y014540D01*
X008060Y014657D01*
X008060Y015900D01*
X008060Y015781D02*
X008220Y015781D01*
X008220Y015622D02*
X008060Y015622D01*
X008060Y015464D02*
X008220Y015464D01*
X008220Y015305D02*
X008060Y015305D01*
X008060Y015147D02*
X008220Y015147D01*
X008289Y014988D02*
X008060Y014988D01*
X008060Y014830D02*
X008448Y014830D01*
X008606Y014671D02*
X008060Y014671D01*
X007943Y014540D02*
X007943Y014540D01*
X007915Y014513D02*
X008765Y014513D01*
X009033Y014196D02*
X007598Y014196D01*
X007757Y014354D02*
X009191Y014354D01*
X008940Y014037D02*
X007440Y014037D01*
X007281Y013879D02*
X008741Y013879D01*
X008675Y013720D02*
X008523Y013720D01*
X009539Y013879D02*
X009644Y013879D01*
X009605Y013720D02*
X010095Y013720D01*
X010089Y013562D02*
X009605Y013562D01*
X009605Y013403D02*
X010477Y013403D01*
X010477Y013428D02*
X010477Y013830D01*
X010491Y013822D01*
X010536Y013810D01*
X010573Y013810D01*
X010573Y013428D01*
X010477Y013428D01*
X010477Y013562D02*
X010573Y013562D01*
X010573Y013720D02*
X010477Y013720D01*
X010820Y013851D02*
X010820Y014340D01*
X010980Y014340D01*
X010980Y013825D01*
X010881Y013825D01*
X010851Y013843D01*
X010820Y013851D01*
X010820Y013879D02*
X010980Y013879D01*
X010980Y014037D02*
X010820Y014037D01*
X010820Y014196D02*
X010980Y014196D01*
X010900Y014420D02*
X010040Y014420D01*
X009693Y014420D02*
X009693Y014420D01*
X010382Y015015D02*
X010426Y014971D01*
X010449Y014994D01*
X010491Y015018D01*
X010536Y015030D01*
X010820Y015030D01*
X010820Y014500D01*
X010980Y014500D01*
X010980Y015030D01*
X011264Y015030D01*
X011309Y015018D01*
X011351Y014994D01*
X011374Y014971D01*
X011418Y015015D01*
X011640Y015015D01*
X011665Y015040D01*
X012395Y015040D01*
X012430Y015075D01*
X012430Y016930D01*
X012333Y016970D01*
X012207Y017095D01*
X012139Y017260D01*
X012139Y017437D01*
X012207Y017602D01*
X012333Y017727D01*
X012388Y017750D01*
X011825Y017750D01*
X011825Y017576D01*
X011769Y017520D01*
X011825Y017464D01*
X011825Y017248D01*
X011929Y017248D01*
X012057Y017195D01*
X012155Y017097D01*
X012208Y016969D01*
X012208Y016831D01*
X012155Y016703D01*
X012057Y016605D01*
X011929Y016552D01*
X011791Y016552D01*
X011663Y016605D01*
X011565Y016703D01*
X011549Y016740D01*
X011343Y016740D01*
X010128Y015525D01*
X010128Y015391D01*
X010075Y015263D01*
X009980Y015168D01*
X009980Y015015D01*
X010382Y015015D01*
X010409Y014988D02*
X010443Y014988D01*
X010820Y014988D02*
X010980Y014988D01*
X010980Y014830D02*
X010820Y014830D01*
X010820Y014671D02*
X010980Y014671D01*
X010980Y014513D02*
X010820Y014513D01*
X011357Y014988D02*
X011391Y014988D01*
X011760Y014810D02*
X012490Y014810D01*
X012660Y014980D01*
X012660Y017275D01*
X012586Y017349D01*
X012175Y017524D02*
X011773Y017524D01*
X011825Y017366D02*
X012139Y017366D01*
X012161Y017207D02*
X012028Y017207D01*
X012175Y017049D02*
X012254Y017049D01*
X012208Y016890D02*
X012430Y016890D01*
X012430Y016732D02*
X012167Y016732D01*
X011980Y016573D02*
X012430Y016573D01*
X012430Y016415D02*
X011017Y016415D01*
X011176Y016573D02*
X011740Y016573D01*
X011553Y016732D02*
X011334Y016732D01*
X010859Y016256D02*
X012430Y016256D01*
X012430Y016098D02*
X010700Y016098D01*
X010542Y015939D02*
X012430Y015939D01*
X012430Y015781D02*
X010383Y015781D01*
X010225Y015622D02*
X012430Y015622D01*
X012430Y015464D02*
X010128Y015464D01*
X010093Y015305D02*
X012430Y015305D01*
X012430Y015147D02*
X009980Y015147D01*
X011760Y014420D02*
X012580Y014420D01*
X012660Y014340D01*
X012660Y013485D01*
X012586Y013411D01*
X012172Y013245D02*
X012137Y013245D01*
X012280Y013086D02*
X011601Y013086D01*
X011860Y013460D02*
X012260Y013860D01*
X012260Y014180D01*
X012220Y014220D01*
X011760Y014220D01*
X012676Y014671D02*
X013056Y014671D01*
X012906Y014830D02*
X012835Y014830D01*
X012890Y015093D02*
X012890Y017020D01*
X012965Y017095D01*
X013033Y017260D01*
X013033Y017437D01*
X012965Y017602D01*
X012839Y017727D01*
X012785Y017750D01*
X013114Y017750D01*
X013213Y017791D01*
X013620Y018198D01*
X013903Y017915D01*
X013765Y017915D01*
X013601Y017847D01*
X013475Y017722D01*
X013407Y017557D01*
X013407Y017380D01*
X013470Y017227D01*
X013470Y015642D01*
X013405Y015577D01*
X013352Y015449D01*
X013352Y015311D01*
X013356Y015300D01*
X013289Y015328D01*
X013151Y015328D01*
X013023Y015275D01*
X012925Y015177D01*
X012890Y015093D01*
X012890Y015147D02*
X012912Y015147D01*
X012890Y015305D02*
X013095Y015305D01*
X013345Y015305D02*
X013354Y015305D01*
X013358Y015464D02*
X012890Y015464D01*
X012890Y015622D02*
X013450Y015622D01*
X013470Y015781D02*
X012890Y015781D01*
X012890Y015939D02*
X013470Y015939D01*
X013470Y016098D02*
X012890Y016098D01*
X012890Y016256D02*
X013470Y016256D01*
X013470Y016415D02*
X012890Y016415D01*
X012890Y016573D02*
X013470Y016573D01*
X013470Y016732D02*
X012890Y016732D01*
X012890Y016890D02*
X013470Y016890D01*
X013470Y017049D02*
X012918Y017049D01*
X013011Y017207D02*
X013470Y017207D01*
X013413Y017366D02*
X013033Y017366D01*
X012997Y017524D02*
X013407Y017524D01*
X013459Y017683D02*
X012884Y017683D01*
X013263Y017841D02*
X013594Y017841D01*
X013421Y018000D02*
X013819Y018000D01*
X013660Y018158D02*
X013580Y018158D01*
X013854Y017469D02*
X013700Y017315D01*
X013700Y015380D01*
X013860Y014980D02*
X014285Y015405D01*
X014285Y015460D01*
X013930Y015868D02*
X013930Y017022D01*
X013943Y017022D01*
X014107Y017090D01*
X014233Y017215D01*
X014301Y017380D01*
X014301Y017518D01*
X014911Y016907D01*
X014987Y016831D01*
X015086Y016790D01*
X019192Y016790D01*
X019192Y016671D01*
X019245Y016543D01*
X019343Y016445D01*
X019471Y016392D01*
X019609Y016392D01*
X019737Y016445D01*
X019835Y016543D01*
X019888Y016671D01*
X019888Y016790D01*
X020954Y016790D01*
X020958Y016792D01*
X021049Y016792D01*
X021177Y016845D01*
X021275Y016943D01*
X021328Y017071D01*
X021328Y017209D01*
X021275Y017337D01*
X021192Y017420D01*
X023063Y017420D01*
X023170Y017527D01*
X023170Y009137D01*
X023162Y009110D01*
X023170Y009033D01*
X023170Y008955D01*
X023175Y008941D01*
X023178Y008883D01*
X023143Y008640D01*
X023049Y008414D01*
X022904Y008217D01*
X022714Y008061D01*
X022492Y007957D01*
X022252Y007910D01*
X022206Y007910D01*
X022205Y007910D01*
X022114Y007910D01*
X022024Y007915D01*
X022009Y007910D01*
X021906Y007910D01*
X022050Y008054D01*
X022050Y008426D01*
X021786Y008690D01*
X021414Y008690D01*
X021363Y008640D01*
X021340Y008663D01*
X021340Y008864D01*
X021414Y008790D01*
X021786Y008790D01*
X022050Y009054D01*
X022050Y009426D01*
X021800Y009676D01*
X021800Y009723D01*
X020940Y010583D01*
X020823Y010700D01*
X020060Y010700D01*
X020060Y013783D01*
X019660Y014183D01*
X019660Y015863D01*
X019408Y016115D01*
X019408Y016249D01*
X019355Y016377D01*
X019257Y016475D01*
X019129Y016528D01*
X018991Y016528D01*
X018863Y016475D01*
X018765Y016377D01*
X018712Y016249D01*
X018712Y016111D01*
X018765Y015983D01*
X018863Y015885D01*
X018991Y015832D01*
X019125Y015832D01*
X019260Y015697D01*
X019260Y014183D01*
X019100Y014343D01*
X019100Y014503D01*
X018983Y014620D01*
X018743Y014860D01*
X017192Y014860D01*
X017097Y014955D01*
X016969Y015008D01*
X016951Y015008D01*
X016963Y015020D01*
X017437Y015020D01*
X017525Y015108D01*
X017525Y015670D01*
X017543Y015701D01*
X017555Y015746D01*
X017555Y015965D01*
X017095Y015965D01*
X017095Y016035D01*
X017025Y016035D01*
X017025Y016410D01*
X016721Y016410D01*
X016676Y016398D01*
X016634Y016374D01*
X016601Y016341D01*
X016577Y016299D01*
X016565Y016254D01*
X016565Y016035D01*
X017025Y016035D01*
X017025Y015965D01*
X016565Y015965D01*
X016565Y015746D01*
X016577Y015701D01*
X016595Y015670D01*
X016595Y015218D01*
X016427Y015050D01*
X016422Y015055D01*
X015738Y015055D01*
X015694Y015011D01*
X015671Y015034D01*
X015629Y015058D01*
X015584Y015070D01*
X015364Y015070D01*
X015378Y015095D01*
X015391Y015141D01*
X015391Y015412D01*
X015003Y015412D01*
X015003Y015508D01*
X015391Y015508D01*
X015391Y015779D01*
X015378Y015825D01*
X015355Y015866D01*
X015321Y015899D01*
X015280Y015923D01*
X015234Y015935D01*
X015003Y015935D01*
X015003Y015508D01*
X014907Y015508D01*
X014907Y015935D01*
X014675Y015935D01*
X014629Y015923D01*
X014599Y015905D01*
X013967Y015905D01*
X013930Y015868D01*
X013930Y015939D02*
X016565Y015939D01*
X016565Y015781D02*
X015390Y015781D01*
X015391Y015622D02*
X016595Y015622D01*
X016595Y015464D02*
X015003Y015464D01*
X014955Y015460D02*
X014955Y014845D01*
X015140Y014660D01*
X015140Y014380D02*
X015300Y014380D01*
X015300Y013850D01*
X015584Y013850D01*
X015629Y013862D01*
X015671Y013886D01*
X015694Y013909D01*
X015738Y013865D01*
X016422Y013865D01*
X016427Y013870D01*
X016739Y013870D01*
X016831Y013832D01*
X016969Y013832D01*
X017097Y013885D01*
X017192Y013980D01*
X017533Y013980D01*
X017512Y013929D01*
X017512Y013888D01*
X017391Y013888D01*
X017263Y013835D01*
X017165Y013737D01*
X017112Y013609D01*
X017112Y013471D01*
X017140Y013404D01*
X017023Y013355D01*
X016925Y013257D01*
X016872Y013129D01*
X016872Y012991D01*
X016925Y012863D01*
X017023Y012765D01*
X017151Y012712D01*
X017289Y012712D01*
X017417Y012765D01*
X017512Y012860D01*
X018140Y012860D01*
X018140Y009783D01*
X017617Y009260D01*
X016097Y009260D01*
X015980Y009143D01*
X015743Y008906D01*
X015686Y008930D01*
X015558Y008930D01*
X015558Y010073D01*
X015470Y010161D01*
X015310Y010161D01*
X015310Y010418D01*
X015356Y010437D01*
X015828Y010910D01*
X016579Y010910D01*
X016671Y010872D01*
X016809Y010872D01*
X016937Y010925D01*
X017035Y011023D01*
X017088Y011151D01*
X017088Y011289D01*
X017035Y011417D01*
X016937Y011515D01*
X016809Y011568D01*
X016671Y011568D01*
X016579Y011530D01*
X016330Y011530D01*
X016330Y012242D01*
X016283Y012356D01*
X016196Y012443D01*
X016070Y012568D01*
X015956Y012615D01*
X015821Y012615D01*
X015821Y012817D01*
X015781Y012857D01*
X015781Y013517D01*
X015693Y013605D01*
X015061Y013605D01*
X015031Y013623D01*
X014985Y013635D01*
X014753Y013635D01*
X014753Y013208D01*
X014657Y013208D01*
X014657Y013635D01*
X014426Y013635D01*
X014380Y013623D01*
X014339Y013599D01*
X014305Y013566D01*
X014301Y013557D01*
X014301Y013620D01*
X014291Y013644D01*
X014512Y013865D01*
X014702Y013865D01*
X014746Y013909D01*
X014769Y013886D01*
X014811Y013862D01*
X014856Y013850D01*
X015140Y013850D01*
X015140Y014380D01*
X015140Y014354D02*
X015300Y014354D01*
X015300Y014196D02*
X015140Y014196D01*
X015140Y014037D02*
X015300Y014037D01*
X015300Y013879D02*
X015140Y013879D01*
X014782Y013879D02*
X014716Y013879D01*
X014753Y013562D02*
X014657Y013562D01*
X014657Y013403D02*
X014753Y013403D01*
X014753Y013245D02*
X014657Y013245D01*
X014657Y013112D02*
X014753Y013112D01*
X014753Y012685D01*
X014793Y012685D01*
X014793Y012508D01*
X014697Y012508D01*
X014697Y012935D01*
X014657Y012935D01*
X014657Y013112D01*
X014657Y013086D02*
X014753Y013086D01*
X014753Y012928D02*
X014697Y012928D01*
X014697Y012769D02*
X014753Y012769D01*
X014793Y012611D02*
X014697Y012611D01*
X014697Y012452D02*
X012177Y012452D01*
X012107Y012611D02*
X014309Y012611D01*
X014297Y012769D02*
X009635Y012769D01*
X009635Y012666D02*
X009635Y012885D01*
X009175Y012885D01*
X009175Y012510D01*
X009479Y012510D01*
X009524Y012522D01*
X009566Y012546D01*
X009599Y012579D01*
X009623Y012621D01*
X009635Y012666D01*
X009617Y012611D02*
X010690Y012611D01*
X010649Y012452D02*
X008831Y012452D01*
X008831Y012332D02*
X008443Y012332D01*
X008443Y011905D01*
X008674Y011905D01*
X008720Y011917D01*
X008761Y011941D01*
X008795Y011974D01*
X008818Y012015D01*
X008831Y012061D01*
X008831Y012332D01*
X008831Y012294D02*
X010043Y012294D01*
X009992Y012135D02*
X008831Y012135D01*
X008796Y011977D02*
X009980Y011977D01*
X009980Y011818D02*
X008048Y011818D01*
X007992Y011660D02*
X009980Y011660D01*
X009980Y011501D02*
X009591Y011501D01*
X009648Y011343D02*
X009980Y011343D01*
X010013Y011184D02*
X009629Y011184D01*
X009518Y011026D02*
X009857Y011026D01*
X009850Y010867D02*
X009292Y010867D01*
X009292Y010709D02*
X009850Y010709D01*
X009850Y010612D02*
X009850Y010321D01*
X009862Y010276D01*
X009868Y010266D01*
X009868Y010043D01*
X010295Y010043D01*
X010295Y010274D01*
X010283Y010320D01*
X010259Y010361D01*
X010238Y010382D01*
X010238Y010612D01*
X009850Y010612D01*
X009850Y010550D02*
X009292Y010550D01*
X009411Y010392D02*
X009110Y010392D01*
X009265Y010233D02*
X009345Y010233D01*
X009345Y010075D02*
X009304Y010075D01*
X009304Y009916D02*
X009345Y009916D01*
X009345Y009758D02*
X009304Y009758D01*
X009292Y009599D02*
X009375Y009599D01*
X009375Y009441D02*
X009243Y009441D01*
X009265Y009282D02*
X009375Y009282D01*
X009375Y009124D02*
X009303Y009124D01*
X009303Y008965D02*
X009417Y008965D01*
X010130Y008807D02*
X010338Y008807D01*
X010236Y008648D02*
X010101Y008648D01*
X010210Y008490D02*
X009929Y008490D01*
X009724Y008331D02*
X010210Y008331D01*
X010210Y008173D02*
X004718Y008173D01*
X004463Y008014D02*
X010210Y008014D01*
X012456Y009282D02*
X013762Y009282D01*
X013762Y009124D02*
X012615Y009124D01*
X012773Y008965D02*
X013762Y008965D01*
X013776Y008807D02*
X013382Y008807D01*
X013496Y008648D02*
X013671Y008648D01*
X013640Y008490D02*
X013530Y008490D01*
X013530Y008331D02*
X013640Y008331D01*
X013640Y008173D02*
X013530Y008173D01*
X013530Y008014D02*
X013640Y008014D01*
X014560Y008014D02*
X015170Y008014D01*
X015170Y008173D02*
X014560Y008173D01*
X014560Y008331D02*
X015170Y008331D01*
X015170Y008490D02*
X014560Y008490D01*
X014529Y008648D02*
X015196Y008648D01*
X014747Y008807D02*
X014573Y008807D01*
X014613Y008965D02*
X014707Y008965D01*
X014707Y009124D02*
X014613Y009124D01*
X014613Y009282D02*
X014707Y009282D01*
X014707Y009441D02*
X014613Y009441D01*
X014613Y009599D02*
X014707Y009599D01*
X014707Y009758D02*
X014613Y009758D01*
X014613Y009916D02*
X014707Y009916D01*
X014708Y010075D02*
X014612Y010075D01*
X014550Y010233D02*
X014770Y010233D01*
X014770Y010392D02*
X014550Y010392D01*
X014550Y010550D02*
X014770Y010550D01*
X014780Y010709D02*
X014540Y010709D01*
X014485Y010867D02*
X014835Y010867D01*
X015067Y011026D02*
X012927Y011026D01*
X013086Y011184D02*
X014020Y011184D01*
X014660Y011184D02*
X014660Y011184D01*
X014660Y011343D02*
X014660Y011343D01*
X014660Y011501D02*
X014660Y011501D01*
X014660Y011660D02*
X014660Y011660D01*
X014660Y011818D02*
X014660Y011818D01*
X014925Y011977D02*
X012685Y011977D01*
X012527Y012135D02*
X014311Y012135D01*
X014309Y012294D02*
X012368Y012294D01*
X012844Y011818D02*
X014066Y011818D01*
X014697Y012135D02*
X014793Y012135D01*
X014793Y012294D02*
X014697Y012294D01*
X014269Y012928D02*
X010869Y012928D01*
X010573Y012928D02*
X010477Y012928D01*
X010477Y013086D02*
X010573Y013086D01*
X010573Y013245D02*
X010477Y013245D01*
X010089Y013245D02*
X009608Y013245D01*
X009635Y013086D02*
X010089Y013086D01*
X010182Y012928D02*
X009175Y012928D01*
X009175Y012769D02*
X009105Y012769D01*
X009105Y012611D02*
X009175Y012611D01*
X008443Y012294D02*
X008347Y012294D01*
X008347Y012135D02*
X008443Y012135D01*
X008443Y011977D02*
X008347Y011977D01*
X009009Y011501D02*
X006951Y011501D01*
X006888Y011660D02*
X005536Y011660D01*
X005547Y011818D02*
X006739Y011818D01*
X006581Y011977D02*
X005546Y011977D01*
X005503Y012135D02*
X005769Y012135D01*
X005689Y012294D02*
X005442Y012294D01*
X005351Y012452D02*
X005689Y012452D01*
X005689Y012769D02*
X004963Y012769D01*
X005200Y012611D02*
X006077Y012611D01*
X006077Y012452D02*
X006173Y012452D01*
X006173Y012294D02*
X006077Y012294D01*
X006077Y012135D02*
X006173Y012135D01*
X006529Y011501D02*
X005493Y011501D01*
X005421Y011343D02*
X006414Y011343D01*
X006392Y011184D02*
X005321Y011184D01*
X005163Y011026D02*
X006444Y011026D01*
X006470Y010867D02*
X004881Y010867D01*
X007010Y010867D02*
X007612Y010867D01*
X007612Y011026D02*
X007708Y011026D01*
X007708Y011184D02*
X007612Y011184D01*
X007193Y011184D02*
X007088Y011184D01*
X007066Y011343D02*
X008952Y011343D01*
X008660Y011228D02*
X008660Y010812D01*
X008660Y011228D01*
X008660Y011184D02*
X008660Y011184D01*
X008660Y011026D02*
X008660Y011026D01*
X008660Y010867D02*
X008660Y010867D01*
X008660Y010812D02*
X008660Y010812D01*
X008776Y010812D01*
X008776Y010812D01*
X008660Y010812D01*
X008660Y010812D01*
X008660Y010812D01*
X008544Y010812D01*
X008544Y010812D01*
X008660Y010812D01*
X008660Y010530D01*
X008660Y010530D01*
X008660Y010812D01*
X008660Y010812D01*
X008660Y010709D02*
X008660Y010709D01*
X008660Y010550D02*
X008660Y010550D01*
X009772Y010392D02*
X009850Y010392D01*
X009868Y010233D02*
X009772Y010233D01*
X009772Y010075D02*
X009868Y010075D01*
X010295Y010075D02*
X010920Y010075D01*
X010920Y009916D02*
X010295Y009916D01*
X010295Y009758D02*
X010920Y009758D01*
X010920Y009599D02*
X010265Y009599D01*
X010295Y010233D02*
X010334Y010233D01*
X010334Y010392D02*
X010238Y010392D01*
X010238Y010550D02*
X010334Y010550D01*
X010423Y011340D02*
X010380Y011383D01*
X010380Y011752D01*
X010409Y011752D01*
X010537Y011805D01*
X010635Y011903D01*
X010649Y011937D01*
X010649Y011628D01*
X011037Y011628D01*
X011037Y011532D01*
X010649Y011532D01*
X010649Y011340D01*
X010423Y011340D01*
X010420Y011343D02*
X010649Y011343D01*
X010649Y011501D02*
X010380Y011501D01*
X010380Y011660D02*
X010649Y011660D01*
X010649Y011818D02*
X010550Y011818D01*
X010637Y012294D02*
X010649Y012294D01*
X011037Y012294D02*
X011133Y012294D01*
X011085Y012200D02*
X011085Y011580D01*
X011133Y011628D02*
X011037Y011628D01*
X011037Y012055D01*
X011037Y012152D01*
X011133Y012152D01*
X011133Y011628D01*
X011133Y011660D02*
X011037Y011660D01*
X011037Y011818D02*
X011133Y011818D01*
X011133Y011977D02*
X011037Y011977D01*
X011037Y012135D02*
X011133Y012135D01*
X011133Y012452D02*
X011037Y012452D01*
X011037Y012611D02*
X011133Y012611D01*
X012893Y013086D02*
X013762Y013086D01*
X013946Y013086D02*
X014269Y013086D01*
X014269Y013245D02*
X014199Y013245D01*
X014301Y013562D02*
X014303Y013562D01*
X014367Y013720D02*
X016251Y013720D01*
X016271Y013728D02*
X016143Y013675D01*
X016045Y013577D01*
X015992Y013449D01*
X015992Y013311D01*
X016030Y013219D01*
X016030Y012918D01*
X016077Y012804D01*
X016164Y012717D01*
X017390Y011492D01*
X017390Y010581D01*
X017352Y010489D01*
X017352Y010351D01*
X017405Y010223D01*
X017503Y010125D01*
X017631Y010072D01*
X017769Y010072D01*
X017897Y010125D01*
X017995Y010223D01*
X018048Y010351D01*
X018048Y010489D01*
X018010Y010581D01*
X018010Y011682D01*
X017963Y011796D01*
X016650Y013108D01*
X016650Y013219D01*
X016688Y013311D01*
X016688Y013449D01*
X016635Y013577D01*
X016537Y013675D01*
X016409Y013728D01*
X016271Y013728D01*
X016429Y013720D02*
X017158Y013720D01*
X017112Y013562D02*
X016642Y013562D01*
X016688Y013403D02*
X017138Y013403D01*
X016920Y013245D02*
X016661Y013245D01*
X016672Y013086D02*
X016872Y013086D01*
X016898Y012928D02*
X016831Y012928D01*
X016989Y012769D02*
X017019Y012769D01*
X017148Y012611D02*
X018140Y012611D01*
X018140Y012769D02*
X017421Y012769D01*
X017306Y012452D02*
X018140Y012452D01*
X018140Y012294D02*
X017465Y012294D01*
X017623Y012135D02*
X018140Y012135D01*
X018140Y011977D02*
X017782Y011977D01*
X017940Y011818D02*
X018140Y011818D01*
X018140Y011660D02*
X018010Y011660D01*
X018010Y011501D02*
X018140Y011501D01*
X018140Y011343D02*
X018010Y011343D01*
X018010Y011184D02*
X018140Y011184D01*
X018140Y011026D02*
X018010Y011026D01*
X018010Y010867D02*
X018140Y010867D01*
X018140Y010709D02*
X018010Y010709D01*
X018023Y010550D02*
X018140Y010550D01*
X018140Y010392D02*
X018048Y010392D01*
X017999Y010233D02*
X018140Y010233D01*
X018140Y010075D02*
X017776Y010075D01*
X017624Y010075D02*
X015557Y010075D01*
X015558Y009916D02*
X018140Y009916D01*
X018115Y009758D02*
X015558Y009758D01*
X015558Y009599D02*
X017956Y009599D01*
X017798Y009441D02*
X015558Y009441D01*
X015558Y009282D02*
X017639Y009282D01*
X017888Y008965D02*
X018239Y008965D01*
X018150Y009054D02*
X018414Y008790D01*
X018786Y008790D01*
X019050Y009054D01*
X019050Y009347D01*
X019150Y009247D01*
X019150Y009054D01*
X019414Y008790D01*
X019786Y008790D01*
X019900Y008904D01*
X019900Y008576D01*
X019786Y008690D01*
X019414Y008690D01*
X019150Y008426D01*
X019150Y008073D01*
X019057Y007980D01*
X019019Y007980D01*
X019080Y008041D01*
X019080Y008220D01*
X018620Y008220D01*
X018620Y008260D01*
X018580Y008260D01*
X018580Y008720D01*
X018401Y008720D01*
X018120Y008439D01*
X018120Y008260D01*
X018580Y008260D01*
X018580Y008220D01*
X018120Y008220D01*
X018120Y008041D01*
X018181Y007980D01*
X017543Y007980D01*
X017103Y008420D01*
X017030Y008420D01*
X017030Y008586D01*
X016965Y008744D01*
X016848Y008860D01*
X017783Y008860D01*
X018150Y009227D01*
X018150Y009054D01*
X018150Y009124D02*
X018046Y009124D01*
X018961Y008965D02*
X019239Y008965D01*
X019150Y009124D02*
X019050Y009124D01*
X019050Y009282D02*
X019115Y009282D01*
X019397Y008807D02*
X018803Y008807D01*
X018799Y008720D02*
X018620Y008720D01*
X018620Y008260D01*
X019080Y008260D01*
X019080Y008439D01*
X018799Y008720D01*
X018871Y008648D02*
X019372Y008648D01*
X019213Y008490D02*
X019029Y008490D01*
X019080Y008331D02*
X019150Y008331D01*
X019150Y008173D02*
X019080Y008173D01*
X019091Y008014D02*
X019053Y008014D01*
X018620Y008331D02*
X018580Y008331D01*
X018580Y008490D02*
X018620Y008490D01*
X018620Y008648D02*
X018580Y008648D01*
X018397Y008807D02*
X016902Y008807D01*
X017004Y008648D02*
X018329Y008648D01*
X018171Y008490D02*
X017030Y008490D01*
X017192Y008331D02*
X018120Y008331D01*
X018120Y008173D02*
X017350Y008173D01*
X017509Y008014D02*
X018147Y008014D01*
X019828Y008648D02*
X019900Y008648D01*
X019900Y008807D02*
X019803Y008807D01*
X021340Y008807D02*
X021397Y008807D01*
X021372Y008648D02*
X021355Y008648D01*
X021828Y008648D02*
X023144Y008648D01*
X023167Y008807D02*
X021803Y008807D01*
X021961Y008965D02*
X023170Y008965D01*
X023166Y009124D02*
X022050Y009124D01*
X022050Y009282D02*
X023170Y009282D01*
X023170Y009441D02*
X022036Y009441D01*
X021877Y009599D02*
X023170Y009599D01*
X023170Y009758D02*
X021765Y009758D01*
X021607Y009916D02*
X022214Y009916D01*
X022217Y009911D02*
X022228Y009909D01*
X022229Y009908D01*
X022231Y009897D01*
X022259Y009878D01*
X022283Y009853D01*
X022294Y009853D01*
X022296Y009852D01*
X022299Y009842D01*
X022330Y009828D01*
X022359Y009808D01*
X022369Y009810D01*
X022371Y009809D01*
X022376Y009800D01*
X022409Y009791D01*
X022440Y009776D01*
X022450Y009780D01*
X022452Y009779D01*
X022459Y009771D01*
X022493Y009768D01*
X022526Y009760D01*
X022535Y009765D01*
X022538Y009765D01*
X022546Y009758D01*
X022580Y009761D01*
X022614Y009758D01*
X022622Y009765D01*
X022625Y009765D01*
X022634Y009760D01*
X022667Y009768D01*
X022701Y009771D01*
X022708Y009779D01*
X022710Y009780D01*
X022720Y009776D01*
X022751Y009791D01*
X022784Y009800D01*
X022789Y009809D01*
X022791Y009810D01*
X022801Y009808D01*
X022830Y009828D01*
X022861Y009842D01*
X022864Y009852D01*
X022866Y009853D01*
X022877Y009853D01*
X022901Y009878D01*
X022929Y009897D01*
X022931Y009908D01*
X022932Y009909D01*
X022943Y009911D01*
X022962Y009939D01*
X022987Y009963D01*
X022987Y009974D01*
X022988Y009976D01*
X022998Y009979D01*
X023012Y010010D01*
X023032Y010039D01*
X023030Y010049D01*
X023031Y010051D01*
X023040Y010056D01*
X023049Y010089D01*
X023064Y010120D01*
X023060Y010130D01*
X023061Y010132D01*
X023069Y010139D01*
X023072Y010173D01*
X023080Y010206D01*
X023075Y010215D01*
X023075Y010218D01*
X023082Y010226D01*
X023079Y010260D01*
X023082Y010294D01*
X023075Y010302D01*
X023075Y010305D01*
X023080Y010314D01*
X023072Y010347D01*
X023069Y010381D01*
X023061Y010388D01*
X023060Y010390D01*
X023064Y010400D01*
X023049Y010431D01*
X023040Y010464D01*
X023031Y010469D01*
X023030Y010471D01*
X023032Y010481D01*
X023012Y010510D01*
X022998Y010541D01*
X022988Y010544D01*
X022987Y010546D01*
X022987Y010557D01*
X022962Y010581D01*
X022943Y010609D01*
X022932Y010611D01*
X022931Y010612D01*
X022929Y010623D01*
X022901Y010642D01*
X022877Y010667D01*
X022866Y010667D01*
X022864Y010668D01*
X022861Y010678D01*
X022830Y010692D01*
X022801Y010712D01*
X022791Y010710D01*
X022789Y010711D01*
X022784Y010720D01*
X022751Y010729D01*
X022720Y010744D01*
X022710Y010740D01*
X022708Y010741D01*
X022701Y010749D01*
X022667Y010752D01*
X022634Y010760D01*
X022625Y010755D01*
X022622Y010755D01*
X022614Y010762D01*
X022580Y010759D01*
X022546Y010762D01*
X022538Y010755D01*
X022535Y010755D01*
X022526Y010760D01*
X022493Y010752D01*
X022459Y010749D01*
X022452Y010741D01*
X022450Y010740D01*
X022440Y010744D01*
X022409Y010729D01*
X022376Y010720D01*
X022371Y010711D01*
X022369Y010710D01*
X022359Y010712D01*
X022330Y010692D01*
X022299Y010678D01*
X022296Y010668D01*
X022294Y010667D01*
X022283Y010667D01*
X022259Y010642D01*
X022231Y010623D01*
X022229Y010612D01*
X022228Y010611D01*
X022217Y010609D01*
X022198Y010581D01*
X022173Y010557D01*
X022173Y010546D01*
X022172Y010544D01*
X022162Y010541D01*
X022148Y010510D01*
X022128Y010481D01*
X022130Y010471D01*
X022129Y010469D01*
X022120Y010464D01*
X022111Y010431D01*
X022096Y010400D01*
X022100Y010390D01*
X022099Y010388D01*
X022091Y010381D01*
X022088Y010347D01*
X022080Y010314D01*
X022085Y010305D01*
X022085Y010302D01*
X022078Y010294D01*
X022081Y010260D01*
X022078Y010226D01*
X022085Y010218D01*
X022085Y010215D01*
X022080Y010206D01*
X022088Y010173D01*
X022091Y010139D01*
X022099Y010132D01*
X022100Y010130D01*
X022096Y010120D01*
X022111Y010089D01*
X022120Y010056D01*
X022129Y010051D01*
X022130Y010049D01*
X022128Y010039D01*
X022148Y010010D01*
X022162Y009979D01*
X022172Y009976D01*
X022173Y009974D01*
X022173Y009963D01*
X022198Y009939D01*
X022217Y009911D01*
X022115Y010075D02*
X021448Y010075D01*
X021290Y010233D02*
X022079Y010233D01*
X022099Y010392D02*
X021131Y010392D01*
X020973Y010550D02*
X022173Y010550D01*
X022354Y010709D02*
X020060Y010709D01*
X020060Y010867D02*
X023170Y010867D01*
X023170Y010709D02*
X022806Y010709D01*
X022987Y010550D02*
X023170Y010550D01*
X023170Y010392D02*
X023061Y010392D01*
X023081Y010233D02*
X023170Y010233D01*
X023170Y010075D02*
X023045Y010075D01*
X022946Y009916D02*
X023170Y009916D01*
X023170Y011026D02*
X022374Y011026D01*
X022323Y010996D02*
X022558Y011132D01*
X022750Y011324D01*
X022885Y011559D01*
X022956Y011821D01*
X022956Y012092D01*
X022885Y012355D01*
X022750Y012590D01*
X022558Y012782D01*
X022323Y012918D01*
X022060Y012988D01*
X021789Y012988D01*
X021527Y012918D01*
X021291Y012782D01*
X021099Y012590D01*
X020964Y012355D01*
X020893Y012092D01*
X020893Y011821D01*
X020964Y011559D01*
X021099Y011324D01*
X021291Y011132D01*
X021527Y010996D01*
X021789Y010926D01*
X022060Y010926D01*
X022323Y010996D01*
X022610Y011184D02*
X023170Y011184D01*
X023170Y011343D02*
X022761Y011343D01*
X022852Y011501D02*
X023170Y011501D01*
X023170Y011660D02*
X022912Y011660D01*
X022955Y011818D02*
X023170Y011818D01*
X023170Y011977D02*
X022956Y011977D01*
X022944Y012135D02*
X023170Y012135D01*
X023170Y012294D02*
X022902Y012294D01*
X022829Y012452D02*
X023170Y012452D01*
X023170Y012611D02*
X022729Y012611D01*
X022571Y012769D02*
X023170Y012769D01*
X023170Y012928D02*
X022286Y012928D01*
X021564Y012928D02*
X020060Y012928D01*
X020060Y013086D02*
X023170Y013086D01*
X023170Y013245D02*
X020060Y013245D01*
X020060Y013403D02*
X023170Y013403D01*
X023170Y013562D02*
X020060Y013562D01*
X020060Y013720D02*
X023170Y013720D01*
X023170Y013879D02*
X019964Y013879D01*
X019806Y014037D02*
X023170Y014037D01*
X023170Y014196D02*
X019660Y014196D01*
X019660Y014354D02*
X023170Y014354D01*
X023170Y014513D02*
X019660Y014513D01*
X019660Y014671D02*
X023170Y014671D01*
X023170Y014830D02*
X019660Y014830D01*
X019660Y014988D02*
X023170Y014988D01*
X023170Y015147D02*
X019660Y015147D01*
X019660Y015305D02*
X023170Y015305D01*
X023170Y015464D02*
X019660Y015464D01*
X019660Y015622D02*
X023170Y015622D01*
X023170Y015781D02*
X019660Y015781D01*
X019584Y015939D02*
X023170Y015939D01*
X023170Y016098D02*
X019425Y016098D01*
X019405Y016256D02*
X023170Y016256D01*
X023170Y016415D02*
X019664Y016415D01*
X019848Y016573D02*
X023170Y016573D01*
X023170Y016732D02*
X019888Y016732D01*
X019416Y016415D02*
X019318Y016415D01*
X019232Y016573D02*
X013930Y016573D01*
X013930Y016415D02*
X018802Y016415D01*
X018715Y016256D02*
X017554Y016256D01*
X017555Y016254D02*
X017543Y016299D01*
X017519Y016341D01*
X017486Y016374D01*
X017444Y016398D01*
X017399Y016410D01*
X017095Y016410D01*
X017095Y016035D01*
X017555Y016035D01*
X017555Y016254D01*
X017555Y016098D02*
X018717Y016098D01*
X018809Y015939D02*
X017555Y015939D01*
X017555Y015781D02*
X019177Y015781D01*
X019260Y015622D02*
X017525Y015622D01*
X017525Y015464D02*
X019260Y015464D01*
X019260Y015305D02*
X017525Y015305D01*
X017525Y015147D02*
X019260Y015147D01*
X019260Y014988D02*
X017018Y014988D01*
X016524Y015147D02*
X015391Y015147D01*
X015391Y015305D02*
X016595Y015305D01*
X016565Y016098D02*
X013930Y016098D01*
X013930Y016256D02*
X016566Y016256D01*
X017025Y016256D02*
X017095Y016256D01*
X017095Y016098D02*
X017025Y016098D01*
X015003Y015781D02*
X014907Y015781D01*
X014907Y015622D02*
X015003Y015622D01*
X013860Y014980D02*
X013700Y014980D01*
X013460Y014740D01*
X013220Y014980D01*
X013460Y014740D02*
X013540Y014660D01*
X014360Y014660D01*
X013365Y014510D02*
X013365Y014510D01*
X013362Y014513D02*
X012813Y014513D01*
X012890Y014354D02*
X013362Y014354D01*
X013352Y014196D02*
X012890Y014196D01*
X012890Y014037D02*
X013431Y014037D01*
X013569Y013879D02*
X012890Y013879D01*
X012910Y013720D02*
X013448Y013720D01*
X013407Y013562D02*
X013008Y013562D01*
X013033Y013403D02*
X013423Y013403D01*
X013509Y013245D02*
X013001Y013245D01*
X013854Y013531D02*
X014334Y014011D01*
X014334Y014044D01*
X014360Y014070D01*
X015658Y013879D02*
X015724Y013879D01*
X015736Y013562D02*
X016038Y013562D01*
X015992Y013403D02*
X015781Y013403D01*
X015781Y013245D02*
X016019Y013245D01*
X016030Y013086D02*
X015781Y013086D01*
X015781Y012928D02*
X016030Y012928D01*
X016113Y012769D02*
X015821Y012769D01*
X015968Y012611D02*
X016271Y012611D01*
X016186Y012452D02*
X016430Y012452D01*
X016309Y012294D02*
X016588Y012294D01*
X016747Y012135D02*
X016330Y012135D01*
X016330Y011977D02*
X016905Y011977D01*
X017064Y011818D02*
X016330Y011818D01*
X016330Y011660D02*
X017222Y011660D01*
X017381Y011501D02*
X016951Y011501D01*
X017066Y011343D02*
X017390Y011343D01*
X017390Y011184D02*
X017088Y011184D01*
X017036Y011026D02*
X017390Y011026D01*
X017390Y010867D02*
X015785Y010867D01*
X015627Y010709D02*
X017390Y010709D01*
X017377Y010550D02*
X015468Y010550D01*
X015310Y010392D02*
X017352Y010392D01*
X017401Y010233D02*
X015310Y010233D01*
X014010Y010233D02*
X012688Y010233D01*
X012662Y010392D02*
X014010Y010392D01*
X014010Y010550D02*
X012610Y010550D01*
X012610Y010709D02*
X014020Y010709D01*
X014075Y010867D02*
X012769Y010867D01*
X012640Y010075D02*
X013763Y010075D01*
X013762Y009916D02*
X012480Y009916D01*
X012480Y009758D02*
X013762Y009758D01*
X013762Y009599D02*
X012480Y009599D01*
X012480Y009441D02*
X013762Y009441D01*
X015558Y009124D02*
X015961Y009124D01*
X015802Y008965D02*
X015558Y008965D01*
X020060Y011026D02*
X021475Y011026D01*
X021239Y011184D02*
X020060Y011184D01*
X020060Y011343D02*
X021088Y011343D01*
X020997Y011501D02*
X020060Y011501D01*
X020060Y011660D02*
X020937Y011660D01*
X020894Y011818D02*
X020060Y011818D01*
X020060Y011977D02*
X020893Y011977D01*
X020905Y012135D02*
X020060Y012135D01*
X020060Y012294D02*
X020947Y012294D01*
X021020Y012452D02*
X020060Y012452D01*
X020060Y012611D02*
X021120Y012611D01*
X021279Y012769D02*
X020060Y012769D01*
X017368Y013879D02*
X017082Y013879D01*
X018773Y014830D02*
X019260Y014830D01*
X019260Y014671D02*
X018932Y014671D01*
X019090Y014513D02*
X019260Y014513D01*
X019260Y014354D02*
X019100Y014354D01*
X019247Y014196D02*
X019260Y014196D01*
X019192Y016732D02*
X013930Y016732D01*
X013930Y016890D02*
X014928Y016890D01*
X014770Y017049D02*
X014007Y017049D01*
X014224Y017207D02*
X014611Y017207D01*
X014453Y017366D02*
X014295Y017366D01*
X012288Y017683D02*
X011825Y017683D01*
X011486Y018020D02*
X011360Y017894D01*
X010580Y017894D02*
X010294Y017894D01*
X008681Y018634D02*
X008048Y018634D01*
X007980Y018792D02*
X008523Y018792D01*
X008430Y018951D02*
X007511Y018951D01*
X007511Y019109D02*
X008430Y019109D01*
X007123Y018852D02*
X007123Y018535D01*
X007119Y018536D01*
X007038Y018536D01*
X007027Y018536D01*
X007027Y018852D01*
X007123Y018852D01*
X007123Y018792D02*
X007027Y018792D01*
X007027Y018634D02*
X007123Y018634D01*
X007038Y018536D02*
X007038Y018471D01*
X007038Y018536D01*
X007038Y018475D02*
X007038Y018475D01*
X007038Y018471D02*
X007038Y018471D01*
X006405Y018900D02*
X006020Y018900D01*
X005940Y018980D01*
X006152Y017478D02*
X005955Y017282D01*
X005460Y017282D01*
X005376Y017282D01*
X014260Y019726D02*
X018100Y019726D01*
X018180Y019806D01*
X017860Y019486D01*
X017860Y019060D01*
X018020Y018900D01*
X018387Y018900D01*
X018813Y018951D02*
X018892Y018951D01*
X018915Y018927D02*
X019591Y018927D01*
X019679Y019015D01*
X019679Y019533D01*
X019591Y019621D01*
X019455Y019621D01*
X019453Y019630D01*
X019453Y019696D01*
X019445Y019704D01*
X019445Y020124D01*
X019389Y020180D01*
X019445Y020236D01*
X019445Y020270D01*
X019525Y020190D01*
X019685Y020030D01*
X020835Y020030D01*
X020970Y020165D01*
X020995Y020190D01*
X021438Y020190D01*
X021503Y020125D01*
X021631Y020072D01*
X021769Y020072D01*
X021897Y020125D01*
X021995Y020223D01*
X022048Y020351D01*
X022048Y020489D01*
X021995Y020617D01*
X021897Y020715D01*
X021769Y020768D01*
X021631Y020768D01*
X021503Y020715D01*
X021438Y020650D01*
X020805Y020650D01*
X020771Y020616D01*
X020771Y020792D01*
X020383Y020792D01*
X020383Y020888D01*
X020771Y020888D01*
X020771Y021159D01*
X020758Y021205D01*
X020735Y021246D01*
X020701Y021279D01*
X020660Y021303D01*
X020614Y021315D01*
X020383Y021315D01*
X020383Y020888D01*
X020287Y020888D01*
X020287Y021315D01*
X020094Y021315D01*
X020094Y021569D01*
X020111Y021600D01*
X020124Y021646D01*
X020124Y021811D01*
X019676Y021811D01*
X019676Y021811D01*
X020124Y021811D01*
X020124Y021977D01*
X020119Y021993D01*
X020196Y021993D01*
X020343Y022140D01*
X020460Y022257D01*
X020460Y022977D01*
X020583Y023100D01*
X020700Y023217D01*
X020700Y023424D01*
X020854Y023270D01*
X021226Y023270D01*
X021490Y023534D01*
X021490Y023906D01*
X021336Y024060D01*
X021383Y024060D01*
X021660Y024337D01*
X021660Y024464D01*
X021854Y024270D01*
X022226Y024270D01*
X022380Y024424D01*
X022380Y024423D01*
X022127Y024170D01*
X021854Y024170D01*
X021590Y023906D01*
X021590Y023534D01*
X021854Y023270D01*
X022226Y023270D01*
X022490Y023534D01*
X022490Y023906D01*
X022460Y023937D01*
X022663Y024140D01*
X022675Y024152D01*
X022700Y024128D01*
X022700Y024080D01*
X022603Y024080D01*
X022515Y023992D01*
X022515Y023356D01*
X022571Y023300D01*
X022515Y023244D01*
X022515Y022920D01*
X022476Y022920D01*
X022226Y023170D01*
X021854Y023170D01*
X021590Y022906D01*
X021590Y022534D01*
X021854Y022270D01*
X022226Y022270D01*
X022476Y022520D01*
X022857Y022520D01*
X023170Y022520D01*
X023170Y021088D01*
X023151Y021088D01*
X023023Y021035D01*
X022925Y020937D01*
X022872Y020809D01*
X022872Y020671D01*
X022925Y020543D01*
X023020Y020448D01*
X023020Y017943D01*
X022897Y017820D01*
X019592Y017820D01*
X019497Y017915D01*
X019369Y017968D01*
X019253Y017968D01*
X019464Y018179D01*
X019591Y018179D01*
X019679Y018267D01*
X019679Y018785D01*
X019591Y018873D01*
X018915Y018873D01*
X018827Y018785D01*
X018827Y018267D01*
X018865Y018230D01*
X018805Y018170D01*
X018670Y018035D01*
X018670Y017330D01*
X017502Y017330D01*
X017515Y017343D01*
X017568Y017471D01*
X017568Y017609D01*
X017529Y017705D01*
X017577Y017725D01*
X017675Y017823D01*
X017728Y017951D01*
X017728Y018089D01*
X017675Y018217D01*
X017577Y018315D01*
X017449Y018368D01*
X017311Y018368D01*
X017183Y018315D01*
X017088Y018220D01*
X016663Y018220D01*
X016700Y018257D01*
X016700Y018257D01*
X016743Y018300D01*
X016860Y018417D01*
X016860Y018823D01*
X016448Y019235D01*
X016448Y019369D01*
X016396Y019496D01*
X017630Y019496D01*
X017630Y018965D01*
X017765Y018830D01*
X017925Y018670D01*
X017961Y018670D01*
X017961Y018641D01*
X018049Y018553D01*
X018725Y018553D01*
X018813Y018641D01*
X018813Y019159D01*
X018725Y019247D01*
X018090Y019247D01*
X018090Y019391D01*
X018099Y019400D01*
X018557Y019400D01*
X018580Y019423D01*
X018603Y019400D01*
X018827Y019400D01*
X018827Y019015D01*
X018915Y018927D01*
X018835Y018792D02*
X018813Y018792D01*
X018805Y018634D02*
X018827Y018634D01*
X018827Y018475D02*
X016860Y018475D01*
X016860Y018634D02*
X017969Y018634D01*
X017803Y018792D02*
X016860Y018792D01*
X016732Y018951D02*
X017644Y018951D01*
X017630Y019109D02*
X016574Y019109D01*
X016448Y019268D02*
X017630Y019268D01*
X017630Y019426D02*
X016425Y019426D01*
X018090Y019268D02*
X018827Y019268D01*
X018813Y019109D02*
X018827Y019109D01*
X019253Y018526D02*
X019253Y018293D01*
X018900Y017940D01*
X018900Y017380D01*
X019220Y017060D01*
X018670Y017366D02*
X017525Y017366D01*
X017568Y017524D02*
X018670Y017524D01*
X018670Y017683D02*
X017538Y017683D01*
X017683Y017841D02*
X018670Y017841D01*
X018670Y018000D02*
X017728Y018000D01*
X017700Y018158D02*
X018793Y018158D01*
X018827Y018317D02*
X017574Y018317D01*
X017186Y018317D02*
X016759Y018317D01*
X016743Y018300D02*
X016743Y018300D01*
X019285Y018000D02*
X023020Y018000D01*
X023020Y018158D02*
X022454Y018158D01*
X022558Y018218D02*
X022750Y018410D01*
X022885Y018645D01*
X022956Y018908D01*
X022956Y019179D01*
X022885Y019441D01*
X022750Y019676D01*
X022558Y019868D01*
X022323Y020004D01*
X022060Y020074D01*
X021789Y020074D01*
X021527Y020004D01*
X021291Y019868D01*
X021099Y019676D01*
X020964Y019441D01*
X020893Y019179D01*
X020893Y018908D01*
X020964Y018645D01*
X021099Y018410D01*
X021291Y018218D01*
X021527Y018082D01*
X021789Y018012D01*
X022060Y018012D01*
X022323Y018082D01*
X022558Y018218D01*
X022656Y018317D02*
X023020Y018317D01*
X023020Y018475D02*
X022787Y018475D01*
X022879Y018634D02*
X023020Y018634D01*
X023020Y018792D02*
X022925Y018792D01*
X022956Y018951D02*
X023020Y018951D01*
X023020Y019109D02*
X022956Y019109D01*
X022932Y019268D02*
X023020Y019268D01*
X023020Y019426D02*
X022890Y019426D01*
X022803Y019585D02*
X023020Y019585D01*
X023020Y019743D02*
X022683Y019743D01*
X022500Y019902D02*
X023020Y019902D01*
X023020Y020060D02*
X022114Y020060D01*
X021991Y020219D02*
X023020Y020219D01*
X023020Y020377D02*
X022048Y020377D01*
X022029Y020536D02*
X022932Y020536D01*
X022872Y020694D02*
X021918Y020694D01*
X021700Y020420D02*
X020900Y020420D01*
X020740Y020260D01*
X019780Y020260D01*
X019620Y020420D01*
X019620Y020795D01*
X019665Y020840D01*
X020287Y021011D02*
X020383Y021011D01*
X020383Y020853D02*
X022890Y020853D01*
X022999Y021011D02*
X020771Y021011D01*
X020768Y021170D02*
X023170Y021170D01*
X023170Y021328D02*
X022284Y021328D01*
X022226Y021270D02*
X022490Y021534D01*
X022490Y021906D01*
X022226Y022170D01*
X021854Y022170D01*
X021590Y021906D01*
X021590Y021534D01*
X021854Y021270D01*
X022226Y021270D01*
X022443Y021487D02*
X023170Y021487D01*
X023170Y021645D02*
X022490Y021645D01*
X022490Y021804D02*
X023170Y021804D01*
X023170Y021962D02*
X022434Y021962D01*
X022276Y022121D02*
X023170Y022121D01*
X023170Y022279D02*
X022235Y022279D01*
X022394Y022438D02*
X023170Y022438D01*
X022857Y022520D02*
X022857Y022520D01*
X022515Y023072D02*
X022325Y023072D01*
X022515Y023230D02*
X020700Y023230D01*
X020700Y023389D02*
X020735Y023389D01*
X020854Y023170D02*
X020590Y022906D01*
X020590Y022534D01*
X020854Y022270D01*
X021226Y022270D01*
X021490Y022534D01*
X021490Y022906D01*
X021226Y023170D01*
X020854Y023170D01*
X020755Y023072D02*
X020554Y023072D01*
X020597Y022913D02*
X020460Y022913D01*
X020460Y022755D02*
X020590Y022755D01*
X020590Y022596D02*
X020460Y022596D01*
X020460Y022438D02*
X020686Y022438D01*
X020845Y022279D02*
X020460Y022279D01*
X020323Y022121D02*
X020762Y022121D01*
X020841Y022200D02*
X020560Y021919D01*
X020560Y021740D01*
X021020Y021740D01*
X021020Y022200D01*
X020841Y022200D01*
X021020Y022121D02*
X021060Y022121D01*
X021060Y022200D02*
X021060Y021740D01*
X021020Y021740D01*
X021020Y021700D01*
X020560Y021700D01*
X020560Y021521D01*
X020841Y021240D01*
X021020Y021240D01*
X021020Y021700D01*
X021060Y021700D01*
X021060Y021740D01*
X021520Y021740D01*
X021520Y021919D01*
X021239Y022200D01*
X021060Y022200D01*
X021235Y022279D02*
X021845Y022279D01*
X021804Y022121D02*
X021318Y022121D01*
X021477Y021962D02*
X021646Y021962D01*
X021590Y021804D02*
X021520Y021804D01*
X021520Y021700D02*
X021060Y021700D01*
X021060Y021240D01*
X021239Y021240D01*
X021520Y021521D01*
X021520Y021700D01*
X021520Y021645D02*
X021590Y021645D01*
X021637Y021487D02*
X021485Y021487D01*
X021327Y021328D02*
X021796Y021328D01*
X021060Y021328D02*
X021020Y021328D01*
X021020Y021487D02*
X021060Y021487D01*
X021060Y021645D02*
X021020Y021645D01*
X021020Y021804D02*
X021060Y021804D01*
X021060Y021962D02*
X021020Y021962D01*
X020603Y021962D02*
X020124Y021962D01*
X020124Y021804D02*
X020560Y021804D01*
X020560Y021645D02*
X020123Y021645D01*
X020094Y021487D02*
X020595Y021487D01*
X020753Y021328D02*
X020094Y021328D01*
X020287Y021170D02*
X020383Y021170D01*
X020771Y020694D02*
X021482Y020694D01*
X021735Y020060D02*
X020865Y020060D01*
X021166Y019743D02*
X019445Y019743D01*
X019445Y019902D02*
X021349Y019902D01*
X021046Y019585D02*
X019627Y019585D01*
X019679Y019426D02*
X020960Y019426D01*
X020917Y019268D02*
X019679Y019268D01*
X019679Y019109D02*
X020893Y019109D01*
X020893Y018951D02*
X019614Y018951D01*
X019672Y018792D02*
X020924Y018792D01*
X020970Y018634D02*
X019679Y018634D01*
X019679Y018475D02*
X021062Y018475D01*
X021193Y018317D02*
X019679Y018317D01*
X019443Y018158D02*
X021396Y018158D01*
X021247Y017366D02*
X023170Y017366D01*
X023167Y017524D02*
X023170Y017524D01*
X023170Y017207D02*
X021328Y017207D01*
X021319Y017049D02*
X023170Y017049D01*
X023170Y016890D02*
X021222Y016890D01*
X019571Y017841D02*
X022918Y017841D01*
X019655Y020060D02*
X019445Y020060D01*
X019428Y020219D02*
X019496Y020219D01*
X018180Y020554D02*
X018180Y021251D01*
X017900Y021696D02*
X017900Y022154D01*
X018112Y022154D01*
X018112Y022561D01*
X018248Y022561D01*
X018248Y022154D01*
X018499Y022154D01*
X018506Y022156D01*
X018506Y021696D01*
X017900Y021696D01*
X017900Y021804D02*
X018506Y021804D01*
X018506Y021962D02*
X017900Y021962D01*
X017900Y022121D02*
X018506Y022121D01*
X018248Y022279D02*
X018112Y022279D01*
X018112Y022438D02*
X018248Y022438D01*
X018248Y022697D02*
X018112Y022697D01*
X018112Y023104D01*
X017861Y023104D01*
X017815Y023092D01*
X017774Y023068D01*
X017741Y023035D01*
X017721Y023001D01*
X017303Y023420D01*
X017377Y023420D01*
X017543Y023420D01*
X017783Y023660D01*
X018177Y023660D01*
X018280Y023557D01*
X018280Y023104D01*
X018248Y023104D01*
X018248Y022697D01*
X018248Y022755D02*
X018112Y022755D01*
X018112Y022913D02*
X018248Y022913D01*
X018248Y023072D02*
X018112Y023072D01*
X018280Y023230D02*
X017493Y023230D01*
X017651Y023072D02*
X017780Y023072D01*
X017334Y023389D02*
X018280Y023389D01*
X018280Y023547D02*
X017670Y023547D01*
X017377Y023820D02*
X017223Y023820D01*
X017100Y023943D01*
X017100Y024048D01*
X017103Y024045D01*
X017231Y023992D01*
X017369Y023992D01*
X017497Y024045D01*
X017595Y024143D01*
X017648Y024271D01*
X017648Y024405D01*
X018343Y025100D01*
X018460Y025217D01*
X018460Y025888D01*
X018555Y025983D01*
X018608Y026111D01*
X018608Y026249D01*
X018573Y026335D01*
X018623Y026285D01*
X018751Y026232D01*
X018885Y026232D01*
X019537Y025580D01*
X019137Y025580D01*
X019020Y025463D01*
X018780Y025223D01*
X018780Y024312D01*
X018685Y024217D01*
X018632Y024089D01*
X018632Y023951D01*
X018676Y023845D01*
X018558Y023845D01*
X018460Y023943D01*
X018343Y024060D01*
X017617Y024060D01*
X017500Y023943D01*
X017500Y023943D01*
X017377Y023820D01*
X017421Y023864D02*
X017179Y023864D01*
X017157Y024023D02*
X017100Y024023D01*
X017443Y024023D02*
X017580Y024023D01*
X017611Y024181D02*
X018670Y024181D01*
X018632Y024023D02*
X018380Y024023D01*
X018539Y023864D02*
X018668Y023864D01*
X018780Y024340D02*
X017648Y024340D01*
X017741Y024498D02*
X018780Y024498D01*
X018780Y024657D02*
X017899Y024657D01*
X018058Y024815D02*
X018780Y024815D01*
X018780Y024974D02*
X018216Y024974D01*
X018343Y025100D02*
X018343Y025100D01*
X018375Y025132D02*
X018780Y025132D01*
X018848Y025291D02*
X018460Y025291D01*
X018460Y025449D02*
X019006Y025449D01*
X019351Y025766D02*
X018460Y025766D01*
X018460Y025608D02*
X019510Y025608D01*
X019193Y025925D02*
X018497Y025925D01*
X018597Y026083D02*
X019034Y026083D01*
X018727Y026242D02*
X018608Y026242D01*
X018060Y025888D02*
X018060Y025383D01*
X017365Y024688D01*
X017231Y024688D01*
X017103Y024635D01*
X017100Y024632D01*
X017100Y026423D01*
X016913Y026610D01*
X017547Y026610D01*
X017912Y026245D01*
X017912Y026111D01*
X017965Y025983D01*
X018060Y025888D01*
X018023Y025925D02*
X017100Y025925D01*
X017100Y026083D02*
X017923Y026083D01*
X017912Y026242D02*
X017100Y026242D01*
X017100Y026400D02*
X017757Y026400D01*
X017599Y026559D02*
X016964Y026559D01*
X017100Y025766D02*
X018060Y025766D01*
X018060Y025608D02*
X017100Y025608D01*
X017100Y025449D02*
X018060Y025449D01*
X017968Y025291D02*
X017100Y025291D01*
X017100Y025132D02*
X017809Y025132D01*
X017651Y024974D02*
X017100Y024974D01*
X017100Y024815D02*
X017492Y024815D01*
X017155Y024657D02*
X017100Y024657D01*
X015700Y023620D02*
X015700Y023354D01*
X015834Y023220D01*
X016900Y023220D01*
X017235Y022885D01*
X017235Y021540D01*
X018924Y021426D02*
X018924Y021807D01*
X021394Y022438D02*
X021686Y022438D01*
X021590Y022596D02*
X021490Y022596D01*
X021490Y022755D02*
X021590Y022755D01*
X021597Y022913D02*
X021483Y022913D01*
X021325Y023072D02*
X021755Y023072D01*
X021735Y023389D02*
X021345Y023389D01*
X021490Y023547D02*
X021590Y023547D01*
X021590Y023706D02*
X021490Y023706D01*
X021490Y023864D02*
X021590Y023864D01*
X021706Y024023D02*
X021374Y024023D01*
X021504Y024181D02*
X022138Y024181D01*
X022296Y024340D02*
X022297Y024340D01*
X022545Y024023D02*
X022546Y024023D01*
X022515Y023864D02*
X022490Y023864D01*
X022490Y023706D02*
X022515Y023706D01*
X022515Y023547D02*
X022490Y023547D01*
X022515Y023389D02*
X022345Y023389D01*
X021784Y024340D02*
X021660Y024340D01*
X015700Y023620D02*
X015540Y023780D01*
X014500Y023780D01*
X013167Y023230D02*
X013093Y023230D01*
X013009Y023389D02*
X012614Y023389D01*
X012530Y023547D02*
X012456Y023547D01*
X012372Y023706D02*
X012297Y023706D01*
X011853Y024060D02*
X011660Y024060D01*
X011660Y024577D01*
X012363Y025280D01*
X012385Y025259D01*
X012550Y025190D01*
X012730Y025190D01*
X012895Y025259D01*
X013021Y025385D01*
X013090Y025550D01*
X013090Y026330D01*
X013021Y026495D01*
X012906Y026610D01*
X013333Y026610D01*
X013327Y026606D01*
X013274Y026553D01*
X013229Y026492D01*
X013195Y026424D01*
X013172Y026352D01*
X013160Y026278D01*
X013160Y025960D01*
X013620Y025960D01*
X013620Y025920D01*
X013160Y025920D01*
X013160Y025602D01*
X013172Y025528D01*
X013195Y025456D01*
X013229Y025388D01*
X013265Y025340D01*
X013057Y025340D01*
X012657Y024940D01*
X012540Y024823D01*
X012540Y024712D01*
X012445Y024617D01*
X012392Y024489D01*
X012392Y024460D01*
X012377Y024475D01*
X012249Y024528D01*
X012111Y024528D01*
X011983Y024475D01*
X011885Y024377D01*
X011832Y024249D01*
X011832Y024111D01*
X011853Y024060D01*
X011832Y024181D02*
X011660Y024181D01*
X011660Y024340D02*
X011869Y024340D01*
X012038Y024498D02*
X011660Y024498D01*
X011739Y024657D02*
X012484Y024657D01*
X012540Y024815D02*
X011898Y024815D01*
X012056Y024974D02*
X012691Y024974D01*
X012849Y025132D02*
X012215Y025132D01*
X012927Y025291D02*
X013008Y025291D01*
X013048Y025449D02*
X013199Y025449D01*
X013160Y025608D02*
X013090Y025608D01*
X013090Y025766D02*
X013160Y025766D01*
X013090Y025925D02*
X013620Y025925D01*
X013160Y026083D02*
X013090Y026083D01*
X013090Y026242D02*
X013160Y026242D01*
X013187Y026400D02*
X013061Y026400D01*
X012958Y026559D02*
X013280Y026559D01*
X011322Y026559D02*
X009888Y026559D01*
X009875Y026400D02*
X011219Y026400D01*
X011190Y026242D02*
X009774Y026242D01*
X009205Y026400D02*
X004003Y026400D01*
X004364Y026559D02*
X009192Y026559D01*
X012322Y024498D02*
X012396Y024498D01*
X011596Y023298D02*
X011354Y023220D01*
X011596Y023298D02*
X011596Y022575D01*
X012512Y022438D02*
X012648Y022438D01*
X012648Y022279D02*
X012512Y022279D01*
X012512Y022121D02*
X012648Y022121D01*
X013420Y022755D02*
X013785Y022755D01*
X013785Y022913D02*
X013410Y022913D01*
X013326Y023072D02*
X013251Y023072D01*
X009075Y023230D02*
X009033Y023230D01*
X008888Y022279D02*
X008752Y022279D01*
X008752Y022121D02*
X008888Y022121D01*
X007185Y011026D02*
X007036Y011026D01*
X007010Y010709D02*
X007185Y010709D01*
X007197Y010550D02*
X007010Y010550D01*
X006523Y009599D02*
X003270Y009599D01*
X003270Y009441D02*
X006365Y009441D01*
X006295Y009282D02*
X003270Y009282D01*
X003270Y009124D02*
X006257Y009124D01*
X004217Y008014D02*
X003679Y008014D01*
X021987Y008490D02*
X023081Y008490D01*
X022988Y008331D02*
X022050Y008331D01*
X022050Y008173D02*
X022850Y008173D01*
X022613Y008014D02*
X022010Y008014D01*
D36*
X021600Y008240D02*
X021480Y008240D01*
X021140Y008580D01*
X021140Y009700D01*
X020580Y010260D01*
X019620Y010260D01*
X019540Y010340D01*
X019540Y013620D01*
X018900Y014260D01*
X018900Y014420D01*
X018660Y014660D01*
X016900Y014660D01*
X016500Y014260D01*
X016080Y014260D01*
X016080Y014070D02*
X016790Y014070D01*
X016900Y014180D01*
X018020Y014180D01*
X018260Y013940D01*
X018580Y013940D01*
X019060Y013460D01*
X019060Y010020D01*
X019300Y009780D01*
X019940Y009780D01*
X020100Y009620D01*
X020100Y008420D01*
X020280Y008240D01*
X020600Y008240D01*
X019600Y008240D02*
X019140Y007780D01*
X017460Y007780D01*
X017020Y008220D01*
X016600Y008220D01*
X016180Y009060D02*
X015600Y008480D01*
X015600Y008220D01*
X016180Y009060D02*
X017700Y009060D01*
X018340Y009700D01*
X018340Y012980D01*
X018260Y013060D01*
X017220Y013060D01*
X017620Y013380D02*
X017460Y013540D01*
X017620Y013380D02*
X018500Y013380D01*
X018600Y013280D01*
X018600Y009240D01*
X018820Y009860D02*
X018820Y013300D01*
X018500Y013620D01*
X018100Y013620D01*
X017860Y013860D01*
X016580Y014580D02*
X016460Y014460D01*
X016080Y014460D01*
X016080Y014660D02*
X015420Y014660D01*
X015220Y014460D01*
X016580Y014580D02*
X016580Y014920D01*
X017060Y015400D01*
X017060Y016000D02*
X015495Y016000D01*
X014955Y015460D01*
X014980Y015485D01*
X014980Y016020D01*
X014660Y016340D01*
X014380Y016340D01*
X011860Y016900D02*
X011614Y017146D01*
X011360Y017146D01*
X011360Y017040D01*
X009780Y015460D01*
X009780Y015050D01*
X009540Y014810D01*
X009070Y014810D01*
X008740Y015140D01*
X008740Y015540D01*
X008820Y015620D01*
X008420Y015780D02*
X008820Y016180D01*
X008740Y016100D01*
X008820Y016180D02*
X009540Y016180D01*
X009700Y016020D01*
X010580Y016900D01*
X010580Y017146D01*
X009140Y016980D02*
X009140Y017780D01*
X009780Y018420D01*
X011060Y018420D01*
X011380Y018740D01*
X011460Y018660D01*
X011986Y018660D01*
X012734Y018660D02*
X012734Y018094D01*
X012660Y018020D01*
X014020Y018740D02*
X015220Y017540D01*
X017220Y017540D01*
X017380Y018020D02*
X015060Y018020D01*
X014420Y018660D01*
X014420Y019140D01*
X015140Y019220D02*
X015700Y018660D01*
X015140Y018340D02*
X016500Y018340D01*
X016660Y018500D01*
X016660Y018740D01*
X016100Y019300D01*
X015140Y019300D02*
X015140Y019220D01*
X014820Y018740D02*
X014820Y018660D01*
X015140Y018340D01*
X013460Y020340D02*
X012820Y019700D01*
X011140Y019700D01*
X010820Y020500D02*
X009700Y020500D01*
X009300Y020100D01*
X009300Y019940D01*
X009220Y019860D01*
X010820Y020500D02*
X011460Y021140D01*
X011940Y021140D01*
X012020Y021220D01*
X012020Y021380D01*
X012260Y021620D01*
X013380Y021620D01*
X013700Y021940D02*
X013220Y022420D01*
X013220Y022820D01*
X012900Y023140D01*
X012580Y023140D01*
X012100Y023620D01*
X012100Y022340D01*
X011953Y022193D01*
X011596Y022193D01*
X011596Y021811D02*
X012691Y021811D01*
X012820Y021940D01*
X012580Y022180D01*
X012580Y022549D01*
X013700Y022420D02*
X013780Y022340D01*
X014260Y022340D01*
X014660Y021940D01*
X014660Y020820D01*
X015380Y020100D01*
X016100Y020100D01*
X016500Y020100D01*
X016660Y020260D01*
X016660Y020655D01*
X016595Y020720D01*
X015925Y020720D02*
X015665Y020980D01*
X015540Y020980D01*
X015491Y021429D02*
X015460Y021460D01*
X015460Y022846D01*
X015486Y022846D01*
X015620Y022980D01*
X015460Y022846D02*
X015834Y023220D01*
X015834Y022577D01*
X015836Y022575D01*
X015836Y022193D02*
X016327Y022193D01*
X016340Y022180D01*
X016740Y022180D01*
X016820Y022260D01*
X016820Y022740D01*
X016740Y022820D01*
X016740Y023700D02*
X017700Y022740D01*
X017700Y020260D01*
X017780Y020180D01*
X018606Y020180D01*
X018980Y020554D01*
X019665Y020840D02*
X019676Y020850D01*
X019676Y021429D01*
X019626Y021380D01*
X019380Y021380D01*
X019300Y021460D01*
X019300Y022500D01*
X019375Y022575D01*
X019676Y022575D01*
X019674Y022577D01*
X019674Y023140D01*
X019434Y023380D01*
X018900Y023220D02*
X018846Y023220D01*
X018686Y023380D01*
X018740Y023326D01*
X018740Y022980D01*
X018926Y022794D01*
X018926Y022573D01*
X018924Y022571D01*
X018180Y022629D02*
X018180Y022200D01*
X018020Y022040D01*
X019676Y022193D02*
X020113Y022193D01*
X020260Y022340D01*
X020260Y023060D01*
X020500Y023300D01*
X020500Y024020D01*
X020740Y024260D01*
X021300Y024260D01*
X021460Y024420D01*
X021460Y025220D01*
X021300Y025380D01*
X019220Y025380D01*
X018980Y025140D01*
X018980Y024020D01*
X018260Y023860D02*
X017700Y023860D01*
X017460Y023620D01*
X017140Y023620D01*
X016900Y023860D01*
X016900Y026340D01*
X016580Y026660D01*
X014260Y026660D01*
X014100Y026500D01*
X014100Y025300D01*
X013940Y025140D01*
X013140Y025140D01*
X012740Y024740D01*
X012740Y024420D01*
X012740Y024340D01*
X012420Y023940D02*
X012180Y024180D01*
X012420Y023940D02*
X012740Y023620D01*
X013060Y023620D01*
X013462Y023218D01*
X015084Y023218D01*
X015086Y023220D01*
X015084Y023218D02*
X015084Y022571D01*
X014260Y022629D02*
X014260Y022340D01*
X013780Y021940D02*
X013700Y021940D01*
X014260Y021251D02*
X014260Y020474D01*
X013700Y020820D02*
X013060Y020820D01*
X012820Y020580D01*
X012580Y021171D02*
X012154Y020745D01*
X012154Y020340D01*
X011546Y021380D02*
X011380Y021380D01*
X011300Y021380D01*
X011220Y021460D01*
X011220Y022500D01*
X011295Y022575D01*
X011596Y022575D01*
X011594Y022577D01*
X010844Y022571D02*
X010844Y023298D01*
X010606Y023220D01*
X010606Y023274D01*
X010180Y023700D01*
X010500Y024020D02*
X009780Y024020D01*
X009540Y023780D01*
X009540Y023514D01*
X009726Y023700D01*
X009540Y023514D02*
X009514Y023540D01*
X009060Y023540D01*
X008340Y022820D01*
X008340Y022180D01*
X008273Y022113D01*
X007836Y022113D01*
X007836Y022495D02*
X007535Y022495D01*
X007460Y022420D01*
X007460Y021460D01*
X007620Y021300D01*
X007786Y021300D01*
X007836Y021349D01*
X008580Y020851D02*
X008820Y021091D01*
X010844Y021426D02*
X010844Y021807D01*
X010180Y022195D02*
X010180Y022580D01*
X009540Y022180D02*
X009460Y022100D01*
X007084Y023218D02*
X007084Y023644D01*
X007460Y024020D01*
X009060Y024020D01*
X009140Y024100D01*
X009460Y024500D02*
X009540Y024420D01*
X009460Y024500D02*
X007380Y024500D01*
X006500Y023620D01*
X006500Y020740D01*
X006420Y020660D01*
X006420Y020100D01*
X006340Y020020D01*
X005780Y020020D01*
X005780Y020660D02*
X005940Y020820D01*
X005940Y023300D01*
X004420Y023780D02*
X004420Y020900D01*
X007432Y018312D02*
X007700Y018580D01*
X007432Y018312D02*
X007432Y018168D01*
X006842Y018168D02*
X006842Y017598D01*
X007060Y017380D01*
X008032Y016592D02*
X008340Y016900D01*
X008340Y017205D01*
X008420Y017285D01*
X008980Y017060D02*
X008980Y017940D01*
X009780Y018740D01*
X010020Y018740D01*
X010100Y018820D01*
X008980Y017060D02*
X008180Y016260D01*
X007780Y016260D01*
X007620Y016100D01*
X007620Y014740D01*
X006820Y013940D01*
X006500Y013940D01*
X006086Y013526D01*
X006086Y013260D01*
X006795Y013221D02*
X006834Y013260D01*
X006795Y013221D02*
X006795Y012580D01*
X006740Y012525D01*
X006740Y012100D01*
X006980Y011860D01*
X007180Y011860D01*
X007700Y011860D02*
X007700Y012355D01*
X007725Y012380D01*
X008454Y013100D02*
X008454Y013506D01*
X008340Y013620D01*
X007220Y013620D01*
X007060Y013780D01*
X007060Y013940D01*
X007860Y014740D01*
X007860Y016020D01*
X007940Y016100D01*
X008260Y016100D01*
X009140Y016980D01*
X008032Y016592D02*
X007432Y016592D01*
X007235Y016592D02*
X007235Y015781D01*
X007235Y015780D01*
X007235Y015941D01*
X006900Y016260D02*
X006820Y016260D01*
X006565Y016005D01*
X006565Y015780D01*
X006900Y016260D02*
X007038Y016398D01*
X007038Y016592D01*
X005540Y017205D02*
X005536Y017205D01*
X005460Y017282D01*
X004740Y017340D02*
X004740Y017620D01*
X004995Y017875D01*
X005540Y017875D01*
X005569Y017875D01*
X005635Y017940D01*
X004740Y017340D02*
X004620Y017220D01*
X008420Y015780D02*
X008420Y015140D01*
X008940Y014620D01*
X010040Y014620D01*
X010040Y014810D02*
X009540Y014810D01*
X009340Y014220D02*
X009140Y014020D01*
X009140Y013520D01*
X009720Y012920D02*
X009780Y012980D01*
X009720Y012920D02*
X009140Y012920D01*
X010180Y011940D02*
X010340Y012100D01*
X010180Y011940D02*
X010180Y011300D01*
X010340Y011140D01*
X010740Y011140D01*
X010954Y010926D01*
X011034Y010926D01*
X011034Y010660D01*
X011326Y010368D01*
X011326Y009780D01*
X009034Y010812D02*
X009034Y011034D01*
X009300Y011300D01*
X009340Y014220D02*
X010040Y014220D01*
X019060Y016180D02*
X019460Y015780D01*
X019460Y014100D01*
X019860Y013700D01*
X019860Y010580D01*
X019940Y010500D01*
X020740Y010500D01*
X021600Y009640D01*
X021600Y009240D01*
X019600Y009240D02*
X019440Y009240D01*
X018820Y009860D01*
X019300Y017620D02*
X022980Y017620D01*
X023220Y017860D01*
X023220Y020740D01*
X020335Y020840D02*
X020335Y021625D01*
X020180Y021780D01*
X019707Y021780D01*
X019676Y021811D01*
X022040Y022720D02*
X022774Y022720D01*
X022980Y022926D01*
X022980Y023674D02*
X022900Y023754D01*
X022900Y024420D01*
X022580Y024340D02*
X022580Y025140D01*
X022020Y025700D01*
X019700Y025700D01*
X018820Y026580D01*
X018260Y026180D02*
X017540Y026900D01*
X009860Y026900D01*
X009540Y026580D01*
X009540Y026500D01*
X011640Y025940D02*
X006580Y025940D01*
X004420Y023780D01*
X010500Y024020D02*
X010660Y023860D01*
X011460Y023860D01*
X011460Y024660D01*
X012640Y025840D01*
X012640Y025940D01*
X013700Y024820D02*
X014500Y024820D01*
X015940Y026260D01*
X018260Y026180D02*
X018260Y025300D01*
X017300Y024340D01*
X018260Y023860D02*
X018900Y023220D01*
X020100Y023620D02*
X020100Y023860D01*
X020340Y024100D01*
X020340Y024660D01*
X020400Y024720D01*
X021040Y024720D01*
X019860Y024980D02*
X019780Y024900D01*
X019780Y024020D01*
X022040Y023800D02*
X022580Y024340D01*
X022040Y023800D02*
X022040Y023720D01*
X016740Y023700D02*
X015940Y023700D01*
X015460Y024180D01*
X014420Y024180D01*
X014180Y023940D01*
X013380Y023940D01*
X013300Y023860D01*
X012100Y023620D02*
X011860Y023860D01*
X011460Y023860D01*
X015491Y021429D02*
X015836Y021429D01*
X018980Y019806D02*
X019253Y019613D01*
X019253Y019274D01*
M02*
