G75*
%MOIN*%
%OFA0B0*%
%FSLAX24Y24*%
%IPPOS*%
%LPD*%
%AMOC8*
5,1,8,0,0,1.08239X$1,22.5*
%
%ADD10C,0.0040*%
%ADD11C,0.0050*%
%ADD12C,0.0010*%
%ADD13C,0.0060*%
%ADD14C,0.0030*%
%ADD15C,0.0080*%
%ADD16R,0.6700X0.1800*%
%ADD17C,0.0020*%
%ADD18R,0.0128X0.0167*%
%ADD19R,0.0138X0.0138*%
D10*
X009143Y008480D02*
X009450Y008480D01*
X009143Y008787D01*
X009143Y008864D01*
X009219Y008940D01*
X009373Y008940D01*
X009450Y008864D01*
X009603Y008864D02*
X009680Y008940D01*
X009833Y008940D01*
X009910Y008864D01*
X009910Y008557D01*
X009833Y008480D01*
X009680Y008480D01*
X009603Y008557D01*
X008478Y009070D02*
X008324Y009070D01*
X008401Y009070D02*
X008401Y009530D01*
X008478Y009530D02*
X008324Y009530D01*
X008171Y009454D02*
X008171Y009147D01*
X008094Y009070D01*
X007941Y009070D01*
X007864Y009147D01*
X007710Y009070D02*
X007403Y009070D01*
X007557Y009070D02*
X007557Y009530D01*
X007710Y009377D01*
X007864Y009454D02*
X007941Y009530D01*
X008094Y009530D01*
X008171Y009454D01*
X007180Y010127D02*
X007104Y010050D01*
X006797Y010050D01*
X006720Y010127D01*
X006720Y010280D01*
X006797Y010357D01*
X006720Y010510D02*
X006720Y010817D01*
X006720Y010664D02*
X007180Y010664D01*
X007027Y010510D01*
X007104Y010357D02*
X007180Y010280D01*
X007180Y010127D01*
X007680Y011420D02*
X007603Y011497D01*
X007603Y011573D01*
X007680Y011650D01*
X007910Y011650D01*
X007910Y011497D01*
X007834Y011420D01*
X007680Y011420D01*
X007910Y011650D02*
X007757Y011804D01*
X007603Y011880D01*
X007471Y011777D02*
X007394Y011700D01*
X007241Y011700D01*
X007164Y011777D01*
X007011Y011700D02*
X006704Y011700D01*
X006550Y011777D02*
X006474Y011700D01*
X006320Y011700D01*
X006243Y011777D01*
X006243Y012084D01*
X006550Y011777D01*
X006550Y012084D01*
X006474Y012160D01*
X006320Y012160D01*
X006243Y012084D01*
X006704Y012084D02*
X006781Y012160D01*
X006934Y012160D01*
X007011Y012084D01*
X007164Y012084D02*
X007241Y012160D01*
X007394Y012160D01*
X007471Y012084D01*
X007471Y011777D01*
X007011Y011700D02*
X006704Y012007D01*
X006704Y012084D01*
X008217Y011880D02*
X008217Y011420D01*
X008064Y011420D02*
X008371Y011420D01*
X008524Y011497D02*
X008601Y011420D01*
X008754Y011420D01*
X008831Y011497D01*
X008831Y011804D01*
X008754Y011880D01*
X008601Y011880D01*
X008524Y011804D01*
X008371Y011727D02*
X008217Y011880D01*
X009562Y012057D02*
X009562Y012364D01*
X009869Y012057D01*
X009792Y011980D01*
X009639Y011980D01*
X009562Y012057D01*
X009562Y012364D02*
X009639Y012440D01*
X009792Y012440D01*
X009869Y012364D01*
X009869Y012057D01*
X010023Y011980D02*
X010330Y011980D01*
X010176Y011980D02*
X010176Y012440D01*
X010330Y012287D01*
X010483Y012364D02*
X010560Y012440D01*
X010713Y012440D01*
X010790Y012364D01*
X010790Y012057D01*
X010713Y011980D01*
X010560Y011980D01*
X010483Y012057D01*
X012083Y011724D02*
X012160Y011800D01*
X012314Y011800D01*
X012390Y011724D01*
X012390Y011647D01*
X012314Y011570D01*
X012083Y011570D01*
X012083Y011417D02*
X012083Y011724D01*
X012083Y011417D02*
X012160Y011340D01*
X012314Y011340D01*
X012390Y011417D01*
X012544Y011417D02*
X012621Y011340D01*
X012774Y011340D01*
X012851Y011417D01*
X012851Y011724D01*
X012774Y011800D01*
X012621Y011800D01*
X012544Y011724D01*
X012201Y010880D02*
X011971Y010880D01*
X011894Y010804D01*
X011894Y010650D01*
X011971Y010573D01*
X012201Y010573D01*
X012201Y010420D02*
X012201Y010880D01*
X011740Y010804D02*
X011664Y010880D01*
X011510Y010880D01*
X011433Y010804D01*
X011433Y010727D01*
X011740Y010420D01*
X011433Y010420D01*
X011894Y010420D02*
X012047Y010573D01*
X011971Y009360D02*
X011894Y009284D01*
X011894Y009130D01*
X011971Y009053D01*
X012201Y009053D01*
X012201Y008900D02*
X012201Y009360D01*
X011971Y009360D01*
X011740Y009207D02*
X011587Y009360D01*
X011587Y008900D01*
X011740Y008900D02*
X011433Y008900D01*
X011894Y008900D02*
X012047Y009053D01*
X015622Y012320D02*
X015929Y012320D01*
X015776Y012320D02*
X015776Y012780D01*
X015929Y012627D01*
X016236Y012780D02*
X016390Y012627D01*
X016543Y012704D02*
X016620Y012780D01*
X016773Y012780D01*
X016850Y012704D01*
X016850Y012397D01*
X016773Y012320D01*
X016620Y012320D01*
X016543Y012397D01*
X016390Y012320D02*
X016083Y012320D01*
X016236Y012320D02*
X016236Y012780D01*
X016276Y013020D02*
X016276Y013480D01*
X016430Y013327D01*
X016583Y013404D02*
X016660Y013480D01*
X016813Y013480D01*
X016890Y013404D01*
X016890Y013097D01*
X016813Y013020D01*
X016660Y013020D01*
X016583Y013097D01*
X016430Y013020D02*
X016123Y013020D01*
X015969Y013020D02*
X015662Y013327D01*
X015662Y013404D01*
X015739Y013480D01*
X015892Y013480D01*
X015969Y013404D01*
X015969Y013020D02*
X015662Y013020D01*
X012831Y013137D02*
X012754Y013060D01*
X012601Y013060D01*
X012524Y013137D01*
X012371Y013060D02*
X012064Y013060D01*
X012217Y013060D02*
X012217Y013520D01*
X012371Y013367D01*
X012524Y013444D02*
X012601Y013520D01*
X012754Y013520D01*
X012831Y013444D01*
X012831Y013137D01*
X011910Y013137D02*
X011834Y013060D01*
X011680Y013060D01*
X011603Y013137D01*
X011603Y013213D01*
X011680Y013290D01*
X011757Y013290D01*
X011680Y013290D02*
X011603Y013367D01*
X011603Y013444D01*
X011680Y013520D01*
X011834Y013520D01*
X011910Y013444D01*
X008501Y013580D02*
X008501Y014040D01*
X008271Y014040D01*
X008194Y013964D01*
X008194Y013810D01*
X008271Y013733D01*
X008501Y013733D01*
X008347Y013733D02*
X008194Y013580D01*
X008040Y013657D02*
X008040Y013733D01*
X007964Y013810D01*
X007810Y013810D01*
X007733Y013733D01*
X007733Y013657D01*
X007810Y013580D01*
X007964Y013580D01*
X008040Y013657D01*
X007964Y013810D02*
X008040Y013887D01*
X008040Y013964D01*
X007964Y014040D01*
X007810Y014040D01*
X007733Y013964D01*
X007733Y013887D01*
X007810Y013810D01*
X006840Y013833D02*
X006610Y013833D01*
X006533Y013910D01*
X006533Y014064D01*
X006610Y014140D01*
X006840Y014140D01*
X006840Y013680D01*
X006687Y013833D02*
X006533Y013680D01*
X006380Y013680D02*
X006380Y013757D01*
X006073Y014064D01*
X006073Y014140D01*
X006380Y014140D01*
X006760Y014740D02*
X006760Y015200D01*
X006990Y014970D01*
X006683Y014970D01*
X007144Y015047D02*
X007144Y015124D01*
X007221Y015200D01*
X007374Y015200D01*
X007451Y015124D01*
X007604Y015124D02*
X007681Y015200D01*
X007834Y015200D01*
X007911Y015124D01*
X007911Y014817D01*
X007834Y014740D01*
X007681Y014740D01*
X007604Y014817D01*
X007451Y014740D02*
X007144Y015047D01*
X007144Y014740D02*
X007451Y014740D01*
X005760Y015566D02*
X005684Y015489D01*
X005377Y015489D01*
X005300Y015566D01*
X005300Y015719D01*
X005377Y015796D01*
X005300Y015949D02*
X005607Y016256D01*
X005684Y016256D01*
X005760Y016179D01*
X005760Y016026D01*
X005684Y015949D01*
X005684Y015796D02*
X005760Y015719D01*
X005760Y015566D01*
X005300Y015949D02*
X005300Y016256D01*
X005377Y016410D02*
X005300Y016486D01*
X005300Y016640D01*
X005377Y016717D01*
X005453Y016717D01*
X005530Y016640D01*
X005530Y016410D01*
X005377Y016410D01*
X005530Y016410D02*
X005684Y016563D01*
X005760Y016717D01*
X008980Y016766D02*
X009057Y016689D01*
X009364Y016689D01*
X009440Y016766D01*
X009440Y016919D01*
X009364Y016996D01*
X009364Y017149D02*
X009440Y017226D01*
X009440Y017379D01*
X009364Y017456D01*
X009287Y017456D01*
X008980Y017149D01*
X008980Y017456D01*
X009057Y017610D02*
X008980Y017686D01*
X008980Y017840D01*
X009057Y017917D01*
X009133Y017917D01*
X009210Y017840D01*
X009210Y017763D01*
X009210Y017840D02*
X009287Y017917D01*
X009364Y017917D01*
X009440Y017840D01*
X009440Y017686D01*
X009364Y017610D01*
X009720Y017587D02*
X009720Y017280D01*
X009720Y017127D02*
X009873Y016973D01*
X009873Y017050D02*
X009873Y016820D01*
X009720Y016820D02*
X010180Y016820D01*
X010180Y017050D01*
X010104Y017127D01*
X009950Y017127D01*
X009873Y017050D01*
X010027Y017280D02*
X010180Y017434D01*
X009720Y017434D01*
X009797Y017741D02*
X009720Y017818D01*
X009720Y017971D01*
X009797Y018048D01*
X009873Y018048D01*
X009950Y017971D01*
X009950Y017894D01*
X009950Y017971D02*
X010027Y018048D01*
X010104Y018048D01*
X010180Y017971D01*
X010180Y017818D01*
X010104Y017741D01*
X009057Y016996D02*
X008980Y016919D01*
X008980Y016766D01*
X011860Y016980D02*
X012320Y016980D01*
X012320Y017210D01*
X012244Y017287D01*
X012090Y017287D01*
X012013Y017210D01*
X012013Y016980D01*
X012013Y017133D02*
X011860Y017287D01*
X011860Y017440D02*
X011860Y017747D01*
X011860Y017594D02*
X012320Y017594D01*
X012167Y017440D01*
X012090Y017901D02*
X012090Y018208D01*
X011860Y018131D02*
X012320Y018131D01*
X012090Y017901D01*
X012049Y019240D02*
X011973Y019317D01*
X011973Y019624D01*
X012049Y019700D01*
X012203Y019700D01*
X012280Y019624D01*
X012280Y019547D01*
X012203Y019470D01*
X011973Y019470D01*
X012049Y019240D02*
X012203Y019240D01*
X012280Y019317D01*
X012433Y019240D02*
X012587Y019393D01*
X012510Y019393D02*
X012740Y019393D01*
X012740Y019240D02*
X012740Y019700D01*
X012510Y019700D01*
X012433Y019624D01*
X012433Y019470D01*
X012510Y019393D01*
X013380Y019446D02*
X013533Y019292D01*
X013533Y019369D02*
X013533Y019139D01*
X013380Y019139D02*
X013840Y019139D01*
X013840Y019369D01*
X013764Y019446D01*
X013610Y019446D01*
X013533Y019369D01*
X013380Y019599D02*
X013380Y019906D01*
X013380Y019753D02*
X013840Y019753D01*
X013687Y019599D01*
X013687Y020060D02*
X013840Y020213D01*
X013380Y020213D01*
X013380Y020060D02*
X013380Y020367D01*
X013362Y020700D02*
X013439Y020777D01*
X013362Y020700D02*
X013209Y020700D01*
X013132Y020777D01*
X013132Y020853D01*
X013209Y020930D01*
X013285Y020930D01*
X013209Y020930D02*
X013132Y021007D01*
X013132Y021084D01*
X013209Y021160D01*
X013362Y021160D01*
X013439Y021084D01*
X013592Y021084D02*
X013669Y021160D01*
X013899Y021160D01*
X013899Y020700D01*
X013669Y020700D01*
X013592Y020777D01*
X013592Y021084D01*
X013560Y021380D02*
X013100Y021380D01*
X013100Y021687D01*
X013100Y021840D02*
X013100Y022147D01*
X013100Y022301D02*
X013100Y022531D01*
X013177Y022608D01*
X013484Y022608D01*
X013560Y022531D01*
X013560Y022301D01*
X013100Y022301D01*
X013330Y021994D02*
X013330Y021840D01*
X013560Y021840D02*
X013100Y021840D01*
X013560Y021840D02*
X013560Y022147D01*
X013560Y022761D02*
X013330Y022761D01*
X013407Y022915D01*
X013407Y022991D01*
X013330Y023068D01*
X013177Y023068D01*
X013100Y022991D01*
X013100Y022838D01*
X013177Y022761D01*
X013560Y022761D02*
X013560Y023068D01*
X012741Y023460D02*
X012741Y023920D01*
X012511Y023920D01*
X012434Y023844D01*
X012434Y023690D01*
X012511Y023613D01*
X012741Y023613D01*
X012588Y023613D02*
X012434Y023460D01*
X012281Y023460D02*
X011974Y023767D01*
X011974Y023844D01*
X012051Y023920D01*
X012204Y023920D01*
X012281Y023844D01*
X011820Y023767D02*
X011667Y023920D01*
X011667Y023460D01*
X011820Y023460D02*
X011513Y023460D01*
X011974Y023460D02*
X012281Y023460D01*
X009220Y023720D02*
X009220Y023950D01*
X009144Y024027D01*
X008990Y024027D01*
X008913Y023950D01*
X008913Y023720D01*
X008760Y023720D02*
X009220Y023720D01*
X008913Y023873D02*
X008760Y024027D01*
X008760Y024180D02*
X009067Y024487D01*
X009144Y024487D01*
X009220Y024411D01*
X009220Y024257D01*
X009144Y024180D01*
X008760Y024180D02*
X008760Y024487D01*
X008837Y024641D02*
X008760Y024718D01*
X008760Y024871D01*
X008837Y024948D01*
X008913Y024948D01*
X008990Y024871D01*
X008990Y024794D01*
X008990Y024871D02*
X009067Y024948D01*
X009144Y024948D01*
X009220Y024871D01*
X009220Y024718D01*
X009144Y024641D01*
X008000Y024180D02*
X007770Y024180D01*
X007693Y024104D01*
X007693Y023950D01*
X007770Y023873D01*
X008000Y023873D01*
X008000Y023720D02*
X008000Y024180D01*
X007847Y023873D02*
X007693Y023720D01*
X007540Y023720D02*
X007233Y024027D01*
X007233Y024104D01*
X007309Y024180D01*
X007463Y024180D01*
X007540Y024104D01*
X007540Y023720D02*
X007233Y023720D01*
X007079Y023720D02*
X006772Y024027D01*
X006772Y024104D01*
X006849Y024180D01*
X007002Y024180D01*
X007079Y024104D01*
X007079Y023720D02*
X006772Y023720D01*
X008057Y022508D02*
X008133Y022508D01*
X008210Y022431D01*
X008210Y022201D01*
X008057Y022201D01*
X007980Y022278D01*
X007980Y022431D01*
X008057Y022508D01*
X008364Y022355D02*
X008210Y022201D01*
X008057Y022048D02*
X008364Y022048D01*
X008440Y021971D01*
X008440Y021741D01*
X007980Y021741D01*
X007980Y021971D01*
X008057Y022048D01*
X007980Y021587D02*
X007980Y021280D01*
X008440Y021280D01*
X008440Y021587D01*
X008210Y021434D02*
X008210Y021280D01*
X007980Y021127D02*
X007980Y020820D01*
X008440Y020820D01*
X008160Y020287D02*
X008084Y020287D01*
X007777Y019980D01*
X007700Y019980D01*
X007700Y019826D02*
X007700Y019519D01*
X007700Y019366D02*
X007853Y019212D01*
X007853Y019289D02*
X007853Y019059D01*
X007700Y019059D02*
X008160Y019059D01*
X008160Y019289D01*
X008084Y019366D01*
X007930Y019366D01*
X007853Y019289D01*
X008007Y019519D02*
X008160Y019673D01*
X007700Y019673D01*
X007511Y019684D02*
X007511Y019377D01*
X007434Y019300D01*
X007281Y019300D01*
X007204Y019377D01*
X007051Y019300D02*
X006744Y019300D01*
X006897Y019300D02*
X006897Y019760D01*
X007051Y019607D01*
X007204Y019684D02*
X007281Y019760D01*
X007434Y019760D01*
X007511Y019684D01*
X008160Y019980D02*
X008160Y020287D01*
X009643Y020657D02*
X009720Y020580D01*
X009874Y020580D01*
X009950Y020657D01*
X009950Y020733D01*
X009874Y020810D01*
X009720Y020810D01*
X009643Y020733D01*
X009643Y020657D01*
X009720Y020810D02*
X009643Y020887D01*
X009643Y020964D01*
X009720Y021040D01*
X009874Y021040D01*
X009950Y020964D01*
X009950Y020887D01*
X009874Y020810D01*
X010104Y020580D02*
X010411Y020580D01*
X010257Y020580D02*
X010257Y021040D01*
X010411Y020887D01*
X010564Y020964D02*
X010641Y021040D01*
X010794Y021040D01*
X010871Y020964D01*
X010871Y020657D01*
X010794Y020580D01*
X010641Y020580D01*
X010564Y020657D01*
X010932Y020837D02*
X010932Y020913D01*
X011009Y020990D01*
X011239Y020990D01*
X011239Y020837D01*
X011162Y020760D01*
X011009Y020760D01*
X010932Y020837D01*
X011086Y021144D02*
X011239Y020990D01*
X011086Y021144D02*
X010932Y021220D01*
X011546Y021220D02*
X011700Y021067D01*
X011853Y021144D02*
X011930Y021220D01*
X012160Y021220D01*
X012160Y020760D01*
X012160Y020913D02*
X011930Y020913D01*
X011853Y020990D01*
X011853Y021144D01*
X012007Y020913D02*
X011853Y020760D01*
X011700Y020760D02*
X011393Y020760D01*
X011546Y020760D02*
X011546Y021220D01*
X014053Y021160D02*
X014360Y021160D01*
X014360Y020700D01*
X014053Y020700D01*
X014206Y020930D02*
X014360Y020930D01*
X014513Y020700D02*
X014820Y020700D01*
X014820Y021160D01*
X015337Y020617D02*
X015260Y020541D01*
X015260Y020387D01*
X015337Y020310D01*
X015337Y020157D02*
X015260Y020080D01*
X015260Y019927D01*
X015337Y019850D01*
X015644Y019850D01*
X015720Y019927D01*
X015720Y020080D01*
X015644Y020157D01*
X015720Y020310D02*
X015490Y020310D01*
X015567Y020464D01*
X015567Y020541D01*
X015490Y020617D01*
X015337Y020617D01*
X015720Y020617D02*
X015720Y020310D01*
X017080Y020334D02*
X017540Y020334D01*
X017387Y020180D01*
X017464Y020027D02*
X017310Y020027D01*
X017233Y019950D01*
X017233Y019720D01*
X017080Y019720D02*
X017540Y019720D01*
X017540Y019950D01*
X017464Y020027D01*
X017233Y019873D02*
X017080Y020027D01*
X017080Y020180D02*
X017080Y020487D01*
X017080Y020641D02*
X017387Y020948D01*
X017464Y020948D01*
X017540Y020871D01*
X017540Y020718D01*
X017464Y020641D01*
X017080Y020641D02*
X017080Y020948D01*
X017160Y022120D02*
X017083Y022197D01*
X017160Y022120D02*
X017313Y022120D01*
X017390Y022197D01*
X017390Y022504D01*
X017313Y022580D01*
X017160Y022580D01*
X017083Y022504D01*
X016930Y022427D02*
X016776Y022580D01*
X016776Y022120D01*
X016623Y022120D02*
X016930Y022120D01*
X016469Y022197D02*
X016392Y022120D01*
X016239Y022120D01*
X016162Y022197D01*
X016162Y022504D01*
X016239Y022580D01*
X016392Y022580D01*
X016469Y022504D01*
X016469Y022427D01*
X016392Y022350D01*
X016162Y022350D01*
X016230Y022980D02*
X016384Y022980D01*
X016460Y023057D01*
X016153Y023364D01*
X016153Y023057D01*
X016230Y022980D01*
X016460Y023057D02*
X016460Y023364D01*
X016384Y023440D01*
X016230Y023440D01*
X016153Y023364D01*
X016614Y023364D02*
X016691Y023440D01*
X016844Y023440D01*
X016921Y023364D01*
X017074Y023364D02*
X017074Y023210D01*
X017151Y023133D01*
X017381Y023133D01*
X017381Y022980D02*
X017381Y023440D01*
X017151Y023440D01*
X017074Y023364D01*
X017228Y023133D02*
X017074Y022980D01*
X016921Y022980D02*
X016614Y023287D01*
X016614Y023364D01*
X016614Y022980D02*
X016921Y022980D01*
X017740Y023047D02*
X017740Y022740D01*
X018200Y022740D01*
X018200Y023200D02*
X017740Y023200D01*
X017740Y023507D01*
X017740Y023661D02*
X017740Y023891D01*
X017817Y023968D01*
X018124Y023968D01*
X018200Y023891D01*
X018200Y023661D01*
X017740Y023661D01*
X017970Y023354D02*
X017970Y023200D01*
X018200Y023200D02*
X018200Y023507D01*
X018550Y023860D02*
X018473Y023937D01*
X018473Y024244D01*
X018550Y024320D01*
X018704Y024320D01*
X018780Y024244D01*
X018780Y024167D01*
X018704Y024090D01*
X018473Y024090D01*
X018550Y023860D02*
X018704Y023860D01*
X018780Y023937D01*
X018934Y023860D02*
X019241Y023860D01*
X019394Y023860D02*
X019548Y024013D01*
X019471Y024013D02*
X019701Y024013D01*
X019701Y023860D02*
X019701Y024320D01*
X019471Y024320D01*
X019394Y024244D01*
X019394Y024090D01*
X019471Y024013D01*
X019241Y024167D02*
X019087Y024320D01*
X019087Y023860D01*
X018200Y024351D02*
X017970Y024121D01*
X017970Y024428D01*
X017740Y024351D02*
X018200Y024351D01*
X022740Y022450D02*
X022740Y022296D01*
X022817Y022220D01*
X022970Y022220D02*
X023047Y022373D01*
X023047Y022450D01*
X022970Y022527D01*
X022817Y022527D01*
X022740Y022450D01*
X022970Y022220D02*
X023200Y022220D01*
X023200Y022527D01*
X023124Y022066D02*
X022970Y022066D01*
X022893Y021989D01*
X022893Y021759D01*
X022740Y021759D02*
X023200Y021759D01*
X023200Y021989D01*
X023124Y022066D01*
X022893Y021913D02*
X022740Y022066D01*
X021140Y020817D02*
X021140Y020510D01*
X020910Y020510D01*
X020987Y020663D01*
X020987Y020740D01*
X020910Y020817D01*
X020757Y020817D01*
X020680Y020740D01*
X020680Y020586D01*
X020757Y020510D01*
X020680Y020356D02*
X020680Y020049D01*
X020680Y020203D02*
X021140Y020203D01*
X020987Y020049D01*
X021064Y019896D02*
X021140Y019819D01*
X021140Y019666D01*
X021064Y019589D01*
X020757Y019589D01*
X020680Y019666D01*
X020680Y019819D01*
X020757Y019896D01*
X020000Y019896D02*
X020000Y020050D01*
X019924Y020127D01*
X019847Y020127D01*
X019770Y020050D01*
X019770Y019896D01*
X019847Y019820D01*
X019924Y019820D01*
X020000Y019896D01*
X019770Y019896D02*
X019693Y019820D01*
X019617Y019820D01*
X019540Y019896D01*
X019540Y020050D01*
X019617Y020127D01*
X019693Y020127D01*
X019770Y020050D01*
X019540Y019666D02*
X019540Y019359D01*
X019540Y019206D02*
X019693Y019052D01*
X019693Y019129D02*
X019693Y018899D01*
X019540Y018899D02*
X020000Y018899D01*
X020000Y019129D01*
X019924Y019206D01*
X019770Y019206D01*
X019693Y019129D01*
X019847Y019359D02*
X020000Y019513D01*
X019540Y019513D01*
X019957Y018530D02*
X019957Y018070D01*
X020110Y018070D02*
X019803Y018070D01*
X020110Y018377D02*
X019957Y018530D01*
X020264Y018530D02*
X020571Y018530D01*
X020417Y018530D02*
X020417Y018070D01*
X014950Y016264D02*
X014950Y015957D01*
X014873Y015880D01*
X014720Y015880D01*
X014643Y015957D01*
X014490Y015880D02*
X014183Y015880D01*
X014336Y015880D02*
X014336Y016340D01*
X014490Y016187D01*
X014643Y016264D02*
X014720Y016340D01*
X014873Y016340D01*
X014950Y016264D01*
X014029Y016110D02*
X013722Y016110D01*
X013799Y015880D02*
X013799Y016340D01*
X014029Y016110D01*
X006590Y019300D02*
X006590Y019377D01*
X006283Y019684D01*
X006283Y019760D01*
X006590Y019760D01*
X008364Y022355D02*
X008440Y022508D01*
D11*
X007932Y022688D02*
X007932Y021546D01*
X006988Y021546D01*
X006988Y021153D01*
X007932Y021153D01*
X007932Y021546D01*
X006988Y021546D02*
X006988Y022688D01*
X007932Y022688D01*
X010748Y022768D02*
X010748Y021626D01*
X011692Y021626D01*
X011692Y022768D01*
X010748Y022768D01*
X010748Y021626D02*
X010748Y021233D01*
X011692Y021233D01*
X011692Y021626D01*
X014988Y021626D02*
X014988Y021233D01*
X015932Y021233D01*
X015932Y021626D01*
X014988Y021626D01*
X014988Y022768D01*
X015932Y022768D01*
X015932Y021626D01*
X018828Y021626D02*
X018828Y022768D01*
X019772Y022768D01*
X019772Y021626D01*
X018828Y021626D01*
X018828Y021233D01*
X019772Y021233D01*
X019772Y021626D01*
X011088Y024980D02*
X011090Y025070D01*
X011096Y025160D01*
X011106Y025250D01*
X011120Y025339D01*
X011137Y025427D01*
X011159Y025515D01*
X011184Y025601D01*
X011213Y025687D01*
X011246Y025770D01*
X011283Y025853D01*
X011323Y025934D01*
X011367Y026012D01*
X011414Y026089D01*
X011464Y026164D01*
X011518Y026237D01*
X011575Y026307D01*
X011634Y026374D01*
X011697Y026439D01*
X011762Y026501D01*
X011831Y026560D01*
X011901Y026616D01*
X011974Y026669D01*
X012050Y026718D01*
X012127Y026765D01*
X012206Y026807D01*
X012288Y026847D01*
X012370Y026882D01*
X012455Y026914D01*
X012540Y026942D01*
X012627Y026967D01*
X012715Y026987D01*
X012803Y027004D01*
X012893Y027017D01*
X012982Y027026D01*
X013072Y027031D01*
X013163Y027032D01*
X013253Y027029D01*
X013343Y027022D01*
X013432Y027011D01*
X013521Y026996D01*
X013609Y026978D01*
X013696Y026955D01*
X013783Y026929D01*
X013868Y026899D01*
X013951Y026865D01*
X014033Y026827D01*
X014114Y026786D01*
X014192Y026742D01*
X014268Y026694D01*
X014342Y026643D01*
X014414Y026588D01*
X014484Y026531D01*
X014551Y026470D01*
X014615Y026407D01*
X014676Y026341D01*
X014734Y026272D01*
X014789Y026201D01*
X014841Y026127D01*
X014890Y026051D01*
X014936Y025973D01*
X014977Y025893D01*
X015016Y025812D01*
X015051Y025729D01*
X015082Y025644D01*
X015109Y025558D01*
X015132Y025471D01*
X015152Y025383D01*
X015168Y025294D01*
X015180Y025205D01*
X015188Y025115D01*
X015192Y025025D01*
X015192Y024935D01*
X015188Y024845D01*
X015180Y024755D01*
X015168Y024666D01*
X015152Y024577D01*
X015132Y024489D01*
X015109Y024402D01*
X015082Y024316D01*
X015051Y024231D01*
X015016Y024148D01*
X014977Y024067D01*
X014936Y023987D01*
X014890Y023909D01*
X014841Y023833D01*
X014789Y023759D01*
X014734Y023688D01*
X014676Y023619D01*
X014615Y023553D01*
X014551Y023490D01*
X014484Y023429D01*
X014414Y023372D01*
X014342Y023317D01*
X014268Y023266D01*
X014192Y023218D01*
X014114Y023174D01*
X014033Y023133D01*
X013951Y023095D01*
X013868Y023061D01*
X013783Y023031D01*
X013696Y023005D01*
X013609Y022982D01*
X013521Y022964D01*
X013432Y022949D01*
X013343Y022938D01*
X013253Y022931D01*
X013163Y022928D01*
X013072Y022929D01*
X012982Y022934D01*
X012893Y022943D01*
X012803Y022956D01*
X012715Y022973D01*
X012627Y022993D01*
X012540Y023018D01*
X012455Y023046D01*
X012370Y023078D01*
X012288Y023113D01*
X012206Y023153D01*
X012127Y023195D01*
X012050Y023242D01*
X011974Y023291D01*
X011901Y023344D01*
X011831Y023400D01*
X011762Y023459D01*
X011697Y023521D01*
X011634Y023586D01*
X011575Y023653D01*
X011518Y023723D01*
X011464Y023796D01*
X011414Y023871D01*
X011367Y023948D01*
X011323Y024026D01*
X011283Y024107D01*
X011246Y024190D01*
X011213Y024273D01*
X011184Y024359D01*
X011159Y024445D01*
X011137Y024533D01*
X011120Y024621D01*
X011106Y024710D01*
X011096Y024800D01*
X011090Y024890D01*
X011088Y024980D01*
X007570Y018167D02*
X007727Y018010D01*
X006310Y018167D02*
X006153Y018167D01*
X006153Y018010D01*
X006153Y016750D02*
X006153Y016593D01*
X006310Y016593D01*
X007570Y016593D02*
X007727Y016593D01*
X007727Y016750D01*
X009615Y013816D02*
X009615Y013516D01*
X009615Y013666D02*
X010065Y013666D01*
X009915Y013516D01*
X010065Y013356D02*
X010065Y013206D01*
X010065Y013281D02*
X009690Y013281D01*
X009615Y013206D01*
X009615Y013130D01*
X009690Y013055D01*
X009690Y012895D02*
X009615Y012820D01*
X009615Y012670D01*
X009690Y012595D01*
X009840Y012670D02*
X009915Y012595D01*
X009990Y012595D01*
X010065Y012670D01*
X010065Y012820D01*
X009990Y012895D01*
X009840Y012820D02*
X009765Y012895D01*
X009690Y012895D01*
X009840Y012820D02*
X009840Y012670D01*
X014035Y010085D02*
X015285Y010085D01*
X015285Y008835D02*
X014035Y008835D01*
X017730Y014994D02*
X017655Y015069D01*
X017655Y015219D01*
X017730Y015294D01*
X017805Y015294D01*
X017880Y015219D01*
X017880Y015069D01*
X017955Y014994D01*
X018030Y014994D01*
X018105Y015069D01*
X018105Y015219D01*
X018030Y015294D01*
X018105Y015604D02*
X018105Y015754D01*
X018105Y015679D02*
X017730Y015679D01*
X017655Y015604D01*
X017655Y015529D01*
X017730Y015454D01*
X017655Y015915D02*
X017955Y016215D01*
X018030Y016215D01*
X018105Y016140D01*
X018105Y015990D01*
X018030Y015915D01*
X017655Y015915D02*
X017655Y016215D01*
D12*
X007082Y017780D02*
X007057Y017755D01*
X007007Y017755D01*
X006982Y017780D01*
X006982Y017905D01*
X006935Y017880D02*
X006910Y017905D01*
X006860Y017905D01*
X006835Y017880D01*
X006835Y017855D01*
X006860Y017830D01*
X006835Y017805D01*
X006835Y017780D01*
X006860Y017755D01*
X006910Y017755D01*
X006935Y017780D01*
X006885Y017830D02*
X006860Y017830D01*
X007082Y017780D02*
X007082Y017905D01*
D13*
X010290Y015030D02*
X011510Y015030D01*
X009640Y014810D02*
X009230Y014810D01*
X009440Y013870D02*
X008840Y013870D01*
X008823Y013868D01*
X008806Y013864D01*
X008790Y013857D01*
X008776Y013847D01*
X008763Y013834D01*
X008753Y013820D01*
X008746Y013804D01*
X008742Y013787D01*
X008740Y013770D01*
X008740Y012670D01*
X008742Y012653D01*
X008746Y012636D01*
X008753Y012620D01*
X008763Y012606D01*
X008776Y012593D01*
X008790Y012583D01*
X008806Y012576D01*
X008823Y012572D01*
X008840Y012570D01*
X009440Y012570D01*
X009457Y012572D01*
X009474Y012576D01*
X009490Y012583D01*
X009504Y012593D01*
X009517Y012606D01*
X009527Y012620D01*
X009534Y012636D01*
X009538Y012653D01*
X009540Y012670D01*
X009540Y013770D01*
X009538Y013787D01*
X009534Y013804D01*
X009527Y013820D01*
X009517Y013834D01*
X009504Y013847D01*
X009490Y013857D01*
X009474Y013864D01*
X009457Y013868D01*
X009440Y013870D01*
X010290Y013810D02*
X011510Y013810D01*
X014610Y013850D02*
X015830Y013850D01*
X016480Y014070D02*
X016890Y014070D01*
X016760Y015050D02*
X017360Y015050D01*
X017377Y015052D01*
X017394Y015056D01*
X017410Y015063D01*
X017424Y015073D01*
X017437Y015086D01*
X017447Y015100D01*
X017454Y015116D01*
X017458Y015133D01*
X017460Y015150D01*
X017460Y016250D01*
X017458Y016267D01*
X017454Y016284D01*
X017447Y016300D01*
X017437Y016314D01*
X017424Y016327D01*
X017410Y016337D01*
X017394Y016344D01*
X017377Y016348D01*
X017360Y016350D01*
X016760Y016350D01*
X016743Y016348D01*
X016726Y016344D01*
X016710Y016337D01*
X016696Y016327D01*
X016683Y016314D01*
X016673Y016300D01*
X016666Y016284D01*
X016662Y016267D01*
X016660Y016250D01*
X016660Y015150D01*
X016662Y015133D01*
X016666Y015116D01*
X016673Y015100D01*
X016683Y015086D01*
X016696Y015073D01*
X016710Y015063D01*
X016726Y015056D01*
X016743Y015052D01*
X016760Y015050D01*
X015830Y015070D02*
X014610Y015070D01*
X014070Y011130D02*
X014070Y010830D01*
X014530Y010650D02*
X014790Y010650D01*
X015250Y010830D02*
X015250Y011130D01*
X009220Y010619D02*
X009220Y009981D01*
X009183Y009981D01*
X008866Y009981D02*
X008454Y009981D01*
X008137Y009981D02*
X008100Y009981D01*
X008100Y010619D01*
X008137Y010619D01*
X008454Y010619D02*
X008491Y010619D01*
X008829Y010619D02*
X008866Y010619D01*
X009183Y010619D02*
X009220Y010619D01*
D14*
X013913Y011461D02*
X014227Y011775D01*
X014227Y011618D02*
X013913Y011618D01*
X013913Y011775D02*
X014227Y011461D01*
X014070Y011461D02*
X014070Y011775D01*
X014055Y013603D02*
X014369Y013917D01*
X014212Y013917D02*
X014212Y013603D01*
X014369Y013603D02*
X014055Y013917D01*
X014055Y013760D02*
X014369Y013760D01*
X012065Y014963D02*
X011751Y015277D01*
X011751Y015120D02*
X012065Y015120D01*
X012065Y015277D02*
X011751Y014963D01*
X011908Y014963D02*
X011908Y015277D01*
D15*
X011420Y015593D02*
X011297Y015470D01*
X011050Y015470D01*
X010926Y015593D01*
X010926Y016211D01*
X010665Y015964D02*
X010418Y016211D01*
X010418Y015470D01*
X010665Y015470D02*
X010171Y015470D01*
X011420Y015593D02*
X011420Y016211D01*
X015270Y016385D02*
X016011Y016385D01*
X015640Y016015D01*
X015640Y016509D01*
X015393Y015754D02*
X016011Y015754D01*
X015393Y015754D02*
X015270Y015630D01*
X015270Y015383D01*
X015393Y015260D01*
X016011Y015260D01*
X015900Y011310D02*
X015653Y011310D01*
X015530Y011187D01*
X015530Y010569D01*
X016024Y010569D02*
X016024Y011187D01*
X015900Y011310D01*
X016285Y011187D02*
X016408Y011310D01*
X016655Y011310D01*
X016779Y011187D01*
X016779Y010940D01*
X016655Y010816D01*
X016532Y010816D01*
X016285Y010940D01*
X016285Y010569D01*
X016779Y010569D01*
D16*
X013190Y024980D03*
D17*
X014048Y010450D02*
X014048Y010230D01*
X014121Y010230D02*
X013974Y010230D01*
X014121Y010377D02*
X014048Y010450D01*
X014195Y010230D02*
X014342Y010230D01*
X014342Y010450D01*
D18*
X009091Y022001D03*
X008549Y022001D03*
X012309Y022081D03*
X012851Y022081D03*
X013989Y022161D03*
X014531Y022161D03*
X017909Y022161D03*
X018451Y022161D03*
D19*
X018180Y022009D03*
X014260Y022009D03*
X012580Y021929D03*
X008820Y021849D03*
M02*
