G75*
%MOIN*%
%OFA0B0*%
%FSLAX24Y24*%
%IPPOS*%
%LPD*%
%AMOC8*
5,1,8,0,0,1.08239X$1,22.5*
%
%ADD10C,0.0040*%
%ADD11C,0.0060*%
%ADD12C,0.0050*%
%ADD13R,0.0128X0.0167*%
%ADD14R,0.0138X0.0138*%
%ADD15C,0.0080*%
%ADD16C,0.0143*%
%ADD17C,0.0030*%
%ADD18R,0.3346X0.8268*%
%ADD19R,1.0039X0.6102*%
%ADD20R,0.1000X0.2500*%
D10*
X006268Y006730D02*
X006268Y007322D01*
X006697Y007261D02*
X006615Y008345D01*
X006697Y008345D01*
X006799Y007404D01*
X007003Y007404D01*
X007106Y008345D01*
X007187Y008345D01*
X007085Y007261D01*
X007081Y007242D01*
X007075Y007223D01*
X007065Y007206D01*
X007053Y007190D01*
X007038Y007177D01*
X007021Y007166D01*
X007003Y007159D01*
X006778Y007159D02*
X006760Y007166D01*
X006743Y007177D01*
X006728Y007190D01*
X006716Y007206D01*
X006706Y007223D01*
X006700Y007242D01*
X006696Y007261D01*
X006779Y007160D02*
X006816Y007151D01*
X006853Y007145D01*
X006891Y007143D01*
X006929Y007145D01*
X006966Y007151D01*
X007003Y007160D01*
X007289Y007261D02*
X007371Y008856D01*
X007374Y008874D01*
X007381Y008891D01*
X007390Y008906D01*
X007403Y008919D01*
X007418Y008928D01*
X007435Y008935D01*
X007453Y008938D01*
X007453Y008937D02*
X008107Y008937D01*
X008107Y008938D02*
X008125Y008935D01*
X008142Y008928D01*
X008157Y008919D01*
X008170Y008906D01*
X008179Y008891D01*
X008186Y008874D01*
X008189Y008856D01*
X008270Y007261D01*
X008271Y007261D02*
X008269Y007245D01*
X008265Y007230D01*
X008257Y007215D01*
X008247Y007203D01*
X008235Y007193D01*
X008220Y007185D01*
X008205Y007181D01*
X008189Y007179D01*
X008173Y007181D01*
X008158Y007185D01*
X008143Y007193D01*
X008131Y007203D01*
X008121Y007215D01*
X008113Y007230D01*
X008109Y007245D01*
X008107Y007261D01*
X008025Y008610D01*
X007535Y008610D01*
X007453Y007261D01*
X007451Y007245D01*
X007447Y007230D01*
X007439Y007215D01*
X007429Y007203D01*
X007417Y007193D01*
X007402Y007185D01*
X007387Y007181D01*
X007371Y007179D01*
X007371Y007180D02*
X007371Y007180D01*
X007371Y007179D02*
X007355Y007181D01*
X007340Y007185D01*
X007325Y007193D01*
X007313Y007203D01*
X007303Y007215D01*
X007295Y007230D01*
X007291Y007245D01*
X007289Y007261D01*
X006268Y006730D02*
X009292Y006730D01*
X009292Y007322D01*
X008863Y007261D02*
X008945Y008345D01*
X008863Y008345D01*
X008761Y007404D01*
X008557Y007404D01*
X008454Y008345D01*
X008373Y008345D01*
X008475Y007261D01*
X008479Y007242D01*
X008485Y007223D01*
X008495Y007206D01*
X008507Y007190D01*
X008522Y007177D01*
X008539Y007166D01*
X008557Y007159D01*
X008781Y007159D02*
X008799Y007166D01*
X008816Y007177D01*
X008831Y007190D01*
X008843Y007206D01*
X008853Y007223D01*
X008859Y007242D01*
X008863Y007261D01*
X008781Y007160D02*
X008744Y007151D01*
X008707Y007145D01*
X008669Y007143D01*
X008631Y007145D01*
X008594Y007151D01*
X008557Y007160D01*
X009292Y006730D02*
X009292Y006730D01*
X009292Y008437D02*
X009292Y009346D01*
X009294Y009330D01*
X009298Y009315D01*
X009306Y009300D01*
X009316Y009288D01*
X009328Y009278D01*
X009343Y009270D01*
X009358Y009266D01*
X009374Y009264D01*
X009435Y009264D01*
X008577Y009387D02*
X008575Y009403D01*
X008571Y009418D01*
X008563Y009433D01*
X008553Y009445D01*
X008541Y009455D01*
X008526Y009463D01*
X008511Y009467D01*
X008495Y009469D01*
X007065Y009469D01*
X007049Y009467D01*
X007034Y009463D01*
X007019Y009455D01*
X007007Y009445D01*
X006997Y009433D01*
X006989Y009418D01*
X006985Y009403D01*
X006983Y009387D01*
X006983Y009387D01*
X006985Y009367D01*
X006991Y009348D01*
X007000Y009330D01*
X007013Y009315D01*
X007028Y009302D01*
X007046Y009293D01*
X007065Y009287D01*
X007085Y009285D01*
X008475Y009285D01*
X008495Y009287D01*
X008514Y009293D01*
X008532Y009302D01*
X008547Y009315D01*
X008560Y009330D01*
X008569Y009348D01*
X008575Y009367D01*
X008577Y009387D01*
X008577Y009673D02*
X008577Y010409D01*
X008577Y010429D02*
X008965Y010429D01*
X008965Y010409D02*
X008965Y010266D01*
X006983Y010409D02*
X006983Y009673D01*
X006268Y009346D02*
X006268Y008437D01*
X005510Y008097D02*
X005510Y007790D01*
X005510Y007637D02*
X005050Y007330D01*
X005050Y007637D02*
X005510Y007330D01*
X005203Y007790D02*
X005050Y007944D01*
X005510Y007944D01*
X006124Y009264D02*
X006186Y009264D01*
X006202Y009266D01*
X006217Y009270D01*
X006232Y009278D01*
X006244Y009288D01*
X006254Y009300D01*
X006262Y009315D01*
X006266Y009330D01*
X006268Y009346D01*
X006595Y010266D02*
X006595Y010409D01*
X006595Y010429D02*
X006983Y010429D01*
X011001Y011890D02*
X011078Y011813D01*
X011231Y011813D01*
X011308Y011890D01*
X011462Y011890D02*
X011462Y011813D01*
X011462Y011890D02*
X011769Y012197D01*
X011769Y012274D01*
X011462Y012274D01*
X011308Y012197D02*
X011231Y012274D01*
X011078Y012274D01*
X011001Y012197D01*
X011001Y011890D01*
X013041Y011890D02*
X013118Y011813D01*
X013271Y011813D01*
X013348Y011890D01*
X013502Y012043D02*
X013809Y012043D01*
X013732Y011813D02*
X013732Y012274D01*
X013502Y012043D01*
X013348Y012197D02*
X013271Y012274D01*
X013118Y012274D01*
X013041Y012197D01*
X013041Y011890D01*
X015521Y011910D02*
X015598Y011833D01*
X015751Y011833D01*
X015828Y011910D01*
X015982Y011910D02*
X015982Y011987D01*
X016058Y012063D01*
X016212Y012063D01*
X016289Y011987D01*
X016289Y011910D01*
X016212Y011833D01*
X016058Y011833D01*
X015982Y011910D01*
X016058Y012063D02*
X015982Y012140D01*
X015982Y012217D01*
X016058Y012294D01*
X016212Y012294D01*
X016289Y012217D01*
X016289Y012140D01*
X016212Y012063D01*
X015828Y012217D02*
X015751Y012294D01*
X015598Y012294D01*
X015521Y012217D01*
X015521Y011910D01*
X012560Y019120D02*
X012406Y019120D01*
X012330Y019197D01*
X012330Y019350D01*
X012560Y019350D01*
X012637Y019273D01*
X012637Y019197D01*
X012560Y019120D01*
X012330Y019350D02*
X012483Y019504D01*
X012637Y019580D01*
X012176Y019504D02*
X012099Y019580D01*
X011946Y019580D01*
X011869Y019504D01*
X011869Y019197D01*
X011946Y019120D01*
X012099Y019120D01*
X012176Y019197D01*
X008900Y019979D02*
X008440Y019979D01*
X008440Y020209D01*
X008516Y020286D01*
X008670Y020286D01*
X008747Y020209D01*
X008747Y019979D01*
X008747Y020133D02*
X008900Y020286D01*
X008823Y020440D02*
X008900Y020516D01*
X008900Y020670D01*
X008823Y020747D01*
X008747Y020747D01*
X008670Y020670D01*
X008670Y020593D01*
X008670Y020670D02*
X008593Y020747D01*
X008516Y020747D01*
X008440Y020670D01*
X008440Y020516D01*
X008516Y020440D01*
X008360Y021380D02*
X007900Y021380D01*
X007900Y021610D01*
X007976Y021687D01*
X008130Y021687D01*
X008207Y021610D01*
X008207Y021380D01*
X008207Y021533D02*
X008360Y021687D01*
X008360Y021840D02*
X008053Y022147D01*
X007976Y022147D01*
X007900Y022071D01*
X007900Y021917D01*
X007976Y021840D01*
X008360Y021840D02*
X008360Y022147D01*
X008283Y022301D02*
X008360Y022378D01*
X008360Y022531D01*
X008283Y022608D01*
X008207Y022608D01*
X008130Y022531D01*
X008130Y022378D01*
X008053Y022301D01*
X007976Y022301D01*
X007900Y022378D01*
X007900Y022531D01*
X007976Y022608D01*
X008053Y022608D01*
X008130Y022531D01*
X008130Y022378D02*
X008207Y022301D01*
X008283Y022301D01*
X007280Y022327D02*
X007280Y022020D01*
X006973Y022327D01*
X006896Y022327D01*
X006820Y022251D01*
X006820Y022097D01*
X006896Y022020D01*
X006896Y021867D02*
X007050Y021867D01*
X007127Y021790D01*
X007127Y021560D01*
X007280Y021560D02*
X006820Y021560D01*
X006820Y021790D01*
X006896Y021867D01*
X007127Y021713D02*
X007280Y021867D01*
X007280Y022481D02*
X007203Y022481D01*
X006896Y022788D01*
X006820Y022788D01*
X006820Y022481D01*
X006860Y023240D02*
X007320Y023240D01*
X007320Y023547D01*
X007320Y023700D02*
X007320Y024007D01*
X007320Y024161D02*
X006860Y024161D01*
X006860Y024391D01*
X006936Y024468D01*
X007243Y024468D01*
X007320Y024391D01*
X007320Y024161D01*
X007090Y023854D02*
X007090Y023700D01*
X006860Y023700D02*
X007320Y023700D01*
X006860Y023700D02*
X006860Y024007D01*
X007013Y024621D02*
X006860Y024775D01*
X007320Y024775D01*
X007320Y024928D02*
X007320Y024621D01*
X007320Y025082D02*
X007013Y025388D01*
X006936Y025388D01*
X006860Y025312D01*
X006860Y025158D01*
X006936Y025082D01*
X007320Y025082D02*
X007320Y025388D01*
X007176Y025510D02*
X007483Y025510D01*
X007560Y025587D01*
X007560Y025740D01*
X007483Y025817D01*
X007560Y025970D02*
X007253Y026277D01*
X007176Y026277D01*
X007100Y026201D01*
X007100Y026047D01*
X007176Y025970D01*
X007176Y025817D02*
X007100Y025740D01*
X007100Y025587D01*
X007176Y025510D01*
X007560Y025970D02*
X007560Y026277D01*
X007483Y026431D02*
X007560Y026508D01*
X007560Y026661D01*
X007483Y026738D01*
X007330Y026738D01*
X007253Y026661D01*
X007253Y026584D01*
X007330Y026431D01*
X007100Y026431D01*
X007100Y026738D01*
X009360Y026367D02*
X009360Y026060D01*
X009590Y026060D01*
X009513Y026213D01*
X009513Y026290D01*
X009590Y026367D01*
X009743Y026367D01*
X009820Y026290D01*
X009820Y026136D01*
X009743Y026060D01*
X009820Y025906D02*
X009820Y025599D01*
X009820Y025446D02*
X009667Y025292D01*
X009667Y025369D02*
X009667Y025139D01*
X009820Y025139D02*
X009360Y025139D01*
X009360Y025369D01*
X009436Y025446D01*
X009590Y025446D01*
X009667Y025369D01*
X009513Y025599D02*
X009360Y025753D01*
X009820Y025753D01*
X009380Y025148D02*
X009380Y024842D01*
X009380Y024995D02*
X008920Y024995D01*
X009073Y024842D01*
X009380Y024688D02*
X009380Y024381D01*
X009380Y024535D02*
X008920Y024535D01*
X009073Y024381D01*
X008996Y024228D02*
X008920Y024151D01*
X008920Y023921D01*
X009380Y023921D01*
X009380Y024151D01*
X009303Y024228D01*
X008996Y024228D01*
X010209Y024004D02*
X010209Y023697D01*
X010286Y023620D01*
X010439Y023620D01*
X010516Y023697D01*
X010669Y023697D02*
X010746Y023620D01*
X010899Y023620D01*
X010976Y023697D01*
X010976Y023773D01*
X010899Y023850D01*
X010823Y023850D01*
X010899Y023850D02*
X010976Y023927D01*
X010976Y024004D01*
X010899Y024080D01*
X010746Y024080D01*
X010669Y024004D01*
X010516Y024004D02*
X010439Y024080D01*
X010286Y024080D01*
X010209Y024004D01*
X009380Y023767D02*
X009380Y023460D01*
X008920Y023460D01*
X008920Y023767D01*
X009150Y023614D02*
X009150Y023460D01*
X009380Y023307D02*
X009380Y023000D01*
X008920Y023000D01*
X011130Y023620D02*
X011437Y023927D01*
X011437Y024004D01*
X011360Y024080D01*
X011206Y024080D01*
X011130Y024004D01*
X011130Y023620D02*
X011437Y023620D01*
X016359Y024237D02*
X016436Y024160D01*
X016589Y024160D01*
X016666Y024237D01*
X016666Y024544D01*
X016589Y024620D01*
X016436Y024620D01*
X016359Y024544D01*
X016359Y024237D01*
X016513Y024313D02*
X016666Y024160D01*
X016820Y024160D02*
X017127Y024160D01*
X016973Y024160D02*
X016973Y024620D01*
X016820Y024467D01*
X017500Y024421D02*
X017500Y024267D01*
X017576Y024190D01*
X017576Y024037D02*
X017500Y023960D01*
X017500Y023807D01*
X017576Y023730D01*
X017883Y023730D01*
X017960Y023807D01*
X017960Y023960D01*
X017883Y024037D01*
X017960Y024190D02*
X017653Y024497D01*
X017576Y024497D01*
X017500Y024421D01*
X017653Y024651D02*
X017500Y024804D01*
X017960Y024804D01*
X017960Y024651D02*
X017960Y024958D01*
X017960Y024497D02*
X017960Y024190D01*
X017801Y021400D02*
X017648Y021400D01*
X017571Y021324D01*
X017417Y021324D02*
X017341Y021400D01*
X017187Y021400D01*
X017110Y021324D01*
X016957Y021324D02*
X016880Y021400D01*
X016727Y021400D01*
X016650Y021324D01*
X016650Y021017D01*
X016727Y020940D01*
X016880Y020940D01*
X016957Y021017D01*
X017110Y020940D02*
X017417Y021247D01*
X017417Y021324D01*
X017417Y020940D02*
X017110Y020940D01*
X017571Y020940D02*
X017878Y021247D01*
X017878Y021324D01*
X017801Y021400D01*
X017878Y020940D02*
X017571Y020940D01*
X017671Y020340D02*
X017440Y020110D01*
X017747Y020110D01*
X017671Y019880D02*
X017671Y020340D01*
X017287Y020264D02*
X017287Y020110D01*
X017210Y020033D01*
X016980Y020033D01*
X016980Y019880D02*
X016980Y020340D01*
X017210Y020340D01*
X017287Y020264D01*
X017133Y020033D02*
X017287Y019880D01*
X020349Y020097D02*
X020426Y020020D01*
X020579Y020020D01*
X020656Y020097D01*
X020810Y020097D02*
X020886Y020020D01*
X021040Y020020D01*
X021117Y020097D01*
X021117Y020173D01*
X021040Y020250D01*
X020963Y020250D01*
X021040Y020250D02*
X021117Y020327D01*
X021117Y020404D01*
X021040Y020480D01*
X020886Y020480D01*
X020810Y020404D01*
X020656Y020404D02*
X020579Y020480D01*
X020426Y020480D01*
X020349Y020404D01*
X020349Y020097D01*
X004220Y024338D02*
X003760Y024338D01*
X003760Y024568D01*
X003836Y024645D01*
X003990Y024645D01*
X004067Y024568D01*
X004067Y024338D01*
X004067Y024491D02*
X004220Y024645D01*
X004220Y024798D02*
X003760Y024798D01*
X003760Y025105D01*
X003836Y025259D02*
X003913Y025259D01*
X003990Y025336D01*
X003990Y025489D01*
X004067Y025566D01*
X004143Y025566D01*
X004220Y025489D01*
X004220Y025336D01*
X004143Y025259D01*
X004220Y025105D02*
X004220Y024798D01*
X003990Y024798D02*
X003990Y024952D01*
X003836Y025259D02*
X003760Y025336D01*
X003760Y025489D01*
X003836Y025566D01*
X003760Y025719D02*
X004220Y025719D01*
X004220Y026026D01*
X003990Y025873D02*
X003990Y025719D01*
X003760Y025719D02*
X003760Y026026D01*
X003760Y026180D02*
X003760Y026487D01*
X003760Y026333D02*
X004220Y026333D01*
X003460Y023487D02*
X003307Y023333D01*
X003307Y023410D02*
X003307Y023180D01*
X003460Y023180D02*
X003000Y023180D01*
X003000Y023410D01*
X003076Y023487D01*
X003230Y023487D01*
X003307Y023410D01*
X003460Y023026D02*
X003460Y022719D01*
X003000Y022719D01*
X003000Y023026D01*
X003230Y022873D02*
X003230Y022719D01*
X003307Y022566D02*
X003383Y022566D01*
X003460Y022489D01*
X003460Y022336D01*
X003383Y022259D01*
X003383Y022105D02*
X003000Y022105D01*
X003076Y022259D02*
X003153Y022259D01*
X003230Y022336D01*
X003230Y022489D01*
X003307Y022566D01*
X003076Y022566D02*
X003000Y022489D01*
X003000Y022336D01*
X003076Y022259D01*
X003383Y022105D02*
X003460Y022029D01*
X003460Y021875D01*
X003383Y021798D01*
X003000Y021798D01*
D11*
X011268Y021580D02*
X011360Y021488D01*
X011268Y021580D02*
X011360Y021672D01*
X014818Y021835D02*
X014818Y021325D01*
X015080Y021488D02*
X015172Y021580D01*
X015080Y021672D01*
X013312Y023440D02*
X013220Y023532D01*
X013128Y023440D01*
X012890Y025440D02*
X012390Y025440D01*
X012140Y025690D01*
X011890Y025440D01*
X011390Y025440D01*
X011140Y025690D01*
X011140Y026190D01*
X011390Y026440D01*
X011890Y026440D01*
X012140Y026190D01*
X012390Y026440D01*
X012890Y026440D01*
X013140Y026190D01*
X013390Y026440D01*
X013890Y026440D01*
X014140Y026190D01*
X014390Y026440D01*
X014890Y026440D01*
X015140Y026190D01*
X015140Y025690D01*
X014890Y025440D01*
X014390Y025440D01*
X014140Y025690D01*
X013890Y025440D01*
X013390Y025440D01*
X013140Y025690D01*
X012890Y025440D01*
X020540Y024970D02*
X020540Y024470D01*
X020790Y024220D01*
X020540Y023970D01*
X020540Y023470D01*
X020790Y023220D01*
X020540Y022970D01*
X020540Y022470D01*
X020790Y022220D01*
X020540Y021970D01*
X020540Y021470D01*
X020790Y021220D01*
X022290Y021220D01*
X022540Y021470D01*
X022540Y021970D01*
X022290Y022220D01*
X022540Y022470D01*
X022540Y022970D01*
X022290Y023220D01*
X022540Y023470D01*
X022540Y023970D01*
X022290Y024220D01*
X022540Y024470D01*
X022540Y024970D01*
X022290Y025220D01*
X020790Y025220D01*
X020540Y024970D01*
X013312Y019720D02*
X013220Y019628D01*
X013128Y019720D01*
X018350Y009740D02*
X018100Y009490D01*
X018100Y007990D01*
X018350Y007740D01*
X018850Y007740D01*
X019100Y007990D01*
X019350Y007740D01*
X019850Y007740D01*
X020100Y007990D01*
X020350Y007740D01*
X020850Y007740D01*
X021100Y007990D01*
X021350Y007740D01*
X021850Y007740D01*
X022100Y007990D01*
X022100Y009490D01*
X021850Y009740D01*
X021350Y009740D01*
X021100Y009490D01*
X020850Y009740D01*
X020350Y009740D01*
X020100Y009490D01*
X019850Y009740D01*
X019350Y009740D01*
X019100Y009490D01*
X018850Y009740D01*
X018350Y009740D01*
X017100Y008620D02*
X017100Y007820D01*
X017000Y007720D01*
X016200Y007720D01*
X016100Y007820D01*
X016000Y007720D01*
X015200Y007720D01*
X015100Y007820D01*
X015100Y008620D01*
X015200Y008720D01*
X016000Y008720D01*
X016100Y008620D01*
X016200Y008720D01*
X017000Y008720D01*
X017100Y008620D01*
X014600Y008600D02*
X014600Y007800D01*
X014500Y007700D01*
X013700Y007700D01*
X013600Y007800D01*
X013500Y007700D01*
X012700Y007700D01*
X012600Y007800D01*
X012600Y008600D01*
X012700Y008700D01*
X013500Y008700D01*
X013600Y008600D01*
X013700Y008700D01*
X014500Y008700D01*
X014600Y008600D01*
X012140Y008620D02*
X012140Y007820D01*
X012040Y007720D01*
X011240Y007720D01*
X011140Y007820D01*
X011040Y007720D01*
X010240Y007720D01*
X010140Y007820D01*
X010140Y008620D01*
X010240Y008720D01*
X011040Y008720D01*
X011140Y008620D01*
X011240Y008720D01*
X012040Y008720D01*
X012140Y008620D01*
D12*
X012165Y008855D02*
X012165Y009305D01*
X011865Y009305D02*
X012165Y008855D01*
X011865Y008855D02*
X011865Y009305D01*
X011704Y009230D02*
X011704Y008930D01*
X011629Y008855D01*
X011479Y008855D01*
X011404Y008930D01*
X011404Y009230D01*
X011479Y009305D01*
X011629Y009305D01*
X011704Y009230D01*
X010784Y009230D02*
X010784Y009080D01*
X010709Y009005D01*
X010483Y009005D01*
X010483Y008855D02*
X010483Y009305D01*
X010709Y009305D01*
X010784Y009230D01*
X010634Y009005D02*
X010784Y008855D01*
X010944Y008780D02*
X011244Y008780D01*
X010323Y008855D02*
X010023Y008855D01*
X010023Y009305D01*
X010323Y009305D01*
X010173Y009080D02*
X010023Y009080D01*
X009863Y008855D02*
X009863Y009305D01*
X009563Y009305D02*
X009563Y008855D01*
X009713Y009005D01*
X009863Y008855D01*
X009403Y008930D02*
X009403Y009230D01*
X009327Y009305D01*
X009177Y009305D01*
X009102Y009230D01*
X009102Y008930D01*
X009177Y008855D01*
X009327Y008855D01*
X009403Y008930D01*
X008942Y009080D02*
X008942Y009230D01*
X008867Y009305D01*
X008642Y009305D01*
X008642Y008855D01*
X008642Y009005D02*
X008867Y009005D01*
X008942Y009080D01*
X012625Y009100D02*
X012850Y009100D01*
X012925Y009025D01*
X012925Y008950D01*
X012850Y008875D01*
X012625Y008875D01*
X012625Y009325D01*
X012850Y009325D01*
X012925Y009250D01*
X012925Y009175D01*
X012850Y009100D01*
X013085Y009100D02*
X013386Y009100D01*
X013386Y009175D02*
X013386Y008875D01*
X013386Y009175D02*
X013236Y009325D01*
X013085Y009175D01*
X013085Y008875D01*
X013696Y008875D02*
X013696Y009325D01*
X013546Y009325D02*
X013846Y009325D01*
X014006Y009325D02*
X014306Y009325D01*
X014156Y009325D02*
X014156Y008875D01*
X015443Y008935D02*
X015669Y008935D01*
X015744Y009010D01*
X015744Y009085D01*
X015669Y009160D01*
X015443Y009160D01*
X015443Y008935D02*
X015443Y009385D01*
X015669Y009385D01*
X015744Y009310D01*
X015744Y009235D01*
X015669Y009160D01*
X015904Y009010D02*
X015979Y008935D01*
X016129Y008935D01*
X016204Y009010D01*
X016204Y009310D01*
X016129Y009385D01*
X015979Y009385D01*
X015904Y009310D01*
X015904Y009010D01*
X016364Y009010D02*
X016439Y008935D01*
X016589Y008935D01*
X016664Y009010D01*
X016664Y009310D01*
X016589Y009385D01*
X016439Y009385D01*
X016364Y009310D01*
X016364Y009010D01*
X016825Y009385D02*
X017125Y009385D01*
X016975Y009385D02*
X016975Y008935D01*
X018295Y009835D02*
X018595Y009835D01*
X018755Y009835D02*
X019056Y010285D01*
X019216Y010285D02*
X019441Y010285D01*
X019516Y010210D01*
X019516Y010060D01*
X019441Y009985D01*
X019216Y009985D01*
X019216Y009835D02*
X019216Y010285D01*
X018755Y010285D02*
X019056Y009835D01*
X019676Y009835D02*
X019676Y010135D01*
X019826Y010285D01*
X019976Y010135D01*
X019976Y009835D01*
X020136Y009835D02*
X020136Y010285D01*
X020437Y009835D01*
X020437Y010285D01*
X020597Y010210D02*
X020597Y010135D01*
X020672Y010060D01*
X020822Y010060D01*
X020897Y009985D01*
X020897Y009910D01*
X020822Y009835D01*
X020672Y009835D01*
X020597Y009910D01*
X020597Y010210D02*
X020672Y010285D01*
X020822Y010285D01*
X020897Y010210D01*
X021057Y010285D02*
X021207Y010285D01*
X021132Y010285D02*
X021132Y009835D01*
X021057Y009835D02*
X021207Y009835D01*
X021364Y009910D02*
X021439Y009835D01*
X021589Y009835D01*
X021664Y009910D01*
X021664Y010210D01*
X021589Y010285D01*
X021439Y010285D01*
X021364Y010210D01*
X021364Y009910D01*
X021365Y009915D02*
X021665Y009915D01*
X021515Y009915D02*
X021515Y010365D01*
X021365Y010215D01*
X021825Y010285D02*
X021825Y009835D01*
X022125Y009835D02*
X021825Y010285D01*
X022125Y010285D02*
X022125Y009835D01*
X019976Y010060D02*
X019676Y010060D01*
X018595Y010285D02*
X018295Y010285D01*
X018295Y009835D01*
X018295Y010060D02*
X018445Y010060D01*
X018390Y007565D02*
X018465Y007490D01*
X018465Y007415D01*
X018390Y007340D01*
X018240Y007340D01*
X018165Y007415D01*
X018165Y007490D01*
X018240Y007565D01*
X018390Y007565D01*
X018390Y007340D02*
X018465Y007265D01*
X018465Y007190D01*
X018390Y007115D01*
X018240Y007115D01*
X018165Y007190D01*
X018165Y007265D01*
X018240Y007340D01*
X022790Y021285D02*
X022715Y021360D01*
X022715Y021510D01*
X022790Y021585D01*
X022865Y021585D01*
X022940Y021510D01*
X022940Y021360D01*
X022865Y021285D01*
X022790Y021285D01*
X022940Y021360D02*
X023015Y021285D01*
X023090Y021285D01*
X023165Y021360D01*
X023165Y021510D01*
X023090Y021585D01*
X023015Y021585D01*
X022940Y021510D01*
X022715Y023710D02*
X023165Y023710D01*
X023015Y023860D01*
X023165Y024011D01*
X022715Y024011D01*
X022715Y024171D02*
X022715Y024321D01*
X022715Y024246D02*
X023165Y024246D01*
X023165Y024171D02*
X023165Y024321D01*
X023165Y024478D02*
X022715Y024478D01*
X022715Y024778D01*
X022715Y024938D02*
X022715Y025088D01*
X022715Y025013D02*
X023165Y025013D01*
X023165Y024938D02*
X023165Y025088D01*
X022940Y024628D02*
X022940Y024478D01*
X020365Y024485D02*
X020365Y024785D01*
X020365Y024635D02*
X019915Y024635D01*
X020065Y024485D01*
X015565Y025940D02*
X015265Y025940D01*
X015490Y026165D01*
X015490Y025715D01*
X014613Y026615D02*
X014463Y026615D01*
X014388Y026690D01*
X014688Y026990D01*
X014688Y026690D01*
X014613Y026615D01*
X014388Y026690D02*
X014388Y026990D01*
X014463Y027065D01*
X014613Y027065D01*
X014688Y026990D01*
X014228Y027065D02*
X014077Y026990D01*
X013927Y026840D01*
X014153Y026840D01*
X014228Y026765D01*
X014228Y026690D01*
X014153Y026615D01*
X014002Y026615D01*
X013927Y026690D01*
X013927Y026840D01*
X013767Y026840D02*
X013542Y026840D01*
X013467Y026915D01*
X013467Y026990D01*
X013542Y027065D01*
X013692Y027065D01*
X013767Y026990D01*
X013767Y026690D01*
X013692Y026615D01*
X013542Y026615D01*
X013467Y026690D01*
X013307Y026690D02*
X013307Y026990D01*
X013232Y027065D01*
X013082Y027065D01*
X013007Y026990D01*
X013007Y026915D01*
X013082Y026840D01*
X013307Y026840D01*
X013307Y026690D02*
X013232Y026615D01*
X013082Y026615D01*
X013007Y026690D01*
X012846Y026690D02*
X012771Y026615D01*
X012621Y026615D01*
X012546Y026690D01*
X012386Y026690D02*
X012386Y026990D01*
X012311Y027065D01*
X012086Y027065D01*
X012086Y026615D01*
X012311Y026615D01*
X012386Y026690D01*
X012546Y026915D02*
X012621Y026840D01*
X012771Y026840D01*
X012846Y026765D01*
X012846Y026690D01*
X012846Y026990D02*
X012771Y027065D01*
X012621Y027065D01*
X012546Y026990D01*
X012546Y026915D01*
X011926Y026840D02*
X011851Y026765D01*
X011625Y026765D01*
X011625Y026615D02*
X011625Y027065D01*
X011851Y027065D01*
X011926Y026990D01*
X011926Y026840D01*
X011465Y026840D02*
X011165Y026840D01*
X011165Y026915D02*
X011315Y027065D01*
X011465Y026915D01*
X011465Y026615D01*
X011165Y026615D02*
X011165Y026915D01*
X010865Y026165D02*
X010865Y025715D01*
X010715Y025715D02*
X011015Y025715D01*
X010715Y026015D02*
X010865Y026165D01*
D13*
X008811Y023861D03*
X008269Y023861D03*
X007951Y023861D03*
X007409Y023861D03*
D14*
X007680Y023709D03*
X008540Y023709D03*
D15*
X006703Y024340D02*
X004537Y024340D01*
X003777Y024020D02*
X005943Y024020D01*
X006080Y023194D02*
X006080Y022406D01*
X004171Y022800D02*
X004173Y022852D01*
X004179Y022904D01*
X004189Y022955D01*
X004202Y023005D01*
X004220Y023055D01*
X004241Y023102D01*
X004265Y023148D01*
X004294Y023192D01*
X004325Y023234D01*
X004359Y023273D01*
X004396Y023310D01*
X004436Y023343D01*
X004479Y023374D01*
X004523Y023401D01*
X004569Y023425D01*
X004618Y023445D01*
X004667Y023461D01*
X004718Y023474D01*
X004769Y023483D01*
X004821Y023488D01*
X004873Y023489D01*
X004925Y023486D01*
X004977Y023479D01*
X005028Y023468D01*
X005078Y023454D01*
X005127Y023435D01*
X005174Y023413D01*
X005219Y023388D01*
X005263Y023359D01*
X005304Y023327D01*
X005343Y023292D01*
X005378Y023254D01*
X005411Y023213D01*
X005441Y023171D01*
X005467Y023126D01*
X005490Y023079D01*
X005509Y023030D01*
X005525Y022980D01*
X005537Y022930D01*
X005545Y022878D01*
X005549Y022826D01*
X005549Y022774D01*
X005545Y022722D01*
X005537Y022670D01*
X005525Y022620D01*
X005509Y022570D01*
X005490Y022521D01*
X005467Y022474D01*
X005441Y022429D01*
X005411Y022387D01*
X005378Y022346D01*
X005343Y022308D01*
X005304Y022273D01*
X005263Y022241D01*
X005219Y022212D01*
X005174Y022187D01*
X005127Y022165D01*
X005078Y022146D01*
X005028Y022132D01*
X004977Y022121D01*
X004925Y022114D01*
X004873Y022111D01*
X004821Y022112D01*
X004769Y022117D01*
X004718Y022126D01*
X004667Y022139D01*
X004618Y022155D01*
X004569Y022175D01*
X004523Y022199D01*
X004479Y022226D01*
X004436Y022257D01*
X004396Y022290D01*
X004359Y022327D01*
X004325Y022366D01*
X004294Y022408D01*
X004265Y022452D01*
X004241Y022498D01*
X004220Y022545D01*
X004202Y022595D01*
X004189Y022645D01*
X004179Y022696D01*
X004173Y022748D01*
X004171Y022800D01*
X003640Y023194D02*
X003640Y022406D01*
X003777Y021580D02*
X005943Y021580D01*
X006840Y025166D02*
X006840Y025954D01*
X004931Y025560D02*
X004933Y025612D01*
X004939Y025664D01*
X004949Y025715D01*
X004962Y025765D01*
X004980Y025815D01*
X005001Y025862D01*
X005025Y025908D01*
X005054Y025952D01*
X005085Y025994D01*
X005119Y026033D01*
X005156Y026070D01*
X005196Y026103D01*
X005239Y026134D01*
X005283Y026161D01*
X005329Y026185D01*
X005378Y026205D01*
X005427Y026221D01*
X005478Y026234D01*
X005529Y026243D01*
X005581Y026248D01*
X005633Y026249D01*
X005685Y026246D01*
X005737Y026239D01*
X005788Y026228D01*
X005838Y026214D01*
X005887Y026195D01*
X005934Y026173D01*
X005979Y026148D01*
X006023Y026119D01*
X006064Y026087D01*
X006103Y026052D01*
X006138Y026014D01*
X006171Y025973D01*
X006201Y025931D01*
X006227Y025886D01*
X006250Y025839D01*
X006269Y025790D01*
X006285Y025740D01*
X006297Y025690D01*
X006305Y025638D01*
X006309Y025586D01*
X006309Y025534D01*
X006305Y025482D01*
X006297Y025430D01*
X006285Y025380D01*
X006269Y025330D01*
X006250Y025281D01*
X006227Y025234D01*
X006201Y025189D01*
X006171Y025147D01*
X006138Y025106D01*
X006103Y025068D01*
X006064Y025033D01*
X006023Y025001D01*
X005979Y024972D01*
X005934Y024947D01*
X005887Y024925D01*
X005838Y024906D01*
X005788Y024892D01*
X005737Y024881D01*
X005685Y024874D01*
X005633Y024871D01*
X005581Y024872D01*
X005529Y024877D01*
X005478Y024886D01*
X005427Y024899D01*
X005378Y024915D01*
X005329Y024935D01*
X005283Y024959D01*
X005239Y024986D01*
X005196Y025017D01*
X005156Y025050D01*
X005119Y025087D01*
X005085Y025126D01*
X005054Y025168D01*
X005025Y025212D01*
X005001Y025258D01*
X004980Y025305D01*
X004962Y025355D01*
X004949Y025405D01*
X004939Y025456D01*
X004933Y025508D01*
X004931Y025560D01*
X004400Y025954D02*
X004400Y025166D01*
X004537Y026780D02*
X006703Y026780D01*
X015678Y023358D02*
X015678Y023122D01*
X016407Y022590D02*
X017233Y022590D01*
X017962Y023122D02*
X017962Y023358D01*
X017233Y023890D02*
X016407Y023890D01*
X015738Y020952D02*
X015563Y020952D01*
X015389Y020778D01*
X015389Y020603D01*
X015117Y020506D02*
X015553Y020069D01*
X015553Y019895D01*
X015379Y019720D01*
X015204Y019720D01*
X014768Y020157D01*
X015825Y020167D02*
X015825Y020865D01*
X015738Y020952D01*
X016174Y020516D02*
X015825Y020167D01*
X015447Y011623D02*
X015191Y011623D01*
X014837Y011269D01*
X014837Y009537D01*
X015447Y009537D01*
X016313Y009537D02*
X016923Y009537D01*
X016923Y011269D01*
X016569Y011623D01*
X016313Y011623D01*
X014543Y011269D02*
X014189Y011623D01*
X013933Y011623D01*
X014543Y011269D02*
X014543Y009537D01*
X013933Y009537D01*
X013067Y009537D02*
X012457Y009537D01*
X012457Y011269D01*
X012811Y011623D01*
X013067Y011623D01*
X012303Y011309D02*
X011949Y011663D01*
X011693Y011663D01*
X012303Y011309D02*
X012303Y009577D01*
X011693Y009577D01*
X010827Y009577D02*
X010217Y009577D01*
X010217Y011309D01*
X010571Y011663D01*
X010827Y011663D01*
X010886Y011486D02*
X010831Y011460D01*
X010778Y011430D01*
X010726Y011397D01*
X010677Y011361D01*
X010631Y011322D01*
X010587Y011280D01*
X010545Y011235D01*
X010507Y011188D01*
X010472Y011138D01*
X010440Y011086D01*
X010412Y011032D01*
X010387Y010977D01*
X010366Y010919D01*
X010348Y010861D01*
X010335Y010802D01*
X010325Y010742D01*
X010319Y010681D01*
X010317Y010620D01*
X010319Y010559D01*
X010325Y010498D01*
X010335Y010438D01*
X010348Y010379D01*
X010366Y010321D01*
X010387Y010263D01*
X010412Y010208D01*
X010440Y010154D01*
X010472Y010102D01*
X010507Y010052D01*
X010545Y010005D01*
X010587Y009960D01*
X010631Y009918D01*
X010677Y009879D01*
X010726Y009843D01*
X010778Y009810D01*
X010831Y009780D01*
X010886Y009754D01*
X011634Y009754D02*
X011689Y009780D01*
X011742Y009810D01*
X011794Y009843D01*
X011843Y009879D01*
X011889Y009918D01*
X011933Y009960D01*
X011975Y010005D01*
X012013Y010052D01*
X012048Y010102D01*
X012080Y010154D01*
X012108Y010208D01*
X012133Y010263D01*
X012154Y010321D01*
X012172Y010379D01*
X012185Y010438D01*
X012195Y010498D01*
X012201Y010559D01*
X012203Y010620D01*
X012201Y010681D01*
X012195Y010742D01*
X012185Y010802D01*
X012172Y010861D01*
X012154Y010919D01*
X012133Y010977D01*
X012108Y011032D01*
X012080Y011086D01*
X012048Y011138D01*
X012013Y011188D01*
X011975Y011235D01*
X011933Y011280D01*
X011889Y011322D01*
X011843Y011361D01*
X011794Y011397D01*
X011742Y011430D01*
X011689Y011460D01*
X011634Y011486D01*
X013874Y011446D02*
X013929Y011420D01*
X013982Y011390D01*
X014034Y011357D01*
X014083Y011321D01*
X014129Y011282D01*
X014173Y011240D01*
X014215Y011195D01*
X014253Y011148D01*
X014288Y011098D01*
X014320Y011046D01*
X014348Y010992D01*
X014373Y010937D01*
X014394Y010879D01*
X014412Y010821D01*
X014425Y010762D01*
X014435Y010702D01*
X014441Y010641D01*
X014443Y010580D01*
X014441Y010519D01*
X014435Y010458D01*
X014425Y010398D01*
X014412Y010339D01*
X014394Y010281D01*
X014373Y010223D01*
X014348Y010168D01*
X014320Y010114D01*
X014288Y010062D01*
X014253Y010012D01*
X014215Y009965D01*
X014173Y009920D01*
X014129Y009878D01*
X014083Y009839D01*
X014034Y009803D01*
X013982Y009770D01*
X013929Y009740D01*
X013874Y009714D01*
X013126Y009714D02*
X013071Y009740D01*
X013018Y009770D01*
X012966Y009803D01*
X012917Y009839D01*
X012871Y009878D01*
X012827Y009920D01*
X012785Y009965D01*
X012747Y010012D01*
X012712Y010062D01*
X012680Y010114D01*
X012652Y010168D01*
X012627Y010223D01*
X012606Y010281D01*
X012588Y010339D01*
X012575Y010398D01*
X012565Y010458D01*
X012559Y010519D01*
X012557Y010580D01*
X012559Y010641D01*
X012565Y010702D01*
X012575Y010762D01*
X012588Y010821D01*
X012606Y010879D01*
X012627Y010937D01*
X012652Y010992D01*
X012680Y011046D01*
X012712Y011098D01*
X012747Y011148D01*
X012785Y011195D01*
X012827Y011240D01*
X012871Y011282D01*
X012917Y011321D01*
X012966Y011357D01*
X013018Y011390D01*
X013071Y011420D01*
X013126Y011446D01*
X016254Y011446D02*
X016309Y011420D01*
X016362Y011390D01*
X016414Y011357D01*
X016463Y011321D01*
X016509Y011282D01*
X016553Y011240D01*
X016595Y011195D01*
X016633Y011148D01*
X016668Y011098D01*
X016700Y011046D01*
X016728Y010992D01*
X016753Y010937D01*
X016774Y010879D01*
X016792Y010821D01*
X016805Y010762D01*
X016815Y010702D01*
X016821Y010641D01*
X016823Y010580D01*
X016821Y010519D01*
X016815Y010458D01*
X016805Y010398D01*
X016792Y010339D01*
X016774Y010281D01*
X016753Y010223D01*
X016728Y010168D01*
X016700Y010114D01*
X016668Y010062D01*
X016633Y010012D01*
X016595Y009965D01*
X016553Y009920D01*
X016509Y009878D01*
X016463Y009839D01*
X016414Y009803D01*
X016362Y009770D01*
X016309Y009740D01*
X016254Y009714D01*
X015506Y009714D02*
X015451Y009740D01*
X015398Y009770D01*
X015346Y009803D01*
X015297Y009839D01*
X015251Y009878D01*
X015207Y009920D01*
X015165Y009965D01*
X015127Y010012D01*
X015092Y010062D01*
X015060Y010114D01*
X015032Y010168D01*
X015007Y010223D01*
X014986Y010281D01*
X014968Y010339D01*
X014955Y010398D01*
X014945Y010458D01*
X014939Y010519D01*
X014937Y010580D01*
X014939Y010641D01*
X014945Y010702D01*
X014955Y010762D01*
X014968Y010821D01*
X014986Y010879D01*
X015007Y010937D01*
X015032Y010992D01*
X015060Y011046D01*
X015092Y011098D01*
X015127Y011148D01*
X015165Y011195D01*
X015207Y011240D01*
X015251Y011282D01*
X015297Y011321D01*
X015346Y011357D01*
X015398Y011390D01*
X015451Y011420D01*
X015506Y011446D01*
D16*
X017627Y023319D03*
D17*
X015687Y022387D02*
X015687Y021944D01*
X015687Y022387D01*
X015798Y022276D02*
X015576Y022055D01*
X015798Y022276D01*
X015908Y022165D02*
X015465Y022165D01*
X015908Y022165D01*
X015798Y022055D02*
X015576Y022276D01*
X015798Y022055D01*
D18*
X021826Y015500D03*
X004614Y015380D03*
D19*
X007960Y015478D03*
X018480Y015402D03*
D20*
X023960Y015500D03*
X002480Y015380D03*
M02*
