G75*
%MOIN*%
%OFA0B0*%
%FSLAX24Y24*%
%IPPOS*%
%LPD*%
%AMOC8*
5,1,8,0,0,1.08239X$1,22.5*
%
%ADD10R,0.0592X0.0671*%
%ADD11R,0.0710X0.0592*%
%ADD12C,0.0640*%
%ADD13R,0.0671X0.0671*%
%ADD14R,0.0671X0.0592*%
%ADD15R,0.0690X0.0592*%
%ADD16R,0.0828X0.0631*%
%ADD17R,0.0710X0.1261*%
%ADD18R,0.0867X0.0710*%
%ADD19R,0.0190X0.0490*%
%ADD20R,0.0592X0.0710*%
%ADD21OC8,0.0680*%
%ADD22C,0.1182*%
%ADD23C,0.0674*%
%ADD24R,0.0867X0.1064*%
%ADD25R,0.0867X0.1379*%
%ADD26R,0.0277X0.1300*%
%ADD27C,0.0434*%
%ADD28C,0.0680*%
%ADD29C,0.0050*%
%ADD30C,0.0476*%
D10*
X012405Y019120D03*
X013075Y019120D03*
X016885Y022040D03*
X017555Y022040D03*
X020565Y020900D03*
X021235Y020900D03*
X011395Y023060D03*
X010725Y023060D03*
D11*
X008540Y022334D03*
X007700Y022314D03*
X007700Y021566D03*
X008540Y021586D03*
X008940Y025726D03*
X008940Y026474D03*
D12*
X010640Y008500D02*
X010640Y007940D01*
X011640Y007940D02*
X011640Y008500D01*
X013100Y008480D02*
X013100Y007920D01*
X014100Y007920D02*
X014100Y008480D01*
X015600Y008500D02*
X015600Y007940D01*
X016600Y007940D02*
X016600Y008500D01*
D13*
X008540Y022951D03*
X007680Y022951D03*
X007680Y024329D03*
X008540Y024329D03*
D14*
X007980Y025825D03*
X007980Y026495D03*
X018380Y024395D03*
X018380Y023725D03*
D15*
X007185Y024674D03*
X006425Y023686D03*
X004055Y024674D03*
X003295Y023686D03*
X003295Y021914D03*
X006425Y021914D03*
X007185Y026446D03*
X004055Y026446D03*
D16*
X015954Y023712D03*
X017686Y023712D03*
X017686Y022768D03*
X015954Y022768D03*
D17*
X011260Y011486D03*
X013500Y011446D03*
X015880Y011446D03*
X015880Y009714D03*
X013500Y009714D03*
X011260Y009754D03*
D18*
X007920Y019829D03*
X007920Y020931D03*
D19*
G36*
X011403Y021424D02*
X011537Y021290D01*
X011191Y020944D01*
X011057Y021078D01*
X011403Y021424D01*
G37*
G36*
X011537Y021290D02*
X011671Y021156D01*
X011325Y020810D01*
X011191Y020944D01*
X011537Y021290D01*
G37*
G36*
X011678Y021148D02*
X011812Y021014D01*
X011466Y020668D01*
X011332Y020802D01*
X011678Y021148D01*
G37*
G36*
X011820Y021007D02*
X011954Y020873D01*
X011608Y020527D01*
X011474Y020661D01*
X011820Y021007D01*
G37*
G36*
X011954Y020872D02*
X012088Y020738D01*
X011742Y020392D01*
X011608Y020526D01*
X011954Y020872D01*
G37*
G36*
X012096Y020731D02*
X012230Y020597D01*
X011884Y020251D01*
X011750Y020385D01*
X012096Y020731D01*
G37*
G36*
X012237Y020590D02*
X012371Y020456D01*
X012025Y020110D01*
X011891Y020244D01*
X012237Y020590D01*
G37*
G36*
X012378Y020448D02*
X012512Y020314D01*
X012166Y019968D01*
X012032Y020102D01*
X012378Y020448D01*
G37*
G36*
X012513Y020314D02*
X012647Y020180D01*
X012301Y019834D01*
X012167Y019968D01*
X012513Y020314D01*
G37*
G36*
X012654Y020172D02*
X012788Y020038D01*
X012442Y019692D01*
X012308Y019826D01*
X012654Y020172D01*
G37*
G36*
X012796Y020031D02*
X012930Y019897D01*
X012584Y019551D01*
X012450Y019685D01*
X012796Y020031D01*
G37*
G36*
X013990Y019685D02*
X013856Y019551D01*
X013510Y019897D01*
X013644Y020031D01*
X013990Y019685D01*
G37*
G36*
X014132Y019826D02*
X013998Y019692D01*
X013652Y020038D01*
X013786Y020172D01*
X014132Y019826D01*
G37*
G36*
X014273Y019968D02*
X014139Y019834D01*
X013793Y020180D01*
X013927Y020314D01*
X014273Y019968D01*
G37*
G36*
X014408Y020102D02*
X014274Y019968D01*
X013928Y020314D01*
X014062Y020448D01*
X014408Y020102D01*
G37*
G36*
X014549Y020244D02*
X014415Y020110D01*
X014069Y020456D01*
X014203Y020590D01*
X014549Y020244D01*
G37*
G36*
X014690Y020385D02*
X014556Y020251D01*
X014210Y020597D01*
X014344Y020731D01*
X014690Y020385D01*
G37*
G36*
X014832Y020526D02*
X014698Y020392D01*
X014352Y020738D01*
X014486Y020872D01*
X014832Y020526D01*
G37*
G36*
X014966Y020661D02*
X014832Y020527D01*
X014486Y020873D01*
X014620Y021007D01*
X014966Y020661D01*
G37*
G36*
X015108Y020802D02*
X014974Y020668D01*
X014628Y021014D01*
X014762Y021148D01*
X015108Y020802D01*
G37*
G36*
X015249Y020944D02*
X015115Y020810D01*
X014769Y021156D01*
X014903Y021290D01*
X015249Y020944D01*
G37*
G36*
X015383Y021078D02*
X015249Y020944D01*
X014903Y021290D01*
X015037Y021424D01*
X015383Y021078D01*
G37*
G36*
X015249Y022216D02*
X015383Y022082D01*
X015037Y021736D01*
X014903Y021870D01*
X015249Y022216D01*
G37*
G36*
X015115Y022350D02*
X015249Y022216D01*
X014903Y021870D01*
X014769Y022004D01*
X015115Y022350D01*
G37*
G36*
X014974Y022492D02*
X015108Y022358D01*
X014762Y022012D01*
X014628Y022146D01*
X014974Y022492D01*
G37*
G36*
X014832Y022633D02*
X014966Y022499D01*
X014620Y022153D01*
X014486Y022287D01*
X014832Y022633D01*
G37*
G36*
X014698Y022768D02*
X014832Y022634D01*
X014486Y022288D01*
X014352Y022422D01*
X014698Y022768D01*
G37*
G36*
X014556Y022909D02*
X014690Y022775D01*
X014344Y022429D01*
X014210Y022563D01*
X014556Y022909D01*
G37*
G36*
X014415Y023050D02*
X014549Y022916D01*
X014203Y022570D01*
X014069Y022704D01*
X014415Y023050D01*
G37*
G36*
X014274Y023192D02*
X014408Y023058D01*
X014062Y022712D01*
X013928Y022846D01*
X014274Y023192D01*
G37*
G36*
X014139Y023326D02*
X014273Y023192D01*
X013927Y022846D01*
X013793Y022980D01*
X014139Y023326D01*
G37*
G36*
X013998Y023468D02*
X014132Y023334D01*
X013786Y022988D01*
X013652Y023122D01*
X013998Y023468D01*
G37*
G36*
X013856Y023609D02*
X013990Y023475D01*
X013644Y023129D01*
X013510Y023263D01*
X013856Y023609D01*
G37*
G36*
X013722Y023743D02*
X013856Y023609D01*
X013510Y023263D01*
X013376Y023397D01*
X013722Y023743D01*
G37*
G36*
X013064Y023397D02*
X012930Y023263D01*
X012584Y023609D01*
X012718Y023743D01*
X013064Y023397D01*
G37*
G36*
X012930Y023263D02*
X012796Y023129D01*
X012450Y023475D01*
X012584Y023609D01*
X012930Y023263D01*
G37*
G36*
X012788Y023122D02*
X012654Y022988D01*
X012308Y023334D01*
X012442Y023468D01*
X012788Y023122D01*
G37*
G36*
X012647Y022980D02*
X012513Y022846D01*
X012167Y023192D01*
X012301Y023326D01*
X012647Y022980D01*
G37*
G36*
X012512Y022846D02*
X012378Y022712D01*
X012032Y023058D01*
X012166Y023192D01*
X012512Y022846D01*
G37*
G36*
X012371Y022704D02*
X012237Y022570D01*
X011891Y022916D01*
X012025Y023050D01*
X012371Y022704D01*
G37*
G36*
X012230Y022563D02*
X012096Y022429D01*
X011750Y022775D01*
X011884Y022909D01*
X012230Y022563D01*
G37*
G36*
X012088Y022422D02*
X011954Y022288D01*
X011608Y022634D01*
X011742Y022768D01*
X012088Y022422D01*
G37*
G36*
X011954Y022287D02*
X011820Y022153D01*
X011474Y022499D01*
X011608Y022633D01*
X011954Y022287D01*
G37*
G36*
X011812Y022146D02*
X011678Y022012D01*
X011332Y022358D01*
X011466Y022492D01*
X011812Y022146D01*
G37*
G36*
X011671Y022004D02*
X011537Y021870D01*
X011191Y022216D01*
X011325Y022350D01*
X011671Y022004D01*
G37*
G36*
X011537Y021870D02*
X011403Y021736D01*
X011057Y022082D01*
X011191Y022216D01*
X011537Y021870D01*
G37*
G36*
X012930Y019897D02*
X013064Y019763D01*
X012718Y019417D01*
X012584Y019551D01*
X012930Y019897D01*
G37*
G36*
X013856Y019551D02*
X013722Y019417D01*
X013376Y019763D01*
X013510Y019897D01*
X013856Y019551D01*
G37*
D20*
X016986Y019460D03*
X017734Y019460D03*
D21*
X021040Y021720D03*
X022040Y021720D03*
X022040Y022720D03*
X021040Y022720D03*
X021040Y023720D03*
X022040Y023720D03*
X022040Y024720D03*
X021040Y024720D03*
X020600Y009240D03*
X019600Y009240D03*
X018600Y009240D03*
X018600Y008240D03*
X019600Y008240D03*
X020600Y008240D03*
X021600Y008240D03*
X021600Y009240D03*
D22*
X021925Y011957D03*
X021925Y019043D03*
X015840Y024980D03*
X010540Y024980D03*
X004515Y018923D03*
X004515Y011837D03*
D23*
X012586Y013411D03*
X013854Y013531D03*
X013854Y017469D03*
X012586Y017349D03*
D24*
X006028Y007879D03*
X009532Y007879D03*
D25*
X009532Y010202D03*
X006028Y010202D03*
D26*
X007150Y010241D03*
X007465Y010241D03*
X007780Y010241D03*
X008095Y010241D03*
X008410Y010241D03*
D27*
X008646Y009060D03*
X006914Y009060D03*
D28*
X011640Y025640D02*
X011640Y026240D01*
X012640Y026240D02*
X012640Y025640D01*
X013640Y025640D02*
X013640Y026240D01*
X014640Y026240D02*
X014640Y025640D01*
D29*
X020992Y026272D02*
X021010Y026205D01*
X021039Y026143D01*
X021078Y026087D01*
X021127Y026038D01*
X021183Y025999D01*
X021245Y025970D01*
X021312Y025952D01*
X021380Y025946D01*
X021448Y025952D01*
X021515Y025970D01*
X021577Y025999D01*
X021633Y026038D01*
X021682Y026087D01*
X021721Y026143D01*
X021750Y026205D01*
X021768Y026272D01*
X021774Y026340D01*
X021768Y026408D01*
X021750Y026475D01*
X021721Y026537D01*
X021682Y026593D01*
X021633Y026642D01*
X021577Y026681D01*
X021515Y026710D01*
X021448Y026728D01*
X021380Y026734D01*
X021312Y026728D01*
X021245Y026710D01*
X021183Y026681D01*
X021127Y026642D01*
X021078Y026593D01*
X021039Y026537D01*
X021010Y026475D01*
X020992Y026408D01*
X020986Y026340D01*
X020992Y026272D01*
X020990Y026295D02*
X021770Y026295D01*
X021773Y026344D02*
X020987Y026344D01*
X020991Y026392D02*
X021769Y026392D01*
X021759Y026441D02*
X021001Y026441D01*
X021017Y026489D02*
X021743Y026489D01*
X021720Y026538D02*
X021040Y026538D01*
X021074Y026586D02*
X021686Y026586D01*
X021640Y026635D02*
X021120Y026635D01*
X021188Y026683D02*
X021572Y026683D01*
X021404Y026732D02*
X021356Y026732D01*
X020999Y026247D02*
X021761Y026247D01*
X021747Y026198D02*
X021013Y026198D01*
X021036Y026150D02*
X021724Y026150D01*
X021692Y026101D02*
X021068Y026101D01*
X021113Y026053D02*
X021647Y026053D01*
X021584Y026004D02*
X021176Y026004D01*
X021299Y025956D02*
X021461Y025956D01*
X010761Y019737D02*
X010722Y019793D01*
X010673Y019842D01*
X010617Y019881D01*
X010555Y019910D01*
X010488Y019928D01*
X010420Y019934D01*
X010352Y019928D01*
X010285Y019910D01*
X010223Y019881D01*
X010167Y019842D01*
X010118Y019793D01*
X010079Y019737D01*
X010050Y019675D01*
X010032Y019608D01*
X010026Y019540D01*
X010032Y019472D01*
X010050Y019405D01*
X010079Y019343D01*
X010118Y019287D01*
X010167Y019238D01*
X010223Y019199D01*
X010285Y019170D01*
X010352Y019152D01*
X010420Y019146D01*
X010488Y019152D01*
X010555Y019170D01*
X010617Y019199D01*
X010673Y019238D01*
X010722Y019287D01*
X010761Y019343D01*
X010790Y019405D01*
X010808Y019472D01*
X010814Y019540D01*
X010808Y019608D01*
X010790Y019675D01*
X010761Y019737D01*
X010753Y019748D02*
X010087Y019748D01*
X010061Y019699D02*
X010779Y019699D01*
X010796Y019651D02*
X010044Y019651D01*
X010032Y019602D02*
X010808Y019602D01*
X010813Y019554D02*
X010027Y019554D01*
X010029Y019505D02*
X010811Y019505D01*
X010804Y019457D02*
X010036Y019457D01*
X010049Y019408D02*
X010791Y019408D01*
X010769Y019360D02*
X010071Y019360D01*
X010102Y019311D02*
X010738Y019311D01*
X010697Y019263D02*
X010143Y019263D01*
X010202Y019214D02*
X010638Y019214D01*
X010538Y019166D02*
X010302Y019166D01*
X010121Y019796D02*
X010719Y019796D01*
X010669Y019845D02*
X010171Y019845D01*
X010249Y019893D02*
X010591Y019893D01*
X022327Y009682D02*
X022383Y009721D01*
X022445Y009750D01*
X022512Y009768D01*
X022580Y009774D01*
X022648Y009768D01*
X022715Y009750D01*
X022777Y009721D01*
X022833Y009682D01*
X022882Y009633D01*
X022921Y009577D01*
X022950Y009515D01*
X022968Y009448D01*
X022974Y009380D01*
X022968Y009312D01*
X022950Y009245D01*
X022921Y009183D01*
X022882Y009127D01*
X022833Y009078D01*
X022777Y009039D01*
X022715Y009010D01*
X022648Y008992D01*
X022580Y008986D01*
X022512Y008992D01*
X022445Y009010D01*
X022383Y009039D01*
X022327Y009078D01*
X022278Y009127D01*
X022239Y009183D01*
X022210Y009245D01*
X022192Y009312D01*
X022186Y009380D01*
X022192Y009448D01*
X022210Y009515D01*
X022239Y009577D01*
X022278Y009633D01*
X022327Y009682D01*
X022305Y009660D02*
X022855Y009660D01*
X022897Y009611D02*
X022263Y009611D01*
X022232Y009563D02*
X022928Y009563D01*
X022950Y009514D02*
X022210Y009514D01*
X022197Y009466D02*
X022963Y009466D01*
X022970Y009417D02*
X022190Y009417D01*
X022187Y009369D02*
X022973Y009369D01*
X022968Y009320D02*
X022192Y009320D01*
X022203Y009272D02*
X022957Y009272D01*
X022940Y009223D02*
X022220Y009223D01*
X022245Y009175D02*
X022915Y009175D01*
X022881Y009126D02*
X022279Y009126D01*
X022328Y009078D02*
X022832Y009078D01*
X022755Y009029D02*
X022405Y009029D01*
X022365Y009708D02*
X022795Y009708D01*
X022690Y009757D02*
X022470Y009757D01*
X004414Y009060D02*
X004408Y009128D01*
X004390Y009195D01*
X004361Y009257D01*
X004322Y009313D01*
X004273Y009362D01*
X004217Y009401D01*
X004155Y009430D01*
X004088Y009448D01*
X004020Y009454D01*
X003952Y009448D01*
X003885Y009430D01*
X003823Y009401D01*
X003767Y009362D01*
X003718Y009313D01*
X003679Y009257D01*
X003650Y009195D01*
X003632Y009128D01*
X003626Y009060D01*
X003632Y008992D01*
X003650Y008925D01*
X003679Y008863D01*
X003718Y008807D01*
X003767Y008758D01*
X003823Y008719D01*
X003885Y008690D01*
X003952Y008672D01*
X004020Y008666D01*
X004088Y008672D01*
X004155Y008690D01*
X004217Y008719D01*
X004273Y008758D01*
X004322Y008807D01*
X004361Y008863D01*
X004390Y008925D01*
X004408Y008992D01*
X004414Y009060D01*
X004412Y009078D02*
X003628Y009078D01*
X003632Y009126D02*
X004408Y009126D01*
X004395Y009175D02*
X003645Y009175D01*
X003663Y009223D02*
X004377Y009223D01*
X004351Y009272D02*
X003689Y009272D01*
X003725Y009320D02*
X004315Y009320D01*
X004263Y009369D02*
X003777Y009369D01*
X003858Y009417D02*
X004182Y009417D01*
X004411Y009029D02*
X003629Y009029D01*
X003635Y008981D02*
X004405Y008981D01*
X004392Y008932D02*
X003648Y008932D01*
X003670Y008884D02*
X004370Y008884D01*
X004341Y008835D02*
X003699Y008835D01*
X003739Y008787D02*
X004301Y008787D01*
X004244Y008738D02*
X003796Y008738D01*
X003887Y008690D02*
X004153Y008690D01*
D30*
X004940Y009460D03*
X007820Y008180D03*
X010740Y009900D03*
X012340Y010260D03*
X012900Y010260D03*
X016540Y009460D03*
X017740Y009860D03*
X017700Y010420D03*
X016740Y011220D03*
X016620Y011940D03*
X017740Y012500D03*
X017220Y013060D03*
X016340Y013380D03*
X017460Y013540D03*
X017860Y013860D03*
X016900Y014180D03*
X016900Y014660D03*
X016140Y015540D03*
X014380Y016340D03*
X013100Y016740D03*
X011860Y016900D03*
X009940Y017540D03*
X008820Y016180D03*
X008820Y015620D03*
X009700Y016020D03*
X009780Y015460D03*
X010940Y015300D03*
X013220Y014980D03*
X013700Y015380D03*
X013700Y014260D03*
X011860Y013460D03*
X012660Y012340D03*
X014100Y012340D03*
X015220Y011780D03*
X010340Y012100D03*
X008900Y012260D03*
X007700Y011860D03*
X007180Y011860D03*
X006380Y011820D03*
X006740Y011220D03*
X009300Y011300D03*
X008740Y014020D03*
X006300Y014500D03*
X003660Y015540D03*
X004620Y017220D03*
X007060Y017380D03*
X007700Y018580D03*
X005940Y018980D03*
X005780Y020020D03*
X006900Y020420D03*
X005780Y020660D03*
X004740Y020100D03*
X003900Y020660D03*
X004420Y020900D03*
X007140Y020900D03*
X009620Y021300D03*
X010380Y020860D03*
X011140Y019700D03*
X010100Y018820D03*
X011380Y018740D03*
X013540Y018980D03*
X014020Y018740D03*
X014820Y018740D03*
X015700Y018660D03*
X016100Y019300D03*
X015140Y019300D03*
X014420Y019140D03*
X016100Y020100D03*
X017380Y020500D03*
X015540Y020980D03*
X013700Y020820D03*
X013460Y020340D03*
X012820Y020580D03*
X013380Y021620D03*
X013780Y021940D03*
X012820Y021940D03*
X013700Y022420D03*
X014500Y023780D03*
X013300Y023860D03*
X012740Y024420D03*
X012180Y024180D03*
X013700Y024820D03*
X015940Y026260D03*
X018260Y026180D03*
X018820Y026580D03*
X018700Y025620D03*
X017340Y025140D03*
X017300Y024340D03*
X018980Y024020D03*
X019780Y024020D03*
X020100Y023620D03*
X019860Y024980D03*
X022900Y024420D03*
X018020Y022040D03*
X016740Y022820D03*
X016340Y022180D03*
X019820Y019700D03*
X021700Y020420D03*
X023220Y020740D03*
X021180Y018100D03*
X020980Y017140D03*
X019540Y016740D03*
X019060Y016180D03*
X019900Y015700D03*
X018940Y015220D03*
X019900Y014420D03*
X021340Y013540D03*
X021340Y015700D03*
X019300Y017620D03*
X017380Y018020D03*
X017220Y017540D03*
X009220Y019860D03*
X009460Y022100D03*
X010180Y022580D03*
X010180Y023700D03*
X009140Y024100D03*
X009540Y024420D03*
X008660Y025300D03*
X009540Y026500D03*
X004700Y025460D03*
X005940Y023300D03*
X004980Y022420D03*
X021580Y010420D03*
X017500Y008420D03*
X014820Y008180D03*
M02*
