G75*
%MOIN*%
%OFA0B0*%
%FSLAX24Y24*%
%IPPOS*%
%LPD*%
%AMOC8*
5,1,8,0,0,1.08239X$1,22.5*
%
%ADD10C,0.0100*%
%ADD11C,0.0000*%
D10*
X004020Y007380D02*
X022100Y007380D01*
X022178Y007378D01*
X022255Y007380D01*
X022332Y007385D01*
X022409Y007395D01*
X022486Y007408D01*
X022561Y007426D01*
X022636Y007447D01*
X022709Y007472D01*
X022781Y007500D01*
X022852Y007532D01*
X022921Y007568D01*
X022987Y007607D01*
X023052Y007650D01*
X023115Y007696D01*
X023175Y007745D01*
X023232Y007797D01*
X023287Y007851D01*
X023339Y007909D01*
X023388Y007969D01*
X023434Y008031D01*
X023477Y008096D01*
X023516Y008163D01*
X023552Y008231D01*
X023585Y008302D01*
X023613Y008374D01*
X023638Y008447D01*
X023660Y008522D01*
X023677Y008597D01*
X023691Y008674D01*
X023700Y008750D01*
X023706Y008828D01*
X023708Y008905D01*
X023706Y008983D01*
X023700Y009060D01*
X023700Y024820D01*
X023704Y024914D01*
X023705Y025007D01*
X023701Y025101D01*
X023694Y025194D01*
X023683Y025287D01*
X023667Y025379D01*
X023648Y025470D01*
X023625Y025561D01*
X023599Y025650D01*
X023568Y025739D01*
X023534Y025826D01*
X023496Y025911D01*
X023455Y025995D01*
X023410Y026077D01*
X023362Y026157D01*
X023310Y026235D01*
X023255Y026311D01*
X023197Y026384D01*
X023136Y026454D01*
X023072Y026523D01*
X023005Y026588D01*
X022936Y026650D01*
X022863Y026710D01*
X022789Y026766D01*
X022712Y026819D01*
X022633Y026869D01*
X022552Y026916D01*
X022469Y026959D01*
X022384Y026998D01*
X022298Y027034D01*
X022210Y027066D01*
X022121Y027095D01*
X022031Y027119D01*
X021940Y027140D01*
X004900Y027140D01*
X004812Y027144D01*
X004723Y027143D01*
X004635Y027140D01*
X004547Y027132D01*
X004459Y027120D01*
X004372Y027105D01*
X004286Y027086D01*
X004200Y027063D01*
X004116Y027037D01*
X004033Y027007D01*
X003951Y026973D01*
X003871Y026936D01*
X003792Y026896D01*
X003715Y026852D01*
X003640Y026805D01*
X003568Y026755D01*
X003497Y026701D01*
X003429Y026645D01*
X003364Y026586D01*
X003301Y026524D01*
X003240Y026459D01*
X003183Y026392D01*
X003128Y026322D01*
X003077Y026250D01*
X003029Y026176D01*
X002984Y026100D01*
X002942Y026022D01*
X002904Y025942D01*
X002869Y025861D01*
X002838Y025778D01*
X002810Y025694D01*
X002786Y025609D01*
X002766Y025523D01*
X002749Y025436D01*
X002737Y025349D01*
X002728Y025261D01*
X002722Y025172D01*
X002721Y025084D01*
X002723Y024996D01*
X002730Y024908D01*
X002740Y024820D01*
X002740Y008740D01*
X002739Y008668D01*
X002743Y008597D01*
X002751Y008526D01*
X002762Y008455D01*
X002777Y008385D01*
X002796Y008316D01*
X002819Y008248D01*
X002845Y008182D01*
X002875Y008117D01*
X002908Y008054D01*
X002945Y007992D01*
X002985Y007933D01*
X003028Y007876D01*
X003074Y007821D01*
X003123Y007769D01*
X003175Y007720D01*
X003229Y007673D01*
X003286Y007630D01*
X003345Y007589D01*
X003406Y007552D01*
X003469Y007518D01*
X003534Y007488D01*
X003600Y007462D01*
X003668Y007438D01*
X003737Y007419D01*
X003807Y007403D01*
X003877Y007392D01*
X003949Y007384D01*
X004020Y007380D01*
D11*
X006737Y009060D02*
X006739Y009086D01*
X006745Y009112D01*
X006755Y009137D01*
X006768Y009160D01*
X006784Y009180D01*
X006804Y009198D01*
X006826Y009213D01*
X006849Y009225D01*
X006875Y009233D01*
X006901Y009237D01*
X006927Y009237D01*
X006953Y009233D01*
X006979Y009225D01*
X007003Y009213D01*
X007024Y009198D01*
X007044Y009180D01*
X007060Y009160D01*
X007073Y009137D01*
X007083Y009112D01*
X007089Y009086D01*
X007091Y009060D01*
X007089Y009034D01*
X007083Y009008D01*
X007073Y008983D01*
X007060Y008960D01*
X007044Y008940D01*
X007024Y008922D01*
X007002Y008907D01*
X006979Y008895D01*
X006953Y008887D01*
X006927Y008883D01*
X006901Y008883D01*
X006875Y008887D01*
X006849Y008895D01*
X006825Y008907D01*
X006804Y008922D01*
X006784Y008940D01*
X006768Y008960D01*
X006755Y008983D01*
X006745Y009008D01*
X006739Y009034D01*
X006737Y009060D01*
X008469Y009060D02*
X008471Y009086D01*
X008477Y009112D01*
X008487Y009137D01*
X008500Y009160D01*
X008516Y009180D01*
X008536Y009198D01*
X008558Y009213D01*
X008581Y009225D01*
X008607Y009233D01*
X008633Y009237D01*
X008659Y009237D01*
X008685Y009233D01*
X008711Y009225D01*
X008735Y009213D01*
X008756Y009198D01*
X008776Y009180D01*
X008792Y009160D01*
X008805Y009137D01*
X008815Y009112D01*
X008821Y009086D01*
X008823Y009060D01*
X008821Y009034D01*
X008815Y009008D01*
X008805Y008983D01*
X008792Y008960D01*
X008776Y008940D01*
X008756Y008922D01*
X008734Y008907D01*
X008711Y008895D01*
X008685Y008887D01*
X008659Y008883D01*
X008633Y008883D01*
X008607Y008887D01*
X008581Y008895D01*
X008557Y008907D01*
X008536Y008922D01*
X008516Y008940D01*
X008500Y008960D01*
X008487Y008983D01*
X008477Y009008D01*
X008471Y009034D01*
X008469Y009060D01*
X003964Y011837D02*
X003966Y011884D01*
X003972Y011930D01*
X003982Y011976D01*
X003995Y012021D01*
X004013Y012064D01*
X004034Y012106D01*
X004058Y012146D01*
X004086Y012183D01*
X004117Y012218D01*
X004151Y012251D01*
X004187Y012280D01*
X004226Y012306D01*
X004267Y012329D01*
X004310Y012348D01*
X004354Y012364D01*
X004399Y012376D01*
X004445Y012384D01*
X004492Y012388D01*
X004538Y012388D01*
X004585Y012384D01*
X004631Y012376D01*
X004676Y012364D01*
X004720Y012348D01*
X004763Y012329D01*
X004804Y012306D01*
X004843Y012280D01*
X004879Y012251D01*
X004913Y012218D01*
X004944Y012183D01*
X004972Y012146D01*
X004996Y012106D01*
X005017Y012064D01*
X005035Y012021D01*
X005048Y011976D01*
X005058Y011930D01*
X005064Y011884D01*
X005066Y011837D01*
X005064Y011790D01*
X005058Y011744D01*
X005048Y011698D01*
X005035Y011653D01*
X005017Y011610D01*
X004996Y011568D01*
X004972Y011528D01*
X004944Y011491D01*
X004913Y011456D01*
X004879Y011423D01*
X004843Y011394D01*
X004804Y011368D01*
X004763Y011345D01*
X004720Y011326D01*
X004676Y011310D01*
X004631Y011298D01*
X004585Y011290D01*
X004538Y011286D01*
X004492Y011286D01*
X004445Y011290D01*
X004399Y011298D01*
X004354Y011310D01*
X004310Y011326D01*
X004267Y011345D01*
X004226Y011368D01*
X004187Y011394D01*
X004151Y011423D01*
X004117Y011456D01*
X004086Y011491D01*
X004058Y011528D01*
X004034Y011568D01*
X004013Y011610D01*
X003995Y011653D01*
X003982Y011698D01*
X003972Y011744D01*
X003966Y011790D01*
X003964Y011837D01*
X003964Y018923D02*
X003966Y018970D01*
X003972Y019016D01*
X003982Y019062D01*
X003995Y019107D01*
X004013Y019150D01*
X004034Y019192D01*
X004058Y019232D01*
X004086Y019269D01*
X004117Y019304D01*
X004151Y019337D01*
X004187Y019366D01*
X004226Y019392D01*
X004267Y019415D01*
X004310Y019434D01*
X004354Y019450D01*
X004399Y019462D01*
X004445Y019470D01*
X004492Y019474D01*
X004538Y019474D01*
X004585Y019470D01*
X004631Y019462D01*
X004676Y019450D01*
X004720Y019434D01*
X004763Y019415D01*
X004804Y019392D01*
X004843Y019366D01*
X004879Y019337D01*
X004913Y019304D01*
X004944Y019269D01*
X004972Y019232D01*
X004996Y019192D01*
X005017Y019150D01*
X005035Y019107D01*
X005048Y019062D01*
X005058Y019016D01*
X005064Y018970D01*
X005066Y018923D01*
X005064Y018876D01*
X005058Y018830D01*
X005048Y018784D01*
X005035Y018739D01*
X005017Y018696D01*
X004996Y018654D01*
X004972Y018614D01*
X004944Y018577D01*
X004913Y018542D01*
X004879Y018509D01*
X004843Y018480D01*
X004804Y018454D01*
X004763Y018431D01*
X004720Y018412D01*
X004676Y018396D01*
X004631Y018384D01*
X004585Y018376D01*
X004538Y018372D01*
X004492Y018372D01*
X004445Y018376D01*
X004399Y018384D01*
X004354Y018396D01*
X004310Y018412D01*
X004267Y018431D01*
X004226Y018454D01*
X004187Y018480D01*
X004151Y018509D01*
X004117Y018542D01*
X004086Y018577D01*
X004058Y018614D01*
X004034Y018654D01*
X004013Y018696D01*
X003995Y018739D01*
X003982Y018784D01*
X003972Y018830D01*
X003966Y018876D01*
X003964Y018923D01*
X009989Y024980D02*
X009991Y025027D01*
X009997Y025073D01*
X010007Y025119D01*
X010020Y025164D01*
X010038Y025207D01*
X010059Y025249D01*
X010083Y025289D01*
X010111Y025326D01*
X010142Y025361D01*
X010176Y025394D01*
X010212Y025423D01*
X010251Y025449D01*
X010292Y025472D01*
X010335Y025491D01*
X010379Y025507D01*
X010424Y025519D01*
X010470Y025527D01*
X010517Y025531D01*
X010563Y025531D01*
X010610Y025527D01*
X010656Y025519D01*
X010701Y025507D01*
X010745Y025491D01*
X010788Y025472D01*
X010829Y025449D01*
X010868Y025423D01*
X010904Y025394D01*
X010938Y025361D01*
X010969Y025326D01*
X010997Y025289D01*
X011021Y025249D01*
X011042Y025207D01*
X011060Y025164D01*
X011073Y025119D01*
X011083Y025073D01*
X011089Y025027D01*
X011091Y024980D01*
X011089Y024933D01*
X011083Y024887D01*
X011073Y024841D01*
X011060Y024796D01*
X011042Y024753D01*
X011021Y024711D01*
X010997Y024671D01*
X010969Y024634D01*
X010938Y024599D01*
X010904Y024566D01*
X010868Y024537D01*
X010829Y024511D01*
X010788Y024488D01*
X010745Y024469D01*
X010701Y024453D01*
X010656Y024441D01*
X010610Y024433D01*
X010563Y024429D01*
X010517Y024429D01*
X010470Y024433D01*
X010424Y024441D01*
X010379Y024453D01*
X010335Y024469D01*
X010292Y024488D01*
X010251Y024511D01*
X010212Y024537D01*
X010176Y024566D01*
X010142Y024599D01*
X010111Y024634D01*
X010083Y024671D01*
X010059Y024711D01*
X010038Y024753D01*
X010020Y024796D01*
X010007Y024841D01*
X009997Y024887D01*
X009991Y024933D01*
X009989Y024980D01*
X015289Y024980D02*
X015291Y025027D01*
X015297Y025073D01*
X015307Y025119D01*
X015320Y025164D01*
X015338Y025207D01*
X015359Y025249D01*
X015383Y025289D01*
X015411Y025326D01*
X015442Y025361D01*
X015476Y025394D01*
X015512Y025423D01*
X015551Y025449D01*
X015592Y025472D01*
X015635Y025491D01*
X015679Y025507D01*
X015724Y025519D01*
X015770Y025527D01*
X015817Y025531D01*
X015863Y025531D01*
X015910Y025527D01*
X015956Y025519D01*
X016001Y025507D01*
X016045Y025491D01*
X016088Y025472D01*
X016129Y025449D01*
X016168Y025423D01*
X016204Y025394D01*
X016238Y025361D01*
X016269Y025326D01*
X016297Y025289D01*
X016321Y025249D01*
X016342Y025207D01*
X016360Y025164D01*
X016373Y025119D01*
X016383Y025073D01*
X016389Y025027D01*
X016391Y024980D01*
X016389Y024933D01*
X016383Y024887D01*
X016373Y024841D01*
X016360Y024796D01*
X016342Y024753D01*
X016321Y024711D01*
X016297Y024671D01*
X016269Y024634D01*
X016238Y024599D01*
X016204Y024566D01*
X016168Y024537D01*
X016129Y024511D01*
X016088Y024488D01*
X016045Y024469D01*
X016001Y024453D01*
X015956Y024441D01*
X015910Y024433D01*
X015863Y024429D01*
X015817Y024429D01*
X015770Y024433D01*
X015724Y024441D01*
X015679Y024453D01*
X015635Y024469D01*
X015592Y024488D01*
X015551Y024511D01*
X015512Y024537D01*
X015476Y024566D01*
X015442Y024599D01*
X015411Y024634D01*
X015383Y024671D01*
X015359Y024711D01*
X015338Y024753D01*
X015320Y024796D01*
X015307Y024841D01*
X015297Y024887D01*
X015291Y024933D01*
X015289Y024980D01*
X021374Y019043D02*
X021376Y019090D01*
X021382Y019136D01*
X021392Y019182D01*
X021405Y019227D01*
X021423Y019270D01*
X021444Y019312D01*
X021468Y019352D01*
X021496Y019389D01*
X021527Y019424D01*
X021561Y019457D01*
X021597Y019486D01*
X021636Y019512D01*
X021677Y019535D01*
X021720Y019554D01*
X021764Y019570D01*
X021809Y019582D01*
X021855Y019590D01*
X021902Y019594D01*
X021948Y019594D01*
X021995Y019590D01*
X022041Y019582D01*
X022086Y019570D01*
X022130Y019554D01*
X022173Y019535D01*
X022214Y019512D01*
X022253Y019486D01*
X022289Y019457D01*
X022323Y019424D01*
X022354Y019389D01*
X022382Y019352D01*
X022406Y019312D01*
X022427Y019270D01*
X022445Y019227D01*
X022458Y019182D01*
X022468Y019136D01*
X022474Y019090D01*
X022476Y019043D01*
X022474Y018996D01*
X022468Y018950D01*
X022458Y018904D01*
X022445Y018859D01*
X022427Y018816D01*
X022406Y018774D01*
X022382Y018734D01*
X022354Y018697D01*
X022323Y018662D01*
X022289Y018629D01*
X022253Y018600D01*
X022214Y018574D01*
X022173Y018551D01*
X022130Y018532D01*
X022086Y018516D01*
X022041Y018504D01*
X021995Y018496D01*
X021948Y018492D01*
X021902Y018492D01*
X021855Y018496D01*
X021809Y018504D01*
X021764Y018516D01*
X021720Y018532D01*
X021677Y018551D01*
X021636Y018574D01*
X021597Y018600D01*
X021561Y018629D01*
X021527Y018662D01*
X021496Y018697D01*
X021468Y018734D01*
X021444Y018774D01*
X021423Y018816D01*
X021405Y018859D01*
X021392Y018904D01*
X021382Y018950D01*
X021376Y018996D01*
X021374Y019043D01*
X021374Y011957D02*
X021376Y012004D01*
X021382Y012050D01*
X021392Y012096D01*
X021405Y012141D01*
X021423Y012184D01*
X021444Y012226D01*
X021468Y012266D01*
X021496Y012303D01*
X021527Y012338D01*
X021561Y012371D01*
X021597Y012400D01*
X021636Y012426D01*
X021677Y012449D01*
X021720Y012468D01*
X021764Y012484D01*
X021809Y012496D01*
X021855Y012504D01*
X021902Y012508D01*
X021948Y012508D01*
X021995Y012504D01*
X022041Y012496D01*
X022086Y012484D01*
X022130Y012468D01*
X022173Y012449D01*
X022214Y012426D01*
X022253Y012400D01*
X022289Y012371D01*
X022323Y012338D01*
X022354Y012303D01*
X022382Y012266D01*
X022406Y012226D01*
X022427Y012184D01*
X022445Y012141D01*
X022458Y012096D01*
X022468Y012050D01*
X022474Y012004D01*
X022476Y011957D01*
X022474Y011910D01*
X022468Y011864D01*
X022458Y011818D01*
X022445Y011773D01*
X022427Y011730D01*
X022406Y011688D01*
X022382Y011648D01*
X022354Y011611D01*
X022323Y011576D01*
X022289Y011543D01*
X022253Y011514D01*
X022214Y011488D01*
X022173Y011465D01*
X022130Y011446D01*
X022086Y011430D01*
X022041Y011418D01*
X021995Y011410D01*
X021948Y011406D01*
X021902Y011406D01*
X021855Y011410D01*
X021809Y011418D01*
X021764Y011430D01*
X021720Y011446D01*
X021677Y011465D01*
X021636Y011488D01*
X021597Y011514D01*
X021561Y011543D01*
X021527Y011576D01*
X021496Y011611D01*
X021468Y011648D01*
X021444Y011688D01*
X021423Y011730D01*
X021405Y011773D01*
X021392Y011818D01*
X021382Y011864D01*
X021376Y011910D01*
X021374Y011957D01*
M02*
