# Blender v2.78 (sub 0) OBJ File: ''
# www.blender.org
mtllib border_16-9.mtl
o Plane_Plane.003
v -0.500277 -0.281474 -0.000000
v 0.500723 -0.281474 -0.000000
v -0.500277 0.281486 0.000000
v 0.500723 0.281486 0.000000
v -0.479731 -0.265037 -0.000000
v -0.479731 0.265049 0.000000
v 0.484286 -0.265037 -0.000000
v 0.484286 0.265049 0.000000
vn -0.0000 0.0000 -1.0000
usemtl None
s off
f 3//1 5//1 1//1
f 4//1 7//1 8//1
f 2//1 5//1 7//1
f 4//1 6//1 3//1
f 3//1 6//1 5//1
f 4//1 2//1 7//1
f 2//1 1//1 5//1
f 4//1 8//1 6//1
