# Blender v2.78 (sub 0) OBJ File: ''
# www.blender.org
o Circle
v 0.000000 0.000000 -1.000000
v -0.500000 0.000000 -0.866025
v -0.866025 0.000000 -0.500000
v -1.000000 0.000000 0.000000
v -0.866025 0.000000 0.500000
v -0.500000 0.000000 0.866025
v -0.000000 0.000000 1.000000
v 0.500000 0.000000 0.866026
v 0.866025 0.000000 0.500000
v 1.000000 0.000000 0.000000
v 0.866026 0.000000 -0.499999
v 0.500001 0.000000 -0.866025
v 0.000000 0.000000 -1.000000
v 0.000000 0.500000 -0.866025
v 0.000000 0.866025 -0.500000
v 0.000000 1.000000 0.000000
v 0.000000 0.866025 0.500000
v 0.000000 0.500000 0.866025
v 0.000000 0.000000 1.000000
v 0.000000 -0.500000 0.866025
v 0.000000 -0.866025 0.500000
v 0.000000 -1.000000 0.000000
v 0.000000 -0.866026 -0.499999
v 0.000000 -0.500001 -0.866025
v -1.000000 0.000000 0.000000
v -0.866025 0.500000 0.000000
v -0.500000 0.866025 0.000000
v -0.000000 1.000000 0.000000
v 0.500000 0.866025 0.000000
v 0.866025 0.500000 0.000000
v 1.000000 0.000000 0.000000
v 0.866025 -0.500000 0.000000
v 0.500000 -0.866025 0.000000
v 0.000000 -1.000000 0.000000
v -0.500000 -0.866026 0.000000
v -0.866025 -0.500001 0.000000
vn 0.0000 1.0000 0.0000
vn 1.0000 -0.0000 -0.0000
vn -0.0000 0.0000 -1.0000
s off
f 7//1 9//1 1//1
f 1//1 2//1 3//1
f 3//1 4//1 5//1
f 5//1 6//1 7//1
f 7//1 8//1 9//1
f 9//1 10//1 11//1
f 11//1 12//1 1//1
f 1//1 3//1 5//1
f 5//1 7//1 1//1
f 9//1 11//1 1//1
f 19//2 21//2 13//2
f 13//2 14//2 15//2
f 15//2 16//2 17//2
f 17//2 18//2 19//2
f 19//2 20//2 21//2
f 21//2 22//2 23//2
f 23//2 24//2 13//2
f 13//2 15//2 17//2
f 17//2 19//2 13//2
f 21//2 23//2 13//2
f 31//3 33//3 25//3
f 25//3 26//3 27//3
f 27//3 28//3 29//3
f 29//3 30//3 31//3
f 31//3 32//3 33//3
f 33//3 34//3 35//3
f 35//3 36//3 25//3
f 25//3 27//3 29//3
f 29//3 31//3 25//3
f 33//3 35//3 25//3
